<svg xmlns="http://www.w3.org/2000/svg" width="365" height="285" fill="none"><path fill="#7F542D" d="M132.08 121.685c.194-8.18 4.736-14.524 6.749-17.585 2.013-3.061-1.248-5.3922 0-12.0743 1.916-10.2512 11.874-4.4939 11.874-20.9973 0-5.1321 1.011-6.2262 1.011-6.2262s-7.47-19.8771 6.082-26.468c0 0 1.206-8.4406 13.52-12.218 12.315-3.7775 23.402 11.5927 15.426 33.8665l-.603 17.5846c1.154.2549 2.208.9592 3.001 2.0055.792 1.0464 1.281 2.3775 1.391 3.7909.904 7.4506 8.773 2.8135 9.182 22.1433l-67.633 16.178Z"/><path fill="#704725" d="M160.691 95.5426c-6.114 2.2925-10.915 1.8757-10.915-4.7413 0-6.2002 6.341-9.5087 5.307-19.5384-1.033-10.0297.571-14.8752 3.38-19.2388 2.81-4.3636 6.857-19.2128 16.825-16.5816 9.968 2.6312 11.453 24.4751 11.453 24.4751l-5.263 20.333s6.458 10.8372 4.564 14.784c-1.895 3.9468-25.351.508-25.351.508Z"/><path stroke="#A56F42" stroke-linecap="round" stroke-linejoin="round" stroke-width=".61" d="M184.578 81.1753s5.038.0912 3.746 7.9456c-.457 2.6802-.155 5.4685.856 7.9163 1.011 2.4477 2.674 4.4128 4.72 5.5778M157.796 43.9614c-5.597 7.9456-3.434 15.8652-3.434 15.8652M152.361 85.9688c-6.082 3.7643-9.624 11.1368-5.835 18.2362.775 1.395 1.286 2.98 1.496 4.642.21 1.661.115 3.359-.279 4.97M157.796 38.334s4.499 1.5761 5.791 4.9497M166.85 37.839s10.064-11.202 17.277-1.042"/><path fill="#FEBD9D" d="M189.551 73.6076c.215 14.1197-7.782 17.6887-11.636 17.9753-8.838.3777-17.019-11.7231-19.753-16.3081-.097-.9508-.204-1.9147-.334-2.9047-5.253 1.3026-7.405-1.6151-7.998-6.0959-.592-4.4809 3.93-9.6781 9.785-3.9077 5.49-4.585 6.254-10.9415 5.103-16.5946 1.294-2.2518 3.15-3.9439 5.296-4.8297 2.145-.8857 4.469-.9187 6.631-.094 6.135 2.1622 10.409 12.3092 12.099 23.3679.384 2.5225.636 5.072.753 7.633.022.5862.043 1.1723.054 1.7585Z"/><path fill="#7F542D" d="M180.262 48.6896c.193 1.8757 4.198 2.1753 5.995 1.0812 1.798-1.0942-6.491-6.4347-5.995-1.0812ZM167.861 52.7143c-.312 1.6673 3.617-.521 5.049-.6513 1.432-.1302 2.153-.8857 1.464-3.0089-.689-2.1232-5.856.0782-6.513 3.6602Z"/><path fill="#683F1D" d="M175.708 62.3793c.654 0 1.185-.6415 1.185-1.4328 0-.7913-.531-1.4328-1.185-1.4328-.653 0-1.184.6415-1.184 1.4328 0 .7913.531 1.4328 1.184 1.4328ZM184.072 58.7714c.654 0 1.184-.6415 1.184-1.4328 0-.7913-.53-1.4328-1.184-1.4328-.654 0-1.184.6415-1.184 1.4328 0 .7913.53 1.4328 1.184 1.4328Z"/><path stroke="#EF8A66" stroke-linecap="round" stroke-linejoin="round" stroke-width=".61" d="M180.498 56.5698c-.086 4.2724 1.615 5.7443 2.035 6.2393.958 1.1332 3.229 0 2.153 4.1551"/><path fill="#fff" stroke="#EF8A66" stroke-linecap="round" stroke-linejoin="round" stroke-width=".61" d="M176.408 74.337c1.529-1.8367 7.331-1.4589 7.987-.7295.657.7294-.452 3.9077-2.971 3.9077s-5.726-2.3055-5.016-3.1782Z"/><path stroke="#EF8A66" stroke-linecap="round" stroke-linejoin="round" stroke-width=".61" d="M153.136 66.7431c1.335-2.3707 4.112-1.5761 5.22-.3908-3.584-.7164-3.918 4.1161.108 2.8396"/><path fill="#F4AF90" d="M176.796 71.1197c-.571 2.019-3.553 2.6051-6.685 1.3026-3.133-1.3026-5.199-3.9077-4.64-5.9527.56-2.045 3.553-2.6051 6.674-1.3026 3.122 1.3026 5.21 3.9338 4.651 5.9527ZM189.454 71.8231c-1.475.3387-2.702 0-3.229-.9769-.894-1.6022.215-4.4548 2.519-6.6431.369 2.5194.606 5.0644.71 7.62Z"/><path fill="#C3DCF8" d="M154.621 73.6077c-.002.6179.148 1.2226.431 1.7371.283.5144.686.9154 1.157 1.1519.472.2364.991.2976 1.492.1757.501-.1218.96-.4212 1.32-.86.359-.4387.603-.9971.699-1.6039.097-.6068.042-1.2346-.158-1.8035-.199-.5688-.534-1.0531-.961-1.391-.428-.3379-.929-.5142-1.439-.5064-.675.0102-1.32.3409-1.795.9208-.475.5799-.743 1.3626-.746 2.1793Z"/><path fill="#FEBD9D" d="m258.347 117.621-12.552 19.669s-16.792 81.709-25.242 88.574c-2.675 2.136-5.741 3.446-8.932 3.816-3.19.371-6.406-.211-9.368-1.693.005-.048.005-.096 0-.143 0-.196-7.535-7.633-6.049-18.874.129-1.042 16.9-36.12 24.09-51.569 5.749-12.452 12.735-26.676 12.735-26.676l25.318-13.104Z"/><path fill="#FEBD9D" d="M233.04 130.75s.98-18.457 1.324-20.528c.345-2.071 10.646-14.0675 12.11-15.0184 1.464-.9508 10.592 2.3186 11.335 3.3216.743 1.0029-.097 3.3868-2.551 3.2038-2.454-.182-.345 7.008-.345 7.008s3.972 5.08 3.38 8.884c0 0-15.393 18.77-15.587 18.704-.193-.065-9.666-5.575-9.666-5.575Z"/><path fill="#FEBD9D" d="M233.04 130.75s.98-18.457 1.324-20.528c.345-2.071 10.646-14.0675 12.11-15.0184 1.464-.9508 10.592 2.3186 11.335 3.3216.743 1.0029-.097 3.3868-2.551 3.2038-2.454-.182-.345 7.008-.345 7.008s3.972 5.08 3.38 8.884c0 0-15.393 18.77-15.587 18.704-.193-.065-9.666-5.575-9.666-5.575Z"/><path stroke="#EF8A66" stroke-linecap="round" stroke-linejoin="round" stroke-width=".61" d="M234.363 110.222c.302-2.11 10.646-14.0675 12.143-15.0184 1.496-.9508 10.592 2.3186 11.334 3.3216.743 1.0029-.096 3.3868-2.551 3.2038"/><path fill="#FEBD9D" stroke="#EF8A66" stroke-linecap="round" stroke-linejoin="round" stroke-width=".61" d="M249.078 102.628c.14-.417 5.888-2.7351 6.868-2.318.979.417 5.683 9.912 5.834 11.801.151 1.889-2.088 10.238-4.123 9.496-2.034-.743.086-7.816.086-7.816l-8.665-11.163Z"/><path fill="#FEBD9D" stroke="#EF8A66" stroke-linecap="round" stroke-linejoin="round" stroke-width=".61" d="M253.05 119.067c1.658 1.302 3.596-1.746 4.694-5.211l-3.703-3.699s-3.445 6.943-.991 8.91Z"/><path fill="#683F1D" d="m258.627 111.121 1.205 3.647c.036.108.046.225.031.34-.016.114-.057.221-.119.309-.061.089-.142.155-.233.192-.091.037-.188.044-.281.019l-3.176-.808-26.502-27.0277c-.2-.2042-.365-.4542-.486-.7357-.12-.2815-.193-.5889-.215-.9047-.022-.3158.007-.6337.087-.9356.08-.3019.208-.5818.377-.8237.341-.4922.83-.8003 1.359-.8565.529-.0561 1.055.1442 1.461.5569l26.492 27.028Z"/><path fill="#FEBD9D" d="M241.479 109.48c2.981-5.21 6.254-9.3 7.847-9.7693 2.4-.7033 2.938 2.7353-2.702 12.7003.916 2.842 1.058 5.965.406 8.912-.653 2.948-2.066 5.566-4.034 7.474"/><path stroke="#EF8A66" stroke-linecap="round" stroke-linejoin="round" stroke-width=".61" d="M241.479 109.48c2.981-5.21 6.254-9.3 7.847-9.7693 2.4-.7033 2.938 2.7353-2.702 12.7003.916 2.842 1.058 5.965.406 8.912-.653 2.948-2.066 5.566-4.034 7.474"/><path fill="#FED81D" d="M217.291 170.635c-.183 1.042-1.529 4.038-1.722 5.067-3.919 20.138-10.464 39.611-13.305 52.233-.798 3.661-1.441 7.37-1.927 11.111-1.432 10.55-1.884 20.476-1.884 20.476l-64.468-1.459-7.804-.169.301-39.898.065-8.388s-18.429-1.537-18.569-1.081c-.14.455.894-12.192.894-12.192-6.039-8.389-6.459-20.672-4.92-28.071 1.001-4.949 5.103-18.235 9.311-29.424 1.683-4.685 3.655-9.209 5.899-13.534 5.296-9.483 8.612-10.199 15.523-11.918 6.91-1.72 18.73-9.249 18.73-9.249l22.368-3.035s11.712.99 22.153.456c9.925-.508 15.501 2.202 19.861 13.26.226.574.463 1.186.689 1.824 3.229 9.118 6.114 22.052 7.535 28.748-4.478 12.947-8.73 25.243-8.73 25.243Z"/><path fill="#FFE05C" d="M217.797 114.755c-9.15-1.198-14.866 7.985-21.583 25.387-8.019 20.724-25.511 23.577-42.261 7.334-14.758-14.328-25.576-17.702-40.689-8.701 1.682-4.685 3.654-9.209 5.899-13.534 5.296-9.483 8.611-10.199 15.522-11.918 6.911-1.72 18.73-9.248 18.73-9.248l22.368-3.035s11.712.989 22.154.455c9.924-.508 15.5 2.202 19.86 13.26Z"/><path fill="#FCC71F" d="m135.837 203.838 5.985-46.228c1.668 3.1 6.265 7.398 4.779 16.139-3.778 22.078 8.827 4.598 13.736 15.213 2.034 4.377-15.189 11.632-24.5 14.876Z"/><path fill="#fff" d="M157.689 100.896c-1.733-.9117-4.306 2.084-4.306 3.178 0 1.094 2.54 10.655 5.931 15.149s9.57 5.445 11.916-5.054c6.265 7.894 12.39 4.924 11.54-4.676-.851-9.5999-6.459-11.4495-6.459-11.4495l-18.622 2.8525Z"/><path stroke="#F7AD2B" stroke-linecap="round" stroke-linejoin="round" stroke-width=".61" d="m135.298 208.006.538-4.168 5.985-46.267 1.873-14.459M108.871 196.27c9.155-3.559 18.826-4.748 28.386-3.491"/><path fill="#fff" d="M174.696 129.618c1.326 0 2.401-1.301 2.401-2.905 0-1.604-1.075-2.905-2.401-2.905-1.325 0-2.4 1.301-2.4 2.905 0 1.604 1.075 2.905 2.4 2.905ZM177.107 141.809c1.326 0 2.401-1.3 2.401-2.904 0-1.605-1.075-2.905-2.401-2.905-1.325 0-2.4 1.3-2.4 2.905 0 1.604 1.075 2.904 2.4 2.904Z"/><path fill="#FEBD9D" d="M114.103 237.066c-10.129-4.22-7.007-23.029-5.834-32.864l11.313-3.308 17.331-5.054s2.939 46.136-22.81 41.226ZM177.914 91.596c0 .2605-.151 5.119-.258 8.61 0 1.537-.097 2.813-.119 3.295-.064 1.616-2.895 8.337-8.816 6.513-5.92-1.823-10.893-7.985-11.044-9.118-.151-1.133 2.562-10.4202 1.076-24.566 5.21-7.2944 20.345-2.7224 19.161 15.266Z"/><path fill="#F4A789" d="M177.915 91.5828s-.151 5.0279-.269 8.6232c-4.069-.6775-11.841-3.5953-11.357-16.204 1.712 3.087 7.568 7.8023 11.626 7.5808Z"/><path fill="#F9F9F9" d="M227.345 164.461c-.066-.005-.129-.028-.187-.066-.058-.038-.108-.091-.147-.155l-19.666-33.802c-.036-.062-.061-.132-.074-.205-.013-.074-.014-.151-.002-.225.015-.071.042-.138.079-.196.037-.058.084-.107.137-.142 1.242-.957 2.664-1.517 4.133-1.628 3.23 0 6.459 3.595 11.184 12.413 8.806 16.36 5.975 22.378 4.898 23.824-.041.057-.093.103-.15.135-.058.031-.12.047-.183.047h-.022Z"/><path fill="#DDD" d="M211.618 128.562c2.788 0 5.824 2.918 10.765 12.192 7.319 13.612 6.824 20.62 4.93 23.173l-19.559-33.802c1.173-.919 2.523-1.457 3.918-1.563m0-1.055c-1.53.116-3.012.699-4.306 1.694-.105.075-.197.177-.27.297-.072.12-.124.257-.151.402-.027.145-.029.295-.007.442.022.146.069.285.138.409l19.666 33.788c.079.132.18.241.297.319.118.079.248.126.381.137.124.001.247-.03.36-.09.113-.061.215-.15.297-.262 1.076-1.524 4.123-7.815-4.855-24.475-4.844-9-8.191-12.661-11.55-12.661Z"/><path fill="#F9F9F9" d="M235.429 170.635c-.083.001-.165-.026-.237-.078l-8.063-6.174c-.055-.048-.101-.111-.134-.183s-.054-.151-.059-.234c-.005-.079.005-.159.029-.234.025-.074.062-.141.111-.196.879-.977 2.035-1.508 3.229-1.484.897.038 1.778.302 2.586.775.808.473 1.526 1.145 2.107 1.973 2.239 2.996.872 5.601.851 5.627-.048.077-.112.138-.186.174-.074.037-.155.049-.234.034Z"/><path fill="#DDD" d="M230.251 162.585c.838.045 1.659.3 2.411.748s1.42 1.081 1.96 1.857c2.034 2.723.807 4.976.807 4.976l-8.063-6.213c.796-.85 1.824-1.314 2.885-1.303m0-1.068c-1.282-.005-2.518.571-3.466 1.615-.102.111-.181.248-.231.402-.051.154-.071.319-.06.484.012.162.054.319.123.459s.163.259.276.349l8.062 6.213c.143.105.307.163.474.169.146.001.289-.042.417-.126.128-.085.236-.207.315-.356.075-.13 1.571-2.983-.883-6.278-.618-.897-1.385-1.627-2.251-2.143-.866-.516-1.811-.807-2.776-.853v.065Z"/><path fill="#F9F9F9" stroke="#DDD" stroke-linecap="round" stroke-linejoin="round" stroke-width=".82" d="m165.052 158.508 44.478-31.795s14.801 18.77 17.837 37.214l-47.202 29.633s-5.21-20.32-15.113-35.052Z"/><path fill="#DDD" stroke="#DDD" stroke-miterlimit="10" stroke-width=".82" d="m182.393 192.167 11.367 4.103 41.647-26.13c-2.216-2.853-4.988-4.989-8.062-6.213l-44.952 28.24Z"/><path fill="#FEBD9D" d="M203.34 175.116c-.43 2.423-4.467 2.996-6.943 2.801-2.475-.196-10.764.39-10.764.39s4.564 2.983 5.048 3.543c1.485 2.67 2.638 5.588 3.424 8.662 1.194 4.455.301 7.125-.905 6.8-1.205-.326-1.625-2.605-1.625-2.605-.42 2.982-1.948.508-1.948.508 0 .95-3.779 9.118-5.307 7.437-1.529-1.68.613-5.783.613-5.783h-1.561c-2.867 2.886-5.892 5.536-9.052 7.932-2.9 2.042-6.073 3.448-9.376 4.156 0 0-7.299 6.252-16.491 12.921-11.346 8.258-25.598 17.168-32.498 15.787-1.799-.27-3.499-1.146-4.908-2.528-1.408-1.381-2.467-3.213-3.058-5.287.005-.065.005-.131 0-.196 0-.156-.118-.39-.194-.69-1.076-4.285-3.38-22.678 29.064-33.098l.205-.065 23.219-6.93c4.844-5.979 15.619-17.61 17.395-18.236 1.776-.625 26.082 2.058 25.662 4.481Z"/><path stroke="#EF8A66" stroke-linecap="round" stroke-linejoin="round" stroke-width=".61" d="M184.977 196.817s-2.153 4.129-.614 5.783c1.54 1.654 5.307-6.513 5.307-7.438 0 0 1.529 2.475 1.948-.508 0 0 .42 2.345 1.626 2.671 1.206.325 2.099-2.358.893-6.813-.772-3.073-1.923-5.989-3.412-8.649-.474-.573-5.048-3.556-5.048-3.556s8.245-.573 10.764-.39c2.519.182 6.523-.378 6.943-2.801.42-2.423-23.865-5.08-25.652-4.442-.893.313-4.036 3.387-7.535 7.125M185.677 178.307l-4.134-1.98"/><path stroke="#EF8A66" stroke-linecap="round" stroke-linejoin="round" stroke-width=".61" d="M182.619 182.97s6.599 3.426 7.051 4.598c.946 2.227 1.603 4.617 1.948 7.086M183.361 188.871s4.898 3.66 5.49 4.377c.403.568.684 1.248.818 1.98"/></svg>