<svg width="518" height="406" viewBox="0 0 518 406" fill="none" xmlns="http://www.w3.org/2000/svg">
<path d="M190.32 346.453V348.592L228.801 354.005L276.878 363.796C276.878 363.796 279.468 361.59 274.605 357.761C269.743 353.931 242.826 349.011 229.151 351.731C229.151 351.691 215.249 341.372 190.32 346.453Z" fill="#EDEDED" stroke="#DDDDDD" stroke-linecap="round" stroke-linejoin="round"/>
<path d="M185.924 347.062C185.924 347.062 216.123 345.54 225.292 353.234C229.177 356.482 232.116 354.019 236.526 353.91C240.935 353.802 264.744 351.021 277.966 364.818L302.441 344.281C302.441 344.281 287.789 327.554 261.824 337.562C261.824 337.562 254.054 327.73 225.952 332.69C225.706 333.055 185.924 347.062 185.924 347.062Z" fill="#F9F9F9" stroke="#EDEDED" stroke-linecap="round" stroke-linejoin="round"/>
<path d="M261.83 337.582L228.121 351.691" stroke="#EDEDED" stroke-linecap="round" stroke-linejoin="round"/>
<path d="M470.785 148.102V348.916C437.614 338.827 393.085 332.237 344.522 328.339V148.102H470.785Z" fill="#F9F9F9" stroke="#DDDDDD" stroke-linecap="round" stroke-linejoin="round"/>
<path d="M470.784 202.986H461.558V237.212" stroke="#EDEDED" stroke-linecap="round" stroke-linejoin="round"/>
<path d="M409.674 234.993V200.855L401.438 201.362V236.481" stroke="#EDEDED" stroke-linecap="round" stroke-linejoin="round"/>
<path d="M392.495 238.816V203.866L401.437 203.521" stroke="#EDEDED" stroke-linecap="round" stroke-linejoin="round"/>
<path d="M385.561 238.816L385.088 207.412H392.495V238.816" fill="#EDEDED"/>
<path d="M385.561 238.816L385.088 207.412H392.495V238.816" stroke="#DDDDDD" stroke-linecap="round" stroke-linejoin="round"/>
<path d="M353.205 238.816L344.503 208.217L351.243 206.58" stroke="#DDDDDD" stroke-width="0.75" stroke-linecap="round" stroke-linejoin="round"/>
<path d="M360.16 238.68C360.082 238.816 350.285 203.088 350.285 203.088L358.217 202.492L368.752 238.816" fill="#EDEDED"/>
<path d="M360.16 238.68C360.082 238.816 350.285 203.088 350.285 203.088L358.217 202.492L368.752 238.816" stroke="#DDDDDD" stroke-linecap="round" stroke-linejoin="round"/>
<path d="M360.956 211.925L371.051 210.728L382.557 238.816" stroke="#DDDDDD" stroke-width="0.75" stroke-linecap="round" stroke-linejoin="round"/>
<path d="M390.754 187.863C390.845 187.863 399.463 153.827 399.463 153.827L405.29 154.679L397.138 187.836" fill="#DDDDDD"/>
<path d="M390.754 187.863C390.845 187.863 399.463 153.827 399.463 153.827L405.29 154.679L397.138 187.836" stroke="#DDDDDD" stroke-miterlimit="10"/>
<path d="M406.573 187.037L406.333 151.431H416.57L416.11 185.765" fill="#F9F9F9"/>
<path d="M406.573 187.037L406.333 151.431H416.57L416.11 185.765" stroke="#DDDDDD" stroke-width="0.75" stroke-linecap="round" stroke-linejoin="round"/>
<path d="M416.537 153.827H428.367L427.538 186.117" fill="#F9F9F9"/>
<path d="M416.537 153.827H428.367L427.538 186.117" stroke="#DDDDDD" stroke-width="0.75" stroke-linecap="round" stroke-linejoin="round"/>
<path d="M454.585 150.68L463.041 151.431L453.717 187.863L446.763 185.359L454.585 150.68Z" stroke="#EDEDED" stroke-linecap="round" stroke-linejoin="round"/>
<path d="M462.426 187.518L470.785 155.559L462.426 153.827L453.717 187.863" fill="#EDEDED"/>
<path d="M462.426 187.518L470.785 155.559L462.426 153.827L453.717 187.863" stroke="#DDDDDD" stroke-linecap="round" stroke-linejoin="round"/>
<path d="M381.378 178.667H386.189V187.863" stroke="#EDEDED" stroke-linecap="round" stroke-linejoin="round"/>
<path d="M352.286 179.303L352.5 187.863" stroke="#EDEDED" stroke-linecap="round" stroke-linejoin="round"/>
<path d="M387.49 167.089H352.499V172.929H387.49V167.089Z" stroke="#EDEDED" stroke-linecap="round" stroke-linejoin="round"/>
<path d="M352.5 172.929H348.064V179.391L381.378 178.667V172.929" fill="#EDEDED"/>
<path d="M352.5 172.929H348.064V179.391L381.378 178.667V172.929" stroke="#DDDDDD" stroke-linecap="round" stroke-linejoin="round"/>
<path d="M470.785 187.863H344.503V196.808H470.785V187.863Z" stroke="#DDDDDD" stroke-linecap="round" stroke-linejoin="round"/>
<path d="M470.785 238.816H344.503V247.761H470.785V238.816Z" stroke="#DDDDDD" stroke-linecap="round" stroke-linejoin="round"/>
<path d="M480.07 136.321V351.934C477.083 350.892 473.988 349.886 470.785 348.916C437.614 338.827 393.085 332.237 344.522 328.339C341.449 328.086 338.354 327.85 335.237 327.628V136.321H480.07Z" stroke="#DDDDDD" stroke-width="2" stroke-linecap="round" stroke-linejoin="round"/>
<path d="M9.78418 339.145C21.0831 336.378 37.3418 333.813 57.1747 331.607C64.9447 330.741 73.3039 329.929 82.1229 329.178C85.5762 328.889 89.0943 328.605 92.6771 328.325C95.211 328.136 97.7794 327.951 100.382 327.77C107.755 327.252 115.37 326.776 123.226 326.343C159.298 324.374 199.89 323.413 241.11 323.873C243.674 323.9 246.243 323.936 248.815 323.981C253.995 324.053 259.158 324.155 264.303 324.286C269.635 324.421 274.961 324.577 280.284 324.752C298.841 325.382 317.275 326.322 335.218 327.628C338.33 327.849 341.425 328.086 344.503 328.339L346.653 328.515C363.436 329.868 379.675 331.587 395.176 333.651C420.675 337.034 443.991 341.405 463.811 346.886C466.194 347.549 468.527 348.226 470.811 348.916C474.014 349.891 477.109 350.897 480.096 351.934C491.103 355.771 500.609 360.054 508.243 364.838" stroke="#DDDDDD" stroke-width="2" stroke-linecap="round" stroke-linejoin="round"/>
<path d="M241.11 97.6294V323.873C190.936 323.318 141.674 324.868 100.383 327.771V97.6294H241.11Z" fill="#F9F9F9" stroke="#DDDDDD" stroke-linecap="round" stroke-linejoin="round"/>
<path d="M196.16 310.042L206.863 275.944L213.047 276.58L203.645 309.981" stroke="#EDEDED" stroke-linecap="round" stroke-linejoin="round"/>
<path d="M212.096 309.981L222.961 268.447H215.398L213.048 276.581" stroke="#EDEDED" stroke-linecap="round" stroke-linejoin="round"/>
<path d="M219.542 309.981L227.506 275.031L221.342 274.632L212.096 309.981" fill="#EDEDED"/>
<path d="M219.542 309.981L227.506 275.031L221.342 274.632L212.096 309.981" stroke="#DDDDDD" stroke-linecap="round" stroke-linejoin="round"/>
<path d="M241.11 267.364C241.11 267.527 228.95 267.364 228.95 267.364L229.397 309.642" stroke="#EDEDED" stroke-linecap="round" stroke-linejoin="round"/>
<path d="M191.894 220.39H201.133L208.534 253.039H200.233" fill="#EDEDED"/>
<path d="M191.894 220.39H201.133L208.534 253.039H200.233" stroke="#DDDDDD" stroke-linecap="round" stroke-linejoin="round"/>
<path d="M215.935 217H208.534C208.534 217 209.143 253.073 209.79 253.073H216.913" fill="#F9F9F9"/>
<path d="M215.935 217H208.534C208.534 217 209.143 253.073 209.79 253.073H216.913" stroke="#DDDDDD" stroke-linecap="round" stroke-linejoin="round"/>
<path d="M216.913 253.073C216.466 252.505 215.922 210.944 215.922 210.944H224.825V253.073" fill="#F9F9F9"/>
<path d="M216.913 253.073C216.466 252.505 215.922 210.944 215.922 210.944H224.825V253.073" stroke="#DDDDDD" stroke-linecap="round" stroke-linejoin="round"/>
<path d="M231.158 253.073L240.223 217.758L233.748 215.43C233.748 215.43 224.806 247.504 224.806 247.768V253.073" fill="#EDEDED"/>
<path d="M231.158 253.073L240.223 217.758L233.748 215.43C233.748 215.43 224.806 247.504 224.806 247.768V253.073" stroke="#DDDDDD" stroke-linecap="round" stroke-linejoin="round"/>
<path d="M193.214 253.039L183.547 215.978L190.721 214.76L200.233 253.039" fill="#F9F9F9"/>
<path d="M193.214 253.039L183.547 215.978L190.721 214.76L200.233 253.039" stroke="#DDDDDD" stroke-linecap="round" stroke-linejoin="round"/>
<path d="M152.499 235.372L149.56 235.142V238.62" stroke="#EDEDED" stroke-linecap="round" stroke-linejoin="round"/>
<path d="M182.608 236.881L182.343 242.389" stroke="#EDEDED" stroke-linecap="round" stroke-linejoin="round"/>
<path d="M154.17 228.341L153.419 222.014H182.938V228.341" stroke="#EDEDED" stroke-linecap="round" stroke-linejoin="round"/>
<path d="M152.499 235.372L152.014 228.341H185.153L185.535 236.949L152.499 235.372Z" fill="#DDDDDD" stroke="#DDDDDD" stroke-miterlimit="10"/>
<path d="M152.014 241.529L184.162 242.389V253.039" stroke="#EDEDED" stroke-linecap="round" stroke-linejoin="round"/>
<path d="M160.664 174.526H121.497V181.083H160.664V174.526Z" stroke="#DDDDDD" stroke-width="0.75" stroke-linecap="round" stroke-linejoin="round"/>
<path d="M158.851 195.956C159.175 196.578 158.851 186.834 158.851 186.834L126.981 186.381V196.091" stroke="#DDDDDD" stroke-width="0.75" stroke-linecap="round" stroke-linejoin="round"/>
<path d="M156.935 181.083V186.807" stroke="#DDDDDD" stroke-width="0.75" stroke-linecap="round" stroke-linejoin="round"/>
<path d="M164.265 196.145L165.618 151.106L175.7 151.715L174.832 196.098" fill="#EDEDED"/>
<path d="M164.265 196.145L165.618 151.106L175.7 151.715L174.832 196.098" stroke="#DDDDDD" stroke-linecap="round" stroke-linejoin="round"/>
<path d="M175.647 154.32H184.052L183.288 196.098" stroke="#DDDDDD" stroke-width="0.75" stroke-linecap="round" stroke-linejoin="round"/>
<path d="M129.196 181.529L129.52 186.415" stroke="#DDDDDD" stroke-width="0.75" stroke-linecap="round" stroke-linejoin="round"/>
<path d="M100.383 158.617H109.461L111.06 196.145" stroke="#EDEDED" stroke-linecap="round" stroke-linejoin="round"/>
<path d="M118.616 195.956L117.56 161.622L109.57 161.175" stroke="#EDEDED" stroke-linecap="round" stroke-linejoin="round"/>
<path d="M184.053 196.098L192.995 157.487L202.383 159.734" stroke="#EDEDED" stroke-linecap="round" stroke-linejoin="round"/>
<path d="M192.819 196.098L203.665 154.32L212.95 158.123L203.412 196.098" stroke="#EDEDED" stroke-linecap="round" stroke-linejoin="round"/>
<path d="M226.062 196.145L225.505 151.106L213.002 150.612V196.145" stroke="#EDEDED" stroke-linecap="round" stroke-linejoin="round"/>
<path d="M236.771 196.145L236.117 154.767H225.505L226.418 196.145" fill="#EDEDED"/>
<path d="M236.771 196.145L236.117 154.767H225.505L226.418 196.145" stroke="#DDDDDD" stroke-linecap="round" stroke-linejoin="round"/>
<path d="M241.11 196.091H100.376V205.044H241.11V196.091Z" stroke="#DDDDDD" stroke-linecap="round" stroke-linejoin="round"/>
<path d="M241.11 253.04H100.376V261.985H241.11V253.04Z" stroke="#DDDDDD" stroke-linecap="round" stroke-linejoin="round"/>
<path d="M241.11 309.981H100.376V318.933H241.11V309.981Z" stroke="#DDDDDD" stroke-width="2" stroke-linecap="round" stroke-linejoin="round"/>
<path d="M248.815 86.2207V323.981C246.225 323.936 243.656 323.9 241.11 323.873C190.935 323.318 141.673 324.867 100.382 327.77C97.792 327.946 95.2236 328.131 92.6768 328.325V86.2207H248.815Z" stroke="#DDDDDD" stroke-width="2" stroke-linecap="round" stroke-linejoin="round"/>
<path d="M187.658 102.271L186.221 106.981L176.398 139.156H170.39L182.116 100.715L187.658 102.271Z" stroke="#DDDDDD" stroke-width="0.75" stroke-linecap="round" stroke-linejoin="round"/>
<path d="M186.228 106.981L194.62 109.309L185.924 139.156" stroke="#DDDDDD" stroke-width="0.75" stroke-linecap="round" stroke-linejoin="round"/>
<path d="M194.821 97.6362L194.108 139.15" stroke="#DDDDDD" stroke-width="0.75" stroke-linecap="round" stroke-linejoin="round"/>
<path d="M197.915 100.965H206.417" stroke="#DDDDDD" stroke-width="0.75" stroke-linecap="round" stroke-linejoin="round"/>
<path d="M208.936 97.6362V139.15" stroke="#DDDDDD" stroke-width="0.75" stroke-linecap="round" stroke-linejoin="round"/>
<path d="M208.936 119.614L214.634 139.15" stroke="#DDDDDD" stroke-width="0.75" stroke-linecap="round" stroke-linejoin="round"/>
<path d="M219.801 139.15L225.505 136.653L213.921 105.445L208.936 106.981" stroke="#DDDDDD" stroke-width="0.75" stroke-linecap="round" stroke-linejoin="round"/>
<path d="M224.45 137.113L225.155 139.15H227.609L231.812 136.93L224.346 110.04L216.414 112.164" stroke="#DDDDDD" stroke-width="0.75" stroke-linecap="round" stroke-linejoin="round"/>
<path d="M241.11 139.149H100.376V148.095H241.11V139.149Z" stroke="#DDDDDD" stroke-linecap="round" stroke-linejoin="round"/>
<path d="M115.78 139.156H109.241L100.383 109.322L107.434 106.981L115.845 135.211" stroke="#EDEDED" stroke-linecap="round" stroke-linejoin="round"/>
<path d="M124.793 139.157H115.78L115.845 135.212L116.408 101.602H124.14L124.327 112.015L124.819 139.157" stroke="#EDEDED" stroke-linecap="round" stroke-linejoin="round"/>
<path d="M143.24 139.156H132.971L132.511 109.687L132.375 101.013L141.408 100.715C141.408 100.715 141.492 102.467 141.621 105.269C142.01 113.68 142.845 131.442 143.24 139.156Z" stroke="#EDEDED" stroke-linecap="round" stroke-linejoin="round"/>
<path d="M124.793 139.157L124.327 112.015L124.256 107.658L132.511 109.688H132.518L132.971 139.157H124.819" fill="#EDEDED"/>
<path d="M124.793 139.157L124.327 112.015L124.256 107.658L132.511 109.688H132.518L132.971 139.157H124.819" stroke="#DDDDDD" stroke-linecap="round" stroke-linejoin="round"/>
<path d="M143.241 139.157H152.209L151.419 106.981L151.38 105.269H141.622L143.241 139.157Z" fill="#EDEDED" stroke="#DDDDDD" stroke-linecap="round" stroke-linejoin="round"/>
<path d="M151.418 106.981H161.279L161.584 139.156H152.208" stroke="#EDEDED" stroke-linecap="round" stroke-linejoin="round"/>
<path d="M343.648 372.518L390.385 353.896L436.765 359.31C436.765 359.31 439.945 360.474 438.442 364.568L392.561 388.406L343.648 372.518Z" fill="#F9F9F9" stroke="#EDEDED" stroke-linecap="round" stroke-linejoin="round"/>
<path d="M393.11 382.08C393.11 382.08 423.42 367.322 436.765 359.337L393.11 382.08Z" fill="#F9F9F9"/>
<path d="M393.11 382.08C393.11 382.08 423.42 367.322 436.765 359.337" stroke="#EDEDED" stroke-linecap="round" stroke-linejoin="round"/>
<path d="M343.648 372.519C343.648 372.519 390.385 379.705 393.111 382.08C394.354 383.163 394.464 388.738 391.745 388.373C389.025 388.007 343.648 380.869 343.648 380.869C343.648 380.869 350.298 377.702 343.648 372.519Z" fill="#EDEDED" stroke="#DDDDDD" stroke-linecap="round" stroke-linejoin="round"/>
<path d="M405.442 118.754C417.828 116.113 425.821 103.479 423.294 90.5352C420.767 77.5911 408.678 69.2384 396.291 71.879C383.905 74.5195 375.913 87.1535 378.439 100.098C380.966 113.042 393.055 121.394 405.442 118.754Z" stroke="#EDEDED" stroke-width="2" stroke-linecap="round" stroke-linejoin="round"/>
<path d="M411.947 102.021L403.568 95.7281C403.59 95.5871 403.603 95.4447 403.607 95.3018C403.605 94.7836 403.469 94.2755 403.212 93.832C402.956 93.3886 402.588 93.0265 402.15 92.7846C402.001 89.5163 401.729 83.5413 401.47 77.9385C401.418 76.7814 400.356 76.7882 400.311 77.9385L399.663 92.7169C399.114 93.002 398.672 93.4722 398.409 94.0517C398.146 94.6313 398.077 95.2864 398.214 95.9117C398.351 96.5369 398.685 97.0957 399.163 97.4982C399.641 97.9007 400.235 98.1233 400.848 98.1303C401.424 98.1303 401.984 97.9383 402.448 97.5822L411.293 102.996C412.27 103.638 412.853 102.698 411.947 102.021Z" fill="#DDDDDD" stroke="#DDDDDD" stroke-miterlimit="10"/>
<path d="M170.461 349.958L233.748 362.423C233.748 362.423 229.409 369.805 235.043 371.977L189.361 385.023C189.361 385.023 131.015 371.023 128.911 370.062C126.806 369.101 124.534 364.507 129.791 362.72C135.049 360.934 170.461 349.958 170.461 349.958Z" fill="#F9F9F9" stroke="#DDDDDD" stroke-linecap="round" stroke-linejoin="round"/>
<path d="M189.362 385.023C186.999 384.732 185.432 379.4 190.178 377.58C194.749 375.821 233.722 362.45 233.722 362.45" fill="#F9F9F9"/>
<path d="M189.362 385.023C186.999 384.732 185.432 379.4 190.178 377.58C194.749 375.821 233.722 362.45 233.722 362.45" stroke="#EDEDED" stroke-linecap="round" stroke-linejoin="round"/>
<path d="M137.542 366.293L180.102 376.896" stroke="#DDDDDD" stroke-linecap="round" stroke-linejoin="round"/>
<path d="M47.2228 369.23C53.9568 367.599 52.746 365.366 50.9848 361.049C49.2236 356.732 43.8623 352.496 35.5031 354.336C27.1438 356.177 27.1438 364.54 33.6706 366.929C40.1974 369.318 43.8105 370.055 47.2228 369.23Z" fill="#F9F9F9" stroke="#EDEDED" stroke-linecap="round" stroke-linejoin="round"/>
<path d="M48.751 363.011C49.5474 364.599 50.1978 366.262 50.6935 367.978L48.751 363.011Z" fill="#F9F9F9"/>
<path d="M48.751 363.011C49.5474 364.599 50.1978 366.262 50.6935 367.978" stroke="#DDDDDD" stroke-linecap="round" stroke-linejoin="round"/>
<path d="M45.7662 360.575C46.3585 361.522 47.0326 362.41 47.7799 363.228C48.6346 364.114 49.5476 363.762 49.3793 362.822C49.0632 361.34 48.3952 359.964 47.4368 358.823C47.2074 358.633 46.9194 358.539 46.6275 358.557C46.3357 358.575 46.0605 358.705 45.8542 358.921C45.6479 359.138 45.5249 359.426 45.5087 359.731C45.4925 360.036 45.5841 360.336 45.7662 360.575Z" fill="#F9F9F9" stroke="#DDDDDD" stroke-linecap="round" stroke-linejoin="round"/>
<path d="M340.054 17.5933V100.207C339.723 100.457 339.453 100.786 339.266 101.165C339.079 101.545 338.981 101.966 338.979 102.393V104.646C338.981 105.074 339.079 105.494 339.266 105.874C339.453 106.254 339.723 106.582 340.054 106.832V110.039H343.091V106.832C343.421 106.581 343.69 106.253 343.876 105.873C344.062 105.493 344.159 105.073 344.159 104.646V102.393C344.159 101.967 344.062 101.546 343.876 101.166C343.69 100.787 343.421 100.458 343.091 100.207V17.5933" fill="#EDEDED"/>
<path d="M340.054 17.5933V100.207C339.723 100.457 339.453 100.786 339.266 101.165C339.079 101.545 338.981 101.966 338.979 102.393V104.646C338.981 105.074 339.079 105.494 339.266 105.874C339.453 106.254 339.723 106.582 340.054 106.832V110.039H343.091V106.832C343.421 106.581 343.69 106.253 343.876 105.873C344.062 105.493 344.159 105.073 344.159 104.646V102.393C344.159 101.967 344.062 101.546 343.876 101.166C343.69 100.787 343.421 100.458 343.091 100.207V17.5933" stroke="#DDDDDD" stroke-width="2" stroke-linecap="round" stroke-linejoin="round"/>
<path d="M208.755 17.5933V100.207C208.425 100.458 208.156 100.787 207.97 101.166C207.784 101.546 207.687 101.967 207.687 102.393V104.646C207.687 105.073 207.784 105.493 207.97 105.873C208.156 106.253 208.425 106.581 208.755 106.832V110.039H211.792V106.832C212.123 106.582 212.393 106.254 212.58 105.874C212.767 105.494 212.865 105.074 212.867 104.646V102.393C212.865 101.966 212.767 101.545 212.58 101.165C212.393 100.786 212.123 100.457 211.792 100.207V17.5933" fill="#EDEDED"/>
<path d="M208.755 17.5933V100.207C208.425 100.458 208.156 100.787 207.97 101.166C207.784 101.546 207.687 101.967 207.687 102.393V104.646C207.687 105.073 207.784 105.493 207.97 105.873C208.156 106.253 208.425 106.581 208.755 106.832V110.039H211.792V106.832C212.123 106.582 212.393 106.254 212.58 105.874C212.767 105.494 212.865 105.074 212.867 104.646V102.393C212.865 101.966 212.767 101.545 212.58 101.165C212.393 100.786 212.123 100.457 211.792 100.207V17.5933" stroke="#DDDDDD" stroke-width="2" stroke-linecap="round" stroke-linejoin="round"/>
<path d="M349.462 103.232H202.383V112.814H349.462V103.232Z" fill="#EDEDED" stroke="#DDDDDD" stroke-width="2" stroke-linecap="round" stroke-linejoin="round"/>
<path d="M351.457 105.702H349.463V110.351H351.457V105.702Z" fill="#F9F9F9" stroke="#DDDDDD" stroke-linecap="round" stroke-linejoin="round"/>
<path d="M343.149 112.814H208.689C207.527 112.814 206.585 113.799 206.585 115.013V115.148C206.585 116.363 207.527 117.348 208.689 117.348H343.149C344.311 117.348 345.254 116.363 345.254 115.148V115.013C345.254 113.799 344.311 112.814 343.149 112.814Z" fill="#F9F9F9" stroke="#DDDDDD" stroke-linecap="round" stroke-linejoin="round"/>
<path d="M332.971 364.297L378.989 345.201L424.657 350.121C424.657 350.121 427.752 353.883 425.647 358.159L381.132 379.65L332.971 364.297Z" fill="#F9F9F9" stroke="#DDDDDD" stroke-linecap="round" stroke-linejoin="round"/>
<path d="M381.676 373.33C381.676 373.33 418.803 355.595 424.657 350.121L381.676 373.33Z" fill="#F9F9F9"/>
<path d="M381.676 373.33C381.676 373.33 418.803 355.595 424.657 350.121" stroke="#DDDDDD" stroke-linecap="round" stroke-linejoin="round"/>
<path d="M332.971 364.297C332.971 364.297 378.989 370.982 381.676 373.33C382.893 374.399 383.01 379.975 380.322 379.637C377.635 379.299 332.971 372.647 332.971 372.647C332.971 372.647 339.491 369.412 332.971 364.297Z" fill="#F9F9F9" stroke="#EDEDED" stroke-linecap="round" stroke-linejoin="round"/>
<path d="M171.166 286.23C176.702 293.504 190.345 322.77 179.707 331.343C164.996 343.199 147.979 310.434 144.858 300.893L171.166 286.23Z" fill="#FEBD9D"/>
<path d="M172.708 285.019C172.708 285.019 170.636 286.69 167.346 288.998C161.376 293.186 151.398 299.452 142.554 301.509C142.554 301.509 141.641 299.601 140.249 296.725L137.141 290.29C135.269 286.399 133.191 282.082 131.417 278.381L129.351 274.05C128.969 273.251 128.626 272.527 128.335 271.898C123.155 260.929 117.359 235.087 134.376 233.369C135.83 233.211 137.294 233.179 138.753 233.274H138.824C139.225 233.308 139.614 233.348 139.996 233.403L140.32 233.45L140.89 233.558C141.116 233.599 141.343 233.653 141.537 233.707C141.731 233.761 141.887 233.795 142.055 233.849L142.295 233.91L142.787 234.079C142.943 234.129 143.097 234.187 143.246 234.255C143.404 234.304 143.557 234.365 143.706 234.438C143.885 234.509 144.06 234.591 144.231 234.681C144.388 234.75 144.541 234.827 144.69 234.912C144.893 235.011 145.088 235.119 145.273 235.236C145.441 235.331 145.603 235.433 145.759 235.534L146.16 235.811C146.632 236.139 147.086 236.493 147.52 236.874C147.708 237.036 147.889 237.192 148.064 237.368C148.653 237.927 149.213 238.518 149.741 239.141C149.916 239.35 150.097 239.567 150.272 239.817C150.447 240.068 150.544 240.162 150.68 240.338C150.9 240.623 151.12 240.92 151.327 241.232C151.476 241.428 151.619 241.638 151.761 241.847C151.981 242.165 152.201 242.524 152.409 242.835C152.616 243.147 152.752 243.356 152.92 243.641L153.451 244.52C153.632 244.818 153.807 245.122 153.988 245.44C154.403 246.151 154.811 246.902 155.225 247.68C155.355 247.937 155.497 248.201 155.633 248.465C155.769 248.729 156.002 249.182 156.19 249.555C156.378 249.927 156.553 250.231 156.727 250.624C156.902 251.016 157.135 251.443 157.343 251.869C157.77 252.748 158.197 253.635 158.638 254.528C163.52 264.725 168.505 275.755 170.998 281.338C172.099 283.638 172.708 285.019 172.708 285.019Z" fill="#FED81D"/>
<path d="M158.702 254.521C153.936 254.697 149.425 256.815 146.134 260.422C145.677 260.922 145.245 261.446 144.839 261.992C140.724 267.303 135.398 271.449 129.351 274.05C128.969 273.251 128.626 272.527 128.335 271.898C123.155 260.929 117.359 235.087 134.376 233.369C135.83 233.211 137.294 233.179 138.753 233.274H138.824C139.225 233.308 139.614 233.348 139.996 233.403L140.32 233.45L140.89 233.558C141.116 233.599 141.343 233.653 141.537 233.707C141.731 233.761 141.887 233.795 142.055 233.849L142.295 233.91L142.787 234.079C142.943 234.129 143.097 234.187 143.246 234.255C143.404 234.304 143.557 234.365 143.706 234.438C143.885 234.509 144.06 234.591 144.231 234.681C144.388 234.75 144.541 234.827 144.69 234.912C144.893 235.011 145.088 235.119 145.273 235.236C145.441 235.331 145.603 235.433 145.759 235.534L146.16 235.811C146.632 236.139 147.086 236.493 147.52 236.874C147.708 237.036 147.889 237.192 148.064 237.368C148.653 237.927 149.213 238.518 149.741 239.141C149.916 239.35 150.097 239.567 150.272 239.817C150.447 240.068 150.544 240.162 150.68 240.338C150.9 240.623 151.12 240.92 151.327 241.232C151.476 241.428 151.619 241.638 151.761 241.847C151.981 242.165 152.201 242.524 152.409 242.835C152.616 243.147 152.752 243.356 152.92 243.641L153.451 244.52C153.632 244.818 153.807 245.122 153.988 245.44C154.403 246.151 154.811 246.902 155.225 247.68C155.355 247.937 155.497 248.201 155.633 248.465C155.769 248.729 156.002 249.182 156.19 249.555C156.378 249.927 156.553 250.231 156.727 250.624C156.902 251.016 157.135 251.443 157.343 251.869C157.854 252.742 158.281 253.628 158.702 254.521Z" fill="#FFE05C"/>
<path d="M167.347 288.998C161.377 293.186 151.399 299.452 142.554 301.509C142.554 301.509 141.641 299.601 140.249 296.725L137.141 290.29C135.27 286.399 133.191 282.082 131.417 278.381L141.531 268.102C141.926 267.947 149.664 268.359 147.274 275.139C144.885 281.92 140.67 286.46 144.108 289.214C147.546 291.968 157.479 269.76 166.24 286.21C166.717 287.088 167.089 288.024 167.347 288.998Z" fill="#FCC71F"/>
<path d="M147.229 249.981C147.229 250.339 147.229 250.705 147.177 251.084C147.067 252.972 146.867 255.09 146.595 257.471C146.497 258.371 146.342 259.353 146.135 260.422C145.895 261.714 145.584 263.128 145.228 264.61C144.095 269.266 142.418 274.821 140.443 280.749C140.21 281.425 139.971 282.17 139.725 282.88C139.291 284.173 138.838 285.472 138.384 286.778C137.978 287.942 137.564 289.112 137.141 290.29C132.298 303.823 126.723 317.789 123.226 326.343C115.379 326.771 107.764 327.247 100.382 327.77C97.7925 327.946 95.2241 328.131 92.6772 328.325C89.0901 328.605 85.572 328.889 82.123 329.178C73.304 329.929 64.9642 330.741 57.1748 331.607C58.5928 324.319 62.4325 305.014 66.9456 284.849C69.432 273.752 72.1256 262.391 74.7156 252.633C76.548 245.765 78.3416 239.695 79.9798 235.04C81.6892 230.242 83.2173 226.974 84.5123 225.939C89.0059 222.352 92.8779 221.202 97.7277 221.825C98.2587 221.899 98.7961 221.987 99.353 222.095C99.9098 222.204 100.473 222.339 101.056 222.488C101.27 222.535 101.483 222.596 101.703 222.657C101.924 222.718 102.163 222.792 102.396 222.86L103.128 223.076C104.28 223.437 105.504 223.859 106.799 224.342L107.602 224.64C108.25 224.883 108.897 225.14 109.596 225.418C110.891 225.925 112.264 226.494 113.727 227.096C117.386 228.618 122.203 230.662 132.414 232.908C133.094 233.05 133.748 233.206 134.357 233.355L134.901 233.484L135.425 233.619C135.684 233.68 135.95 233.754 136.196 233.822C136.442 233.89 136.694 233.957 136.934 234.025C137.419 234.16 137.886 234.296 138.332 234.444C139.051 234.681 139.725 234.925 140.353 235.189L140.942 235.446C141.317 235.629 141.674 235.811 142.004 236.001L142.444 236.258C143.126 236.675 143.756 237.177 144.322 237.753L144.432 237.868L144.587 238.044L144.795 238.288C144.999 238.541 145.192 238.806 145.371 239.08C145.468 239.235 145.559 239.384 145.649 239.553C145.74 239.722 145.792 239.81 145.856 239.952L145.947 240.142C146.473 241.32 146.822 242.575 146.983 243.864C146.983 244.033 147.028 244.202 147.054 244.385C147.08 244.567 147.054 244.608 147.093 244.73C147.132 244.852 147.132 245.115 147.145 245.312C147.158 245.508 147.177 245.745 147.184 245.988V246.279C147.184 246.516 147.184 246.76 147.184 247.01C147.287 247.924 147.274 248.912 147.229 249.981Z" fill="#FED81D"/>
<path d="M123.227 326.343C126.723 317.79 132.292 303.843 137.141 290.29C137.573 289.112 137.987 287.942 138.385 286.778C138.838 285.472 139.291 284.173 139.725 282.88C139.971 282.17 140.21 281.453 140.444 280.749C142.386 274.821 144.095 269.246 145.229 264.61" stroke="#F7AD2B" stroke-width="0.75" stroke-linecap="round" stroke-linejoin="round"/>
<path d="M146.595 257.472C146.498 258.371 146.342 259.353 146.135 260.422C145.678 260.922 145.246 261.446 144.84 261.992C140.725 267.302 135.399 271.449 129.352 274.05C119.976 277.927 109.014 276.966 101.93 261.802C100.681 259.096 99.457 256.673 98.2721 254.447C91.9007 242.558 86.2351 236.853 79.9932 235.054C81.7026 230.256 83.2307 226.988 84.5257 225.952C89.0193 222.366 92.8914 221.216 97.7411 221.838C98.2721 221.913 98.8095 222.001 99.3664 222.109C99.9232 222.217 100.487 222.353 101.069 222.501C101.283 222.549 101.497 222.61 101.717 222.671C101.937 222.731 102.177 222.806 102.41 222.874L103.141 223.09C104.294 223.451 105.518 223.873 106.813 224.355L107.616 224.653C108.263 224.897 108.911 225.154 109.61 225.431C110.147 225.648 110.711 225.864 111.28 226.108C111.662 226.257 112.038 226.413 112.433 226.582L113.728 227.116C117.386 228.639 122.204 230.682 132.415 232.929C133.095 233.071 133.749 233.227 134.357 233.375C146.336 236.217 148.686 239.344 146.595 257.472Z" fill="#FFE05C"/>
<path d="M138.772 233.274C136.694 239.973 131.501 246.909 123.569 245.65C114.912 244.297 109.577 234.952 109.615 225.431C110.91 225.939 112.283 226.507 113.746 227.109C117.405 228.632 122.222 230.675 132.433 232.922C133.113 233.064 133.767 233.22 134.376 233.368C135.836 233.209 137.307 233.178 138.772 233.274Z" fill="white"/>
<path d="M105.718 319.867C102.306 322.709 93.0463 326.634 82.123 329.178C73.304 329.929 64.9642 330.741 57.1748 331.607C58.5928 324.319 62.4325 305.014 66.9456 284.849C69.432 273.752 72.1256 262.391 74.7156 252.633C93.778 255.435 98.8609 276.526 90.2038 283.658C80.4913 291.684 79.4229 298.349 91.7189 298.173C104.015 297.997 115.327 311.875 105.718 319.867Z" fill="#FCC71F"/>
<path d="M136.111 207.601C136.021 208.562 135.923 209.476 135.839 210.348C135.075 218.157 134.732 222.955 134.68 227.36C134.68 229.688 134.68 231.907 134.836 234.404C134.836 234.404 131.805 244.798 121.012 240.494C113.397 237.449 113.747 227.13 113.747 227.13C115.974 219.749 117.456 212.145 118.169 204.441C118.428 200.577 137.51 193.621 136.111 207.601Z" fill="#FEBD9D"/>
<path d="M135.84 210.348C135.076 218.157 134.733 222.955 134.681 227.36C128.491 229.322 122.042 221.764 125.616 213.468C128.206 207.588 132.842 208.751 135.84 210.348Z" fill="#F4A789"/>
<path d="M172.708 285.018C172.708 285.018 156.262 298.315 142.554 301.509C142.554 301.509 141.641 299.601 140.249 296.725C151.516 292.665 163.313 286.744 171.064 281.331C172.1 283.638 172.708 285.018 172.708 285.018Z" fill="white"/>
<path d="M140.34 217.975C136.714 222.908 130.271 221.757 120.228 211.106C116.427 207.046 112.044 200.503 112.16 195.327C112.277 190.15 118.273 179.249 129.643 185.508C134.033 187.931 137.173 192.6 139.168 197.688C139.922 199.634 140.522 201.642 140.961 203.69C142.289 209.895 142.023 215.681 140.34 217.975Z" fill="#FEBD9D"/>
<path d="M127.908 203.332C127.293 204.935 124.761 205.395 122.249 204.353C119.736 203.311 118.189 201.16 118.804 199.556C119.419 197.952 121.944 197.485 124.463 198.527C126.982 199.569 128.516 201.721 127.908 203.332Z" fill="#F4AF90"/>
<path d="M140.942 203.676C139.362 204.285 137.854 204.116 137.154 203.135C136.189 201.782 137.083 199.366 139.149 197.674C139.902 199.62 140.502 201.628 140.942 203.676Z" fill="#F4AF90"/>
<path d="M138.377 199.129C140.888 199.129 142.923 197.003 142.923 194.379C142.923 191.756 140.888 189.629 138.377 189.629C135.867 189.629 133.832 191.756 133.832 194.379C133.832 197.003 135.867 199.129 138.377 199.129Z" stroke="#683F1D" stroke-miterlimit="10"/>
<path d="M128.251 196.91C128.25 197.106 128.304 197.297 128.407 197.461C128.51 197.624 128.657 197.752 128.83 197.827C129.003 197.903 129.193 197.924 129.377 197.886C129.561 197.849 129.73 197.756 129.862 197.618C129.995 197.48 130.086 197.304 130.123 197.112C130.16 196.92 130.142 196.721 130.07 196.54C129.999 196.359 129.878 196.205 129.722 196.096C129.567 195.987 129.384 195.929 129.196 195.929C128.947 195.929 128.707 196.032 128.53 196.216C128.353 196.399 128.253 196.649 128.251 196.91Z" fill="#683F1D"/>
<path d="M134.836 195.367C134.836 195.562 134.891 195.753 134.995 195.916C135.099 196.078 135.247 196.205 135.42 196.28C135.592 196.354 135.782 196.374 135.966 196.336C136.149 196.298 136.318 196.204 136.45 196.065C136.582 195.927 136.672 195.751 136.708 195.56C136.745 195.368 136.726 195.169 136.655 194.989C136.583 194.808 136.462 194.654 136.306 194.545C136.151 194.437 135.968 194.379 135.781 194.379C135.531 194.379 135.29 194.483 135.113 194.668C134.936 194.854 134.836 195.105 134.836 195.367Z" fill="#683F1D"/>
<path d="M121.174 210.403C118.855 211.797 115.255 211.797 114.012 207.94C112.769 204.083 116.311 202.147 118.318 202.526C120.791 203 122.164 206.789 121.174 210.403Z" fill="#FEBD9D"/>
<path d="M119.937 206.87C118.811 204.637 116.266 204.164 115.185 207.188" stroke="#EF8A66" stroke-width="0.75" stroke-linecap="round" stroke-linejoin="round"/>
<path d="M119.308 205.95C116.557 204.658 116.006 209.564 119.179 208.325" stroke="#EF8A66" stroke-width="0.75" stroke-linecap="round" stroke-linejoin="round"/>
<path d="M137.724 194.521C136.597 192.275 135.149 190.222 133.431 188.431C130.64 190.069 128.769 188.573 128.769 188.573C128.769 188.573 126.049 191.612 123.511 190.874C120.973 190.136 121.161 188.289 119.561 187.87C117.962 187.45 116.421 189.223 116.421 189.73C116.421 190.238 117.25 190.556 118.771 194.325C120.293 198.094 119.84 203.379 116.732 203.974C115.741 204.164 110.788 203.453 108.314 199.549C108.265 199.484 108.219 199.417 108.178 199.346C105.763 195.252 107.175 192.309 107.997 191.226C108.819 190.143 110.108 190.624 110.289 189.595C111.338 183.742 116.499 178.708 122.028 178.166C127.558 177.625 127.383 179.729 127.383 179.729C127.383 179.729 132.906 179.289 135.904 183.275C136.086 183.512 136.254 183.749 136.403 183.986C137.405 185.507 138.047 187.256 138.277 189.087C138.507 190.919 138.317 192.781 137.724 194.521Z" fill="#7F542D"/>
<path d="M137.724 194.521C136.597 192.275 135.149 190.222 133.431 188.431C130.64 190.069 128.769 188.574 128.769 188.574C128.769 188.574 126.049 191.612 123.511 190.874C120.973 190.137 121.161 188.289 119.562 187.87C117.962 187.45 116.421 189.223 116.421 189.731C116.421 190.238 117.25 190.556 118.772 194.325C120.293 198.094 119.84 203.379 116.732 203.974C115.741 204.164 110.788 203.453 108.314 199.549C114.789 198.29 115.003 194.691 113.617 188.898C112.711 185.082 119.445 181.509 123.207 183.938C125.551 185.461 131.987 184.98 136.403 183.986C137.405 185.507 138.048 187.256 138.277 189.087C138.507 190.919 138.317 192.781 137.724 194.521Z" fill="#704725"/>
<path d="M127.396 179.736C125.16 179.729 122.945 180.189 120.882 181.089" stroke="#A56F42" stroke-width="0.75" stroke-linecap="round" stroke-linejoin="round"/>
<path d="M128.096 183.85C129.119 184.04 132.343 186.942 133.431 188.438C133.431 188.438 135.238 189.791 136.112 187.869" stroke="#A56F42" stroke-width="0.75" stroke-linecap="round" stroke-linejoin="round"/>
<path d="M122.184 185.569C123.084 184.743 124.838 184.973 126.069 186.381C126.855 187.244 127.756 187.984 128.743 188.58" stroke="#A56F42" stroke-width="0.75" stroke-linecap="round" stroke-linejoin="round"/>
<path d="M131.107 192.173C130.815 195.557 131.832 197.147 133.224 197.235C134.616 197.323 136.462 197.81 136.112 200.09" stroke="#EF8A66" stroke-width="0.75" stroke-linecap="round" stroke-linejoin="round"/>
<path d="M129.501 204.421C131.425 204.768 133.376 204.925 135.328 204.888C135.328 204.888 134.681 207.486 132.279 207.188C131.594 207.097 130.955 206.779 130.455 206.281C129.955 205.783 129.621 205.131 129.501 204.421Z" fill="white" stroke="#EF8A66" stroke-width="0.75" stroke-linecap="round" stroke-linejoin="round"/>
<path d="M123.123 197.925C123.123 198.861 123.389 199.777 123.887 200.556C124.385 201.335 125.093 201.942 125.921 202.301C126.749 202.659 127.661 202.753 128.54 202.57C129.419 202.388 130.227 201.936 130.861 201.274C131.494 200.612 131.926 199.768 132.101 198.849C132.276 197.93 132.186 196.978 131.843 196.112C131.5 195.247 130.919 194.507 130.174 193.986C129.428 193.466 128.552 193.188 127.656 193.188C126.453 193.188 125.301 193.687 124.451 194.575C123.601 195.464 123.123 196.668 123.123 197.925Z" stroke="#683F1D" stroke-miterlimit="10"/>
<path d="M131.806 190.197C131.722 191.889 136.261 191.551 136.299 190.82C136.338 190.089 131.89 188.587 131.806 190.197Z" fill="#7F542D"/>
<path d="M124.217 194.163C124.683 195.137 129.138 192.62 128.102 190.861C127.066 189.101 123.576 192.85 124.217 194.163Z" fill="#7F542D"/>
<path d="M121.173 210.402C120.021 211.112 118.668 211.382 117.347 211.167" stroke="#EF8A66" stroke-width="0.75" stroke-linecap="round" stroke-linejoin="round"/>
<path d="M93.6545 263.149C87.9371 271.831 83.2557 280.593 79.0405 288.659C68.6351 308.56 62.6846 323.041 49.8576 322.865C38.1573 322.696 36.9076 304.73 50.5505 275.498L47.1058 272.149C47.1058 272.149 57.1355 256.869 66.7833 241.523C75.4986 227.671 83.1262 217.63 97.7467 221.825C106.378 224.322 103.807 247.66 93.6545 263.149Z" fill="#FEBD9D"/>
<path d="M98.2713 254.427C96.9821 257.464 95.4372 260.377 93.6546 263.129C89.1221 269.99 85.2695 276.899 81.7665 283.476C80.8277 285.222 79.9212 286.947 79.0406 288.639C74.9474 287.611 70.9099 286.355 66.9453 284.877C60.8652 282.515 54.7593 279.463 50.5052 275.505L47.0605 272.155C47.0605 272.155 48.1613 270.484 49.9743 267.703C53.6456 262.053 60.276 251.808 66.7381 241.529C68.2273 239.154 69.6907 236.894 71.1605 234.797C78.283 224.647 85.5868 218.354 97.708 221.832C104.895 223.929 104.358 240.156 98.2713 254.427Z" fill="#FED81D"/>
<path d="M81.7661 283.523C80.8273 285.269 79.9208 286.994 79.0402 288.686C70.0788 286.372 57.6727 282.19 50.5502 275.531L47.1055 272.182C47.1055 272.182 48.2062 270.511 50.0192 267.729C55.3352 273.759 62.4577 277.595 81.7661 283.523Z" fill="white"/>
<path d="M98.2715 254.426C91.9001 242.537 86.2344 236.833 79.9925 235.033C77.1126 234.26 74.1033 234.172 71.1865 234.776C78.309 224.626 85.6128 218.333 97.734 221.811C104.895 223.929 104.358 240.156 98.2715 254.426Z" fill="#FFE05C"/>
<path d="M98.3096 254.345C97.0163 257.419 95.458 260.363 93.6541 263.142C87.9367 271.824 83.2553 280.586 79.04 288.652" stroke="#F7AD2B" stroke-width="0.75" stroke-linecap="round" stroke-linejoin="round"/>
<path d="M97.5196 242.409C98.8146 247.247 100.867 249.493 96.6455 257.972" stroke="#F7AD2B" stroke-width="0.75" stroke-linecap="round" stroke-linejoin="round"/>
<path d="M42.1204 309.629C47.0867 297.118 65.275 296.705 87.2382 305.075C109.201 313.446 133.347 321.83 137.005 322.865C140.663 323.9 139.977 336.926 130.77 336.202C121.562 335.478 86.7396 338.631 66.3628 334.673C45.9859 330.714 38.8505 317.81 42.1204 309.629Z" fill="#FEBD9D"/>
<path d="M52.3643 300.609C58.1918 298.809 65.8452 299.073 74.5929 301.137" stroke="#EF8A66" stroke-width="0.75" stroke-linecap="round" stroke-linejoin="round"/>
<path d="M189.413 323.25C199.126 308.661 204.138 251.064 204.138 251.064C204.138 251.064 213.882 246.327 215.501 245.183C217.12 244.04 220.267 238.315 220.811 236.603C220.811 236.603 223.543 234.857 223.459 233.897C223.375 232.936 222.371 232.936 222.371 232.936C222.371 232.936 223.019 230.75 219.49 231.366C219.323 231.137 219.098 230.962 218.84 230.861C218.582 230.761 218.302 230.739 218.033 230.797C216.984 230.926 204.5 234.81 204.5 234.81C204.5 234.81 209.596 231.102 209.68 229.62C209.764 228.138 208.042 228.713 206.87 229.451C204.496 230.912 201.943 232.03 199.281 232.773C198.032 233.152 194.101 236.441 190.553 243.553C187.005 250.664 166.181 297.49 163.908 303.823C156.475 324.651 173.245 347.455 189.413 323.25Z" fill="#FEBD9D"/>
<path d="M171.38 286.183C167.703 294.682 164.692 301.665 163.908 303.823" stroke="#EF8A66" stroke-width="0.75" stroke-linecap="round" stroke-linejoin="round"/>
<path d="M215.501 245.183C217.126 244.046 220.267 238.315 220.811 236.603C220.811 236.603 223.543 234.857 223.459 233.897C223.375 232.936 222.371 232.936 222.371 232.936C222.371 232.936 223.019 230.75 219.49 231.366C219.323 231.137 219.098 230.962 218.84 230.861C218.582 230.761 218.302 230.739 218.033 230.797C216.984 230.926 204.5 234.81 204.5 234.81C204.5 234.81 209.596 231.102 209.68 229.62C209.764 228.138 208.042 228.713 206.87 229.451C204.496 230.912 201.943 232.03 199.281 232.773" stroke="#EF8A66" stroke-width="0.75" stroke-linecap="round" stroke-linejoin="round"/>
<path d="M204.5 234.803L202.558 236.197C202.558 236.197 204.151 239.899 200.233 242.964" stroke="#EF8A66" stroke-width="0.75" stroke-linecap="round" stroke-linejoin="round"/>
<path d="M207.894 236.948L219.49 231.366" stroke="#EF8A66" stroke-width="0.75" stroke-linecap="round" stroke-linejoin="round"/>
<path d="M212.315 241.042C212.413 240.974 215.831 239.289 215.831 239.289C215.831 239.289 219.347 233.565 220.28 233.274C221.212 232.983 222.28 233.457 220.811 236.603" stroke="#EF8A66" stroke-width="0.75" stroke-linecap="round" stroke-linejoin="round"/>
<path d="M209.79 238.89L219.872 233.565" stroke="#EF8A66" stroke-width="0.75" stroke-linecap="round" stroke-linejoin="round"/>
<path d="M222.371 232.936L221.069 233.267" stroke="#EF8A66" stroke-width="0.75" stroke-linecap="round" stroke-linejoin="round"/>
<path d="M182.867 304.947C177.143 322.919 167.152 348.625 167.152 348.625L100.402 364.453L54.1572 353.004V349.478L107.026 337.826C110.833 327.744 115.689 308.547 118.091 308.053C122.022 307.241 176.982 298.295 181.132 298.18C185.056 298.065 184.111 301.042 182.867 304.947Z" fill="#F9F9F9" stroke="#DDDDDD" stroke-linecap="round" stroke-linejoin="round"/>
<path d="M107.026 337.826L99.7998 357.76" stroke="#DDDDDD" stroke-linecap="round" stroke-linejoin="round"/>
<path d="M100.505 360.575L100.402 364.453L54.1572 353.003V349.478L100.505 360.575Z" fill="#EDEDED" stroke="#DDDDDD" stroke-linecap="round" stroke-linejoin="round"/>
<path d="M351.385 292.367C351.333 292.983 351.288 293.592 351.243 294.187C349.572 313.811 347.727 323.886 346.652 328.515L344.502 328.339C341.429 328.086 338.334 327.849 335.217 327.628C317.275 326.322 298.84 325.382 280.283 324.753C274.969 324.572 269.642 324.416 264.303 324.286C268.188 315.841 273.031 300.277 277.033 286.392C277.57 284.484 278.107 282.616 278.612 280.796C279.044 279.281 279.454 277.81 279.843 276.384C279.895 276.181 279.953 275.978 280.011 275.775C280.069 275.572 280.147 275.261 280.225 275.004C280.4 274.368 280.568 273.725 280.743 273.082C280.833 272.785 280.911 272.487 280.989 272.189C281.118 271.722 281.241 271.255 281.364 270.795C281.487 270.335 281.585 269.997 281.688 269.611C281.85 269.009 282.005 268.413 282.161 267.845C282.251 267.479 282.355 267.121 282.439 266.776L283.087 264.428C283.164 264.157 283.223 263.907 283.281 263.677C283.41 263.21 283.508 262.824 283.592 262.54C283.592 262.472 283.624 262.404 283.637 262.35C283.65 262.296 283.669 262.229 283.682 262.174C283.684 262.145 283.684 262.116 283.682 262.086V261.998C283.741 261.762 283.799 261.545 283.851 261.322L284.084 260.422C284.434 259.068 284.621 258.344 284.621 258.344C283.476 258.823 282.233 258.99 281.008 258.832C275.401 258.392 267.171 253.919 266.187 248.005C266.166 247.889 266.15 247.771 266.142 247.653C266.111 247.429 266.093 247.203 266.09 246.976C266.09 245.123 266.706 243.327 267.832 241.895C274.501 232.631 278.878 229.37 283.249 227.759C283.773 227.576 284.285 227.407 284.809 227.252C289.737 225.837 304.843 224.748 304.843 224.748C306.662 222.041 310.23 212.987 312.049 204.076C314.141 193.811 321.969 192.254 326.126 197.986C327.687 200.131 328.716 203.291 328.774 207.391C328.82 212.494 328.897 218.712 328.943 222.441C328.975 224.471 328.994 225.736 328.994 225.736C328.994 225.736 336.344 222.847 348.109 222.671C350.602 222.637 353.043 223.253 354.849 224.985C357.517 227.543 360.029 232.678 362.295 238.904C367.696 253.75 371.665 274.767 372.96 282.373C374.676 292.882 351.385 292.367 351.385 292.367Z" fill="#C3DCF8"/>
<path d="M356.254 278.435C350.466 279.807 344.434 279.552 338.771 277.697C332.724 280.533 310.501 284.897 295.628 283.408C280.755 281.92 280.121 276.452 280.121 276.452L279.816 276.378C281.597 269.916 283.701 261.992 283.701 261.992C283.701 261.992 284.621 262.188 286.291 262.466C300.663 264.646 315.292 264.118 329.486 260.909C329.486 260.909 341.141 264.347 352.757 261.802L356.254 278.435Z" fill="#83ADDF"/>
<path d="M357.511 284.423C357.511 284.423 337.38 287.401 319.956 290.283C302.532 293.166 284.343 291.636 277.046 286.386L278.632 280.783C285.159 286.704 294.386 288.179 311.156 287.434C327.926 286.69 338.533 281.432 338.533 281.432C347.222 283.848 353.768 282.786 356.999 281.865L357.511 284.423Z" fill="#83ADDF"/>
<path d="M362.328 238.924C353.217 238.2 342.21 242.741 333.054 251.273C325.129 258.649 309.828 268.001 298.29 256.01C295.952 253.612 293.227 251.665 290.241 250.258C283.346 246.983 274.863 246.009 266.122 246.983C266.123 245.13 266.738 243.334 267.864 241.902C274.533 232.638 278.91 229.376 283.281 227.766C283.805 227.583 284.317 227.414 284.841 227.258C289.769 225.844 304.875 224.755 304.875 224.755C306.694 222.048 310.262 212.994 312.082 204.083C314.173 193.818 322.001 192.261 326.158 197.993C327.719 200.138 328.748 203.298 328.807 207.398C328.852 212.5 328.93 218.719 328.975 222.447C329.007 224.477 329.027 225.743 329.027 225.743C329.027 225.743 336.376 222.853 348.141 222.677C350.634 222.644 353.075 223.259 354.881 224.992C357.549 227.563 360.061 232.699 362.328 238.924Z" fill="#D0E5F7"/>
<path d="M351.243 294.188C349.572 313.811 347.727 323.886 346.652 328.515L344.502 328.339C341.429 328.086 338.334 327.849 335.217 327.628C317.275 326.322 298.841 325.382 280.283 324.753C286.998 317.377 299.223 314.42 307.109 318.588C315.96 323.264 330.419 318.872 326.612 307.653C324.352 301.002 325.77 293.058 338.506 287.468L351.243 294.188Z" fill="#A7CAF0"/>
<path d="M354.881 225.005C351.094 225.634 346.075 227.813 339.931 230.215C337.768 231.061 335.476 231.934 333.054 232.773C325.21 235.604 317.036 237.311 308.754 237.848C305.647 238.041 302.532 238.016 299.43 237.774C297.05 237.607 294.697 237.153 292.417 236.42C287.541 234.769 284.822 231.853 283.274 227.793C283.799 227.61 284.317 227.441 284.841 227.285C287.062 226.649 291.368 226.081 295.409 225.641C297.966 225.357 300.433 225.14 302.201 224.998C303.833 224.856 304.875 224.782 304.875 224.782C306.694 222.075 310.262 213.021 312.082 204.109C314.173 193.844 322.001 192.288 326.158 198.019C327.719 200.165 328.748 203.325 328.807 207.425C328.852 212.527 328.93 218.746 328.975 222.474C329.007 224.504 329.027 225.77 329.027 225.77C330.781 225.139 332.575 224.632 334.395 224.254C336.156 223.861 338.318 223.476 340.824 223.178C343.254 222.893 345.696 222.734 348.141 222.704C350.567 222.687 352.933 223.495 354.881 225.005Z" fill="#B25E47"/>
<path d="M328.975 222.461C322.753 222.075 317.45 216.804 318.764 210.091C320.234 202.587 323.031 199.021 326.159 198.006C327.719 200.151 328.749 203.311 328.807 207.412C328.852 212.514 328.93 218.732 328.975 222.461Z" fill="#914839"/>
<path d="M340.824 223.165C340.328 225.482 340.031 227.842 339.937 230.215C337.774 231.061 335.482 231.934 333.061 232.773C333.166 229.882 333.616 227.015 334.401 224.24C336.156 223.848 338.318 223.462 340.824 223.165Z" fill="#FED81D"/>
<path d="M302.201 224.992C300.859 229.141 299.93 233.425 299.429 237.774C297.05 237.607 294.697 237.153 292.417 236.421C293.086 232.737 294.088 229.128 295.408 225.641C297.966 225.33 300.44 225.134 302.201 224.992Z" fill="#FED81D"/>
<path d="M360.722 306.577C360.036 313.52 358.78 320.422 356.598 325.247C355.251 328.217 353.548 330.389 351.385 331.296C347.041 333.13 343.305 332.649 340.326 330.924C334.991 327.845 332.103 320.841 332.556 316.301C332.556 316.084 332.595 315.841 332.621 315.624C332.673 314.948 332.718 314.224 332.763 313.412C332.763 313.148 332.763 312.87 332.815 312.586C332.815 312.532 332.815 312.478 332.815 312.417C332.815 312.214 332.815 312.004 332.815 311.794C332.815 311.422 332.854 311.03 332.867 310.644C332.88 310.258 332.867 310.035 332.906 309.717C332.906 309.609 332.906 309.501 332.906 309.392C332.906 309.076 332.919 308.752 332.945 308.418C332.945 308.08 332.945 307.741 332.99 307.383C332.99 306.611 333.042 305.833 333.068 305.021C333.094 304.209 333.113 303.58 333.139 302.842C333.139 302.524 333.139 302.206 333.139 301.895C333.197 300.183 333.243 298.403 333.294 296.597C333.327 295.46 333.359 294.309 333.398 293.152L333.437 291.724L333.495 289.769L333.534 288.416C333.534 287.631 333.592 286.859 333.612 286.088C333.65 284.971 333.689 283.862 333.728 282.772C333.728 282.055 333.786 281.344 333.812 280.641C333.864 279.321 333.922 278.056 333.981 276.831L361.37 280.817C361.703 289.409 361.487 298.015 360.722 306.577Z" fill="#C3DCF8"/>
<path d="M334.026 276.757C333.379 289.762 333.178 309.237 332.518 316.288" stroke="#83ADDF" stroke-width="0.75" stroke-linecap="round" stroke-linejoin="round"/>
<path d="M360.722 306.578C360.036 313.52 358.78 320.422 356.598 325.247C355.251 328.217 353.548 330.39 351.385 331.296C347.041 333.13 343.305 332.65 340.326 330.924C341.864 330.206 343.486 329.704 345.15 329.429C352.421 328.136 350.129 318.791 353.289 312.302C354.565 309.711 356.721 307.566 360.722 306.578Z" fill="#A7CAF0"/>
<path d="M293.382 345.201C291.53 346.893 290.306 353.998 294.768 359.669C299.229 365.339 303.593 361.699 303.593 361.699C303.593 361.699 309.99 355.94 305.536 347.374C301.081 338.807 293.382 345.201 293.382 345.201Z" fill="#83ADDF"/>
<path d="M303.082 343.835C298.394 346.196 295.059 347.786 294.218 347.726C293.376 347.665 285.522 348.673 283.262 349.383C281.002 350.094 275.868 355.751 276.373 356.576C276.878 357.402 278.859 357.253 278.859 357.253C278.859 357.253 271.089 363.214 270.331 365.373C269.574 367.532 271.918 367.024 271.918 367.024C270.707 367.701 269.043 371.314 273.271 369.974C272.255 370.651 271.639 372.647 274.514 371.923C278.691 370.861 285.522 367.911 285.522 367.911C285.522 367.911 280.776 371.625 278.859 372.573C276.942 373.52 276.826 375.699 280.95 374.461C285.075 373.222 293.085 367.383 295.843 365.312C298.601 363.242 301.263 361.482 301.884 361.069C302.506 360.657 308.437 357.821 308.437 357.821C308.437 357.821 314.2 342.657 303.082 343.835Z" fill="#B25E47"/>
<path d="M278.859 357.28C281.741 355.155 285.749 352.056 286.597 351.955" stroke="#934735" stroke-width="0.75" stroke-linecap="round" stroke-linejoin="round"/>
<path d="M271.95 367.078C272.067 366.747 283.566 359.033 283.566 359.033" stroke="#934735" stroke-width="0.75" stroke-linecap="round" stroke-linejoin="round"/>
<path d="M273.245 370.028C273.303 369.649 285.03 363.478 285.03 363.478" stroke="#934735" stroke-width="0.75" stroke-linecap="round" stroke-linejoin="round"/>
<path d="M283.262 349.383C281.002 350.06 275.868 355.751 276.373 356.576C276.878 357.402 278.859 357.253 278.859 357.253C278.859 357.253 271.089 363.214 270.331 365.373C269.574 367.532 271.918 367.024 271.918 367.024C270.707 367.701 269.043 371.314 273.271 369.974C272.255 370.651 271.639 372.647 274.514 371.923C278.691 370.861 285.522 367.91 285.522 367.91C285.522 367.91 280.776 371.625 278.859 372.573C276.942 373.52 276.826 375.699 280.95 374.461C281.955 374.13 282.93 373.709 283.864 373.202" stroke="#934735" stroke-width="0.75" stroke-linecap="round" stroke-linejoin="round"/>
<path d="M356.598 325.247C355.529 330.376 343.486 338.875 331.151 346.379C317.748 354.499 304.001 361.502 303.593 361.705C306.52 356.827 305.905 343.632 293.389 345.181C293.389 345.181 326.288 320.821 332.472 315.543C332.51 315.508 332.551 315.476 332.595 315.448C339.64 309.521 348.4 308.438 353.315 312.302C356.326 314.711 357.873 319.014 356.598 325.247Z" fill="#C3DCF8"/>
<path d="M356.598 325.246C355.53 330.376 343.486 338.874 331.151 346.379C332.686 338.935 334.713 333.603 340.314 330.924C341.852 330.206 343.474 329.703 345.137 329.428C352.409 328.136 350.117 318.791 353.276 312.302C356.326 314.711 357.874 319.014 356.598 325.246Z" fill="#A7CAF0"/>
<path d="M321.626 324.035C326.541 320.294 330.659 317.1 332.478 315.557C335.091 313.305 338.129 311.654 341.394 310.712" stroke="#83ADDF" stroke-width="0.75" stroke-linecap="round" stroke-linejoin="round"/>
<path d="M290.242 250.252C289.154 254.398 287.84 258.476 286.305 262.465C284.482 267.233 282.429 271.901 280.154 276.452C279.614 277.548 279.055 278.642 278.477 279.734C278.392 279.903 278.302 280.079 278.205 280.248C277.473 281.642 276.702 283.036 275.919 284.417C273.795 288.152 271.76 291.587 269.813 294.722C266.863 299.584 263.589 304.224 260.016 308.607C253.451 316.463 247.714 319.867 242.1 318.757C241.021 318.54 239.972 318.181 238.979 317.688C237.892 317.165 236.918 316.415 236.119 315.484C235.319 314.553 234.711 313.461 234.33 312.275C233.962 311.182 233.727 310.046 233.631 308.892C233.21 304.324 234.401 298.437 236.972 291.704C238.439 287.935 240.121 284.261 242.009 280.702C242.553 279.673 243.117 278.672 243.693 277.602C245.558 274.273 247.662 270.836 249.974 267.344C250.213 266.992 250.44 266.668 250.667 266.295C251.431 265.145 252.173 264.017 252.894 262.912L255.102 259.529C255.27 259.272 255.432 259.014 255.6 258.764C258.242 254.704 260.638 250.962 262.878 247.606L262.982 247.443L264.277 245.542C271.743 234.58 277.538 228.098 284.855 227.272C292.793 226.406 293.796 236.393 290.242 250.252Z" fill="#C3DCF8"/>
<path d="M290.241 250.252C282.523 246.557 272.817 245.819 262.969 247.443L264.264 245.542C271.729 234.58 277.525 228.098 284.841 227.272C292.793 226.406 293.796 236.393 290.241 250.252Z" fill="#D0E5F7"/>
<path d="M284.647 258.358C286.719 249.853 287.095 246.659 287.095 246.659" stroke="#83ADDF" stroke-width="0.75" stroke-linecap="round" stroke-linejoin="round"/>
<path d="M286.305 262.466C284.482 267.233 282.429 271.902 280.153 276.452C280.153 276.452 264.18 274.361 255.594 258.764C258.236 254.704 260.631 250.962 262.872 247.606C265.41 251.862 271.794 259.333 286.305 262.466Z" fill="#83ADDF"/>
<path d="M279.843 276.378C281.623 269.915 283.08 264.489 283.877 261.335L284.11 260.435C284.459 259.082 284.647 258.358 284.647 258.358" stroke="#83ADDF" stroke-width="0.75" stroke-linecap="round" stroke-linejoin="round"/>
<path d="M278.47 279.734L278.198 280.235L275.913 284.403C275.913 284.403 256.708 280.438 250.66 266.295C251.424 265.145 252.167 264.017 252.888 262.912C261.622 277.386 278.47 279.734 278.47 279.734Z" fill="#83ADDF"/>
<path d="M265.824 284.979C265.824 284.979 264.834 293.363 260.774 306.402C260.541 307.16 260.288 307.891 260.01 308.615C256.772 317.201 250.997 323.603 245.286 325.788C243.288 326.617 241.102 326.812 238.998 326.35C231.28 324.496 227.816 317.878 229.901 306.402C230.834 301.259 233.398 296.306 236.959 291.725C238.993 289.137 241.223 286.725 243.628 284.512C246.683 281.694 249.929 279.111 253.341 276.784L265.824 284.979Z" fill="#C3DCF8"/>
<path d="M245.286 325.788C243.288 326.616 241.102 326.812 238.998 326.35C231.28 324.495 227.816 317.878 229.901 306.401C230.834 301.259 233.398 296.306 236.959 291.724C238.993 289.137 241.223 286.724 243.628 284.511C244.262 286.572 244.363 288.771 243.921 290.885C243.478 292.999 242.508 294.953 241.109 296.549C237.645 300.609 234.052 305.15 233.618 308.912C233.444 310.091 233.693 311.296 234.317 312.295C234.939 313.221 235.78 313.962 236.758 314.447C238.774 315.539 240.58 317.01 242.087 318.784C243.926 320.963 245.111 323.447 245.286 325.788Z" fill="#A7CAF0"/>
<path d="M260.773 306.408C261.732 303.323 262.522 300.508 263.163 297.991" stroke="#83ADDF" stroke-width="0.75" stroke-linecap="round" stroke-linejoin="round"/>
<path d="M246.749 281.771C238.377 288.741 231.552 297.26 229.914 306.408" stroke="#83ADDF" stroke-width="0.75" stroke-linecap="round" stroke-linejoin="round"/>
<path d="M250.822 283.659C248.88 287.184 246.115 293.132 248.446 296.996C250.777 300.86 255.84 301.732 259.706 297.997C263.571 294.262 265.533 290.554 265.825 286.548L250.822 283.659Z" fill="#83ADDF"/>
<path d="M256.688 275.857C255.853 274.795 257.983 273.367 259.53 274.368C261.083 275.413 262.768 276.226 264.536 276.784C265.831 277.082 266.646 280.546 266.051 281.182C266.051 281.182 257.704 277.116 256.688 275.857Z" fill="#B25E47"/>
<path d="M264.536 276.757C265.831 277.055 266.647 280.519 266.051 281.155" stroke="#934735" stroke-width="0.75" stroke-linecap="round" stroke-linejoin="round"/>
<path d="M239.063 267.96C237.315 266.817 239.134 263.501 240.889 264.266C242.644 265.03 268.829 282.847 268.829 282.847L270.771 286.23L266.886 285.689C266.886 285.689 240.52 268.941 239.063 267.96Z" fill="#683F1D"/>
<path d="M250.738 278.645C250.323 276.046 253.587 275.356 255.199 276.567C256.811 277.778 262.503 280.539 264.361 281.182C266.22 281.825 267.385 284.247 266.226 285.093C266.226 285.093 267.385 286.819 266.025 287.61C265.424 288.008 264.769 288.309 264.083 288.504C264.083 288.504 264.64 290.364 260.412 292.306C260.412 292.306 259.764 295.013 257.491 295.69C255.219 296.366 251.016 295.845 250.039 295.013C249.061 294.181 248.575 291.63 249.534 290.696C249.534 290.696 247.105 289.505 247.539 287.637C248.122 285.12 249.78 285.851 249.281 284.856C248.782 283.862 247.986 281.987 249.229 281.209C250.472 280.431 250.964 280.039 250.738 278.645Z" fill="#B25E47"/>
<path d="M264.361 281.182C266.226 281.825 267.385 284.247 266.226 285.093C266.226 285.093 267.385 286.819 266.025 287.61C265.424 288.008 264.769 288.309 264.083 288.504C264.083 288.504 264.64 290.364 260.411 292.307C260.411 292.307 259.764 295.013 257.491 295.69" stroke="#934735" stroke-width="0.75" stroke-linecap="round" stroke-linejoin="round"/>
<path d="M251.456 286.183C254.67 287.438 258.011 288.301 261.415 288.754C262.318 288.75 263.219 288.667 264.108 288.504" stroke="#934735" stroke-width="0.75" stroke-linecap="round" stroke-linejoin="round"/>
<path d="M266.226 285.094C266.226 285.094 261.499 285.236 260.495 285.094C259.608 284.965 252.842 282.17 252.842 282.17" stroke="#934735" stroke-width="0.75" stroke-linecap="round" stroke-linejoin="round"/>
<path d="M252.713 291.725C252.713 291.725 257.705 292.773 260.438 292.307" stroke="#934735" stroke-width="0.75" stroke-linecap="round" stroke-linejoin="round"/>
<path d="M313.189 184.317C311.67 187.153 309.481 189.534 306.83 191.233C302.33 194.169 298.529 191.964 296.911 189.717C296.315 188.878 296.328 186.598 296.787 184.026C297.571 179.675 299.63 174.465 302.162 173.876C303.628 173.51 305.155 173.492 306.629 173.822C308.103 174.152 309.488 174.823 310.683 175.784C311.093 176.115 311.461 176.499 311.777 176.928C313.48 179.202 313.532 179.317 313.189 184.317Z" fill="#FFEACC"/>
<path d="M313.189 184.317C311.67 187.153 309.481 189.534 306.83 191.233C302.33 194.169 298.529 191.963 296.911 189.717C296.315 188.878 296.328 186.598 296.787 184.026C298.983 188.086 302.848 189.703 304.37 188.404C306.532 186.543 303.243 177.483 310.683 175.757C311.093 176.088 311.461 176.472 311.777 176.901C313.48 179.202 313.532 179.317 313.189 184.317Z" fill="#EDD6B7"/>
<path d="M307.562 185.407C308.805 185.069 309.084 182.132 307.886 181.942C306.688 181.753 305.756 183.817 306.047 185.407C306.228 186.415 306.96 187.112 309.22 186.544" stroke="#C6AB8B" stroke-width="0.75" stroke-linecap="round" stroke-linejoin="round"/>
<path d="M306.267 188.58C301.197 188.458 299.313 187.457 298.931 185.089C298.549 182.72 298.322 178.728 298.322 178.728" stroke="#C6AB8B" stroke-width="0.75" stroke-linecap="round" stroke-linejoin="round"/>
<path d="M303.606 188.398C302.282 187.228 301.37 185.63 301.016 183.857C300.601 181.151 302.667 177.537 304.066 177.368C306.481 177.084 311.836 179.249 311.408 183.627" stroke="#C6AB8B" stroke-width="0.75" stroke-linecap="round" stroke-linejoin="round"/>
<path d="M332.426 213.59C327.583 215.972 318.777 213.59 313.746 207.879C307.452 200.726 312.852 184.872 320.039 182.625C327.227 180.379 330.95 188.33 333.054 194.711L333.093 194.846C333.638 196.523 334.092 198.231 334.453 199.962C335.586 205.361 335.961 211.851 332.426 213.59Z" fill="#B25E47"/>
<path d="M313.538 197.248C313.156 198.642 315.092 200.449 317.87 201.308C320.648 202.167 323.199 201.674 323.581 200.273C323.963 198.872 322.027 197.065 319.256 196.213C316.484 195.36 313.92 195.847 313.538 197.248Z" fill="#A0503D"/>
<path d="M334.453 199.962C333.061 200.578 331.824 200.598 331.248 199.887C330.425 198.859 331.248 196.7 333.093 194.846C333.638 196.523 334.092 198.231 334.453 199.962Z" fill="#A0503D"/>
<path d="M328.372 193.323C328.371 193.519 328.425 193.711 328.529 193.875C328.632 194.038 328.78 194.166 328.953 194.242C329.126 194.317 329.316 194.337 329.5 194.299C329.684 194.262 329.853 194.167 329.986 194.029C330.118 193.89 330.209 193.714 330.245 193.521C330.281 193.329 330.262 193.13 330.19 192.949C330.117 192.768 329.995 192.614 329.839 192.506C329.682 192.398 329.498 192.341 329.311 192.342C329.062 192.344 328.825 192.448 328.649 192.632C328.473 192.815 328.374 193.064 328.372 193.323Z" fill="#683F1D"/>
<path d="M323.102 194.717C323.102 194.913 323.157 195.104 323.261 195.267C323.366 195.43 323.514 195.556 323.687 195.631C323.86 195.705 324.05 195.725 324.234 195.686C324.417 195.647 324.586 195.552 324.718 195.414C324.85 195.275 324.939 195.098 324.975 194.906C325.011 194.714 324.991 194.515 324.918 194.335C324.846 194.154 324.724 194 324.567 193.893C324.411 193.785 324.228 193.728 324.04 193.73C323.917 193.73 323.794 193.755 323.68 193.805C323.565 193.855 323.462 193.927 323.374 194.019C323.287 194.111 323.218 194.22 323.171 194.34C323.124 194.46 323.101 194.588 323.102 194.717Z" fill="#683F1D"/>
<path d="M320.732 198.94C320.732 199.032 320.759 199.123 320.808 199.199C320.857 199.276 320.927 199.336 321.008 199.371C321.09 199.407 321.18 199.416 321.266 199.398C321.353 199.38 321.433 199.335 321.495 199.27C321.558 199.205 321.6 199.122 321.617 199.031C321.635 198.941 321.626 198.847 321.592 198.761C321.558 198.676 321.501 198.603 321.427 198.552C321.354 198.501 321.268 198.473 321.179 198.473C321.061 198.473 320.947 198.522 320.863 198.61C320.779 198.697 320.732 198.816 320.732 198.94Z" fill="#914839"/>
<path d="M322.662 197.519C322.908 197.519 323.108 197.31 323.108 197.052C323.108 196.794 322.908 196.585 322.662 196.585C322.415 196.585 322.215 196.794 322.215 197.052C322.215 197.31 322.415 197.519 322.662 197.519Z" fill="#914839"/>
<path d="M323.108 199.211C323.355 199.211 323.555 199.002 323.555 198.744C323.555 198.486 323.355 198.277 323.108 198.277C322.861 198.277 322.661 198.486 322.661 198.744C322.661 199.002 322.861 199.211 323.108 199.211Z" fill="#914839"/>
<path d="M324.307 197.519C324.307 197.611 324.333 197.702 324.382 197.779C324.431 197.855 324.501 197.915 324.582 197.951C324.664 197.986 324.754 197.995 324.841 197.977C324.927 197.959 325.007 197.915 325.069 197.849C325.132 197.784 325.174 197.701 325.192 197.61C325.209 197.52 325.2 197.426 325.166 197.34C325.132 197.255 325.075 197.182 325.002 197.131C324.928 197.08 324.842 197.052 324.753 197.052C324.635 197.052 324.521 197.101 324.438 197.189C324.354 197.277 324.307 197.395 324.307 197.519Z" fill="#914839"/>
<path d="M331.623 195.773C331.623 195.865 331.649 195.956 331.698 196.032C331.747 196.109 331.817 196.169 331.899 196.204C331.98 196.24 332.07 196.249 332.157 196.231C332.244 196.213 332.323 196.168 332.386 196.103C332.448 196.038 332.491 195.955 332.508 195.864C332.525 195.774 332.516 195.68 332.483 195.594C332.449 195.509 332.392 195.436 332.318 195.385C332.245 195.334 332.158 195.306 332.07 195.306C331.951 195.306 331.838 195.355 331.754 195.443C331.67 195.53 331.623 195.649 331.623 195.773Z" fill="#914839"/>
<path d="M330.464 195.543C330.711 195.543 330.911 195.334 330.911 195.076C330.911 194.818 330.711 194.609 330.464 194.609C330.218 194.609 330.018 194.818 330.018 195.076C330.018 195.334 330.218 195.543 330.464 195.543Z" fill="#914839"/>
<path d="M337.308 194.447C336.764 195.124 336.104 195.462 335.813 195.124C335.243 194.487 336.881 193.486 335.813 192.336C334.744 191.185 332.031 191.869 332.031 191.869C328.088 181.096 322.111 181.435 318.563 183.289C315.015 185.143 314.678 188.384 314.626 190.326C314.575 192.268 314.562 192.931 317.216 194.487C319.871 196.044 317.398 198.48 316.97 200.408C316.543 202.337 318.498 201.762 319.56 203.683C320.622 205.605 318.492 206.546 318.583 205.713C318.673 204.881 317.935 203.812 317.178 203.995C316.42 204.177 314.898 203.589 314.827 202.641C314.756 201.694 314.18 199.481 313.221 199.156C309.874 198.006 308.132 201.383 308.592 204.022C308.742 204.808 309.063 205.547 309.53 206.183C309.997 206.819 310.597 207.334 311.285 207.689C311.285 207.689 309.343 208.691 306.073 204.509C305.371 203.605 304.877 202.545 304.629 201.41C303.677 197.255 305.62 192.173 307.472 189.142C309.822 185.271 310.748 185.082 310.748 185.082C311.84 182.468 313.477 180.142 315.539 178.275C319.081 174.966 322.215 177.754 322.215 177.754C325.627 175.263 329.694 176.265 330.859 178.579C332.025 180.893 331.578 184.527 331.759 185.718C331.941 186.909 332.828 188.919 334.997 188.919C337.166 188.919 337.995 189.778 338.131 191.855C338.181 192.797 337.887 193.723 337.308 194.447Z" fill="#FFEACC"/>
<path d="M337.308 194.447C336.764 195.123 336.104 195.462 335.813 195.123C335.243 194.487 336.881 193.486 335.813 192.336C334.744 191.185 332.031 191.869 332.031 191.869C328.088 181.096 322.111 181.435 318.563 183.289C315.015 185.143 314.678 188.384 314.626 190.326C314.575 192.268 314.562 192.931 317.216 194.487C319.871 196.044 317.398 198.48 316.97 200.408C316.543 202.337 318.498 201.762 319.56 203.683C320.622 205.605 318.492 206.546 318.583 205.713C318.673 204.881 317.935 203.812 317.177 203.995C316.42 204.177 314.898 203.589 314.827 202.641C314.756 201.694 314.316 199.847 313.208 199.373C309.796 197.905 308.294 201.403 308.753 204.022C308.924 204.822 309.275 205.568 309.777 206.198C310.28 206.828 310.919 207.323 311.641 207.642C311.641 207.642 309.945 209.536 306.073 204.509C305.375 203.602 304.881 202.543 304.629 201.41C307.97 198.223 307.802 195.008 310.036 194.311C312.768 193.459 312.412 187.782 315.559 182.233C318.706 176.684 324.022 180.616 325.336 181.928C325.336 181.928 329.137 179.898 330.27 185.082C331.403 190.265 333.954 191.057 335.677 190.881C336.7 190.773 337.548 192.627 337.308 194.447Z" fill="#EDD6B7"/>
<path d="M313.188 195.665C314.438 195.868 315.06 197.81 314.38 200.747" stroke="#C6AB8B" stroke-width="0.75" stroke-linecap="round" stroke-linejoin="round"/>
<path d="M314.937 186.8C316.73 181.461 317.565 181.055 318.103 180.71C319.081 180.095 321.269 180.771 321.269 180.771" stroke="#C6AB8B" stroke-width="0.75" stroke-linecap="round" stroke-linejoin="round"/>
<path d="M322.215 177.753C323.313 178.736 324.349 179.792 325.316 180.913" stroke="#C6AB8B" stroke-width="0.75" stroke-linecap="round" stroke-linejoin="round"/>
<path d="M308.636 201.647C306.843 198.886 305.049 192.789 308.28 187.843" stroke="#C6AB8B" stroke-width="0.75" stroke-linecap="round" stroke-linejoin="round"/>
<path d="M310.424 199.319C309.129 196.524 308.119 191.152 310.748 185.109" stroke="#C6AB8B" stroke-width="0.75" stroke-linecap="round" stroke-linejoin="round"/>
<path d="M326.877 190.881C326.068 194.034 327.259 195.313 328.677 195.699C330.095 196.084 331.228 196.842 331.066 198.155" stroke="#934735" stroke-width="0.75" stroke-linecap="round" stroke-linejoin="round"/>
<path d="M318.803 192.173C319.45 192.85 323.335 190.197 322.338 188.634C321.341 187.071 317.857 191.226 318.803 192.173Z" fill="#FFEACC"/>
<path d="M325.88 187.68C325.88 189.271 329.765 188.411 329.694 187.89C329.577 186.95 325.873 186.226 325.88 187.68Z" fill="#FFEACC"/>
<path d="M325.77 200.53C326.353 201.12 327.082 201.527 327.875 201.707C328.667 201.886 329.493 201.83 330.257 201.545" stroke="#934735" stroke-width="0.75" stroke-linecap="round" stroke-linejoin="round"/>
<path d="M315.539 203.676V207.601C314.281 208.042 312.923 208.061 311.654 207.655H311.589C310.707 207.336 309.938 206.743 309.385 205.957C308.832 205.17 308.521 204.226 308.494 203.25C308.451 202.616 308.55 201.981 308.783 201.393C309.015 200.806 309.375 200.284 309.834 199.867C310.14 199.594 310.488 199.379 310.864 199.231C311.642 199.017 312.467 199.096 313.195 199.454C314.296 199.928 314.736 201.741 314.814 202.722C314.855 202.93 314.942 203.124 315.068 203.29C315.194 203.455 315.355 203.588 315.539 203.676Z" fill="#B25E47"/>
<path d="M310.016 202.79C310.398 201.768 312.936 200.632 314.134 203.419" stroke="#934735" stroke-width="0.75" stroke-linecap="round" stroke-linejoin="round"/>
<path d="M313.94 203C311.162 201.315 310.016 205.632 313.616 205.368" stroke="#934735" stroke-width="0.75" stroke-linecap="round" stroke-linejoin="round"/>
<path d="M315.539 207.588C314.114 208.105 312.556 208.057 311.162 207.453" stroke="#934735" stroke-width="0.75" stroke-linecap="round" stroke-linejoin="round"/>
<path d="M452.791 224.883C452.318 228.03 450.246 230.804 447.481 232.76C442.191 236.529 434.337 237.341 430.238 232.259C425.117 225.919 412.251 196.091 407.764 185.522C406.786 183.201 406.203 181.8 406.203 181.8C406.579 167.827 416.492 161.777 426.425 162.258C436.357 162.738 443.13 170.121 443.655 181.245C444.179 192.37 439.893 208.738 442.845 212.128C445.798 215.518 454.176 215.694 452.791 224.883Z" fill="#D39933"/>
<path d="M449.217 228.111C448.891 229.751 448.305 231.323 447.481 232.76C442.191 236.529 434.337 237.341 430.238 232.259C425.117 225.919 412.251 196.091 407.764 185.522C410.885 170.331 418.538 165.608 427.079 167.083C435.736 168.585 439.446 180.785 436.694 186.117C433.942 191.449 426.93 201.951 430.504 208.569C434.078 215.187 433.456 216.439 437.626 217.481C441.796 218.523 450.499 220.688 449.217 228.111Z" fill="#C4892A"/>
<path d="M409.486 179.391C411.176 169.748 419.846 167.989 423.654 168.93" stroke="#EDB65F" stroke-width="0.75" stroke-linecap="round" stroke-linejoin="round"/>
<path d="M415.838 178.16C420.681 173.89 427.707 175.331 427.661 178.999C427.616 182.666 427.35 185.407 429.371 186.895C431.391 188.384 434.402 191.544 432.692 195.99" stroke="#EDB65F" stroke-width="0.75" stroke-linecap="round" stroke-linejoin="round"/>
<path d="M436.882 200.855C435.587 208.819 434.784 212.724 438.222 213.82C441.661 214.916 442.807 216.114 442.062 217.833C441.317 219.551 440.366 220.275 442.612 221.162C444.859 222.048 445.054 225.019 445.054 225.019" stroke="#EDB65F" stroke-width="0.75" stroke-linecap="round" stroke-linejoin="round"/>
<path d="M413.267 274.977C409.285 295.663 402.396 317.221 395.487 327.425C393.499 330.355 391.524 332.352 389.608 333.123C372.902 339.89 366.091 331.729 368.001 307.125C369.101 292.915 376.347 266.877 386.131 247.951C393.143 234.418 401.451 224.538 409.758 225.283C418.642 226.095 418.091 249.9 413.267 274.977Z" fill="#A7CAF0"/>
<path d="M413.268 274.977C411.33 274.287 409.558 273.165 408.077 271.688C406.595 270.211 405.439 268.415 404.688 266.424C403.727 263.812 402.499 261.316 401.023 258.981C397.43 253.351 392.431 249.122 386.131 247.917C393.143 234.384 401.451 224.505 409.758 225.249C418.642 226.095 418.091 249.9 413.268 274.977Z" fill="#C3DCF8"/>
<path d="M401.036 260.909C392.974 261.884 391.245 264.482 392.204 270.349C393.162 276.215 381.559 269.855 378.431 276.784C375.304 283.713 390.669 309.589 390.948 309.737L395.642 312.241L404.539 301.414L410.457 286.23L410.554 272.338L401.036 260.909Z" fill="#93BEE5"/>
<path d="M472.202 265.645C472.073 268.677 471.043 279.138 469.748 291.643C467.514 313.114 464.478 340.6 463.785 346.886L461.409 346.243C451.767 343.645 441.336 341.317 430.225 339.219C419.114 337.122 407.414 335.274 395.176 333.65C395.273 331.83 395.376 329.719 395.487 327.425C396.043 315.556 396.691 298.775 396.173 291.934C395.338 280.938 394.839 273.082 398.342 266.099C399.45 263.831 400.352 261.459 401.036 259.014C402.842 252.809 403.807 245.731 403.69 241.089C403.548 235.615 400.544 227.184 409.777 225.282C412.175 224.862 414.615 224.773 417.035 225.018C434.868 226.372 438.513 225.018 438.513 225.018C450.025 222.873 459.576 225.519 462.244 226.493L462.49 226.588C466.375 228.09 470.027 233.707 471.555 245.589C472.333 252.242 472.549 258.953 472.202 265.645Z" fill="#A7CAF0"/>
<path d="M448.342 275.992C435.593 269.74 426.787 284.112 427.447 295.493C428.295 309.967 412.121 292.279 405.257 307.992C399.805 320.476 426.813 331.675 441.019 319.495C455.225 307.315 465.552 284.423 448.342 275.992Z" fill="#93BEE5"/>
<path d="M471.581 245.589C462.878 244.121 451.897 248.445 445.24 254.724C442.456 257.363 440.429 260.347 439.646 263.392C436.991 273.772 423.024 278.739 413.267 274.977C411.329 274.287 409.557 273.164 408.076 271.687C406.594 270.21 405.438 268.414 404.687 266.424C403.727 263.812 402.498 261.316 401.022 258.98C402.829 252.775 403.794 245.697 403.677 241.055C403.535 235.581 400.53 227.15 409.764 225.249C412.162 224.828 414.602 224.74 417.022 224.985C434.854 226.338 438.5 224.985 438.5 224.985C450.012 222.84 459.563 225.485 462.231 226.46L462.477 226.554C466.375 228.091 470.033 233.707 471.581 245.589Z" fill="#C3DCF8"/>
<path d="M395.176 333.65C395.273 331.83 395.376 329.719 395.487 327.425C396.043 315.556 396.691 298.775 396.173 291.934C395.338 280.938 394.839 273.082 398.342 266.099C399.45 263.831 400.352 261.459 401.036 259.014C402.247 254.795 403.068 250.465 403.49 246.083" stroke="#83ADDF" stroke-width="0.75" stroke-linecap="round" stroke-linejoin="round"/>
<path d="M435.347 225.019C435.625 227.157 422.941 242.402 417.638 241.001C412.335 239.601 415.048 225.215 415.048 225.215C415.048 225.215 414.724 224.24 414.225 222.806C413.001 219.247 410.761 212.805 409.945 211.045C409.009 209.056 408.261 206.975 407.711 204.834C403.671 188.749 416.634 182.544 423.64 198.845C430.724 215.281 435.062 222.874 435.347 225.019Z" fill="#FEBD9D"/>
<path d="M414.238 222.806C413.015 219.247 410.774 212.805 409.958 211.046C409.022 209.056 408.274 206.975 407.725 204.834C412.341 201.694 418.803 204.509 421.322 210.024C423.757 215.383 420.552 221.689 414.238 222.806Z" fill="#F4A789"/>
<path d="M414.601 223.848C415.741 226.277 415.559 226.751 415.559 228.077C415.559 229.403 415.851 236.102 415.274 238.681C415.274 238.681 412.445 235.527 410.917 236.048C409.389 236.569 406.954 238.681 406.954 238.681L411.299 227.177C412.212 224.701 413.461 223.801 414.601 223.848Z" fill="#683F1D"/>
<path d="M438.519 225.018C438.571 223.665 434.958 221.128 434.421 222.393C431.468 229.376 423.808 238.362 421.153 240.291C422.306 240.587 423.401 241.089 424.391 241.773C425.874 242.889 428.619 247.937 428.619 247.937C428.619 247.937 437.982 238.68 438.519 225.018Z" fill="#683F1D"/>
<path d="M414.595 247.051C414.595 247.49 414.719 247.919 414.953 248.284C415.186 248.649 415.518 248.934 415.906 249.102C416.294 249.27 416.721 249.313 417.133 249.228C417.545 249.142 417.923 248.931 418.22 248.62C418.517 248.31 418.72 247.915 418.802 247.484C418.883 247.053 418.841 246.607 418.681 246.202C418.52 245.796 418.248 245.449 417.898 245.206C417.549 244.962 417.139 244.832 416.719 244.832C416.155 244.832 415.615 245.065 415.217 245.482C414.818 245.898 414.595 246.462 414.595 247.051Z" fill="white"/>
<path d="M413.507 255.232C413.506 255.672 413.629 256.103 413.863 256.47C414.096 256.837 414.428 257.124 414.817 257.293C415.207 257.463 415.635 257.508 416.049 257.423C416.462 257.338 416.843 257.126 417.141 256.815C417.44 256.504 417.643 256.107 417.726 255.675C417.809 255.243 417.767 254.795 417.606 254.388C417.445 253.981 417.172 253.633 416.821 253.388C416.471 253.143 416.059 253.012 415.637 253.012C415.358 253.011 415.081 253.068 414.822 253.179C414.564 253.29 414.329 253.454 414.131 253.66C413.933 253.866 413.776 254.111 413.669 254.381C413.562 254.65 413.507 254.94 413.507 255.232Z" fill="white"/>
<path d="M461.408 346.244C451.767 343.645 441.336 341.317 430.225 339.22C430.48 338.416 430.854 337.658 431.332 336.973C437.658 327.432 442.417 316.869 457.329 321.491C463.39 323.372 460.294 334.009 457.329 337.731C454.24 341.561 462.736 341.663 461.408 346.244Z" fill="#93BEE5"/>
<path d="M376.923 335.065C363.326 332.805 359.363 311.517 357.278 300.616C355.731 292.496 352.616 271.851 351.127 261.796C350.609 258.331 350.285 256.125 350.285 256.125C350.285 256.125 357.162 257.404 364.155 250.61C364.582 251.727 365.275 253.276 366.155 255.164C372.533 268.901 389.148 300.413 392.204 311.131C395.675 323.325 390.352 337.305 376.923 335.065Z" fill="#A7CAF0"/>
<path d="M357.278 300.616C356.559 296.834 355.498 290.324 354.416 283.436C353.179 275.546 351.923 267.162 351.127 261.782C350.609 258.318 350.285 256.112 350.285 256.112" stroke="#83ADDF" stroke-width="0.75" stroke-linecap="round" stroke-linejoin="round"/>
<path d="M364.154 250.61C362.542 247.227 358.547 240.792 354.753 237.821C352.719 236.238 350.22 236.252 349.359 236.888C349.359 236.888 342.431 235.812 337.166 237.152C331.902 238.491 331.067 241.516 333.249 241.78C335.431 242.044 339.154 240.711 341.854 240.643C341.854 240.643 339.128 241.32 339.187 243.945C338.539 243.546 337.018 244.588 337.341 246.733C337.341 246.733 336.253 245.542 335.82 247.748C335.386 249.954 337.225 253.202 339.336 253.324C341.446 253.446 341.213 251.856 341.213 251.856C341.213 251.856 342.936 255.158 350.278 256.125C350.278 256.125 351.573 258.473 351.573 258.351C351.573 258.23 364.374 259.597 364.154 250.61Z" fill="#FEBD9D"/>
<path d="M354.753 237.821C352.719 236.238 350.22 236.252 349.359 236.888C349.359 236.888 342.431 235.812 337.166 237.152C331.902 238.491 331.067 241.516 333.249 241.78C335.431 242.044 339.154 240.711 341.854 240.643C341.854 240.643 339.128 241.32 339.187 243.945C338.539 243.546 337.018 244.588 337.341 246.733C337.341 246.733 336.253 245.542 335.82 247.748C335.386 249.954 337.225 253.202 339.336 253.324C341.446 253.446 341.213 251.856 341.213 251.856" stroke="#EF8A66" stroke-width="0.75" stroke-linecap="round" stroke-linejoin="round"/>
<path d="M341.88 240.643C343.171 240.497 344.474 240.497 345.765 240.643" stroke="#EF8A66" stroke-width="0.75" stroke-linecap="round" stroke-linejoin="round"/>
<path d="M337.348 246.733C338.267 249.217 339.484 250.915 341.233 251.856C342.981 252.796 345.273 250.056 345.157 249.291C346.037 248.655 346.607 247.22 344.839 246.097" stroke="#EF8A66" stroke-width="0.75" stroke-linecap="round" stroke-linejoin="round"/>
<path d="M339.187 243.945C339.672 246.605 341.33 249.947 345.137 249.291" stroke="#EF8A66" stroke-width="0.75" stroke-linecap="round" stroke-linejoin="round"/>
<path d="M355.595 249.69C351.256 247.66 350.499 244.879 350.285 242.775C350.285 242.775 344.199 247.417 342.794 246.232C341.045 244.751 347.974 237.734 349.359 236.888" stroke="#EF8A66" stroke-width="0.75" stroke-linecap="round" stroke-linejoin="round"/>
<path d="M366.155 255.164C362.329 258.866 357.634 262.005 351.127 261.796C350.609 258.331 350.285 256.125 350.285 256.125C350.285 256.125 357.162 257.404 364.155 250.61C364.582 251.72 365.275 253.276 366.155 255.164Z" fill="#683F1D"/>
<path d="M362.328 254.251C362.328 254.499 362.399 254.741 362.53 254.947C362.662 255.153 362.85 255.313 363.069 255.408C363.288 255.503 363.53 255.527 363.762 255.478C363.995 255.429 364.208 255.309 364.375 255.134C364.543 254.958 364.656 254.734 364.702 254.491C364.747 254.248 364.722 253.996 364.631 253.767C364.539 253.538 364.385 253.343 364.187 253.207C363.989 253.07 363.757 252.998 363.52 252.999C363.363 252.999 363.207 253.031 363.062 253.094C362.917 253.157 362.785 253.25 362.675 253.366C362.564 253.482 362.476 253.62 362.417 253.772C362.357 253.924 362.327 254.087 362.328 254.251Z" fill="white"/>
<path d="M469.749 291.643C466.207 304.453 462.108 317.005 459.881 323.859C454.39 340.817 434.078 350.926 431.747 335.403C428.975 316.944 440.812 283.638 445.053 256.139C445.124 255.699 445.182 255.225 445.241 254.724C446.393 245.014 446.257 225.052 458.489 225.777C459.766 225.85 461.03 226.091 462.25 226.494L462.497 226.588C469.528 229.119 473.336 237.124 475.09 246.557C475.692 249.877 476.069 253.237 476.217 256.612C476.593 264.347 473.485 278.144 469.749 291.643Z" fill="#A7CAF0"/>
<path d="M475.09 246.557C473.954 246.111 472.779 245.787 471.581 245.589C462.878 244.121 451.897 248.445 445.24 254.724C446.393 245.014 446.257 225.052 458.488 225.777C459.766 225.85 461.03 226.091 462.25 226.494L462.496 226.588C469.528 229.119 473.322 237.124 475.09 246.557Z" fill="#C3DCF8"/>
<path d="M432.938 313.297C435.528 298.058 440.644 280.032 443.804 263.393" stroke="#83ADDF" stroke-width="0.75" stroke-linecap="round" stroke-linejoin="round"/>
<path d="M466.978 301.292C464.239 310.475 461.539 318.75 459.855 323.859C458.192 328.88 455.359 333.389 451.612 336.98" stroke="#83ADDF" stroke-width="0.75" stroke-linecap="round" stroke-linejoin="round"/>
<path d="M443.797 263.392C445.092 258.06 447.98 254.596 449.767 254.318" stroke="#83ADDF" stroke-width="0.75" stroke-linecap="round" stroke-linejoin="round"/>
<path d="M323.375 257.972C326.386 255.773 331.792 256.666 338.267 264.062C342.263 268.712 345.508 274.01 347.876 279.748C352.482 276.268 357.805 273.969 363.416 273.035C372.572 271.607 383.936 275.884 383.936 275.884L385.703 281.06L348.142 286.23L323.375 257.972Z" fill="#F9F9F9" stroke="#EDEDED" stroke-linecap="round" stroke-linejoin="round"/>
<path d="M350.285 281.554L387.963 278.408L402.901 321.126L366.822 324.171L350.285 281.554Z" fill="#F9F9F9" stroke="#DDDDDD" stroke-linecap="round" stroke-linejoin="round"/>
<path d="M321.724 255.232L345.973 281.087L362.425 321.566L338.941 298.356L321.724 255.232Z" fill="#F9F9F9" stroke="#DDDDDD" stroke-linecap="round" stroke-linejoin="round"/>
<path d="M345.973 281.087L350.285 281.554L366.822 324.171L362.426 321.566L345.973 281.087Z" fill="#F9F9F9" stroke="#DDDDDD" stroke-linecap="round" stroke-linejoin="round"/>
<path d="M338.507 268.265C342.049 272.007 345.629 278.462 345.629 278.462" stroke="#EDEDED" stroke-linecap="round" stroke-linejoin="round"/>
<path d="M350.298 279.734C353.426 277.849 356.813 276.479 360.341 275.674" stroke="#EDEDED" stroke-linecap="round" stroke-linejoin="round"/>
<path d="M350.738 280.478C353.976 278.996 360.567 277.697 360.567 277.697" stroke="#EDEDED" stroke-linecap="round" stroke-linejoin="round"/>
<path d="M343.9 279.849C344.865 277.86 350.317 276.466 351.385 282.556C350.165 283.274 348.754 283.559 347.365 283.368C346.205 283.138 343.9 279.849 343.9 279.849Z" fill="#F9F9F9" stroke="#DDDDDD" stroke-linecap="round" stroke-linejoin="round"/>
<path d="M386.228 302.26C382.739 300.233 379.539 297.705 376.722 294.749C374.067 292.043 367.159 288.45 366.511 288.869C365.864 289.289 365.359 291.143 369.004 294.499C370.12 295.434 371.057 296.582 371.762 297.882C370.46 298.378 369.058 298.518 367.69 298.288C365.359 297.916 355.523 297.239 354.338 297.111C353.153 296.982 352.914 298.66 354.688 299.405C351.839 298.958 351.055 300.724 353.626 302.362C353.626 302.362 351.399 302.984 354.001 305.008C356.212 306.602 358.537 308.015 360.956 309.237C360.956 309.237 355.659 307.633 354.973 307.735C354.286 307.836 353.904 308.98 355.724 309.995C357.543 311.01 370.273 316.152 372.475 316.829C375.175 317.648 380.614 318.622 380.614 318.622C380.614 318.622 387.166 308.743 386.228 302.26Z" fill="#FEBD9D"/>
<path d="M439.115 343.07C426.767 343.95 395.817 328.637 383.722 322.608C381.248 321.383 379.565 320.578 378.988 320.307C378.988 320.307 379.234 304.926 387.089 301.848C388.109 302.44 389.196 302.895 390.326 303.201C391.792 303.647 393.294 303.952 394.813 304.114C399.993 304.717 416.142 307.22 424.935 307.965C433.728 308.709 444.845 314.995 448.821 322.466C451.547 327.588 451.308 342.218 439.115 343.07Z" fill="#A7CAF0"/>
<path d="M439.115 343.07C426.767 343.95 395.817 328.637 383.722 322.608C381.248 321.383 379.565 320.578 378.988 320.307" stroke="#83ADDF" stroke-width="0.75" stroke-linecap="round" stroke-linejoin="round"/>
<path d="M387.089 301.861C388.109 302.453 389.197 302.908 390.326 303.214C391.793 303.66 393.294 303.966 394.814 304.128C399.994 304.73 416.142 307.234 424.935 307.978C430.763 308.472 437.555 311.361 442.664 315.421" stroke="#83ADDF" stroke-width="0.75" stroke-linecap="round" stroke-linejoin="round"/>
<path d="M373.025 291.928C370.144 290.094 366.939 288.592 366.511 288.869C365.864 289.289 365.359 291.143 369.004 294.499C370.12 295.434 371.057 296.582 371.762 297.882C370.46 298.378 369.058 298.518 367.69 298.288C365.359 297.916 355.523 297.239 354.338 297.111C353.153 296.982 352.914 298.66 354.688 299.405C351.839 298.958 351.055 300.724 353.626 302.362C353.626 302.362 351.399 302.984 354.001 305.008C356.212 306.602 358.537 308.015 360.956 309.237C360.956 309.237 355.659 307.633 354.973 307.735C354.286 307.836 353.904 308.98 355.724 309.995C356.261 310.292 357.776 310.962 359.693 311.774" stroke="#EF8A66" stroke-width="0.75" stroke-linecap="round" stroke-linejoin="round"/>
<path d="M390.352 303.248C386.564 306.239 383.922 314.981 383.722 322.621C381.248 321.396 379.565 320.591 378.988 320.32C378.988 320.32 379.234 304.94 387.089 301.861C388.115 302.467 389.212 302.933 390.352 303.248Z" fill="#683F1D"/>
<path d="M380.322 317.722C380.321 318.002 380.399 318.276 380.547 318.509C380.695 318.743 380.906 318.925 381.153 319.033C381.4 319.141 381.673 319.17 381.936 319.117C382.199 319.063 382.44 318.929 382.63 318.731C382.82 318.534 382.95 318.282 383.002 318.007C383.055 317.733 383.029 317.448 382.926 317.189C382.824 316.93 382.651 316.709 382.428 316.553C382.205 316.398 381.944 316.314 381.676 316.314C381.318 316.314 380.975 316.463 380.721 316.726C380.467 316.99 380.324 317.348 380.322 317.722Z" fill="white"/>
<path d="M360.956 309.237C362.633 309.778 363.889 310.299 363.889 310.299" stroke="#EF8A66" stroke-width="0.75" stroke-linecap="round" stroke-linejoin="round"/>
<path d="M353.626 302.334L364.821 306.408" stroke="#EF8A66" stroke-width="0.75" stroke-linecap="round" stroke-linejoin="round"/>
<path d="M354.688 299.377L365.19 302.334" stroke="#EF8A66" stroke-width="0.75" stroke-linecap="round" stroke-linejoin="round"/>
<path d="M424.352 202.323C421.581 209.388 414.465 221.574 405.937 215.606C404.157 214.337 402.62 212.73 401.405 210.869C399.812 208.445 398.649 205.74 397.973 202.885C396.984 198.857 396.841 194.654 397.552 190.563C397.8 189.154 398.179 187.773 398.685 186.442C402.188 177.435 413.526 178.153 417.702 182.524C417.819 182.646 417.948 182.781 418.078 182.93C420.178 185.545 421.828 188.522 422.954 191.727C423.122 192.178 423.277 192.629 423.42 193.08C424.644 196.687 425.149 200.293 424.352 202.323Z" fill="#FEBD9D"/>
<path d="M400.064 200.57C400.064 200.766 400.12 200.957 400.224 201.12C400.328 201.283 400.476 201.409 400.65 201.484C400.823 201.558 401.013 201.578 401.197 201.539C401.38 201.5 401.549 201.405 401.681 201.267C401.813 201.128 401.902 200.951 401.938 200.759C401.974 200.567 401.954 200.368 401.881 200.188C401.809 200.007 401.687 199.853 401.53 199.746C401.374 199.638 401.191 199.581 401.003 199.583C400.88 199.583 400.757 199.608 400.643 199.658C400.528 199.708 400.424 199.78 400.337 199.872C400.25 199.964 400.181 200.073 400.134 200.193C400.087 200.313 400.064 200.441 400.064 200.57Z" fill="#683F1D"/>
<path d="M405.258 198.845C405.258 199.04 405.313 199.231 405.417 199.394C405.521 199.556 405.669 199.683 405.841 199.758C406.014 199.832 406.204 199.852 406.388 199.814C406.571 199.776 406.739 199.682 406.872 199.543C407.004 199.405 407.094 199.229 407.13 199.038C407.167 198.846 407.148 198.647 407.077 198.467C407.005 198.286 406.884 198.132 406.728 198.023C406.573 197.915 406.39 197.857 406.203 197.857C406.079 197.856 405.955 197.881 405.84 197.93C405.725 197.98 405.621 198.052 405.533 198.144C405.445 198.236 405.375 198.345 405.328 198.466C405.281 198.586 405.257 198.715 405.258 198.845Z" fill="#683F1D"/>
<path d="M422.307 201.951C426.27 203.054 430.834 197.891 428.529 193.614C426.224 189.338 421.705 192.045 421.154 195.083L422.307 201.951Z" fill="#FEBD9D"/>
<path d="M422.307 201.951C423.017 202.137 423.759 202.137 424.469 201.951" stroke="#EF8A66" stroke-width="0.75" stroke-linecap="round" stroke-linejoin="round"/>
<path d="M422.954 197.539C423.317 194.068 426.315 193.899 427.085 195.462" stroke="#EF8A66" stroke-width="0.75" stroke-linecap="round" stroke-linejoin="round"/>
<path d="M423.051 196.91C425.602 194.014 428.807 198.859 423.769 199.285" stroke="#EF8A66" stroke-width="0.75" stroke-linecap="round" stroke-linejoin="round"/>
<path d="M423.42 193.033C423.402 193.158 423.376 193.282 423.343 193.405C422.766 195.536 420.617 194.474 419.743 192.451C418.732 190.055 412.821 181.434 407.492 187.342C403.542 191.713 400.292 192.302 397.553 190.563C397.785 189.228 398.141 187.921 398.615 186.658C398.634 186.585 398.658 186.513 398.686 186.442C402.189 177.435 413.527 178.153 417.703 182.524C417.819 182.646 417.949 182.781 418.078 182.93C420.179 185.545 421.828 188.522 422.954 191.727C423.123 192.151 423.278 192.586 423.42 193.033Z" fill="#D39933"/>
<path d="M423.343 193.405C422.766 195.536 420.617 194.474 419.743 192.45C418.732 190.055 412.821 181.434 407.492 187.342C403.542 191.713 400.292 192.302 397.553 190.562C397.785 189.228 398.141 187.921 398.615 186.658C401.975 188.12 405.09 186.042 407.142 184.283C409.732 182.111 412.879 182.287 416.123 184.655C418.985 186.76 421.413 193.77 423.343 193.405Z" fill="#C4892A"/>
<path d="M400.939 191.408C400.414 185.318 402.842 181.394 404.824 180.216" stroke="#EDB65F" stroke-width="0.75" stroke-linecap="round" stroke-linejoin="round"/>
<path d="M402.493 191.104C402.739 188.627 406.987 179.601 411.791 179.601" stroke="#EDB65F" stroke-width="0.75" stroke-linecap="round" stroke-linejoin="round"/>
<path d="M407.926 186.922C409.434 183.092 411.293 180.643 413.507 180.027" stroke="#EDB65F" stroke-width="0.75" stroke-linecap="round" stroke-linejoin="round"/>
<path d="M416.913 181.807C417.269 184.94 416.984 187.01 416.11 187.518" stroke="#EDB65F" stroke-width="0.75" stroke-linecap="round" stroke-linejoin="round"/>
<path d="M418.739 183.742C419.729 187.768 418.9 189.581 418.324 190.048" stroke="#EDB65F" stroke-width="0.75" stroke-linecap="round" stroke-linejoin="round"/>
<path d="M401.45 197.16C403.218 197.904 404.04 199.19 403.6 200.368C403.056 201.829 402.162 204.428 403.872 205.564" stroke="#EF8A66" stroke-width="0.75" stroke-linecap="round" stroke-linejoin="round"/>
<path d="M403.62 193.743C403.801 195.225 408.858 193.743 409.052 192.87C409.311 191.686 403.302 191.131 403.62 193.743Z" fill="#D39933"/>
<path d="M400.803 195.076C401.451 196.287 396.918 198.006 396.271 197.438C395.52 196.693 399.741 192.938 400.803 195.076Z" fill="#D39933"/>
<path d="M406.579 207.351C407.407 207.005 408.159 206.487 408.79 205.829C409.421 205.171 409.918 204.385 410.25 203.521C410.25 203.521 411.934 206.593 409.946 208.183C408.424 209.394 406.579 207.351 406.579 207.351Z" fill="white" stroke="#EF8A66" stroke-width="0.75" stroke-linecap="round" stroke-linejoin="round"/>
<path d="M414.821 203.602C417.239 203.602 419.199 201.554 419.199 199.028C419.199 196.502 417.239 194.454 414.821 194.454C412.404 194.454 410.444 196.502 410.444 199.028C410.444 201.554 412.404 203.602 414.821 203.602Z" fill="#F4AF90"/>
<path d="M402.927 207.412C402.93 208.069 402.795 208.719 402.533 209.317C402.27 209.914 401.885 210.444 401.405 210.869C399.812 208.445 398.65 205.74 397.974 202.885C398.164 202.855 398.357 202.839 398.55 202.837C399.711 202.837 400.824 203.319 401.645 204.177C402.466 205.035 402.927 206.198 402.927 207.412Z" fill="#F4AF90"/>
</svg>
