<svg width="530" height="408" viewBox="0 0 530 408" fill="none" xmlns="http://www.w3.org/2000/svg">
<path d="M399.031 62.2949H147.639V270.824H399.031V62.2949Z" stroke="#EDEDED" stroke-width="2" stroke-linecap="round" stroke-linejoin="round"/>
<path d="M252.936 229.725H230.04V260.508H252.936V229.725Z" fill="#EDEDED"/>
<path d="M217.022 234.437H194.126V260.501H217.022V234.437Z" stroke="#DDDDDD" stroke-linecap="round" stroke-linejoin="round"/>
<path d="M360.678 149.695H337.782V260.508H360.678V149.695Z" stroke="#DDDDDD" stroke-linecap="round" stroke-linejoin="round"/>
<path d="M324.764 149.695H301.868V260.508H324.764V149.695Z" fill="#EDEDED"/>
<path d="M355.551 72.0801L324.029 92.8201L333.9 99.0693C327.898 109.024 296.588 150.872 296.588 150.872L261.211 154.272C248.126 180.03 218.088 225.345 218.088 225.345H125.663V248.03L225.396 246.928L274.043 170.68L308.162 169.871L348.694 106.468L356.478 109.48L355.551 72.0801Z" fill="#DDDDDD" stroke="#EDEDED" stroke-linecap="round" stroke-linejoin="round"/>
<path d="M288.85 191.393H265.954V260.508H288.85V191.393Z" stroke="#DDDDDD" stroke-linecap="round" stroke-linejoin="round"/>
<path d="M413.287 270.824H133.388V282.635H413.287V270.824Z" stroke="#DDDDDD" stroke-width="2" stroke-linecap="round" stroke-linejoin="round"/>
<path d="M413.287 50.4834H133.388V62.295H413.287V50.4834Z" stroke="#DDDDDD" stroke-width="2" stroke-linecap="round" stroke-linejoin="round"/>
<path d="M383.753 333.955V354.96H416.878C416.878 354.96 418.865 353.008 412.837 349.996C407.146 347.153 403.714 344.379 400.859 337.708L383.753 333.955Z" fill="#683F1D"/>
<path d="M383.084 339.687H403.986L405.066 173.93L384.76 175.508L383.084 339.687Z" fill="#A7CAF0"/>
<path d="M388.225 196.39C391.027 195.928 392.094 194.888 392.094 194.888" stroke="#83ADDF" stroke-width="0.75" stroke-linecap="round" stroke-linejoin="round"/>
<path d="M398.998 179.941C398.832 185.334 400.68 191.896 402.973 193.623" stroke="#83ADDF" stroke-width="0.75" stroke-linecap="round" stroke-linejoin="round"/>
<path d="M366.362 342.72V357.503H399.487C399.487 357.503 401.475 355.551 395.439 352.539C389.755 349.697 386.323 346.922 383.468 340.251L366.362 342.72Z" fill="#683F1D"/>
<path d="M399.488 357.517C399.488 357.517 401.476 355.565 395.44 352.553C389.756 349.71 386.324 346.936 383.469 340.265" stroke="#91613D" stroke-width="0.75" stroke-linecap="round" stroke-linejoin="round"/>
<path d="M355.763 156.142C352.868 196.384 354.371 223.462 356.955 257.808C359.539 292.155 363.713 342.72 363.713 342.72H385.575L387.178 170.68L355.763 156.142Z" fill="#A7CAF0"/>
<path d="M385.556 342.734L386.867 198.356" stroke="#83ADDF" stroke-width="0.75" stroke-linecap="round" stroke-linejoin="round"/>
<path d="M466.434 136.422C466.434 142.922 464.062 148.709 460.365 152.463C458.038 154.912 454.953 156.456 451.64 156.828C451.415 156.828 451.189 156.862 450.977 156.869H450.441C443.723 156.869 437.966 151.592 435.588 144.112C434.798 141.623 434.4 139.02 434.408 136.401C434.408 130.104 436.634 124.481 440.132 120.727C441.443 119.254 443.034 118.072 444.807 117.253C446.58 116.435 448.497 115.997 450.441 115.967C459.259 115.96 466.434 125.12 466.434 136.422Z" fill="#FED81D"/>
<path d="M460.359 152.47C458.031 154.919 454.947 156.462 451.633 156.835C451.408 156.835 451.183 156.869 450.971 156.876H450.434C443.717 156.876 437.959 151.599 435.581 144.119C443.001 148.573 445.89 157.658 458.908 153.014C459.352 152.864 459.848 152.68 460.359 152.47Z" fill="#FCC71F"/>
<path d="M458.875 153C457.978 154.101 456.875 155.006 455.631 155.66C454.387 156.314 453.028 156.705 451.633 156.808C451.408 156.808 451.183 156.842 450.971 156.849H450.434C448.459 156.849 446.496 156.542 444.611 155.938C432.852 152.361 419.648 143.568 411.108 138.081L410.989 138.006C409.002 136.714 407.246 135.619 405.841 134.824C405.61 134.681 405.384 134.558 405.179 134.443C402.032 132.729 399.488 128.894 397.931 124.42C397.633 123.556 397.368 122.665 397.143 121.761C394.393 110.616 397.739 97.4984 412.553 102.721C415.335 103.693 419.012 105.706 423.113 108.331C428.986 112.158 434.664 116.291 440.126 120.714C449.792 128.459 458.305 136.449 460.173 139.89C461.197 141.974 461.62 144.317 461.389 146.64C461.159 148.962 460.287 151.169 458.875 153Z" fill="#FED81D"/>
<path d="M460.358 152.469C458.031 154.919 454.947 156.462 451.633 156.835C451.408 156.835 451.183 156.869 450.971 156.876H450.434C448.459 156.876 446.496 156.569 444.611 155.965C432.851 152.388 419.648 143.595 411.108 138.108C411.108 138.108 411.068 138.067 410.989 138.033C409.001 136.741 407.246 135.646 405.841 134.851C405.609 134.708 405.384 134.585 405.179 134.47C402.032 132.756 399.488 128.921 397.931 124.447C397.633 123.583 397.368 122.692 397.143 121.788C401.992 120.985 407.63 121.461 413.897 124.243C416.295 125.31 420.774 127.262 418.25 130.737C415.076 135.116 417.713 141.848 427.24 141.848C430.173 141.8 433.062 142.586 435.587 144.119C443.007 148.573 445.896 157.658 458.914 153.013C459.351 152.864 459.848 152.68 460.358 152.469Z" fill="#FCC71F"/>
<path d="M423.079 108.365C420.766 108.185 418.439 108.346 416.169 108.841C412.194 109.698 407.464 111.813 404.536 116.872C402.812 119.806 400.564 122.381 397.911 124.461C393.903 112.901 396.52 97.1178 412.532 102.755C415.301 103.727 418.978 105.74 423.079 108.365Z" fill="#FFE05C"/>
<path d="M418.21 101.178C416.964 100.865 418.707 96.3155 422.039 92.0315C425.173 88.0059 427.153 85.8027 428.107 87.1491C428.69 87.9787 427.823 100.838 418.21 101.178Z" fill="#F7AD2B"/>
<path d="M423.476 101.572C419.501 95.88 416.851 91.1812 414.983 89.6444C413.115 88.1076 411.392 87.3324 411.193 85.5644C411.137 84.2661 411.433 82.9772 412.046 81.8405C412.66 80.7039 413.569 79.7639 414.671 79.1248C417.421 77.486 429.637 92.8472 429.637 92.8472C429.637 92.8472 430.035 100.49 423.476 101.572Z" fill="#B25E47"/>
<path d="M403.913 70.5773C406.285 68.1633 408.802 68.5373 414.102 73.6237C419.402 78.7101 425.325 81.3281 426.564 85.4149C427.889 89.8417 424.305 93.3505 419.501 92.7589C417.805 92.5549 415.162 92.2489 417.805 86.0337L410.69 79.9137C410.69 79.9137 408.703 82.9669 405.662 82.1101C402.495 81.1853 398.381 76.2281 403.913 70.5773Z" fill="#DDDDDD" stroke="#EDEDED" stroke-linecap="round" stroke-linejoin="round"/>
<path d="M418.998 80.716C420.144 81.3212 423.317 76.636 421.807 75.7112C419.773 74.4804 417.845 80.104 418.998 80.716Z" fill="#B25E47" stroke="#934735" stroke-width="0.75" stroke-linecap="round" stroke-linejoin="round"/>
<path d="M417.806 86.0336C418.617 84.5832 419.893 83.466 421.416 82.8716" stroke="#EDEDED" stroke-linecap="round" stroke-linejoin="round"/>
<path d="M410.69 79.8864C411.121 79.2532 411.42 78.5357 411.568 77.7787C411.716 77.0218 411.71 76.2415 411.552 75.4868" stroke="#EDEDED" stroke-linecap="round" stroke-linejoin="round"/>
<path d="M410.75 86.36C411.691 88.5496 414.394 85.3672 415.507 82.28C416.574 79.3628 416.315 78.7032 414.692 79.0092C413.069 79.3152 409.465 83.4564 410.75 86.36Z" fill="#B25E47" stroke="#934735" stroke-width="0.75" stroke-linecap="round" stroke-linejoin="round"/>
<path d="M413.095 76.7179C414.38 77.3979 417.958 72.2027 416.255 71.1895C413.97 69.8295 411.796 76.0447 413.095 76.7179Z" fill="#B25E47" stroke="#934735" stroke-width="0.75" stroke-linecap="round" stroke-linejoin="round"/>
<path d="M415.129 77.8195C416.414 78.4995 419.992 73.3043 418.289 72.2911C416.004 70.9311 413.831 77.1463 415.129 77.8195Z" fill="#B25E47" stroke="#934735" stroke-width="0.75" stroke-linecap="round" stroke-linejoin="round"/>
<path d="M417.11 79.3628C418.349 80.0428 421.748 75.038 420.138 74.0724C417.945 72.76 415.871 78.7236 417.11 79.3628Z" fill="#B25E47" stroke="#934735" stroke-width="0.75" stroke-linecap="round" stroke-linejoin="round"/>
<path d="M418.21 101.177C423.271 108.487 437.184 129.737 442.444 136.864C449.268 146.125 465.599 147.628 465.632 129.914C465.632 121.142 428.134 87.1489 428.134 87.1489C428.134 87.1489 426.2 97.5461 418.21 101.177Z" fill="#FED81D"/>
<path d="M423.026 103.36C429.247 101.211 431.38 93.9966 431.38 93.9966" stroke="#F7AD2B" stroke-width="0.75" stroke-linecap="round" stroke-linejoin="round"/>
<path d="M425.915 90.2769C435.19 103.442 438.502 112.438 436.296 115.96C434.09 119.483 429.115 117.579 429.671 114.6C430.334 110.908 436.343 109.97 433.865 119.884C431.387 129.798 424.59 130.662 423.358 127.915C421.695 124.107 428.611 120.054 429.32 130.043C430.029 140.032 419.151 142.589 416.116 140.08C413.082 137.571 421.642 131.022 421.509 142.004C421.377 152.986 408.73 153.326 403.025 151.858" stroke="#EDEDED" stroke-width="2" stroke-linecap="round" stroke-linejoin="round"/>
<path d="M418.21 101.177C423.271 108.487 437.184 129.737 442.444 136.864C444.011 138.961 446.017 140.669 448.314 141.862" stroke="#F7AD2B" stroke-width="0.75" stroke-linecap="round" stroke-linejoin="round"/>
<path d="M342.221 161.289C342.25 163.874 341.687 166.43 340.578 168.751C339.469 171.072 337.844 173.093 335.835 174.651C333.495 176.415 330.668 177.367 327.765 177.371H327.726C325.902 177.364 324.098 176.976 322.426 176.229C317.086 173.876 313.31 168.069 313.31 161.269C313.31 161.133 313.31 161.004 313.31 160.881C313.341 158.607 313.827 156.364 314.739 154.291C315.651 152.218 316.968 150.36 318.61 148.832C320.312 147.271 322.358 146.158 324.572 145.588C325.629 145.312 326.715 145.173 327.805 145.173C333.536 145.173 338.491 148.893 340.823 154.279C341.343 155.461 341.723 156.703 341.956 157.978C342.15 159.07 342.239 160.179 342.221 161.289Z" fill="#FED81D"/>
<path d="M327.726 177.385C325.902 177.378 324.098 176.989 322.426 176.242C317.086 173.89 313.31 168.082 313.31 161.282C313.31 161.146 313.31 161.017 313.31 160.895C313.341 158.621 313.827 156.377 314.739 154.305C315.651 152.232 316.968 150.373 318.61 148.845C317.43 164.519 319.087 172.604 327.726 177.385Z" fill="#FCC71F"/>
<path d="M371.132 114.471C370.735 115.77 370.271 117.096 369.754 118.443C369.277 119.68 368.75 120.931 368.171 122.196C367.985 122.591 367.793 122.992 367.601 123.386C366.998 124.637 366.356 125.895 365.653 127.153C365.422 127.575 365.183 127.997 364.945 128.418C360.822 135.387 356.149 141.996 350.972 148.179C349.78 149.607 348.561 151.015 347.322 152.388L346.448 153.347C345.52 154.353 344.586 155.333 343.645 156.285C343.069 156.863 342.499 157.441 341.923 157.991C334.894 164.791 327.646 169.715 321.763 169.851C321.214 169.867 320.664 169.835 320.12 169.755C318.509 169.578 317.001 168.861 315.827 167.715C314.257 166.145 313.422 163.778 313.329 160.915C313.164 155.53 315.595 148.349 320.617 141.195L321.478 139.951C326.414 132.689 333.701 120.367 341.784 110.351C349.204 101.15 357.299 93.8878 364.892 94.2414C365.5 94.27 366.105 94.3496 366.7 94.4794C373.292 95.8802 374.266 104.176 371.132 114.471Z" fill="#FED81D"/>
<path d="M321.459 160.704C320.389 161.994 319.827 163.647 319.882 165.34C319.937 167.033 320.606 168.644 321.757 169.857C321.208 169.874 320.658 169.842 320.114 169.762C318.504 169.584 316.995 168.867 315.821 167.722C314.251 166.151 313.416 163.785 313.323 160.922C313.158 155.536 315.589 148.356 320.611 141.202L321.472 139.958C323.005 141.508 324.064 143.483 324.52 145.642C324.915 147.365 325.058 149.139 324.944 150.906C324.751 154.557 323.519 158.222 321.459 160.704Z" fill="#FCC71F"/>
<path d="M369.755 118.442C368.403 121.889 366.795 125.224 364.945 128.418C360.822 135.386 356.149 141.996 350.973 148.179C348.621 151.001 346.156 153.748 343.646 156.291" stroke="#F7AD2B" stroke-width="0.75" stroke-linecap="round" stroke-linejoin="round"/>
<path d="M371.133 114.471C367.595 110.017 363.673 107.603 357.221 107.569C353.246 107.569 348.264 108.446 341.817 110.323C349.237 101.123 357.333 93.8604 364.925 94.214C365.534 94.2427 366.138 94.3222 366.734 94.452C373.293 95.88 374.267 104.176 371.133 114.471Z" fill="#FFE05C"/>
<path d="M416.17 108.841C415.891 115.145 413.268 127.113 411.433 136.252C411.314 136.864 411.194 137.483 411.075 138.122C408.789 150.171 406.497 168.205 406.484 170.932C406.484 180.037 400.342 178.412 383.17 177.895C374.724 177.657 365.382 177.337 358.413 175.903C356.447 175.536 354.52 174.971 352.662 174.216C349.35 172.788 347.402 170.775 347.74 167.892C347.784 167.533 347.857 167.178 347.959 166.831C349.625 160.746 350.636 154.491 350.973 148.179C351.218 144.779 351.351 141.284 351.51 137.707C351.635 134.674 351.781 131.587 352.026 128.316C352.51 121.829 354.676 114.036 357.194 107.569C360.056 100.089 363.309 94.3501 364.806 94.2209H364.899C367.754 94.0033 374.989 94.9961 385.582 95.2137C390.067 95.3129 394.508 96.1438 398.739 97.6753C400.594 98.3553 408.061 100.579 412.513 102.762C413.692 103.241 414.763 103.963 415.659 104.883C416.117 105.495 416.256 106.896 416.17 108.841Z" fill="#FED81D"/>
<path d="M358.413 175.903C356.447 175.536 354.52 174.971 352.662 174.216C349.35 172.788 347.402 170.775 347.74 167.892C347.784 167.533 347.857 167.178 347.959 166.831C349.625 160.746 350.636 154.491 350.973 148.179C351.218 144.779 351.351 141.284 351.51 137.707L366.177 123.386C370.199 130.295 362.474 143.657 357.32 147.091C352.165 150.525 352.523 157.291 363.382 159.664C371.616 161.453 363.05 171.272 358.413 175.903Z" fill="#FCC71F"/>
<path d="M423.079 108.365C420.766 108.185 418.439 108.346 416.169 108.841C412.194 109.698 407.464 111.812 404.536 116.872C402.812 119.806 400.564 122.381 397.911 124.46C390.994 129.9 381.653 131.526 375.697 121.366C374.34 118.963 372.822 116.659 371.153 114.471C367.615 110.017 363.693 107.603 357.24 107.569C353.265 107.569 348.283 108.446 341.837 110.323C349.257 101.123 357.353 93.8605 364.945 94.2141C367.8 93.9965 375.035 94.9893 385.628 95.2069C390.113 95.3061 394.555 96.137 398.785 97.6685C400.64 98.3485 408.107 100.572 412.559 102.755C415.302 103.727 418.978 105.74 423.079 108.365Z" fill="#FFE05C"/>
<path d="M394.188 106.257C394.188 106.257 396.175 112.819 396.943 113.403L400.256 113.934C401.344 111.942 402.258 109.856 402.986 107.698L399.488 102.523L394.188 106.257Z" fill="#683F1D"/>
<path d="M396.971 113.404L389.332 143.324C389.332 143.324 390.213 147.322 394.579 153.401C394.579 153.401 398.998 147.485 399.932 144.922L400.296 113.934L396.971 113.404Z" fill="#683F1D"/>
<path d="M388.649 92.8335C386.834 92.8879 383.11 94.5947 383.064 96.1519C383.018 97.7091 386.443 110.031 391.882 113.097C391.882 113.097 393.989 106.658 399.474 105.753L388.649 92.8335Z" fill="white"/>
<path d="M399.487 105.753C401.62 108.445 403.392 111.418 404.754 114.593C404.754 114.593 410.127 107.379 409.392 101.558C409.266 100.585 404.549 98.2598 404.549 98.2598L399.487 105.753Z" fill="white"/>
<path d="M411.075 138.122C411.194 137.483 411.314 136.864 411.433 136.252C412.182 132.532 413.063 128.337 413.858 124.257C413.917 123.957 413.97 123.672 414.023 123.386" stroke="#F7AD2B" stroke-width="0.75" stroke-linecap="round" stroke-linejoin="round"/>
<path d="M405.947 99.6744C405.947 99.6744 403.767 106.27 399.322 106.257C392.088 106.257 387.569 94.3228 387.569 94.3228C389.795 85.068 389.557 80.7704 389.557 80.7704C389.312 74.6504 403.006 66.5652 404.894 84.7416L405.059 87.1488L405.642 95.5808L405.947 99.6744Z" fill="#B25E47"/>
<path d="M405.662 95.5809C401.025 95.4177 396.752 92.9289 396.526 87.1489H405.079L405.662 95.5809Z" fill="#914839"/>
<path d="M404.516 63.0564C404.284 64.702 402.224 65.7764 402.224 65.7764L397.5 73.0592C397.5 73.0592 393.187 78.1184 388.596 77.6016C387.919 77.5266 387.26 77.331 386.649 77.0236C384.383 75.8948 385.701 73.7052 385.237 72.9912C384.774 72.2772 383.661 72.182 383.382 70.8628C383.104 69.5436 385.171 69.6388 384.29 68.2176C383.409 66.7964 382.905 65.6336 384.356 64.6068C385.807 63.58 384.409 63.172 385.337 61.5264C386.052 60.248 387.245 61.7984 387.682 60.1188C388.119 58.4392 389.451 59.0376 390.405 58.8812C391.611 58.6772 390.584 57.6096 392.233 57.2016C393.035 56.9976 393.015 57.97 393.956 57.324C394.357 57.0085 394.836 56.813 395.338 56.759C395.841 56.705 396.348 56.7946 396.805 57.018C398.017 57.8408 397.964 56.1884 399.455 56.6916C400.528 57.0588 399.846 57.8952 401.323 58.1332C402.8 58.3712 402.754 59.262 402.88 60.2072C402.893 60.3397 402.913 60.4713 402.939 60.6016C403.158 61.676 404.741 61.4108 404.516 63.0564Z" fill="#604730"/>
<path d="M405.537 62.2608C405.298 64.0288 403.132 65.1984 403.132 65.1984L398.163 72.964C398.163 72.964 393.651 78.404 388.835 77.8328C388.926 77.4234 388.898 76.9956 388.755 76.602C388.265 75.8404 387.106 75.7384 386.814 74.324C386.523 72.9096 388.689 73.0048 387.768 71.4884C386.847 69.972 386.317 68.7276 387.828 67.6192C389.338 66.5108 387.888 66.096 388.861 64.3348C389.61 62.9748 390.849 64.6204 391.326 62.8252C391.803 61.03 393.174 61.6692 394.175 61.506C395.44 61.2884 394.36 60.146 396.096 59.704C396.937 59.4864 396.911 60.5268 397.898 59.84C398.885 59.1532 400.144 58.99 400.886 59.5068C402.158 60.3908 402.098 58.616 403.688 59.16L403.827 59.2144C403.827 59.3572 403.867 59.4932 403.894 59.636C404.125 60.7852 405.775 60.52 405.537 62.2608Z" fill="#473526"/>
<path d="M408.716 86.4754C407.437 90.1814 399.719 94.377 390.345 82.2934C389.139 82.7558 387.125 82.409 386.019 80.2534C384.634 77.5334 386.615 73.5214 391.226 75.4458C392.074 75.7994 392.551 73.6098 391.518 72.0866C390.484 70.5634 388.735 66.8506 392.843 64.1442C396.95 61.4378 402.422 61.7234 404.516 65.0962C405.836 67.3398 406.886 69.7396 407.643 72.243C407.994 73.365 408.305 74.521 408.564 75.6906C409.425 79.6074 409.69 83.6398 408.716 86.4754Z" fill="#B25E47"/>
<path d="M399.978 76.6019C399.759 77.5063 398.043 77.8463 396.135 77.3635C394.227 76.8807 392.862 75.7655 393.074 74.8611C393.286 73.9567 395.009 73.6235 396.917 74.1063C398.825 74.5891 400.19 75.7043 399.978 76.6019Z" fill="#A0503D"/>
<path d="M408.584 75.6703C407.67 76.1871 406.829 76.3095 406.411 75.8743C405.795 75.2487 406.345 73.6235 407.663 72.2227C408.014 73.3447 408.326 74.5007 408.584 75.6703Z" fill="#A0503D"/>
<path d="M394.679 70.3666C394.824 71.1486 399.78 69.639 399.316 68.0274C398.647 65.8378 394.407 68.9658 394.679 70.3666Z" fill="#604730"/>
<path d="M401.892 67.9998C401.998 69.0062 405.96 69.0198 405.947 68.367C405.934 67.7142 401.654 65.7218 401.892 67.9998Z" fill="#604730"/>
<path d="M398.435 72.7056C398.435 72.8872 398.487 73.0646 398.585 73.2156C398.684 73.3666 398.823 73.4842 398.987 73.5537C399.15 73.6232 399.33 73.6414 399.503 73.606C399.677 73.5705 399.836 73.4831 399.961 73.3547C400.086 73.2263 400.172 73.0628 400.206 72.8847C400.241 72.7066 400.223 72.522 400.155 72.3543C400.088 72.1865 399.973 72.0432 399.826 71.9423C399.679 71.8414 399.506 71.7876 399.329 71.7876C399.212 71.7876 399.095 71.8113 398.987 71.8575C398.878 71.9036 398.78 71.9712 398.697 72.0565C398.614 72.1417 398.548 72.2429 398.503 72.3543C398.458 72.4657 398.435 72.585 398.435 72.7056Z" fill="#683F1D"/>
<path d="M403.596 71.7877C403.594 71.9708 403.646 72.1503 403.744 72.3033C403.843 72.4563 403.983 72.5758 404.147 72.6469C404.312 72.7179 404.493 72.7372 404.668 72.7023C404.844 72.6674 405.005 72.5799 405.131 72.4508C405.258 72.3217 405.345 72.157 405.38 71.9774C405.415 71.7978 405.398 71.6115 405.33 71.4421C405.262 71.2728 405.146 71.1279 404.998 71.026C404.85 70.9241 404.675 70.8697 404.497 70.8697C404.379 70.8688 404.262 70.8918 404.152 70.9376C404.043 70.9833 403.944 71.0508 403.86 71.1361C403.776 71.2214 403.71 71.3229 403.664 71.4348C403.619 71.5466 403.596 71.6665 403.596 71.7877Z" fill="#683F1D"/>
<path d="M387.562 78.2001C388.225 76.4389 390.782 76.7653 391.577 78.7169" stroke="#934735" stroke-width="0.75" stroke-linecap="round" stroke-linejoin="round"/>
<path d="M391.068 77.867C389.855 77.1122 387.788 79.9546 391.068 80.7638" stroke="#934735" stroke-width="0.75" stroke-linecap="round" stroke-linejoin="round"/>
<path d="M390.346 82.2798C391.142 82.0547 391.89 81.6788 392.552 81.1714" stroke="#934735" stroke-width="0.75" stroke-linecap="round" stroke-linejoin="round"/>
<path d="M401.641 70.2168C401.641 73.6168 403.158 73.9976 404.682 74.6096C405.954 75.1264 405.549 76.568 405.251 77.0372" stroke="#934735" stroke-width="0.75" stroke-linecap="round" stroke-linejoin="round"/>
<path d="M399.979 79.2541C402.576 79.2541 404.537 79.1045 404.537 79.1045C404.537 79.1045 403.384 82.4637 401.887 82.2937C400.389 82.1237 399.979 79.2541 399.979 79.2541Z" fill="white" stroke="#934735" stroke-width="0.75" stroke-linecap="round" stroke-linejoin="round"/>
<path d="M399.391 166.453L368.01 146.294L339.503 193.047L370.884 213.206L399.391 166.453Z" fill="#EDEDED"/>
<path d="M394.569 168.593L368.242 151.681L344.325 190.907L370.652 207.818L394.569 168.593Z" fill="#F9F9F9"/>
<path d="M388.344 157.23C388.658 156.962 388.927 156.643 389.139 156.285C389.408 155.85 389.59 155.364 389.673 154.856C389.757 154.348 389.741 153.828 389.627 153.326C389.513 152.825 389.302 152.352 389.007 151.935C388.713 151.517 388.34 151.165 387.911 150.897C387.482 150.63 387.006 150.453 386.51 150.376C386.013 150.3 385.507 150.326 385.021 150.453C384.534 150.58 384.077 150.805 383.676 151.115C383.276 151.425 382.939 151.814 382.687 152.259C382.479 152.615 382.327 153.003 382.236 153.408L377.473 150.43L373.829 156.55L389.471 166.328L393.108 160.208L388.344 157.23Z" fill="#DDDDDD" stroke="#EDEDED" stroke-linecap="round" stroke-linejoin="round"/>
<path d="M386.347 156.098C387.324 155.852 387.922 154.84 387.683 153.837C387.444 152.833 386.458 152.219 385.481 152.465C384.503 152.71 383.905 153.722 384.144 154.726C384.383 155.729 385.369 156.343 386.347 156.098Z" fill="#F9F9F9"/>
<path d="M369.755 159.147L387.702 170.673" stroke="#DDDDDD" stroke-linecap="round" stroke-linejoin="round"/>
<path d="M367.966 162.398L385.913 173.931" stroke="#DDDDDD" stroke-linecap="round" stroke-linejoin="round"/>
<path d="M366.177 165.655L380.162 174.638" stroke="#DDDDDD" stroke-linecap="round" stroke-linejoin="round"/>
<path d="M370.232 179.942C378.626 184.226 381.382 185.708 381.952 186.225C383.668 187.789 383.469 190.686 383.469 190.686C383.469 190.686 387.159 192.617 387.53 193.712C387.901 194.807 385.986 196.881 384.761 196.772C384.761 196.772 383.29 198.465 381.952 198.356C381.952 198.356 381.461 200.593 379.653 200.702C379.653 200.702 379.441 202.62 376.831 202.062C374.22 201.505 363.137 192.284 363.137 192.284L370.232 179.942Z" fill="#B25E47"/>
<path d="M371.166 180.418C370.417 182.05 366.237 189.992 364.448 193.372C363.958 194.31 363.646 194.895 363.646 194.895C363.646 194.895 351.986 190.135 341.598 185.674C335.417 183.015 329.673 180.479 327.143 179.126C325.509 178.279 323.935 177.316 322.432 176.242C319.047 173.801 316.675 171.02 315.807 167.715C314.939 164.41 315.615 160.385 318.404 155.686C319.131 154.481 320.083 153.435 321.206 152.609C322.328 151.783 323.598 151.192 324.943 150.872C326.39 150.506 327.88 150.357 329.369 150.43L329.866 150.464C330.396 150.464 330.926 150.559 331.469 150.647L331.939 150.729L332.476 150.838L333.364 151.042H333.397L333.874 151.171L334.086 151.239C334.271 151.293 334.457 151.348 334.629 151.409L335.185 151.592L335.735 151.783C335.921 151.858 336.106 151.926 336.292 152.007C337.215 152.378 338.117 152.8 338.995 153.272C339.154 153.347 339.313 153.435 339.465 153.524C339.618 153.612 339.922 153.775 340.128 153.911L340.704 154.265H340.744C341.499 154.734 342.261 155.251 343.023 155.815C343.215 155.958 343.414 156.101 343.599 156.25C344.56 156.985 345.52 157.808 346.474 158.698C357.691 169.225 370.901 180.078 371.239 180.078C371.305 180.112 371.265 180.2 371.166 180.418Z" fill="#FED81D"/>
<path d="M341.598 185.674C335.417 183.015 329.673 180.479 327.143 179.126C325.509 178.279 323.935 177.316 322.432 176.242C319.047 173.801 316.675 171.02 315.807 167.715C314.939 164.41 315.615 160.385 318.404 155.686C319.131 154.481 320.083 153.435 321.206 152.609C322.328 151.783 323.598 151.192 324.943 150.872C324.738 154.557 323.506 158.222 321.445 160.704C320.375 161.994 319.813 163.647 319.868 165.34C319.923 167.033 320.592 168.644 321.743 169.857C323.578 171.897 326.712 173.216 330.892 172.652C332.615 172.421 334.304 173.237 335.821 174.651C338.683 177.269 340.923 181.954 341.598 185.674Z" fill="#FCC71F"/>
<path d="M328.879 150.416C334.179 150.491 340.506 153.136 346.521 158.739C357.784 169.306 371.034 180.2 371.286 180.118" stroke="#F7AD2B" stroke-width="0.75" stroke-linecap="round" stroke-linejoin="round"/>
<path d="M365.588 180.316C363.872 183.77 360.686 189.952 360.686 189.952" stroke="#F7AD2B" stroke-width="0.75" stroke-linecap="round" stroke-linejoin="round"/>
<path d="M381.951 186.225C383.667 187.789 383.468 190.686 383.468 190.686C383.468 190.686 387.158 192.617 387.529 193.712C387.9 194.807 385.986 196.881 384.76 196.772C384.76 196.772 383.289 198.465 381.951 198.356C381.951 198.356 381.461 200.594 379.652 200.702C379.652 200.702 379.44 202.62 376.83 202.062" stroke="#934735" stroke-width="0.75" stroke-linecap="round" stroke-linejoin="round"/>
<path d="M383.66 190.788L380.235 189.115" stroke="#934735" stroke-width="0.75" stroke-linecap="round" stroke-linejoin="round"/>
<path d="M384.761 196.772C383.63 196.296 382.525 195.76 381.448 195.167" stroke="#934735" stroke-width="0.75" stroke-linecap="round" stroke-linejoin="round"/>
<path d="M381.951 198.356C381.25 198.066 380.583 197.694 379.964 197.248" stroke="#934735" stroke-width="0.75" stroke-linecap="round" stroke-linejoin="round"/>
<path d="M170.613 155.319C169.162 157.828 167.586 160.351 165.916 162.799C161.623 169.123 156.787 175.039 152.269 179.262C136.938 193.603 131.824 178.772 133.268 172.707C134.414 167.858 146.916 149.893 154.11 139.924C155.912 137.428 157.376 135.443 158.251 134.273C162.637 128.466 168.069 125.433 175.383 127.718C182.008 129.785 178.086 142.392 170.613 155.319Z" fill="#C3DCF8"/>
<path d="M170.613 155.319C169.42 154.238 168.322 153.05 167.334 151.769C163.485 146.846 161.053 141.42 154.084 139.931C155.886 137.435 157.35 135.449 158.225 134.28C162.61 128.473 168.043 125.44 175.357 127.725C182.008 129.785 178.086 142.392 170.613 155.319Z" fill="#D0E5F7"/>
<path d="M141.974 233.702C137.515 249.512 126.604 280.826 126.736 281.438C126.776 281.717 127.008 285.104 127.253 288.857C127.578 293.767 127.915 299.309 127.915 299.309C127.915 299.309 97.6061 309.162 95.0091 308.448C92.4121 307.734 92.909 303.926 96.9105 300.846C97.7518 300.166 98.9775 299.132 100.389 297.867C105.636 293.148 113.413 285.552 113.413 285.552C113.413 285.552 120.363 225.114 121.509 219.531C122.655 213.948 127.419 208.032 134.521 208.651C141.868 209.29 146.412 217.892 141.974 233.702Z" fill="#FEBD9D"/>
<path d="M127.909 299.309C127.909 299.309 97.5993 309.162 95.0023 308.448C92.4053 307.734 92.9021 303.926 96.9036 300.845C97.745 300.165 98.9706 299.132 100.382 297.867C105.927 299.043 111.863 297.133 114.957 294.759C118.561 291.884 122.743 289.868 127.2 288.857C127.551 293.76 127.909 299.309 127.909 299.309Z" fill="#83ADDF"/>
<path d="M244.343 152.715C244.489 151.566 244.416 149.94 241.203 148.186L240.143 153.136C240.143 153.136 244.091 154.721 244.343 152.715Z" fill="#A7CAF0"/>
<path d="M229.291 147.608C230.318 142.583 230.768 142.12 230.616 139.679C230.464 137.238 230.166 134.321 234.094 129.432C238.023 124.542 240.342 120.7 241.117 121.095C241.892 121.489 241.375 125.012 239.891 128.412C239.891 128.412 250.325 122.292 252.518 121.428C254.711 120.564 253.293 124.665 248.908 126.868C248.908 126.868 255.804 122.598 257.48 122.951C259.157 123.305 256.063 125.794 253.678 127.392C253.678 127.392 258.196 124.474 259.09 125.433C259.985 126.392 257.494 128.432 255.413 129.71C255.413 129.71 258.123 128.262 258.574 128.983C259.024 129.704 258.574 130.506 255.924 132.226C253.274 133.947 247.483 136.857 243.045 142.08L241.885 155C241.885 155 231.477 156.734 229.291 147.608Z" fill="#FEBD9D"/>
<path d="M235.73 127.371C238.692 123.509 240.481 120.762 241.143 121.095C241.918 121.496 241.401 125.012 239.917 128.412C239.917 128.412 250.352 122.292 252.545 121.428C254.738 120.564 253.32 124.665 248.934 126.868C248.934 126.868 255.831 122.598 257.507 122.951C259.183 123.305 256.089 125.794 253.704 127.392C253.704 127.392 258.222 124.474 259.117 125.433C260.011 126.392 257.52 128.432 255.44 129.71C255.44 129.71 258.149 128.262 258.6 128.983C259.05 129.704 258.6 130.506 255.95 132.226" stroke="#EF8A66" stroke-width="0.75" stroke-linecap="round" stroke-linejoin="round"/>
<path d="M240.692 136.966C241.143 133.328 243.508 132.124 245.502 131.594" stroke="#EF8A66" stroke-width="0.75" stroke-linecap="round" stroke-linejoin="round"/>
<path d="M245.304 128.01C248.152 128.139 251.14 130.839 251.332 131.832" stroke="#EF8A66" stroke-width="0.75" stroke-linecap="round" stroke-linejoin="round"/>
<path d="M246.722 128.269C246.761 128.269 250.63 125.821 250.63 125.821" stroke="#EF8A66" stroke-width="0.75" stroke-linecap="round" stroke-linejoin="round"/>
<path d="M254.419 126.875L249.557 129.779" stroke="#EF8A66" stroke-width="0.75" stroke-linecap="round" stroke-linejoin="round"/>
<path d="M256.003 129.33L252.326 131.444" stroke="#EF8A66" stroke-width="0.75" stroke-linecap="round" stroke-linejoin="round"/>
<path d="M220.692 196.214C225.627 201.321 235.061 198.22 238.4 184.654C241.739 171.088 244.363 152.694 244.363 152.694C238.871 151.455 233.745 148.891 229.41 145.214C224.587 158.658 214.285 189.578 220.692 196.214Z" fill="#C3DCF8"/>
<path d="M229.39 145.221C226.204 154.15 220.579 170.789 219.049 182.907" stroke="#83ADDF" stroke-width="0.75" stroke-linecap="round" stroke-linejoin="round"/>
<path d="M124.006 212.908C121.197 227.12 116.308 238.537 111.18 250.92C106.053 263.303 100.792 278.8 100.792 281.214V292.169C100.792 292.169 66.5677 298.139 65.0174 298.139C63.4672 298.139 62.3674 294.739 65.6799 292.312C66.508 291.713 68.1908 290.408 70.2578 288.789C76.5383 283.893 86.3234 276.094 86.3234 276.094C86.3234 276.094 98.043 225.985 100.739 209.855C105.138 183.818 127.803 193.644 124.006 212.908Z" fill="#FEBD9D"/>
<path d="M119.462 229.724C120.635 226.263 121.708 222.714 122.635 218.987C127.756 220.062 133.898 220.952 141.583 222.353" stroke="#EF8A66" stroke-width="0.75" stroke-linecap="round" stroke-linejoin="round"/>
<path d="M100.792 282.091V292.155C100.792 292.155 66.5677 298.126 65.0174 298.126C63.4672 298.126 62.3674 294.726 65.6799 292.298C66.508 291.7 68.1908 290.394 70.2578 288.776C76.472 290.238 83.8059 287.81 87.7677 285.981C91.904 284.047 96.2909 282.737 100.792 282.091Z" fill="#83ADDF"/>
<path d="M139.589 185.47C146.025 185.47 151.242 180.675 151.242 174.76C151.242 168.845 146.025 164.05 139.589 164.05C133.153 164.05 127.936 168.845 127.936 174.76C127.936 180.675 133.153 185.47 139.589 185.47Z" fill="#C3DCF8"/>
<path d="M213.65 133.219C213.223 133.493 212.781 133.741 212.325 133.96C205.11 137.516 201.254 136.489 200.532 132.987C199.81 129.485 192.257 132.124 191.814 125.936C191.37 119.748 194.046 117.728 193.543 114.573C193.543 114.573 193.894 113.757 194.43 112.791C195.563 110.751 197.538 108.133 199.008 110.806C201.188 114.763 202.539 114.342 206.561 114.804C210.582 115.267 212.431 118.129 211.198 120.197C209.701 122.713 210.496 123.801 214.888 124.215C218.837 124.589 219.44 129.655 213.65 133.219Z" fill="#DD6819"/>
<path d="M213.65 133.219C213.223 133.494 212.781 133.741 212.325 133.96C205.11 137.516 201.254 136.49 200.532 132.988C199.81 129.486 192.257 132.124 191.814 125.936C191.37 119.748 194.046 117.728 193.543 114.573C193.543 114.573 193.894 113.757 194.43 112.792C199.73 114.464 201.241 117.32 200.724 119.789C200.062 122.93 202.758 127.058 209.456 126.494C212.815 126.208 213.656 129.696 213.65 133.219Z" fill="#CC5E0D"/>
<path d="M209.9 221.211C207.304 224.909 203.809 227.844 199.764 229.724C199.764 229.724 199.764 228.704 199.532 227.004C198.757 220.463 195.457 203.884 181.551 195.554L180.578 195.371H180.491L173.575 194.052C173.575 194.052 171.773 186.667 170.474 180.88C169.176 175.093 166.009 169.925 165.89 163.819C165.89 163.479 165.89 163.139 165.89 162.806C165.936 158.834 166.751 155.04 167.308 151.769C167.556 150.421 167.725 149.059 167.811 147.689C167.997 143.487 164.77 138.781 164.459 135.85C164.148 132.92 164.459 126.745 171.965 127.398C173.191 127.5 174.31 127.602 175.357 127.704C176.404 127.806 177.517 127.935 178.464 128.058C178.802 128.098 179.127 128.153 179.458 128.207C180.786 128.391 182.099 128.673 183.387 129.05C184.42 129.355 185.415 129.779 186.355 130.315C189.263 131.981 195.921 129.853 196.736 129.588H196.815C198.26 129.492 199.538 129.384 200.678 129.282C201.817 129.18 202.765 129.098 203.626 129.01C206.157 128.738 207.647 128.513 208.422 128.418C208.88 128.418 209.535 134.803 210.238 143.378C210.622 148.043 211.013 153.354 211.397 158.637C212.179 169.619 212.914 180.499 213.345 185.157C213.411 185.912 213.477 186.517 213.524 186.918C214.213 191.889 218.261 209.107 209.9 221.211Z" fill="#C3DCF8"/>
<path d="M210.271 143.371C208.175 144.694 206.199 146.207 204.368 147.893C196.974 154.544 191.668 162.268 180.518 160.065C176.865 159.43 173.449 157.784 170.64 155.305C169.446 154.224 168.349 153.037 167.36 151.756C167.609 150.407 167.777 149.045 167.864 147.676C168.049 143.473 164.823 138.768 164.512 135.837C164.2 132.906 164.512 126.732 172.018 127.384C173.243 127.486 174.363 127.588 175.41 127.69C176.457 127.792 177.57 127.922 178.517 128.044C180.181 128.239 181.827 128.571 183.439 129.037C184.472 129.341 185.468 129.765 186.407 130.302C189.316 131.968 195.974 129.839 196.789 129.574H196.868C199.704 129.377 201.936 129.173 203.679 128.996C206.209 128.724 207.7 128.5 208.475 128.404C208.912 128.411 209.568 134.796 210.271 143.371Z" fill="#D0E5F7"/>
<path d="M193.125 178.065C194.017 184.811 195.32 191.492 197.027 198.071L180.577 195.351H180.491C180.491 195.351 180.027 184.471 176.907 174.515C175.28 169.259 174.606 163.742 174.919 158.236C175.218 153.639 175.957 149.084 177.125 144.636C178.367 139.26 179.151 133.784 179.471 128.269C180.226 128.377 180.922 128.5 181.577 128.643L182.028 128.745C182.514 128.853 182.971 128.976 183.399 129.112C184.432 129.416 185.428 129.84 186.367 130.377C189.276 132.043 195.934 129.914 196.749 129.649H196.828C197.729 129.581 198.571 129.527 199.346 129.459L199.809 129.418L200.691 129.343C199.445 133.267 194.291 149.553 192.608 158.141C192.429 159.093 192.283 159.95 192.191 160.677C191.707 164.594 192.211 171.279 193.125 178.065Z" fill="white"/>
<path d="M200.737 129.275C199.492 133.198 194.337 149.484 192.655 158.073C189.006 160.299 184.667 161.012 180.524 160.065C178.602 159.698 176.734 159.079 174.966 158.222C175.264 153.626 176.003 149.07 177.172 144.622C178.413 139.246 179.198 133.77 179.517 128.255C180.272 128.364 180.968 128.486 181.624 128.629L182.074 128.731C182.56 128.84 183.017 128.962 183.446 129.098C184.479 129.402 185.475 129.826 186.414 130.363C189.322 132.029 195.98 129.9 196.795 129.635H196.875C197.776 129.567 198.617 129.513 199.392 129.445L199.856 129.404L200.737 129.275Z" fill="#F9F9F9"/>
<path d="M200.128 148.995L203.97 157.991C202.87 159.916 196.086 172.543 193.125 178.065C192.211 171.265 191.707 164.594 192.204 160.609C193.125 153.225 199.319 133.634 200.704 129.275C201.817 129.187 202.791 129.091 203.652 129.003L204.831 146.085C203.97 146.669 200.128 148.995 200.128 148.995Z" fill="#A7CAF0"/>
<path d="M177.139 144.595C175.728 150.45 172.932 161.799 176.907 174.515C173.58 169.542 171.212 163.96 169.931 158.073L174.237 148.186L172.037 145.221C172.037 145.221 174.429 138.421 178.464 128.078C178.802 128.119 179.126 128.173 179.457 128.228C179.147 133.742 178.371 139.218 177.139 144.595Z" fill="#A7CAF0"/>
<path d="M198.849 128.52C200.459 128.03 201.797 128.52 201.764 129.2C201.685 131.016 198.597 141.977 197.266 142.535C197.021 142.637 195.49 137.591 193.754 136.979C192.019 136.367 188.812 137.204 188.885 137.163C188.958 137.122 195.384 127.378 198.849 128.52Z" fill="#683F1D"/>
<path d="M183.512 128.126C186.235 131.893 185.864 134.722 184.87 134.851C183.876 134.98 182.664 134.885 181.465 136.177C180.266 137.469 178.364 139.577 178.218 139.305C177.51 137.945 178.715 129.105 179.245 128.187C179.901 127.058 182.776 127.106 183.512 128.126Z" fill="#683F1D"/>
<path d="M185.612 141.317C185.281 148.505 183.658 151.259 182.677 155.693C181.697 160.126 182.564 166.165 184.148 173.121C185.731 180.077 185.645 183.824 185.612 184.586C185.579 185.347 184.015 189.713 187.44 191.386" stroke="#DDDDDD" stroke-linecap="round" stroke-linejoin="round"/>
<path d="M198.856 128.52C198.856 128.52 188.328 139.556 185.864 137.918C183.399 136.279 182.452 130.016 182.724 127.915C182.823 127.235 183.009 125.943 183.214 124.515C183.645 121.645 184.181 118.15 184.274 117.395C184.559 111.275 194.337 106.005 197.133 112.785C196.729 118.095 197.314 123.435 198.856 128.52Z" fill="#FEBD9D"/>
<path d="M183.214 124.487C183.644 121.618 184.181 118.123 184.274 117.368L190.641 115.09C191.31 120.673 188.547 123.841 183.214 124.487Z" fill="#F4A789"/>
<path d="M165.916 162.806C165.962 158.834 166.777 155.04 167.334 151.769C167.582 150.421 167.751 149.058 167.837 147.689C167.923 145.649 167.228 143.534 166.439 141.535" stroke="#83ADDF" stroke-width="0.75" stroke-linecap="round" stroke-linejoin="round"/>
<path d="M199.18 198.56C195.125 197.567 181.551 195.561 181.551 195.561" stroke="#83ADDF" stroke-width="0.75" stroke-linecap="round" stroke-linejoin="round"/>
<path d="M115.361 192.331C108.265 192.331 97.6655 204.068 104.979 210.875C113.287 218.579 122.675 218.912 141.583 222.36C141.583 222.36 151.235 192.351 115.361 192.331Z" fill="#FEBD9D"/>
<path d="M199.531 226.984C191.137 229.024 173.25 227.365 162.531 226.141C159.735 225.815 157.423 225.529 155.906 225.345C154.726 225.203 154.011 225.121 153.918 225.135C133.096 227.12 130.512 222.449 121.727 210.902C112.942 199.356 115.241 193.039 115.361 192.331C131.618 190.971 159.483 192.223 173.601 194.052L181.551 195.534C185.009 197.607 188.057 200.329 190.534 203.558C197.034 211.956 198.961 222.177 199.531 226.984Z" fill="#FED81D"/>
<path d="M141.974 221.884C148.718 223.924 155.886 225.345 155.886 225.345" stroke="#F7AD2B" stroke-width="0.75" stroke-linecap="round" stroke-linejoin="round"/>
<path d="M199.532 226.984C191.138 229.024 173.25 227.365 162.531 226.141C167.54 222.333 172.86 222.483 178.776 223.618C190.966 225.951 193.291 221.469 190.363 216.702C187.792 212.5 186.693 206.557 190.535 203.558C197.034 211.956 198.962 222.176 199.532 226.984Z" fill="#FCC71F"/>
<path d="M229.224 197.601C221.838 201.498 216.756 193.093 213.404 185.164C212.741 183.566 212.119 182.002 211.582 180.547C209.29 174.427 205.62 160.031 204.394 147.907C203.387 138.04 204.049 129.649 208.448 128.411C213.689 126.936 219.506 129.316 222.924 139.332C223.602 141.374 224.137 143.462 224.527 145.581C227.674 162.167 236.909 193.542 229.224 197.601Z" fill="#C3DCF8"/>
<path d="M213.378 185.164C212.715 183.566 212.093 182.002 211.556 180.547C209.774 175.787 207.137 165.995 205.494 156.169" stroke="#83ADDF" stroke-width="0.75" stroke-linecap="round" stroke-linejoin="round"/>
<path d="M222.931 139.332C218.453 139.601 214.107 140.987 210.27 143.371C208.174 144.694 206.199 146.207 204.368 147.893C203.387 138.04 204.05 129.649 208.449 128.411C213.696 126.936 219.512 129.316 222.931 139.332Z" fill="#D0E5F7"/>
<path d="M199.922 106.91C197.385 111.908 177.921 106.23 177.921 106.23C174.761 105.285 173.177 104.006 173.283 102.041C173.389 100.076 176.364 100.001 175.595 98.131C175.207 97.2188 174.983 96.242 174.933 95.2478C174.88 93.4526 175.536 91.3922 178.1 89.7262C182.605 86.7886 188.792 90.7326 188.792 90.7326C188.792 90.7326 191.621 88.305 196.742 91.0046C199.333 92.3646 200.764 95.1526 201.208 98.2126C201.644 101.178 201.196 104.21 199.922 106.91Z" fill="#DD6819"/>
<path d="M199.922 106.91C197.385 111.908 177.921 106.23 177.921 106.23C174.761 105.285 173.177 104.006 173.283 102.041C173.389 100.076 176.364 100.001 175.595 98.131C175.207 97.2188 174.983 96.242 174.933 95.2478C179.127 90.7054 188.713 90.1478 189.746 94.3842C190.926 99.2054 193.158 106.862 201.214 98.2126C201.649 101.179 201.198 104.211 199.922 106.91Z" fill="#CC5E0D"/>
<path d="M188.11 93.3098C191.781 90.753 195.192 92.6842 196.146 95.4994C197.531 99.5794 192.834 103.857 197.531 107.495" stroke="#FF79A0" stroke-width="0.75" stroke-linecap="round" stroke-linejoin="round"/>
<path d="M177.411 95.9957C177.742 92.1741 183.493 88.5157 188.806 90.7053" stroke="#FF79A0" stroke-width="0.75" stroke-linecap="round" stroke-linejoin="round"/>
<path d="M197.133 112.758C197.133 112.758 191.8 118.076 185.99 119.789C180.179 121.503 175.39 117.946 175.853 109.508C175.853 109.365 175.853 109.222 175.853 109.086C175.933 108.059 176.052 107.046 176.211 106.094C177.437 98.818 181.12 93.5548 187.235 95.5268C189.11 96.1252 187.354 102.918 188.613 105.978C188.687 106.167 188.78 106.347 188.891 106.516C189.31 107.143 189.869 107.658 190.521 108.018C192.588 109.195 195.41 108.93 196.318 107.134C197.643 104.537 201.247 103.279 202.499 107.651C203.433 110.786 200.074 113.628 197.133 112.758Z" fill="#FEBD9D"/>
<path d="M190.548 108.018C189.959 108.739 189.186 109.279 188.316 109.575C186.6 110.255 184.944 110.031 184.619 109.14C184.294 108.249 185.427 106.991 187.15 106.338C187.628 106.149 188.13 106.028 188.64 105.978C188.714 106.167 188.808 106.347 188.919 106.515C189.337 107.143 189.896 107.658 190.548 108.018Z" fill="#F4AF90"/>
<path d="M177.622 109.099C177.324 109.548 176.662 109.671 175.854 109.507C175.854 109.365 175.854 109.222 175.854 109.086C175.933 108.059 176.052 107.046 176.211 106.094C177.477 107.107 178.086 108.385 177.622 109.099Z" fill="#F4AF90"/>
<path d="M178.702 104.339C178.702 104.489 178.745 104.634 178.826 104.759C178.907 104.883 179.022 104.979 179.156 105.037C179.29 105.094 179.438 105.109 179.581 105.08C179.724 105.05 179.855 104.979 179.958 104.873C180.06 104.767 180.13 104.633 180.159 104.487C180.187 104.34 180.173 104.188 180.117 104.05C180.061 103.913 179.967 103.795 179.846 103.712C179.725 103.629 179.583 103.584 179.438 103.584C179.243 103.584 179.055 103.664 178.918 103.806C178.78 103.947 178.702 104.139 178.702 104.339Z" fill="#683F1D"/>
<path d="M182.777 105.489C182.777 105.689 182.855 105.881 182.993 106.022C183.131 106.164 183.318 106.243 183.513 106.243C183.708 106.243 183.895 106.164 184.033 106.022C184.171 105.881 184.248 105.689 184.248 105.489C184.248 105.289 184.171 105.097 184.033 104.955C183.895 104.813 183.708 104.734 183.513 104.734C183.318 104.734 183.131 104.813 182.993 104.955C182.855 105.097 182.777 105.289 182.777 105.489Z" fill="#683F1D"/>
<path d="M197.266 109.61C198.054 107.57 199.79 106.604 201.095 107.57" stroke="#EF8A66" stroke-width="0.75" stroke-linecap="round" stroke-linejoin="round"/>
<path d="M197.531 109.025C199.638 107.372 201.095 111.065 197.717 111.065" stroke="#EF8A66" stroke-width="0.75" stroke-linecap="round" stroke-linejoin="round"/>
<path d="M176.748 100.688C176.549 101.674 180.664 103.02 181.054 101.048C181.333 99.6268 176.967 99.6268 176.748 100.688Z" fill="#DD6819"/>
<path d="M183.545 101.32C183.095 103.034 187.772 103.932 188.275 102.776C188.706 101.796 184.049 99.3755 183.545 101.32Z" fill="#DD6819"/>
<path d="M179.292 108.963C178.385 107.495 178.862 106.407 180.054 106.407C181.525 106.407 182.002 105.047 181.936 103.143" stroke="#EF8A66" stroke-width="0.75" stroke-linecap="round" stroke-linejoin="round"/>
<path d="M179.266 110.459C181.154 110.697 183.665 109.5 183.665 109.5C183.665 109.5 183.545 112.9 181.465 113.2C179.385 113.499 179.266 110.459 179.266 110.459Z" fill="white" stroke="#EF8A66" stroke-width="0.75" stroke-linecap="round" stroke-linejoin="round"/>
<path d="M128.206 90.4399C126.265 89.1615 124.033 89.5151 123.377 91.2763C122.429 93.8195 124.212 95.5331 126.212 96.1995L128.206 90.4399Z" fill="#F9F9F9" stroke="#DDDDDD" stroke-linecap="round" stroke-linejoin="round"/>
<path d="M151.646 107.495C154.812 108.821 156.528 109.589 157.052 109.167C157.575 108.746 159.993 103.047 159.735 102.435C159.476 101.823 154.514 99.0693 154.514 99.0693L151.646 107.495Z" fill="#DDDDDD" stroke="#EDEDED" stroke-linecap="round" stroke-linejoin="round"/>
<path d="M134.069 131.709C134.566 129.54 141.675 127.779 144.073 127.371V134.695C144.073 134.695 136.56 136.299 134.069 131.709Z" fill="#A7CAF0"/>
<path d="M137.077 134.967C138.303 128.901 139.131 127.487 138.747 126.725C138.363 125.963 135.878 123.475 135.58 120.925C135.282 118.375 137.912 114.091 138.84 112.765C139.767 111.439 141.059 110.425 145.12 111.085C149.181 111.745 150.771 112.316 150.818 114.376C150.864 116.437 149.022 130.37 149.022 130.37C149.022 130.37 145.809 140.76 137.077 134.967Z" fill="#FEBD9D"/>
<path d="M142.132 104.571C141.291 108.651 139.078 115.485 138.25 118.762C137.422 122.04 137.958 123.808 140.602 124.359C143.245 124.91 144.855 120.218 145.392 117.137C145.928 114.057 147.379 106.407 147.379 106.407L142.132 104.571Z" fill="#F9F9F9" stroke="#DDDDDD" stroke-linecap="round" stroke-linejoin="round"/>
<path d="M130.347 180.921C139.357 188.564 145.041 172.638 147.128 158.664C148.427 149.292 149.06 139.836 149.022 130.37C149.022 130.37 141.51 132.518 134.07 131.73C131.778 143.058 122.999 174.692 130.347 180.921Z" fill="#C3DCF8"/>
<path d="M142.636 175.358C144.749 170.7 146.253 164.512 147.127 158.664C148.427 149.292 149.06 139.836 149.022 130.37" stroke="#83ADDF" stroke-width="0.75" stroke-linecap="round" stroke-linejoin="round"/>
<path d="M152.884 107.658C151.851 108.08 149.499 108.202 146.432 107.828C141.226 107.16 136.172 105.575 131.492 103.143L137.892 88.8628C142.706 90.2893 147.255 92.5276 151.354 95.486C153.673 97.152 155.329 98.7296 155.905 99.77C156.482 100.81 155.322 106.658 152.884 107.658Z" fill="#F9F9F9" stroke="#DDDDDD" stroke-linecap="round" stroke-linejoin="round"/>
<path d="M152.884 107.658C151.851 108.079 149.499 108.202 146.432 107.828C149.512 104.264 151.692 100.395 151.354 95.5195C153.673 97.1855 155.329 98.7631 155.905 99.8035C156.482 100.844 155.322 106.658 152.884 107.658Z" fill="#F9F9F9" stroke="#EDEDED" stroke-linecap="round" stroke-linejoin="round"/>
<path d="M132.798 104.176C134.507 103.659 139.761 93.1466 139.006 90.0594C138.251 86.9722 131.824 79.8594 131.824 79.8594C131.824 79.8594 123.623 94.4522 122.105 105.244C122.105 105.257 130.314 104.931 132.798 104.176Z" fill="#DDDDDD" stroke="#EDEDED" stroke-linecap="round" stroke-linejoin="round"/>
<path d="M122.794 84.8778L120.27 80.6074" stroke="#DDDDDD" stroke-linecap="round" stroke-linejoin="round"/>
<path d="M112.923 87.8496L117.375 89.6992" stroke="#DDDDDD" stroke-linecap="round" stroke-linejoin="round"/>
<path d="M112.399 97.0702L117.004 96.2202" stroke="#DDDDDD" stroke-linecap="round" stroke-linejoin="round"/>
<path d="M134.865 117.77C136.707 116.797 141.782 122.53 138.694 122.897C136.866 123.128 132.155 119.198 134.865 117.77Z" fill="#FEBD9D" stroke="#EF8A66" stroke-width="0.75" stroke-linecap="round" stroke-linejoin="round"/>
<path d="M135.262 114.587C137.11 113.615 142.549 119.395 139.495 119.789C137.66 120.02 132.552 116.015 135.262 114.587Z" fill="#FEBD9D" stroke="#EF8A66" stroke-width="0.75" stroke-linecap="round" stroke-linejoin="round"/>
<path d="M136.024 111.357C138.012 110.31 143.888 116.532 140.569 116.953C138.601 117.198 133.109 112.88 136.024 111.357Z" fill="#FEBD9D" stroke="#EF8A66" stroke-width="0.75" stroke-linecap="round" stroke-linejoin="round"/>
<path d="M137.137 108.46C139.065 107.304 144.803 113.737 141.888 115.076C140.516 115.709 134.322 110.16 137.137 108.46Z" fill="#FEBD9D" stroke="#EF8A66" stroke-width="0.75" stroke-linecap="round" stroke-linejoin="round"/>
<path d="M145.385 114.968C144.915 114.335 140.549 112.207 141.059 110.507C141.569 108.807 146.783 110.555 149.221 111.357C151.659 112.159 151.056 113.717 150.447 118.762C150.447 118.762 148.293 118.891 145.385 114.968Z" fill="#FEBD9D"/>
<path d="M145.385 114.968C144.915 114.335 140.549 112.207 141.059 110.507C141.569 108.807 146.783 110.555 149.221 111.357C151.659 112.159 151.056 113.717 150.447 118.762" stroke="#EF8A66" stroke-width="0.75" stroke-linecap="round" stroke-linejoin="round"/>
</svg>
