<svg xmlns="http://www.w3.org/2000/svg" width="518" height="406" fill="none"><path fill="#EDEDED" stroke="#DDD" stroke-linecap="round" stroke-linejoin="round" d="M190.32 346.453v2.139l38.481 5.413 48.077 9.791s2.59-2.206-2.273-6.035c-4.862-3.83-31.779-8.75-45.454-6.03 0-.04-13.902-10.359-38.831-5.278Z"/><path fill="#F9F9F9" stroke="#EDEDED" stroke-linecap="round" stroke-linejoin="round" d="M185.924 347.062s30.199-1.522 39.368 6.172c3.885 3.248 6.824.785 11.234.676 4.409-.108 28.218-2.889 41.44 10.908l24.475-20.537s-14.652-16.727-40.617-6.719c0 0-7.77-9.832-35.872-4.872-.246.365-40.028 14.372-40.028 14.372Z"/><path stroke="#EDEDED" stroke-linecap="round" stroke-linejoin="round" d="m261.83 337.582-33.709 14.109"/><path fill="#F9F9F9" stroke="#DDD" stroke-linecap="round" stroke-linejoin="round" d="M470.785 148.102v200.814c-33.171-10.089-77.7-16.679-126.263-20.577V148.102h126.263Z"/><path stroke="#EDEDED" stroke-linecap="round" stroke-linejoin="round" d="M470.784 202.986h-9.226v34.226M409.674 234.993v-34.138l-8.236.507v35.119M392.495 238.816v-34.95l8.942-.345"/><path fill="#EDEDED" d="m385.561 238.816-.473-31.404h7.407v31.404"/><path stroke="#DDD" stroke-linecap="round" stroke-linejoin="round" d="m385.561 238.816-.473-31.404h7.407v31.404"/><path stroke="#DDD" stroke-linecap="round" stroke-linejoin="round" stroke-width=".75" d="m353.205 238.816-8.702-30.599 6.74-1.637"/><path fill="#EDEDED" d="M360.16 238.68c-.078.136-9.875-35.592-9.875-35.592l7.932-.596 10.535 36.324"/><path stroke="#DDD" stroke-linecap="round" stroke-linejoin="round" d="M360.16 238.68c-.078.136-9.875-35.592-9.875-35.592l7.932-.596 10.535 36.324"/><path stroke="#DDD" stroke-linecap="round" stroke-linejoin="round" stroke-width=".75" d="m360.956 211.925 10.095-1.197 11.506 28.088"/><path fill="#DDD" d="M390.754 187.863c.091 0 8.709-34.036 8.709-34.036l5.827.852-8.152 33.157"/><path stroke="#DDD" stroke-miterlimit="10" d="M390.754 187.863c.091 0 8.709-34.036 8.709-34.036l5.827.852-8.152 33.157"/><path fill="#F9F9F9" d="m406.573 187.037-.24-35.606h10.237l-.46 34.334"/><path stroke="#DDD" stroke-linecap="round" stroke-linejoin="round" stroke-width=".75" d="m406.573 187.037-.24-35.606h10.237l-.46 34.334"/><path fill="#F9F9F9" d="M416.537 153.827h11.83l-.829 32.29"/><path stroke="#DDD" stroke-linecap="round" stroke-linejoin="round" stroke-width=".75" d="M416.537 153.827h11.83l-.829 32.29"/><path stroke="#EDEDED" stroke-linecap="round" stroke-linejoin="round" d="m454.585 150.68 8.456.751-9.324 36.432-6.954-2.504 7.822-34.679Z"/><path fill="#EDEDED" d="m462.426 187.518 8.359-31.959-8.359-1.732-8.709 34.036"/><path stroke="#DDD" stroke-linecap="round" stroke-linejoin="round" d="m462.426 187.518 8.359-31.959-8.359-1.732-8.709 34.036"/><path stroke="#EDEDED" stroke-linecap="round" stroke-linejoin="round" d="M381.378 178.667h4.811v9.196M352.286 179.303l.214 8.56M387.49 167.089h-34.991v5.84h34.991v-5.84Z"/><path fill="#EDEDED" d="M352.5 172.929h-4.436v6.462l33.314-.724v-5.738"/><path stroke="#DDD" stroke-linecap="round" stroke-linejoin="round" d="M352.5 172.929h-4.436v6.462l33.314-.724v-5.738M470.785 187.863H344.503v8.945h126.282v-8.945ZM470.785 238.816H344.503v8.945h126.282v-8.945Z"/><path stroke="#DDD" stroke-linecap="round" stroke-linejoin="round" stroke-width="2" d="M480.07 136.321v215.613c-2.987-1.042-6.082-2.048-9.285-3.018-33.171-10.089-77.7-16.679-126.263-20.577-3.073-.253-6.168-.489-9.285-.711V136.321H480.07Z"/><path stroke="#DDD" stroke-linecap="round" stroke-linejoin="round" stroke-width="2" d="M9.78418 339.145c11.29892-2.767 27.55762-5.332 47.39052-7.538 7.77-.866 16.1292-1.678 24.9482-2.429 3.4533-.289 6.9714-.573 10.5542-.853 2.5339-.189 5.1023-.374 7.7049-.555 7.373-.518 14.988-.994 22.844-1.427 36.072-1.969 76.664-2.93 117.884-2.47 2.564.027 5.133.063 7.705.108 5.18.072 10.343.174 15.488.305 5.332.135 10.658.291 15.981.466 18.557.63 36.991 1.57 54.934 2.876 3.112.221 6.207.458 9.285.711l2.15.176c16.783 1.353 33.022 3.072 48.523 5.136 25.499 3.383 48.815 7.754 68.635 13.235 2.383.663 4.716 1.34 7 2.03 3.203.975 6.298 1.981 9.285 3.018 11.007 3.837 20.513 8.12 28.147 12.904"/><path fill="#F9F9F9" stroke="#DDD" stroke-linecap="round" stroke-linejoin="round" d="M241.11 97.6294V323.873c-50.174-.555-99.436.995-140.727 3.898V97.6294H241.11Z"/><path stroke="#EDEDED" stroke-linecap="round" stroke-linejoin="round" d="m196.16 310.042 10.703-34.098 6.184.636-9.402 33.401M212.096 309.981l10.865-41.534h-7.563l-2.35 8.134"/><path fill="#EDEDED" d="m219.542 309.981 7.964-34.95-6.164-.399-9.246 35.349"/><path stroke="#DDD" stroke-linecap="round" stroke-linejoin="round" d="m219.542 309.981 7.964-34.95-6.164-.399-9.246 35.349"/><path stroke="#EDEDED" stroke-linecap="round" stroke-linejoin="round" d="M241.11 267.364c0 .163-12.16 0-12.16 0l.447 42.278"/><path fill="#EDEDED" d="M191.894 220.39h9.239l7.401 32.649h-8.301"/><path stroke="#DDD" stroke-linecap="round" stroke-linejoin="round" d="M191.894 220.39h9.239l7.401 32.649h-8.301"/><path fill="#F9F9F9" d="M215.935 217h-7.401s.609 36.073 1.256 36.073h7.123"/><path stroke="#DDD" stroke-linecap="round" stroke-linejoin="round" d="M215.935 217h-7.401s.609 36.073 1.256 36.073h7.123"/><path fill="#F9F9F9" d="M216.913 253.073c-.447-.568-.991-42.129-.991-42.129h8.903v42.129"/><path stroke="#DDD" stroke-linecap="round" stroke-linejoin="round" d="M216.913 253.073c-.447-.568-.991-42.129-.991-42.129h8.903v42.129"/><path fill="#EDEDED" d="m231.158 253.073 9.065-35.315-6.475-2.328s-8.942 32.074-8.942 32.338v5.305"/><path stroke="#DDD" stroke-linecap="round" stroke-linejoin="round" d="m231.158 253.073 9.065-35.315-6.475-2.328s-8.942 32.074-8.942 32.338v5.305"/><path fill="#F9F9F9" d="m193.214 253.039-9.667-37.061 7.174-1.218 9.512 38.279"/><path stroke="#DDD" stroke-linecap="round" stroke-linejoin="round" d="m193.214 253.039-9.667-37.061 7.174-1.218 9.512 38.279"/><path stroke="#EDEDED" stroke-linecap="round" stroke-linejoin="round" d="m152.499 235.372-2.939-.23v3.478M182.608 236.881l-.265 5.508M154.17 228.341l-.751-6.327h29.519v6.327"/><path fill="#DDD" stroke="#DDD" stroke-miterlimit="10" d="m152.499 235.372-.485-7.031h33.139l.382 8.608-33.036-1.577Z"/><path stroke="#EDEDED" stroke-linecap="round" stroke-linejoin="round" d="m152.014 241.529 32.148.86v10.65"/><path stroke="#DDD" stroke-linecap="round" stroke-linejoin="round" stroke-width=".75" d="M160.664 174.526h-39.167v6.557h39.167v-6.557ZM158.851 195.956c.324.622 0-9.122 0-9.122l-31.87-.453v9.71M156.935 181.083v5.724"/><path fill="#EDEDED" d="m164.265 196.145 1.353-45.039 10.082.609-.868 44.383"/><path stroke="#DDD" stroke-linecap="round" stroke-linejoin="round" d="m164.265 196.145 1.353-45.039 10.082.609-.868 44.383"/><path stroke="#DDD" stroke-linecap="round" stroke-linejoin="round" stroke-width=".75" d="M175.647 154.32h8.405l-.764 41.778M129.196 181.529l.324 4.886"/><path stroke="#EDEDED" stroke-linecap="round" stroke-linejoin="round" d="M100.383 158.617h9.078l1.599 37.528M118.616 195.956l-1.056-34.334-7.99-.447M184.053 196.098l8.942-38.611 9.388 2.247"/><path stroke="#EDEDED" stroke-linecap="round" stroke-linejoin="round" d="m192.819 196.098 10.846-41.778 9.285 3.803-9.538 37.975M226.062 196.145l-.557-45.039-12.503-.494v45.533"/><path fill="#EDEDED" d="m236.771 196.145-.654-41.378h-10.612l.913 41.378"/><path stroke="#DDD" stroke-linecap="round" stroke-linejoin="round" d="m236.771 196.145-.654-41.378h-10.612l.913 41.378"/><path stroke="#DDD" stroke-linecap="round" stroke-linejoin="round" d="M241.11 196.091H100.376v8.953H241.11v-8.953ZM241.11 253.04H100.376v8.945H241.11v-8.945Z"/><path stroke="#DDD" stroke-linecap="round" stroke-linejoin="round" stroke-width="2" d="M241.11 309.981H100.376v8.952H241.11v-8.952Z"/><path stroke="#DDD" stroke-linecap="round" stroke-linejoin="round" stroke-width="2" d="M248.815 86.2207V323.981c-2.59-.045-5.159-.081-7.705-.108-50.175-.555-99.437.994-140.728 3.897-2.59.176-5.1584.361-7.7052.555V86.2207H248.815Z"/><path stroke="#DDD" stroke-linecap="round" stroke-linejoin="round" stroke-width=".75" d="m187.658 102.271-1.437 4.71-9.823 32.175h-6.008l11.726-38.441 5.542 1.556ZM186.228 106.981l8.392 2.328-8.696 29.847M194.821 97.6362l-.713 41.5138M197.915 100.965h8.502M208.936 97.6362V139.15M208.936 119.614l5.698 19.536M219.801 139.15l5.704-2.497-11.584-31.208-4.985 1.536"/><path stroke="#DDD" stroke-linecap="round" stroke-linejoin="round" stroke-width=".75" d="m224.45 137.113.705 2.037h2.454l4.203-2.22-7.466-26.89-7.932 2.124"/><path stroke="#DDD" stroke-linecap="round" stroke-linejoin="round" d="M241.11 139.149H100.376v8.946H241.11v-8.946Z"/><path stroke="#EDEDED" stroke-linecap="round" stroke-linejoin="round" d="M115.78 139.156h-6.539l-8.858-29.834 7.051-2.341 8.411 28.23M124.793 139.157h-9.013l.065-3.945.563-33.61h7.732l.187 10.413.492 27.142M143.24 139.156h-10.269l-.46-29.469-.136-8.674 9.033-.298s.084 1.752.213 4.554c.389 8.411 1.224 26.173 1.619 33.887Z"/><path fill="#EDEDED" d="m124.793 139.157-.466-27.142-.071-4.357 8.255 2.03h.007l.453 29.469h-8.152"/><path stroke="#DDD" stroke-linecap="round" stroke-linejoin="round" d="m124.793 139.157-.466-27.142-.071-4.357 8.255 2.03h.007l.453 29.469h-8.152"/><path fill="#EDEDED" stroke="#DDD" stroke-linecap="round" stroke-linejoin="round" d="M143.241 139.157h8.968l-.79-32.176-.039-1.712h-9.758l1.619 33.888Z"/><path stroke="#EDEDED" stroke-linecap="round" stroke-linejoin="round" d="M151.418 106.981h9.861l.305 32.175h-9.376"/><path fill="#F9F9F9" stroke="#EDEDED" stroke-linecap="round" stroke-linejoin="round" d="m343.648 372.518 46.737-18.622 46.38 5.414s3.18 1.164 1.677 5.258l-45.881 23.838-48.913-15.888Z"/><path fill="#F9F9F9" d="M393.11 382.08s30.31-14.758 43.655-22.743L393.11 382.08Z"/><path stroke="#EDEDED" stroke-linecap="round" stroke-linejoin="round" d="M393.11 382.08s30.31-14.758 43.655-22.743"/><path fill="#EDEDED" stroke="#DDD" stroke-linecap="round" stroke-linejoin="round" d="M343.648 372.519s46.737 7.186 49.463 9.561c1.243 1.083 1.353 6.658-1.366 6.293-2.72-.366-48.097-7.504-48.097-7.504s6.65-3.167 0-8.35Z"/><path stroke="#EDEDED" stroke-linecap="round" stroke-linejoin="round" stroke-width="2" d="M405.442 118.754c12.386-2.641 20.379-15.275 17.852-28.2188-2.527-12.9441-14.616-21.2968-27.003-18.6562-12.386 2.6405-20.378 15.2745-17.852 28.219 2.527 12.944 14.616 21.296 27.003 18.656Z"/><path fill="#DDD" stroke="#DDD" stroke-miterlimit="10" d="m411.947 102.021-8.379-6.2929c.022-.141.035-.2834.039-.4263-.002-.5182-.138-1.0263-.395-1.4698-.256-.4434-.624-.8055-1.062-1.0474-.149-3.2683-.421-9.2433-.68-14.8461-.052-1.1571-1.114-1.1503-1.159 0l-.648 14.7784c-.549.2851-.991.7553-1.254 1.3348-.263.5796-.332 1.2347-.195 1.86.137.6252.471 1.184.949 1.5865.478.4025 1.072.6251 1.685.6321.576 0 1.136-.192 1.6-.5481l8.845 5.4138c.977.642 1.56-.298.654-.975Z"/><path fill="#F9F9F9" stroke="#DDD" stroke-linecap="round" stroke-linejoin="round" d="m170.461 349.958 63.287 12.465s-4.339 7.382 1.295 9.554l-45.682 13.046s-58.346-14-60.45-14.961c-2.105-.961-4.377-5.555.88-7.342 5.258-1.786 40.67-12.762 40.67-12.762Z"/><path fill="#F9F9F9" d="M189.362 385.023c-2.363-.291-3.93-5.623.816-7.443 4.571-1.759 43.544-15.13 43.544-15.13"/><path stroke="#EDEDED" stroke-linecap="round" stroke-linejoin="round" d="M189.362 385.023c-2.363-.291-3.93-5.623.816-7.443 4.571-1.759 43.544-15.13 43.544-15.13"/><path stroke="#DDD" stroke-linecap="round" stroke-linejoin="round" d="m137.542 366.293 42.56 10.603"/><path fill="#F9F9F9" stroke="#EDEDED" stroke-linecap="round" stroke-linejoin="round" d="M47.2228 369.23c6.734-1.631 5.5232-3.864 3.762-8.181-1.7612-4.317-7.1225-8.553-15.4817-6.713-8.3593 1.841-8.3593 10.204-1.8325 12.593 6.5268 2.389 10.1399 3.126 13.5522 2.301Z"/><path fill="#F9F9F9" d="M48.751 363.011c.7964 1.588 1.4468 3.251 1.9425 4.967l-1.9425-4.967Z"/><path stroke="#DDD" stroke-linecap="round" stroke-linejoin="round" d="M48.751 363.011c.7964 1.588 1.4468 3.251 1.9425 4.967"/><path fill="#F9F9F9" stroke="#DDD" stroke-linecap="round" stroke-linejoin="round" d="M45.7662 360.575c.5923.947 1.2664 1.835 2.0137 2.653.8547.886 1.7677.534 1.5994-.406-.3161-1.482-.9841-2.858-1.9425-3.999-.2294-.19-.5174-.284-.8093-.266-.2918.018-.567.148-.7733.364-.2063.217-.3293.505-.3455.81-.0162.305.0754.605.2575.844Z"/><path fill="#EDEDED" d="M340.054 17.5933v82.6137c-.331.25-.601.579-.788.958-.187.38-.285.801-.287 1.228v2.253c.002.428.1.848.287 1.228.187.38.457.708.788.958v3.207h3.037v-3.207c.33-.251.599-.579.785-.959.186-.38.283-.8.283-1.227v-2.253c0-.426-.097-.847-.283-1.227-.186-.379-.455-.708-.785-.959V17.5933"/><path stroke="#DDD" stroke-linecap="round" stroke-linejoin="round" stroke-width="2" d="M340.054 17.5933v82.6137c-.331.25-.601.579-.788.958-.187.38-.285.801-.287 1.228v2.253c.002.428.1.848.287 1.228.187.38.457.708.788.958v3.207h3.037v-3.207c.33-.251.599-.579.785-.959.186-.38.283-.8.283-1.227v-2.253c0-.426-.097-.847-.283-1.227-.186-.379-.455-.708-.785-.959V17.5933"/><path fill="#EDEDED" d="M208.755 17.5933v82.6137c-.33.251-.599.58-.785.959-.186.38-.283.801-.283 1.227v2.253c0 .427.097.847.283 1.227.186.38.455.708.785.959v3.207h3.037v-3.207c.331-.25.601-.578.788-.958.187-.38.285-.8.287-1.228v-2.253c-.002-.427-.1-.848-.287-1.228-.187-.379-.457-.708-.788-.958V17.5933"/><path stroke="#DDD" stroke-linecap="round" stroke-linejoin="round" stroke-width="2" d="M208.755 17.5933v82.6137c-.33.251-.599.58-.785.959-.186.38-.283.801-.283 1.227v2.253c0 .427.097.847.283 1.227.186.38.455.708.785.959v3.207h3.037v-3.207c.331-.25.601-.578.788-.958.187-.38.285-.8.287-1.228v-2.253c-.002-.427-.1-.848-.287-1.228-.187-.379-.457-.708-.788-.958V17.5933"/><path fill="#EDEDED" stroke="#DDD" stroke-linecap="round" stroke-linejoin="round" stroke-width="2" d="M349.462 103.232H202.383v9.582h147.079v-9.582Z"/><path fill="#F9F9F9" stroke="#DDD" stroke-linecap="round" stroke-linejoin="round" d="M351.457 105.702h-1.994v4.649h1.994v-4.649ZM343.149 112.814h-134.46c-1.162 0-2.104.985-2.104 2.199v.135c0 1.215.942 2.2 2.104 2.2h134.46c1.162 0 2.105-.985 2.105-2.2v-.135c0-1.214-.943-2.199-2.105-2.199ZM332.971 364.297l46.018-19.096 45.668 4.92s3.095 3.762.99 8.038l-44.515 21.491-48.161-15.353Z"/><path fill="#F9F9F9" d="M381.676 373.33s37.127-17.735 42.981-23.209l-42.981 23.209Z"/><path stroke="#DDD" stroke-linecap="round" stroke-linejoin="round" d="M381.676 373.33s37.127-17.735 42.981-23.209"/><path fill="#F9F9F9" stroke="#EDEDED" stroke-linecap="round" stroke-linejoin="round" d="M332.971 364.297s46.018 6.685 48.705 9.033c1.217 1.069 1.334 6.645-1.354 6.307-2.687-.338-47.351-6.99-47.351-6.99s6.52-3.235 0-8.35Z"/><path fill="#FEBD9D" d="M171.166 286.23c5.536 7.274 19.179 36.54 8.541 45.113-14.711 11.856-31.728-20.909-34.849-30.45l26.308-14.663Z"/><path fill="#FED81D" d="M172.708 285.019s-2.072 1.671-5.362 3.979c-5.97 4.188-15.948 10.454-24.792 12.511 0 0-.913-1.908-2.305-4.784l-3.108-6.435c-1.872-3.891-3.95-8.208-5.724-11.909l-2.066-4.331c-.382-.799-.725-1.523-1.016-2.152-5.18-10.969-10.976-36.811 6.041-38.529 1.454-.158 2.918-.19 4.377-.095h.071c.401.034.79.074 1.172.129l.324.047.57.108c.226.041.453.095.647.149.194.054.35.088.518.142l.24.061.492.169c.156.05.31.108.459.176.158.049.311.11.46.183.179.071.354.153.525.243.157.069.31.146.459.231.203.099.398.207.583.324.168.095.33.197.486.298l.401.277c.472.328.926.682 1.36 1.063.188.162.369.318.544.494.589.559 1.149 1.15 1.677 1.773.175.209.356.426.531.676.175.251.272.345.408.521.22.285.44.582.647.894.149.196.292.406.434.615.22.318.44.677.648.988.207.312.343.521.511.806l.531.879c.181.298.356.602.537.92.415.711.823 1.462 1.237 2.24.13.257.272.521.408.785.136.264.369.717.557 1.09.188.372.363.676.537 1.069.175.392.408.819.616 1.245.427.879.854 1.766 1.295 2.659 4.882 10.197 9.867 21.227 12.36 26.81 1.101 2.3 1.71 3.681 1.71 3.681Z"/><path fill="#FFE05C" d="M158.702 254.521c-4.766.176-9.277 2.294-12.568 5.901-.457.5-.889 1.024-1.295 1.57-4.115 5.311-9.441 9.457-15.488 12.058-.382-.799-.725-1.523-1.016-2.152-5.18-10.969-10.976-36.811 6.041-38.529 1.454-.158 2.918-.19 4.377-.095h.071c.401.034.79.074 1.172.129l.324.047.57.108c.226.041.453.095.647.149.194.054.35.088.518.142l.24.061.492.169c.156.05.31.108.459.176.158.049.311.11.46.183.179.071.354.153.525.243.157.069.31.146.459.231.203.099.398.207.583.324.168.095.33.197.486.298l.401.277c.472.328.926.682 1.36 1.063.188.162.369.318.544.494.589.559 1.149 1.15 1.677 1.773.175.209.356.426.531.676.175.251.272.345.408.521.22.285.44.582.647.894.149.196.292.406.434.615.22.318.44.677.648.988.207.312.343.521.511.806l.531.879c.181.298.356.602.537.92.415.711.823 1.462 1.237 2.24.13.257.272.521.408.785.136.264.369.717.557 1.09.188.372.363.676.537 1.069.175.392.408.819.616 1.245.511.873.938 1.759 1.359 2.652Z"/><path fill="#FCC71F" d="M167.347 288.998c-5.97 4.188-15.948 10.454-24.793 12.511 0 0-.913-1.908-2.305-4.784l-3.108-6.435c-1.871-3.891-3.95-8.208-5.724-11.909l10.114-10.279c.395-.155 8.133.257 5.743 7.037-2.389 6.781-6.604 11.321-3.166 14.075 3.438 2.754 13.371-19.454 22.132-3.004.477.878.849 1.814 1.107 2.788Z"/><path fill="#FED81D" d="M147.229 249.981c0 .358 0 .724-.052 1.103-.11 1.888-.31 4.006-.582 6.387-.098.9-.253 1.882-.46 2.951-.24 1.292-.551 2.706-.907 4.188-1.133 4.656-2.81 10.211-4.785 16.139-.233.676-.472 1.421-.718 2.131-.434 1.293-.887 2.592-1.341 3.898-.406 1.164-.82 2.334-1.243 3.512-4.843 13.533-10.418 27.499-13.915 36.053-7.847.428-15.462.904-22.844 1.427-2.5895.176-5.1579.361-7.7048.555-3.5871.28-7.1052.564-10.5542.853-8.819.751-17.1588 1.563-24.9482 2.429 1.418-7.288 5.2577-26.593 9.7708-46.758 2.4864-11.097 5.18-22.458 7.77-32.216 1.8324-6.868 3.626-12.938 5.2642-17.593 1.7094-4.798 3.2375-8.066 4.5325-9.101 4.4936-3.587 8.3656-4.737 13.2154-4.114.531.074 1.0684.162 1.6253.27.5568.109 1.12.244 1.703.393.214.047.427.108.647.169.221.061.46.135.693.203l.732.216c1.152.361 2.376.783 3.671 1.266l.803.298c.648.243 1.295.5 1.994.778 1.295.507 2.668 1.076 4.131 1.678 3.659 1.522 8.476 3.566 18.687 5.812.68.142 1.334.298 1.943.447l.544.129.524.135c.259.061.525.135.771.203s.498.135.738.203c.485.135.952.271 1.398.419.719.237 1.393.481 2.021.745l.589.257c.375.183.732.365 1.062.555l.44.257c.682.417 1.312.919 1.878 1.495l.11.115.155.176.208.244c.204.253.397.518.576.792.097.155.188.304.278.473.091.169.143.257.207.399l.091.19c.526 1.178.875 2.433 1.036 3.722 0 .169.045.338.071.521.026.182 0 .223.039.345.039.122.039.385.052.582.013.196.032.433.039.676v1.022c.103.914.09 1.902.045 2.971Z"/><path stroke="#F7AD2B" stroke-linecap="round" stroke-linejoin="round" stroke-width=".75" d="M123.227 326.343c3.496-8.553 9.065-22.5 13.914-36.053.432-1.178.846-2.348 1.244-3.512.453-1.306.906-2.605 1.34-3.898.246-.71.485-1.427.719-2.131 1.942-5.928 3.651-11.503 4.785-16.139"/><path fill="#FFE05C" d="M146.595 257.472c-.097.899-.253 1.881-.46 2.95-.457.5-.889 1.024-1.295 1.57-4.115 5.31-9.441 9.457-15.488 12.058-9.376 3.877-20.338 2.916-27.422-12.248-1.249-2.706-2.473-5.129-3.6579-7.355-6.3714-11.889-12.037-17.594-18.2789-19.393 1.7094-4.798 3.2375-8.066 4.5325-9.102 4.4936-3.586 8.3657-4.736 13.2154-4.114.531.075 1.0684.163 1.6253.271.5568.108 1.1206.244 1.7026.392.214.048.428.109.648.17.22.06.46.135.693.203l.731.216c1.153.361 2.377.783 3.672 1.265l.803.298c.647.244 1.295.501 1.994.778.537.217 1.101.433 1.67.677.382.149.758.305 1.153.474l1.295.534c3.658 1.523 8.476 3.566 18.687 5.813.68.142 1.334.298 1.942.446 11.979 2.842 14.329 5.969 12.238 24.097Z"/><path fill="#fff" d="M138.772 233.274c-2.078 6.699-7.271 13.635-15.203 12.376-8.657-1.353-13.992-10.698-13.954-20.219 1.295.508 2.668 1.076 4.131 1.678 3.659 1.523 8.476 3.566 18.687 5.813.68.142 1.334.298 1.943.446 1.46-.159 2.931-.19 4.396-.094Z"/><path fill="#FCC71F" d="M105.718 319.867c-3.412 2.842-12.6717 6.767-23.595 9.311-8.819.751-17.1588 1.563-24.9482 2.429 1.418-7.288 5.2577-26.593 9.7708-46.758 2.4864-11.097 5.18-22.458 7.77-32.216 19.0624 2.802 24.1453 23.893 15.4882 31.025-9.7125 8.026-10.7809 14.691 1.5151 14.515 12.2961-.176 23.6081 13.702 13.9991 21.694Z"/><path fill="#FEBD9D" d="M136.111 207.601c-.09.961-.188 1.875-.272 2.747-.764 7.809-1.107 12.607-1.159 17.012 0 2.328 0 4.547.156 7.044 0 0-3.031 10.394-13.824 6.09-7.615-3.045-7.265-13.364-7.265-13.364 2.227-7.381 3.709-14.985 4.422-22.689.259-3.864 19.341-10.82 17.942 3.16Z"/><path fill="#F4A789" d="M135.84 210.348c-.764 7.809-1.107 12.607-1.159 17.012-6.19 1.962-12.639-5.596-9.065-13.892 2.59-5.88 7.226-4.717 10.224-3.12Z"/><path fill="#fff" d="M172.708 285.018s-16.446 13.297-30.154 16.491c0 0-.913-1.908-2.305-4.784 11.267-4.06 23.064-9.981 30.815-15.394 1.036 2.307 1.644 3.687 1.644 3.687Z"/><path fill="#FEBD9D" d="M140.34 217.975c-3.626 4.933-10.069 3.782-20.112-6.869-3.801-4.06-8.184-10.603-8.068-15.779.117-5.177 6.113-16.078 17.483-9.819 4.39 2.423 7.53 7.092 9.525 12.18.754 1.946 1.354 3.954 1.793 6.002 1.328 6.205 1.062 11.991-.621 14.285Z"/><path fill="#F4AF90" d="M127.908 203.332c-.615 1.603-3.147 2.063-5.659 1.021-2.513-1.042-4.06-3.193-3.445-4.797.615-1.604 3.14-2.071 5.659-1.029 2.519 1.042 4.053 3.194 3.445 4.805ZM140.942 203.676c-1.58.609-3.088.44-3.788-.541-.965-1.353-.071-3.769 1.995-5.461.753 1.946 1.353 3.954 1.793 6.002Z"/><path stroke="#683F1D" stroke-miterlimit="10" d="M138.377 199.129c2.511 0 4.546-2.126 4.546-4.75 0-2.623-2.035-4.75-4.546-4.75-2.51 0-4.545 2.127-4.545 4.75 0 2.624 2.035 4.75 4.545 4.75Z"/><path fill="#683F1D" d="M128.251 196.91c-.001.196.053.387.156.551.103.163.25.291.423.366.173.076.363.097.547.059.184-.037.353-.13.485-.268.133-.138.224-.314.261-.506.037-.192.019-.391-.053-.572-.071-.181-.192-.335-.348-.444-.155-.109-.338-.167-.526-.167-.249 0-.489.103-.666.287-.177.183-.277.433-.279.694ZM134.836 195.367c0 .195.055.386.159.549.104.162.252.289.425.364.172.074.362.094.546.056.183-.038.352-.132.484-.271.132-.138.222-.314.258-.505.037-.192.018-.391-.053-.571-.072-.181-.193-.335-.349-.444-.155-.108-.338-.166-.525-.166-.25 0-.491.104-.668.289-.177.186-.277.437-.277.699Z"/><path fill="#FEBD9D" d="M121.174 210.403c-2.319 1.394-5.919 1.394-7.162-2.463-1.243-3.857 2.299-5.793 4.306-5.414 2.473.474 3.846 4.263 2.856 7.877Z"/><path stroke="#EF8A66" stroke-linecap="round" stroke-linejoin="round" stroke-width=".75" d="M119.937 206.87c-1.126-2.233-3.671-2.706-4.752.318"/><path stroke="#EF8A66" stroke-linecap="round" stroke-linejoin="round" stroke-width=".75" d="M119.308 205.95c-2.751-1.292-3.302 3.614-.129 2.375"/><path fill="#7F542D" d="M137.724 194.521c-1.127-2.246-2.575-4.299-4.293-6.09-2.791 1.638-4.662.142-4.662.142s-2.72 3.039-5.258 2.301-2.35-2.585-3.95-3.004c-1.599-.42-3.14 1.353-3.14 1.86 0 .508.829.826 2.35 4.595 1.522 3.769 1.069 9.054-2.039 9.649-.991.19-5.944-.521-8.418-4.425-.049-.065-.095-.132-.136-.203-2.415-4.094-1.003-7.037-.181-8.12.822-1.083 2.111-.602 2.292-1.631 1.049-5.853 6.21-10.887 11.739-11.429 5.53-.541 5.355 1.563 5.355 1.563s5.523-.44 8.521 3.546c.182.237.35.474.499.711 1.002 1.521 1.644 3.27 1.874 5.101.23 1.832.04 3.694-.553 5.434Z"/><path fill="#704725" d="M137.724 194.521c-1.127-2.246-2.575-4.299-4.293-6.09-2.791 1.638-4.662.143-4.662.143s-2.72 3.038-5.258 2.3c-2.538-.737-2.35-2.585-3.949-3.004-1.6-.42-3.141 1.353-3.141 1.861 0 .507.829.825 2.351 4.594 1.521 3.769 1.068 9.054-2.04 9.649-.991.19-5.944-.521-8.418-4.425 6.475-1.259 6.689-4.858 5.303-10.651-.906-3.816 5.828-7.389 9.59-4.96 2.344 1.523 8.78 1.042 13.196.048 1.002 1.521 1.645 3.27 1.874 5.101.23 1.832.04 3.694-.553 5.434Z"/><path stroke="#A56F42" stroke-linecap="round" stroke-linejoin="round" stroke-width=".75" d="M127.396 179.736c-2.236-.007-4.451.453-6.514 1.353M128.096 183.85c1.023.19 4.247 3.092 5.335 4.588 0 0 1.807 1.353 2.681-.569M122.184 185.569c.9-.826 2.654-.596 3.885.812.786.863 1.687 1.603 2.674 2.199"/><path stroke="#EF8A66" stroke-linecap="round" stroke-linejoin="round" stroke-width=".75" d="M131.107 192.173c-.292 3.384.725 4.974 2.117 5.062 1.392.088 3.238.575 2.888 2.855"/><path fill="#fff" stroke="#EF8A66" stroke-linecap="round" stroke-linejoin="round" stroke-width=".75" d="M129.501 204.421c1.924.347 3.875.504 5.827.467 0 0-.647 2.598-3.049 2.3-.685-.091-1.324-.409-1.824-.907-.5-.498-.834-1.15-.954-1.86Z"/><path stroke="#683F1D" stroke-miterlimit="10" d="M123.123 197.925c0 .936.266 1.852.764 2.631.498.779 1.206 1.386 2.034 1.745.828.358 1.74.452 2.619.269.879-.182 1.687-.634 2.321-1.296.633-.662 1.065-1.506 1.24-2.425.175-.919.085-1.871-.258-2.737-.343-.865-.924-1.605-1.669-2.126-.746-.52-1.622-.798-2.518-.798-1.203 0-2.355.499-3.205 1.387-.85.889-1.328 2.093-1.328 3.35Z"/><path fill="#7F542D" d="M131.806 190.197c-.084 1.692 4.455 1.354 4.493.623.039-.731-4.409-2.233-4.493-.623ZM124.217 194.163c.466.974 4.921-1.543 3.885-3.302-1.036-1.76-4.526 1.989-3.885 3.302Z"/><path stroke="#EF8A66" stroke-linecap="round" stroke-linejoin="round" stroke-width=".75" d="M121.173 210.402c-1.152.71-2.505.98-3.826.765"/><path fill="#FEBD9D" d="M93.6545 263.149c-5.7174 8.682-10.3988 17.444-14.614 25.51-10.4054 19.901-16.3559 34.382-29.1829 34.206-11.7003-.169-12.95-18.135.6929-47.367l-3.4447-3.349s10.0297-15.28 19.6775-30.626c8.7153-13.852 16.3429-23.893 30.9634-19.698 8.6313 2.497 6.0603 25.835-4.0922 41.324Z"/><path fill="#FED81D" d="M98.2713 254.427c-1.2892 3.037-2.8341 5.95-4.6167 8.702-4.5325 6.861-8.3851 13.77-11.8881 20.347-.9388 1.746-1.8453 3.471-2.7259 5.163-4.0932-1.028-8.1307-2.284-12.0953-3.762-6.0801-2.362-12.186-5.414-16.4401-9.372l-3.4447-3.35s1.1008-1.671 2.9138-4.452c3.6713-5.65 10.3017-15.895 16.7638-26.174 1.4892-2.375 2.9526-4.635 4.4224-6.732 7.1225-10.15 14.4263-16.443 26.5475-12.965 7.187 2.097 6.65 18.324.5633 32.595Z"/><path fill="#fff" d="M81.7661 283.523c-.9388 1.746-1.8453 3.471-2.7259 5.163-8.9614-2.314-21.3675-6.496-28.49-13.155l-3.4447-3.349s1.1007-1.671 2.9137-4.453c5.316 6.03 12.4385 9.866 31.7469 15.794Z"/><path fill="#FFE05C" d="M98.2715 254.426c-6.3714-11.889-12.0371-17.593-18.279-19.393-2.8799-.773-5.8892-.861-8.806-.257 7.1225-10.15 14.4263-16.443 26.5475-12.965 7.161 2.118 6.624 18.345.5375 32.615Z"/><path stroke="#F7AD2B" stroke-linecap="round" stroke-linejoin="round" stroke-width=".75" d="M98.3096 254.345c-1.2933 3.074-2.8516 6.018-4.6555 8.797-5.7174 8.682-10.3988 17.444-14.6141 25.51"/><path stroke="#F7AD2B" stroke-linecap="round" stroke-linejoin="round" stroke-width=".75" d="M97.5196 242.409c1.295 4.838 3.3474 7.084-.8741 15.563"/><path fill="#FEBD9D" d="M42.1204 309.629c4.9663-12.511 23.1546-12.924 45.1178-4.554 21.9628 8.371 46.1088 16.755 49.7668 17.79 3.658 1.035 2.972 14.061-6.235 13.337-9.208-.724-44.0304 2.429-64.4072-1.529-20.3769-3.959-27.5123-16.863-24.2424-25.044Z"/><path stroke="#EF8A66" stroke-linecap="round" stroke-linejoin="round" stroke-width=".75" d="M52.3643 300.609c5.8275-1.8 13.4809-1.536 22.2286.528"/><path fill="#FEBD9D" d="M189.413 323.25c9.713-14.589 14.725-72.186 14.725-72.186s9.744-4.737 11.363-5.881c1.619-1.143 4.766-6.868 5.31-8.58 0 0 2.732-1.746 2.648-2.706-.084-.961-1.088-.961-1.088-.961s.648-2.186-2.881-1.57c-.167-.229-.392-.404-.65-.505-.258-.1-.538-.122-.807-.064-1.049.129-13.533 4.013-13.533 4.013s5.096-3.708 5.18-5.19c.084-1.482-1.638-.907-2.81-.169-2.374 1.461-4.927 2.579-7.589 3.322-1.249.379-5.18 3.668-8.728 10.78-3.548 7.111-24.372 53.937-26.645 60.27-7.433 20.828 9.337 43.632 25.505 19.427Z"/><path stroke="#EF8A66" stroke-linecap="round" stroke-linejoin="round" stroke-width=".75" d="M171.38 286.183c-3.677 8.499-6.688 15.482-7.472 17.64M215.501 245.183c1.625-1.137 4.766-6.868 5.31-8.58 0 0 2.732-1.746 2.648-2.706-.084-.961-1.088-.961-1.088-.961s.648-2.186-2.881-1.57c-.167-.229-.392-.404-.65-.505-.258-.1-.538-.122-.807-.064-1.049.129-13.533 4.013-13.533 4.013s5.096-3.708 5.18-5.19c.084-1.482-1.638-.907-2.81-.169-2.374 1.461-4.927 2.579-7.589 3.322"/><path stroke="#EF8A66" stroke-linecap="round" stroke-linejoin="round" stroke-width=".75" d="m204.5 234.803-1.942 1.394s1.593 3.702-2.325 6.767M207.894 236.948l11.596-5.582M212.315 241.042c.098-.068 3.516-1.753 3.516-1.753s3.516-5.724 4.449-6.015c.932-.291 2 .183.531 3.329M209.79 238.89l10.082-5.325M222.371 232.936l-1.302.331"/><path fill="#F9F9F9" stroke="#DDD" stroke-linecap="round" stroke-linejoin="round" d="M182.867 304.947c-5.724 17.972-15.715 43.678-15.715 43.678l-66.75 15.828-46.2448-11.449v-3.526l52.8688-11.652c3.807-10.082 8.663-29.279 11.065-29.773 3.931-.812 58.891-9.758 63.041-9.873 3.924-.115 2.979 2.862 1.735 6.767Z"/><path stroke="#DDD" stroke-linecap="round" stroke-linejoin="round" d="m107.026 337.826-7.2262 19.934"/><path fill="#EDEDED" stroke="#DDD" stroke-linecap="round" stroke-linejoin="round" d="m100.505 360.575-.103 3.878-46.2448-11.45v-3.525l46.3478 11.097Z"/><path fill="#C3DCF8" d="M351.385 292.367c-.052.616-.097 1.225-.142 1.82-1.671 19.624-3.516 29.699-4.591 34.328l-2.15-.176c-3.073-.253-6.168-.49-9.285-.711-17.942-1.306-36.377-2.246-54.934-2.875-5.314-.181-10.641-.337-15.98-.467 3.885-8.445 8.728-24.009 12.73-37.894.537-1.908 1.074-3.776 1.579-5.596.432-1.515.842-2.986 1.231-4.412.052-.203.11-.406.168-.609.058-.203.136-.514.214-.771.175-.636.343-1.279.518-1.922.09-.297.168-.595.246-.893.129-.467.252-.934.375-1.394.123-.46.221-.798.324-1.184.162-.602.317-1.198.473-1.766.09-.366.194-.724.278-1.069l.648-2.348c.077-.271.136-.521.194-.751.129-.467.227-.853.311-1.137 0-.068.032-.136.045-.19.013-.054.032-.121.045-.176.002-.029.002-.058 0-.088v-.088c.059-.236.117-.453.169-.676l.233-.9c.35-1.354.537-2.078.537-2.078-1.145.479-2.388.646-3.613.488-5.607-.44-13.837-4.913-14.821-10.827-.021-.116-.037-.234-.045-.352-.031-.224-.049-.45-.052-.677 0-1.853.616-3.649 1.742-5.081 6.669-9.264 11.046-12.525 15.417-14.136.524-.183 1.036-.352 1.56-.507 4.928-1.415 20.034-2.504 20.034-2.504 1.819-2.707 5.387-11.761 7.206-20.672 2.092-10.265 9.92-11.822 14.077-6.09 1.561 2.145 2.59 5.305 2.648 9.405.046 5.103.123 11.321.169 15.05.032 2.03.051 3.295.051 3.295s7.35-2.889 19.115-3.065c2.493-.034 4.934.582 6.74 2.314 2.668 2.558 5.18 7.693 7.446 13.919 5.401 14.846 9.37 35.863 10.665 43.469 1.716 10.509-21.575 9.994-21.575 9.994Z"/><path fill="#83ADDF" d="M356.254 278.435c-5.788 1.372-11.82 1.117-17.483-.738-6.047 2.836-28.27 7.2-43.143 5.711-14.873-1.488-15.507-6.956-15.507-6.956l-.305-.074c1.781-6.462 3.885-14.386 3.885-14.386s.92.196 2.59.474c14.372 2.18 29.001 1.652 43.195-1.557 0 0 11.655 3.438 23.271.893l3.497 16.633Z"/><path fill="#83ADDF" d="M357.511 284.423s-20.131 2.978-37.555 5.86c-17.424 2.883-35.613 1.353-42.91-3.897l1.586-5.603c6.527 5.921 15.754 7.396 32.524 6.651 16.77-.744 27.377-6.002 27.377-6.002 8.689 2.416 15.235 1.354 18.466.433l.512 2.558Z"/><path fill="#D0E5F7" d="M362.328 238.924c-9.111-.724-20.118 3.817-29.274 12.349-7.925 7.376-23.226 16.728-34.764 4.737-2.338-2.398-5.063-4.345-8.049-5.752-6.895-3.275-15.378-4.249-24.119-3.275.001-1.853.616-3.649 1.742-5.081 6.669-9.264 11.046-12.526 15.417-14.136.524-.183 1.036-.352 1.56-.508 4.928-1.414 20.034-2.503 20.034-2.503 1.819-2.707 5.387-11.761 7.207-20.672 2.091-10.265 9.919-11.822 14.076-6.09 1.561 2.145 2.59 5.305 2.649 9.405.045 5.102.123 11.321.168 15.049.032 2.03.052 3.296.052 3.296s7.349-2.89 19.114-3.066c2.493-.033 4.934.582 6.74 2.315 2.668 2.571 5.18 7.707 7.447 13.932Z"/><path fill="#A7CAF0" d="M351.243 294.188c-1.671 19.623-3.516 29.698-4.591 34.327l-2.15-.176c-3.073-.253-6.168-.49-9.285-.711-17.942-1.306-36.376-2.246-54.934-2.875 6.715-7.376 18.94-10.333 26.826-6.165 8.851 4.676 23.31.284 19.503-10.935-2.26-6.651-.842-14.595 11.894-20.185l12.737 6.72Z"/><path fill="#B25E47" d="M354.881 225.005c-3.787.629-8.806 2.808-14.95 5.21-2.163.846-4.455 1.719-6.877 2.558-7.844 2.831-16.018 4.538-24.3 5.075-3.107.193-6.222.168-9.324-.074-2.38-.167-4.733-.621-7.013-1.354-4.876-1.651-7.595-4.567-9.143-8.627.525-.183 1.043-.352 1.567-.508 2.221-.636 6.527-1.204 10.568-1.644 2.557-.284 5.024-.501 6.792-.643 1.632-.142 2.674-.216 2.674-.216 1.819-2.707 5.387-11.761 7.207-20.673 2.091-10.265 9.919-11.821 14.076-6.09 1.561 2.146 2.59 5.306 2.649 9.406.045 5.102.123 11.321.168 15.049.032 2.03.052 3.296.052 3.296 1.754-.631 3.548-1.138 5.368-1.516 1.761-.393 3.923-.778 6.429-1.076 2.43-.285 4.872-.444 7.317-.474 2.426-.017 4.792.791 6.74 2.301Z"/><path fill="#914839" d="M328.975 222.461c-6.222-.386-11.525-5.657-10.211-12.37 1.47-7.504 4.267-11.07 7.395-12.085 1.56 2.145 2.59 5.305 2.648 9.406.045 5.102.123 11.32.168 15.049Z"/><path fill="#FED81D" d="M340.824 223.165c-.496 2.317-.793 4.677-.887 7.05-2.163.846-4.455 1.719-6.876 2.558.105-2.891.555-5.758 1.34-8.533 1.755-.392 3.917-.778 6.423-1.075ZM302.201 224.992c-1.342 4.149-2.271 8.433-2.772 12.782-2.379-.167-4.732-.621-7.012-1.353.669-3.684 1.671-7.293 2.991-10.78 2.558-.311 5.032-.507 6.793-.649Z"/><path fill="#C3DCF8" d="M360.722 306.577c-.686 6.943-1.942 13.845-4.124 18.67-1.347 2.97-3.05 5.142-5.213 6.049-4.344 1.834-8.08 1.353-11.059-.372-5.335-3.079-8.223-10.083-7.77-14.623 0-.217.039-.46.065-.677.052-.676.097-1.4.142-2.212 0-.264 0-.542.052-.826v-.792c0-.372.039-.764.052-1.15.013-.386 0-.609.039-.927v-.325c0-.316.013-.64.039-.974 0-.338 0-.677.045-1.035 0-.772.052-1.55.078-2.362.026-.812.045-1.441.071-2.179v-.947c.058-1.712.104-3.492.155-5.298.033-1.137.065-2.288.104-3.445l.039-1.428.058-1.955.039-1.353c0-.785.058-1.557.078-2.328.038-1.117.077-2.226.116-3.316 0-.717.058-1.428.084-2.131.052-1.32.11-2.585.169-3.81l27.389 3.986c.333 8.592.117 17.198-.648 25.76Z"/><path stroke="#83ADDF" stroke-linecap="round" stroke-linejoin="round" stroke-width=".75" d="M334.026 276.757c-.647 13.005-.848 32.48-1.508 39.531"/><path fill="#A7CAF0" d="M360.722 306.578c-.686 6.942-1.942 13.844-4.124 18.669-1.347 2.97-3.05 5.143-5.213 6.049-4.344 1.834-8.08 1.354-11.059-.372 1.538-.718 3.16-1.22 4.824-1.495 7.271-1.293 4.979-10.638 8.139-17.127 1.276-2.591 3.432-4.736 7.433-5.724Z"/><path fill="#83ADDF" d="M293.382 345.201c-1.852 1.692-3.076 8.797 1.386 14.468 4.461 5.67 8.825 2.03 8.825 2.03s6.397-5.759 1.943-14.325c-4.455-8.567-12.154-2.173-12.154-2.173Z"/><path fill="#B25E47" d="M303.082 343.835c-4.688 2.361-8.023 3.951-8.864 3.891-.842-.061-8.696.947-10.956 1.657-2.26.711-7.394 6.368-6.889 7.193.505.826 2.486.677 2.486.677s-7.77 5.961-8.528 8.12c-.757 2.159 1.587 1.651 1.587 1.651-1.211.677-2.875 4.29 1.353 2.95-1.016.677-1.632 2.673 1.243 1.949 4.177-1.062 11.008-4.012 11.008-4.012s-4.746 3.714-6.663 4.662c-1.917.947-2.033 3.126 2.091 1.888 4.125-1.239 12.135-7.078 14.893-9.149 2.758-2.07 5.42-3.83 6.041-4.243.622-.412 6.553-3.248 6.553-3.248s5.763-15.164-5.355-13.986Z"/><path stroke="#934735" stroke-linecap="round" stroke-linejoin="round" stroke-width=".75" d="M278.859 357.28c2.882-2.125 6.89-5.224 7.738-5.325M271.95 367.078c.117-.331 11.616-8.045 11.616-8.045M273.245 370.028c.058-.379 11.785-6.55 11.785-6.55"/><path stroke="#934735" stroke-linecap="round" stroke-linejoin="round" stroke-width=".75" d="M283.262 349.383c-2.26.677-7.394 6.368-6.889 7.193.505.826 2.486.677 2.486.677s-7.77 5.961-8.528 8.12c-.757 2.159 1.587 1.651 1.587 1.651-1.211.677-2.875 4.29 1.353 2.95-1.016.677-1.632 2.673 1.243 1.949 4.177-1.062 11.008-4.013 11.008-4.013s-4.746 3.715-6.663 4.663c-1.917.947-2.033 3.126 2.091 1.888 1.005-.331 1.98-.752 2.914-1.259"/><path fill="#C3DCF8" d="M356.598 325.247c-1.069 5.129-13.112 13.628-25.447 21.132-13.403 8.12-27.15 15.123-27.558 15.326 2.927-4.878 2.312-18.073-10.204-16.524 0 0 32.899-24.36 39.083-29.638.038-.035.079-.067.123-.095 7.045-5.927 15.805-7.01 20.72-3.146 3.011 2.409 4.558 6.712 3.283 12.945Z"/><path fill="#A7CAF0" d="M356.598 325.246c-1.068 5.13-13.112 13.628-25.447 21.133 1.535-7.444 3.562-12.776 9.163-15.455 1.538-.718 3.16-1.221 4.823-1.496 7.272-1.292 4.98-10.637 8.139-17.126 3.05 2.409 4.598 6.712 3.322 12.944Z"/><path stroke="#83ADDF" stroke-linecap="round" stroke-linejoin="round" stroke-width=".75" d="M321.626 324.035c4.915-3.741 9.033-6.935 10.852-8.478 2.613-2.252 5.651-3.903 8.916-4.845"/><path fill="#C3DCF8" d="M290.242 250.252c-1.088 4.146-2.402 8.224-3.937 12.213-1.823 4.768-3.876 9.436-6.151 13.987-.54 1.096-1.099 2.19-1.677 3.282-.085.169-.175.345-.272.514-.732 1.394-1.503 2.788-2.286 4.169-2.124 3.735-4.159 7.17-6.106 10.305-2.95 4.862-6.224 9.502-9.797 13.885-6.565 7.856-12.302 11.26-17.916 10.15-1.079-.217-2.128-.576-3.121-1.069-1.087-.523-2.061-1.273-2.86-2.204-.8-.931-1.408-2.023-1.789-3.209-.368-1.093-.603-2.229-.699-3.383-.421-4.568.77-10.455 3.341-17.188 1.467-3.769 3.149-7.443 5.037-11.002.544-1.029 1.108-2.03 1.684-3.1 1.865-3.329 3.969-6.766 6.281-10.258.239-.352.466-.676.693-1.049.764-1.15 1.506-2.278 2.227-3.383l2.208-3.383c.168-.257.33-.515.498-.765 2.642-4.06 5.038-7.802 7.278-11.158l.104-.163 1.295-1.901c7.466-10.962 13.261-17.444 20.578-18.27 7.938-.866 8.941 9.121 5.387 22.98Z"/><path fill="#D0E5F7" d="M290.241 250.252c-7.718-3.695-17.424-4.433-27.272-2.809l1.295-1.901c7.465-10.962 13.261-17.444 20.577-18.27 7.952-.866 8.955 9.121 5.4 22.98Z"/><path stroke="#83ADDF" stroke-linecap="round" stroke-linejoin="round" stroke-width=".75" d="M284.647 258.358c2.072-8.505 2.448-11.699 2.448-11.699"/><path fill="#83ADDF" d="M286.305 262.466c-1.823 4.767-3.876 9.436-6.152 13.986 0 0-15.973-2.091-24.559-17.688 2.642-4.06 5.037-7.802 7.278-11.158 2.538 4.256 8.922 11.727 23.433 14.86Z"/><path stroke="#83ADDF" stroke-linecap="round" stroke-linejoin="round" stroke-width=".75" d="M279.843 276.378c1.78-6.463 3.237-11.889 4.034-15.043l.233-.9c.349-1.353.537-2.077.537-2.077"/><path fill="#83ADDF" d="m278.47 279.734-.272.501-2.285 4.168s-19.205-3.965-25.253-18.108c.764-1.15 1.507-2.278 2.228-3.383 8.734 14.474 25.582 16.822 25.582 16.822Z"/><path fill="#C3DCF8" d="M265.824 284.979s-.99 8.384-5.05 21.423c-.233.758-.486 1.489-.764 2.213-3.238 8.586-9.013 14.988-14.724 17.173-1.998.829-4.184 1.024-6.288.562-7.718-1.854-11.182-8.472-9.097-19.948.933-5.143 3.497-10.096 7.058-14.677 2.034-2.588 4.264-5 6.669-7.213 3.055-2.818 6.301-5.401 9.713-7.728l12.483 8.195Z"/><path fill="#A7CAF0" d="M245.286 325.788c-1.998.828-4.184 1.024-6.288.562-7.718-1.855-11.182-8.472-9.097-19.949.933-5.142 3.497-10.095 7.058-14.677 2.034-2.587 4.264-5 6.669-7.213.634 2.061.735 4.26.293 6.374-.443 2.114-1.413 4.068-2.812 5.664-3.464 4.06-7.057 8.601-7.491 12.363-.174 1.179.075 2.384.699 3.383.622.926 1.463 1.667 2.441 2.152 2.016 1.092 3.822 2.563 5.329 4.337 1.839 2.179 3.024 4.663 3.199 7.004Z"/><path stroke="#83ADDF" stroke-linecap="round" stroke-linejoin="round" stroke-width=".75" d="M260.773 306.408c.959-3.085 1.749-5.9 2.39-8.417M246.749 281.771c-8.372 6.97-15.197 15.489-16.835 24.637"/><path fill="#83ADDF" d="M250.822 283.659c-1.942 3.525-4.707 9.473-2.376 13.337 2.331 3.864 7.394 4.736 11.26 1.001 3.865-3.735 5.827-7.443 6.119-11.449l-15.003-2.889Z"/><path fill="#B25E47" d="M256.688 275.857c-.835-1.062 1.295-2.49 2.842-1.489 1.553 1.045 3.238 1.858 5.006 2.416 1.295.298 2.11 3.762 1.515 4.398 0 0-8.347-4.066-9.363-5.325Z"/><path stroke="#934735" stroke-linecap="round" stroke-linejoin="round" stroke-width=".75" d="M264.536 276.757c1.295.298 2.111 3.762 1.515 4.398"/><path fill="#683F1D" d="M239.063 267.96c-1.748-1.143.071-4.459 1.826-3.694 1.755.764 27.94 18.581 27.94 18.581l1.942 3.383-3.885-.541s-26.366-16.748-27.823-17.729Z"/><path fill="#B25E47" d="M250.738 278.645c-.415-2.599 2.849-3.289 4.461-2.078 1.612 1.211 7.304 3.972 9.162 4.615 1.859.643 3.024 3.065 1.865 3.911 0 0 1.159 1.726-.201 2.517-.601.398-1.256.699-1.942.894 0 0 .557 1.86-3.671 3.802 0 0-.648 2.707-2.921 3.384-2.272.676-6.475.155-7.452-.677-.978-.832-1.464-3.383-.505-4.317 0 0-2.429-1.191-1.995-3.059.583-2.517 2.241-1.786 1.742-2.781-.499-.994-1.295-2.869-.052-3.647 1.243-.778 1.735-1.17 1.509-2.564Z"/><path stroke="#934735" stroke-linecap="round" stroke-linejoin="round" stroke-width=".75" d="M264.361 281.182c1.865.643 3.024 3.065 1.865 3.911 0 0 1.159 1.726-.201 2.517-.601.398-1.256.699-1.942.894 0 0 .557 1.86-3.672 3.803 0 0-.647 2.706-2.92 3.383"/><path stroke="#934735" stroke-linecap="round" stroke-linejoin="round" stroke-width=".75" d="M251.456 286.183c3.214 1.255 6.555 2.118 9.959 2.571.903-.004 1.804-.087 2.693-.25M266.226 285.094s-4.727.142-5.731 0c-.887-.129-7.653-2.924-7.653-2.924M252.713 291.725s4.992 1.048 7.725.582"/><path fill="#FFEACC" d="M313.189 184.317c-1.519 2.836-3.708 5.217-6.359 6.916-4.5 2.936-8.301.731-9.919-1.516-.596-.839-.583-3.119-.124-5.691.784-4.351 2.843-9.561 5.375-10.15 1.466-.366 2.993-.384 4.467-.054 1.474.33 2.859 1.001 4.054 1.962.41.331.778.715 1.094 1.144 1.703 2.274 1.755 2.389 1.412 7.389Z"/><path fill="#EDD6B7" d="M313.189 184.317c-1.519 2.836-3.708 5.217-6.359 6.916-4.5 2.936-8.301.73-9.919-1.516-.596-.839-.583-3.119-.124-5.691 2.196 4.06 6.061 5.677 7.583 4.378 2.162-1.861-1.127-10.921 6.313-12.647.41.331.778.715 1.094 1.144 1.703 2.301 1.755 2.416 1.412 7.416Z"/><path stroke="#C6AB8B" stroke-linecap="round" stroke-linejoin="round" stroke-width=".75" d="M307.562 185.407c1.243-.338 1.522-3.275.324-3.465-1.198-.189-2.13 1.875-1.839 3.465.181 1.008.913 1.705 3.173 1.137M306.267 188.58c-5.07-.122-6.954-1.123-7.336-3.491-.382-2.369-.609-6.361-.609-6.361"/><path stroke="#C6AB8B" stroke-linecap="round" stroke-linejoin="round" stroke-width=".75" d="M303.606 188.398c-1.324-1.17-2.236-2.768-2.59-4.541-.415-2.706 1.651-6.32 3.05-6.489 2.415-.284 7.77 1.881 7.342 6.259"/><path fill="#B25E47" d="M332.426 213.59c-4.843 2.382-13.649 0-18.68-5.711-6.294-7.153-.894-23.007 6.293-25.254 7.188-2.246 10.911 5.705 13.015 12.086l.039.135c.545 1.677.999 3.385 1.36 5.116 1.133 5.399 1.508 11.889-2.027 13.628Z"/><path fill="#A0503D" d="M313.538 197.248c-.382 1.394 1.554 3.201 4.332 4.06 2.778.859 5.329.366 5.711-1.035.382-1.401-1.554-3.208-4.325-4.06-2.772-.853-5.336-.366-5.718 1.035ZM334.453 199.962c-1.392.616-2.629.636-3.205-.075-.823-1.028 0-3.187 1.845-5.041.545 1.677.999 3.385 1.36 5.116Z"/><path fill="#683F1D" d="M328.372 193.323c-.001.196.053.388.157.552.103.163.251.291.424.367.173.075.363.095.547.057.184-.037.353-.132.486-.27.132-.139.223-.315.259-.508.036-.192.017-.391-.055-.572-.073-.181-.195-.335-.351-.443-.157-.108-.341-.165-.528-.164-.249.002-.486.106-.662.29-.176.183-.275.432-.277.691ZM323.102 194.717c0 .196.055.387.159.55.105.163.253.289.426.364.173.074.363.094.547.055.183-.039.352-.134.484-.272.132-.139.221-.316.257-.508.036-.192.016-.391-.057-.571-.072-.181-.194-.335-.351-.442-.156-.108-.339-.165-.527-.163-.123 0-.246.025-.36.075-.115.05-.218.122-.306.214-.087.092-.156.201-.203.321-.047.12-.07.248-.069.377Z"/><path fill="#914839" d="M320.732 198.94c0 .092.027.183.076.259.049.077.119.137.2.172.082.036.172.045.258.027.087-.018.167-.063.229-.128.063-.065.105-.148.122-.239.018-.09.009-.184-.025-.27-.034-.085-.091-.158-.165-.209-.073-.051-.159-.079-.248-.079-.118 0-.232.049-.316.137-.084.087-.131.206-.131.33ZM322.662 197.519c.246 0 .446-.209.446-.467s-.2-.467-.446-.467c-.247 0-.447.209-.447.467s.2.467.447.467ZM323.108 199.211c.247 0 .447-.209.447-.467s-.2-.467-.447-.467-.447.209-.447.467.2.467.447.467ZM324.307 197.519c0 .092.026.183.075.26.049.076.119.136.2.172.082.035.172.044.259.026.086-.018.166-.062.228-.128.063-.065.105-.148.123-.239.017-.09.008-.184-.026-.27-.034-.085-.091-.158-.164-.209-.074-.051-.16-.079-.249-.079-.118 0-.232.049-.315.137-.084.088-.131.206-.131.33ZM331.623 195.773c0 .092.026.183.075.259.049.077.119.137.201.172.081.036.171.045.258.027s.166-.063.229-.128c.062-.065.105-.148.122-.239.017-.09.008-.184-.025-.27-.034-.085-.091-.158-.165-.209-.073-.051-.16-.079-.248-.079-.119 0-.232.049-.316.137-.084.087-.131.206-.131.33ZM330.464 195.543c.247 0 .447-.209.447-.467s-.2-.467-.447-.467c-.246 0-.446.209-.446.467s.2.467.446.467Z"/><path fill="#FFEACC" d="M337.308 194.447c-.544.677-1.204 1.015-1.495.677-.57-.637 1.068-1.638 0-2.788-1.069-1.151-3.782-.467-3.782-.467-3.943-10.773-9.92-10.434-13.468-8.58-3.548 1.854-3.885 5.095-3.937 7.037-.051 1.942-.064 2.605 2.59 4.161 2.655 1.557.182 3.993-.246 5.921-.427 1.929 1.528 1.354 2.59 3.275 1.062 1.922-1.068 2.863-.977 2.03.09-.832-.648-1.901-1.405-1.718-.758.182-2.28-.406-2.351-1.354-.071-.947-.647-3.16-1.606-3.485-3.347-1.15-5.089 2.227-4.629 4.866.15.786.471 1.525.938 2.161.467.636 1.067 1.151 1.755 1.506 0 0-1.942 1.002-5.212-3.18-.702-.904-1.196-1.964-1.444-3.099-.952-4.155.991-9.237 2.843-12.268 2.35-3.871 3.276-4.06 3.276-4.06 1.092-2.614 2.729-4.94 4.791-6.807 3.542-3.309 6.676-.521 6.676-.521 3.412-2.491 7.479-1.489 8.644.825 1.166 2.314.719 5.948.9 7.139.182 1.191 1.069 3.201 3.238 3.201s2.998.859 3.134 2.936c.05.942-.244 1.868-.823 2.592Z"/><path fill="#EDD6B7" d="M337.308 194.447c-.544.676-1.204 1.015-1.495.676-.57-.636 1.068-1.637 0-2.787-1.069-1.151-3.782-.467-3.782-.467-3.943-10.773-9.92-10.434-13.468-8.58-3.548 1.854-3.885 5.095-3.937 7.037-.051 1.942-.064 2.605 2.59 4.161 2.655 1.557.182 3.993-.246 5.921-.427 1.929 1.528 1.354 2.59 3.275 1.062 1.922-1.068 2.863-.977 2.03.09-.832-.648-1.901-1.406-1.718-.757.182-2.279-.406-2.35-1.354-.071-.947-.511-2.794-1.619-3.268-3.412-1.468-4.914 2.03-4.455 4.649.171.8.522 1.546 1.024 2.176.503.63 1.142 1.125 1.864 1.444 0 0-1.696 1.894-5.568-3.133-.698-.907-1.192-1.966-1.444-3.099 3.341-3.187 3.173-6.402 5.407-7.099 2.732-.852 2.376-6.529 5.523-12.078 3.147-5.549 8.463-1.617 9.777-.305 0 0 3.801-2.03 4.934 3.154 1.133 5.183 3.684 5.975 5.407 5.799 1.023-.108 1.871 1.746 1.631 3.566Z"/><path stroke="#C6AB8B" stroke-linecap="round" stroke-linejoin="round" stroke-width=".75" d="M313.188 195.665c1.25.203 1.872 2.145 1.192 5.082M314.937 186.8c1.793-5.339 2.628-5.745 3.166-6.09.978-.615 3.166.061 3.166.061M322.215 177.753c1.098.983 2.134 2.039 3.101 3.16M308.636 201.647c-1.793-2.761-3.587-8.858-.356-13.804M310.424 199.319c-1.295-2.795-2.305-8.167.324-14.21"/><path stroke="#934735" stroke-linecap="round" stroke-linejoin="round" stroke-width=".75" d="M326.877 190.881c-.809 3.153.382 4.432 1.8 4.818 1.418.385 2.551 1.143 2.389 2.456"/><path fill="#FFEACC" d="M318.803 192.173c.647.677 4.532-1.976 3.535-3.539-.997-1.563-4.481 2.592-3.535 3.539ZM325.88 187.68c0 1.591 3.885.731 3.814.21-.117-.94-3.821-1.664-3.814-.21Z"/><path stroke="#934735" stroke-linecap="round" stroke-linejoin="round" stroke-width=".75" d="M325.77 200.53c.583.59 1.312.997 2.105 1.177.792.179 1.618.123 2.382-.162"/><path fill="#B25E47" d="M315.539 203.676v3.925c-1.258.441-2.616.46-3.885.054h-.065c-.882-.319-1.651-.912-2.204-1.698-.553-.787-.864-1.731-.891-2.707-.043-.634.056-1.269.289-1.857.232-.587.592-1.109 1.051-1.526.306-.273.654-.488 1.03-.636.778-.214 1.603-.135 2.331.223 1.101.474 1.541 2.287 1.619 3.268.041.208.128.402.254.568.126.165.287.298.471.386Z"/><path stroke="#934735" stroke-linecap="round" stroke-linejoin="round" stroke-width=".75" d="M310.016 202.79c.382-1.022 2.92-2.158 4.118.629"/><path stroke="#934735" stroke-linecap="round" stroke-linejoin="round" stroke-width=".75" d="M313.94 203c-2.778-1.685-3.924 2.632-.324 2.368M315.539 207.588c-1.425.517-2.983.469-4.377-.135"/><path fill="#D39933" d="M452.791 224.883c-.473 3.147-2.545 5.921-5.31 7.877-5.29 3.769-13.144 4.581-17.243-.501-5.121-6.34-17.987-36.168-22.474-46.737-.978-2.321-1.561-3.722-1.561-3.722.376-13.973 10.289-20.023 20.222-19.542 9.932.48 16.705 7.863 17.23 18.987.524 11.125-3.762 27.493-.81 30.883 2.953 3.39 11.331 3.566 9.946 12.755Z"/><path fill="#C4892A" d="M449.217 228.111c-.326 1.64-.912 3.212-1.736 4.649-5.29 3.769-13.144 4.581-17.243-.501-5.121-6.34-17.987-36.168-22.474-46.737 3.121-15.191 10.774-19.914 19.315-18.439 8.657 1.502 12.367 13.702 9.615 19.034-2.752 5.332-9.764 15.834-6.19 22.452 3.574 6.618 2.952 7.87 7.122 8.912 4.17 1.042 12.873 3.207 11.591 10.63Z"/><path stroke="#EDB65F" stroke-linecap="round" stroke-linejoin="round" stroke-width=".75" d="M409.486 179.391c1.69-9.643 10.36-11.402 14.168-10.461M415.838 178.16c4.843-4.27 11.869-2.829 11.823.839-.045 3.667-.311 6.408 1.71 7.896 2.02 1.489 5.031 4.649 3.321 9.095M436.882 200.855c-1.295 7.964-2.098 11.869 1.34 12.965 3.439 1.096 4.585 2.294 3.84 4.013-.745 1.718-1.696 2.442.55 3.329 2.247.886 2.442 3.857 2.442 3.857"/><path fill="#A7CAF0" d="M413.267 274.977c-3.982 20.686-10.871 42.244-17.78 52.448-1.988 2.93-3.963 4.927-5.879 5.698-16.706 6.767-23.517-1.394-21.607-25.998 1.1-14.21 8.346-40.248 18.13-59.174 7.012-13.533 15.32-23.413 23.627-22.668 8.884.812 8.333 24.617 3.509 49.694Z"/><path fill="#C3DCF8" d="M413.268 274.977c-1.938-.69-3.71-1.812-5.191-3.289-1.482-1.477-2.638-3.273-3.389-5.264-.961-2.612-2.189-5.108-3.665-7.443-3.593-5.63-8.592-9.859-14.892-11.064 7.012-13.533 15.32-23.412 23.627-22.668 8.884.846 8.333 24.651 3.51 49.728Z"/><path fill="#93BEE5" d="M401.036 260.909c-8.062.975-9.791 3.573-8.832 9.44.958 5.866-10.645-.494-13.773 6.435-3.127 6.929 12.238 32.805 12.517 32.953l4.694 2.504 8.897-10.827 5.918-15.184.097-13.892-9.518-11.429Z"/><path fill="#A7CAF0" d="M472.202 265.645c-.129 3.032-1.159 13.493-2.454 25.998-2.234 21.471-5.27 48.957-5.963 55.243l-2.376-.643c-9.642-2.598-20.073-4.926-31.184-7.024-11.111-2.097-22.811-3.945-35.049-5.569.097-1.82.2-3.931.311-6.225.556-11.869 1.204-28.65.686-35.491-.835-10.996-1.334-18.852 2.169-25.835 1.108-2.268 2.01-4.64 2.694-7.085 1.806-6.205 2.771-13.283 2.654-17.925-.142-5.474-3.146-13.905 6.087-15.807 2.398-.42 4.838-.509 7.258-.264 17.833 1.354 21.478 0 21.478 0 11.512-2.145 21.063.501 23.731 1.475l.246.095c3.885 1.502 7.537 7.119 9.065 19.001.778 6.653.994 13.364.647 20.056Z"/><path fill="#93BEE5" d="M448.342 275.992c-12.749-6.252-21.555 8.12-20.895 19.501.848 14.474-15.326-3.214-22.19 12.499-5.452 12.484 21.556 23.683 35.762 11.503s24.533-35.072 7.323-43.503Z"/><path fill="#C3DCF8" d="M471.581 245.589c-8.703-1.468-19.684 2.856-26.341 9.135-2.784 2.639-4.811 5.623-5.594 8.668-2.655 10.38-16.622 15.347-26.379 11.585-1.938-.69-3.71-1.813-5.191-3.29-1.482-1.477-2.638-3.273-3.389-5.263-.96-2.612-2.189-5.108-3.665-7.444 1.807-6.205 2.772-13.283 2.655-17.925-.142-5.474-3.147-13.905 6.087-15.806 2.398-.421 4.838-.509 7.258-.264 17.832 1.353 21.478 0 21.478 0 11.512-2.145 21.063.5 23.731 1.475l.246.094c3.898 1.537 7.556 7.153 9.104 19.035Z"/><path stroke="#83ADDF" stroke-linecap="round" stroke-linejoin="round" stroke-width=".75" d="M395.176 333.65c.097-1.82.2-3.931.311-6.225.556-11.869 1.204-28.65.686-35.491-.835-10.996-1.334-18.852 2.169-25.835 1.108-2.268 2.01-4.64 2.694-7.085 1.211-4.219 2.032-8.549 2.454-12.931"/><path fill="#FEBD9D" d="M435.347 225.019c.278 2.138-12.406 17.383-17.709 15.982-5.303-1.4-2.59-15.786-2.59-15.786s-.324-.975-.823-2.409c-1.224-3.559-3.464-10.001-4.28-11.761-.936-1.989-1.684-4.07-2.234-6.211-4.04-16.085 8.923-22.29 15.929-5.989 7.084 16.436 11.422 24.029 11.707 26.174Z"/><path fill="#F4A789" d="M414.238 222.806c-1.223-3.559-3.464-10.001-4.28-11.76-.936-1.99-1.684-4.071-2.233-6.212 4.616-3.14 11.078-.325 13.597 5.19 2.435 5.359-.77 11.665-7.084 12.782Z"/><path fill="#683F1D" d="M414.601 223.848c1.14 2.429.958 2.903.958 4.229s.292 8.025-.285 10.604c0 0-2.829-3.154-4.357-2.633-1.528.521-3.963 2.633-3.963 2.633l4.345-11.504c.913-2.476 2.162-3.376 3.302-3.329ZM438.519 225.018c.052-1.353-3.561-3.89-4.098-2.625-2.953 6.983-10.613 15.969-13.268 17.898 1.153.296 2.248.798 3.238 1.482 1.483 1.116 4.228 6.164 4.228 6.164s9.363-9.257 9.9-22.919Z"/><path fill="#fff" d="M414.595 247.051c0 .439.124.868.358 1.233.233.365.565.65.953.818.388.168.815.211 1.227.126.412-.086.79-.297 1.087-.608.297-.31.5-.705.582-1.136.081-.431.039-.877-.121-1.282-.161-.406-.433-.753-.783-.996-.349-.244-.759-.374-1.179-.374-.564 0-1.104.233-1.502.65-.399.416-.622.98-.622 1.569ZM413.507 255.232c-.001.44.122.871.356 1.238.233.367.565.654.954.823.39.17.818.215 1.232.13.413-.085.794-.297 1.092-.608.299-.311.502-.708.585-1.14.083-.432.041-.88-.12-1.287-.161-.407-.434-.755-.785-1-.35-.245-.762-.376-1.184-.376-.279-.001-.556.056-.815.167-.258.111-.493.275-.691.481-.198.206-.355.451-.462.721-.107.269-.162.559-.162.851Z"/><path fill="#93BEE5" d="M461.408 346.244c-9.641-2.599-20.072-4.927-31.183-7.024.255-.804.629-1.562 1.107-2.247 6.326-9.541 11.085-20.104 25.997-15.482 6.061 1.881 2.965 12.518 0 16.24-3.089 3.83 5.407 3.932 4.079 8.513Z"/><path fill="#A7CAF0" d="M376.923 335.065c-13.597-2.26-17.56-23.548-19.645-34.449-1.547-8.12-4.662-28.765-6.151-38.82-.518-3.465-.842-5.671-.842-5.671s6.877 1.279 13.87-5.515c.427 1.117 1.12 2.666 2 4.554 6.378 13.737 22.993 45.249 26.049 55.967 3.471 12.194-1.852 26.174-15.281 23.934Z"/><path stroke="#83ADDF" stroke-linecap="round" stroke-linejoin="round" stroke-width=".75" d="M357.278 300.616c-.719-3.782-1.78-10.292-2.862-17.18-1.237-7.89-2.493-16.274-3.289-21.654-.518-3.464-.842-5.67-.842-5.67"/><path fill="#FEBD9D" d="M364.154 250.61c-1.612-3.383-5.607-9.818-9.401-12.789-2.034-1.583-4.533-1.569-5.394-.933 0 0-6.928-1.076-12.193.264-5.264 1.339-6.099 4.364-3.917 4.628 2.182.264 5.905-1.069 8.605-1.137 0 0-2.726.677-2.667 3.302-.648-.399-2.169.643-1.846 2.788 0 0-1.088-1.191-1.521 1.015-.434 2.206 1.405 5.454 3.516 5.576 2.11.122 1.877-1.468 1.877-1.468s1.723 3.302 9.065 4.269c0 0 1.295 2.348 1.295 2.226 0-.121 12.801 1.246 12.581-7.741Z"/><path stroke="#EF8A66" stroke-linecap="round" stroke-linejoin="round" stroke-width=".75" d="M354.753 237.821c-2.034-1.583-4.533-1.569-5.394-.933 0 0-6.928-1.076-12.193.264-5.264 1.339-6.099 4.364-3.917 4.628 2.182.264 5.905-1.069 8.605-1.137 0 0-2.726.677-2.667 3.302-.648-.399-2.169.643-1.846 2.788 0 0-1.088-1.191-1.521 1.015-.434 2.206 1.405 5.454 3.516 5.576 2.11.122 1.877-1.468 1.877-1.468"/><path stroke="#EF8A66" stroke-linecap="round" stroke-linejoin="round" stroke-width=".75" d="M341.88 240.643c1.291-.146 2.594-.146 3.885 0M337.348 246.733c.919 2.484 2.136 4.182 3.885 5.123 1.748.94 4.04-1.8 3.924-2.565.88-.636 1.45-2.071-.318-3.194"/><path stroke="#EF8A66" stroke-linecap="round" stroke-linejoin="round" stroke-width=".75" d="M339.187 243.945c.485 2.66 2.143 6.002 5.95 5.346M355.595 249.69c-4.339-2.03-5.096-4.811-5.31-6.915 0 0-6.086 4.642-7.491 3.457-1.749-1.481 5.18-8.498 6.565-9.344"/><path fill="#683F1D" d="M366.155 255.164c-3.826 3.702-8.521 6.841-15.028 6.632-.518-3.465-.842-5.671-.842-5.671s6.877 1.279 13.87-5.515c.427 1.11 1.12 2.666 2 4.554Z"/><path fill="#fff" d="M362.328 254.251c0 .248.071.49.202.696.132.206.32.366.539.461.219.095.461.119.693.07.233-.049.446-.169.613-.344.168-.176.281-.4.327-.643.045-.243.02-.495-.071-.724-.092-.229-.246-.424-.444-.56-.198-.137-.43-.209-.667-.208-.157 0-.313.032-.458.095-.145.063-.277.156-.387.272-.111.116-.199.254-.258.406-.06.152-.09.315-.089.479Z"/><path fill="#A7CAF0" d="M469.749 291.643c-3.542 12.81-7.641 25.362-9.868 32.216-5.491 16.958-25.803 27.067-28.134 11.544-2.772-18.459 9.065-51.765 13.306-79.264.071-.44.129-.914.188-1.415 1.152-9.71 1.016-29.672 13.248-28.947 1.277.073 2.541.314 3.761.717l.247.094c7.031 2.531 10.839 10.536 12.593 19.969.602 3.32.979 6.68 1.127 10.055.376 7.735-2.732 21.532-6.468 35.031Z"/><path fill="#C3DCF8" d="M475.09 246.557c-1.136-.446-2.311-.77-3.509-.968-8.703-1.468-19.684 2.856-26.341 9.135 1.153-9.71 1.017-29.672 13.248-28.947 1.278.073 2.542.314 3.762.717l.246.094c7.032 2.531 10.826 10.536 12.594 19.969Z"/><path stroke="#83ADDF" stroke-linecap="round" stroke-linejoin="round" stroke-width=".75" d="M432.938 313.297c2.59-15.239 7.706-33.265 10.866-49.904M466.978 301.292c-2.739 9.183-5.439 17.458-7.123 22.567-1.663 5.021-4.496 9.53-8.243 13.121M443.797 263.392c1.295-5.332 4.183-8.796 5.97-9.074"/><path fill="#F9F9F9" stroke="#EDEDED" stroke-linecap="round" stroke-linejoin="round" d="M323.375 257.972c3.011-2.199 8.417-1.306 14.892 6.09 3.996 4.65 7.241 9.948 9.609 15.686 4.606-3.48 9.929-5.779 15.54-6.713 9.156-1.428 20.52 2.849 20.52 2.849l1.767 5.176-37.561 5.17-24.767-28.258Z"/><path fill="#F9F9F9" stroke="#DDD" stroke-linecap="round" stroke-linejoin="round" d="m350.285 281.554 37.678-3.146 14.938 42.718-36.079 3.045-16.537-42.617ZM321.724 255.232l24.249 25.855 16.452 40.479-23.484-23.21-17.217-43.124Z"/><path fill="#F9F9F9" stroke="#DDD" stroke-linecap="round" stroke-linejoin="round" d="m345.973 281.087 4.312.467 16.537 42.617-4.396-2.605-16.453-40.479Z"/><path stroke="#EDEDED" stroke-linecap="round" stroke-linejoin="round" d="M338.507 268.265c3.542 3.742 7.122 10.197 7.122 10.197M350.298 279.734c3.128-1.885 6.515-3.255 10.043-4.06M350.738 280.478c3.238-1.482 9.829-2.781 9.829-2.781"/><path fill="#F9F9F9" stroke="#DDD" stroke-linecap="round" stroke-linejoin="round" d="M343.9 279.849c.965-1.989 6.417-3.383 7.485 2.707-1.22.718-2.631 1.003-4.02.812-1.16-.23-3.465-3.519-3.465-3.519Z"/><path fill="#FEBD9D" d="M386.228 302.26c-3.489-2.027-6.689-4.555-9.506-7.511-2.655-2.706-9.563-6.299-10.211-5.88-.647.42-1.152 2.274 2.493 5.63 1.116.935 2.053 2.083 2.758 3.383-1.302.496-2.704.636-4.072.406-2.331-.372-12.167-1.049-13.352-1.177-1.185-.129-1.424 1.549.35 2.294-2.849-.447-3.633 1.319-1.062 2.957 0 0-2.227.622.375 2.646 2.211 1.594 4.536 3.007 6.955 4.229 0 0-5.297-1.604-5.983-1.502-.687.101-1.069 1.245.751 2.26 1.819 1.015 14.549 6.157 16.751 6.834 2.7.819 8.139 1.793 8.139 1.793s6.552-9.879 5.614-16.362Z"/><path fill="#A7CAF0" d="M439.115 343.07c-12.348.88-43.298-14.433-55.393-20.462-2.474-1.225-4.157-2.03-4.734-2.301 0 0 .246-15.381 8.101-18.459 1.02.592 2.107 1.047 3.237 1.353 1.466.446 2.968.751 4.487.913 5.18.603 21.329 3.106 30.122 3.851 8.793.744 19.91 7.03 23.886 14.501 2.726 5.122 2.487 19.752-9.706 20.604Z"/><path stroke="#83ADDF" stroke-linecap="round" stroke-linejoin="round" stroke-width=".75" d="M439.115 343.07c-12.348.88-43.298-14.433-55.393-20.462-2.474-1.225-4.157-2.03-4.734-2.301M387.089 301.861c1.02.592 2.108 1.047 3.237 1.353 1.467.446 2.968.752 4.488.914 5.18.602 21.328 3.106 30.121 3.85 5.828.494 12.62 3.383 17.729 7.443"/><path stroke="#EF8A66" stroke-linecap="round" stroke-linejoin="round" stroke-width=".75" d="M373.025 291.928c-2.881-1.834-6.086-3.336-6.514-3.059-.647.42-1.152 2.274 2.493 5.63 1.116.935 2.053 2.083 2.758 3.383-1.302.496-2.704.636-4.072.406-2.331-.372-12.167-1.049-13.352-1.177-1.185-.129-1.424 1.549.35 2.294-2.849-.447-3.633 1.319-1.062 2.957 0 0-2.227.622.375 2.646 2.211 1.594 4.536 3.007 6.955 4.229 0 0-5.297-1.604-5.983-1.502-.687.101-1.069 1.245.751 2.26.537.297 2.052.967 3.969 1.779"/><path fill="#683F1D" d="M390.352 303.248c-3.788 2.991-6.43 11.733-6.63 19.373-2.474-1.225-4.157-2.03-4.734-2.301 0 0 .246-15.38 8.101-18.459 1.026.606 2.123 1.072 3.263 1.387Z"/><path fill="#fff" d="M380.322 317.722c-.001.28.077.554.225.787.148.234.359.416.606.524.247.108.52.137.783.084.263-.054.504-.188.694-.386.19-.197.32-.449.372-.724.053-.274.027-.559-.076-.818-.102-.259-.275-.48-.498-.636-.223-.155-.484-.239-.752-.239-.358 0-.701.149-.955.412-.254.264-.397.622-.399.996Z"/><path stroke="#EF8A66" stroke-linecap="round" stroke-linejoin="round" stroke-width=".75" d="M360.956 309.237c1.677.541 2.933 1.062 2.933 1.062M353.626 302.334l11.195 4.074M354.688 299.377l10.502 2.957"/><path fill="#FEBD9D" d="M424.352 202.323c-2.771 7.065-9.887 19.251-18.415 13.283-1.78-1.269-3.317-2.876-4.532-4.737-1.593-2.424-2.756-5.129-3.432-7.984-.989-4.028-1.132-8.231-.421-12.322.248-1.409.627-2.79 1.133-4.121 3.503-9.007 14.841-8.289 19.017-3.918.117.122.246.257.376.406 2.1 2.615 3.75 5.592 4.876 8.797.168.451.323.902.466 1.353 1.224 3.607 1.729 7.213.932 9.243Z"/><path fill="#683F1D" d="M400.064 200.57c0 .196.056.387.16.55.104.163.252.289.426.364.173.074.363.094.547.055.183-.039.352-.134.484-.272.132-.139.221-.316.257-.508.036-.192.016-.391-.057-.571-.072-.181-.194-.335-.351-.442-.156-.108-.339-.165-.527-.163-.123 0-.246.025-.36.075-.115.05-.219.122-.306.214s-.156.201-.203.321c-.047.12-.07.248-.07.377ZM405.258 198.845c0 .195.055.386.159.549.104.162.252.289.424.364.173.074.363.094.547.056.183-.038.351-.132.484-.271.132-.138.222-.314.258-.505.037-.192.018-.391-.053-.571-.072-.181-.193-.335-.349-.444-.155-.108-.338-.166-.525-.166-.124-.001-.248.024-.363.073-.115.05-.219.122-.307.214s-.158.201-.205.322c-.047.12-.071.249-.07.379Z"/><path fill="#FEBD9D" d="M422.307 201.951c3.963 1.103 8.527-4.06 6.222-8.337-2.305-4.276-6.824-1.569-7.375 1.469l1.153 6.868Z"/><path stroke="#EF8A66" stroke-linecap="round" stroke-linejoin="round" stroke-width=".75" d="M422.307 201.951c.71.186 1.452.186 2.162 0M422.954 197.539c.363-3.471 3.361-3.64 4.131-2.077"/><path stroke="#EF8A66" stroke-linecap="round" stroke-linejoin="round" stroke-width=".75" d="M423.051 196.91c2.551-2.896 5.756 1.949.718 2.375"/><path fill="#D39933" d="M423.42 193.033c-.018.125-.044.249-.077.372-.577 2.131-2.726 1.069-3.6-.954-1.011-2.396-6.922-11.017-12.251-5.109-3.95 4.371-7.2 4.96-9.939 3.221.232-1.335.588-2.642 1.062-3.905.019-.073.043-.145.071-.216 3.503-9.007 14.841-8.289 19.017-3.918.116.122.246.257.375.406 2.101 2.615 3.75 5.592 4.876 8.797.169.424.324.859.466 1.306Z"/><path fill="#C4892A" d="M423.343 193.405c-.577 2.131-2.726 1.069-3.6-.955-1.011-2.395-6.922-11.016-12.251-5.108-3.95 4.371-7.2 4.96-9.939 3.22.232-1.334.588-2.641 1.062-3.904 3.36 1.462 6.475-.616 8.527-2.375 2.59-2.172 5.737-1.996 8.981.372 2.862 2.105 5.29 9.115 7.22 8.75Z"/><path stroke="#EDB65F" stroke-linecap="round" stroke-linejoin="round" stroke-width=".75" d="M400.939 191.408c-.525-6.09 1.903-10.014 3.885-11.192M402.493 191.104c.246-2.477 4.494-11.503 9.298-11.503M407.926 186.922c1.508-3.83 3.367-6.279 5.581-6.895M416.913 181.807c.356 3.133.071 5.203-.803 5.711M418.739 183.742c.99 4.026.161 5.839-.415 6.306"/><path stroke="#EF8A66" stroke-linecap="round" stroke-linejoin="round" stroke-width=".75" d="M401.45 197.16c1.768.744 2.59 2.03 2.15 3.208-.544 1.461-1.438 4.06.272 5.196"/><path fill="#D39933" d="M403.62 193.743c.181 1.482 5.238 0 5.432-.873.259-1.184-5.75-1.739-5.432.873ZM400.803 195.076c.648 1.211-3.885 2.93-4.532 2.362-.751-.745 3.47-4.5 4.532-2.362Z"/><path fill="#fff" stroke="#EF8A66" stroke-linecap="round" stroke-linejoin="round" stroke-width=".75" d="M406.579 207.351c.828-.346 1.58-.864 2.211-1.522.631-.658 1.128-1.444 1.46-2.308 0 0 1.684 3.072-.304 4.662-1.522 1.211-3.367-.832-3.367-.832Z"/><path fill="#F4AF90" d="M414.821 203.602c2.418 0 4.378-2.048 4.378-4.574s-1.96-4.574-4.378-4.574c-2.417 0-4.377 2.048-4.377 4.574s1.96 4.574 4.377 4.574ZM402.927 207.412c.003.657-.132 1.307-.394 1.905-.263.597-.648 1.127-1.128 1.552-1.593-2.424-2.755-5.129-3.431-7.984.19-.03.383-.046.576-.048 1.161 0 2.274.482 3.095 1.34.821.858 1.282 2.021 1.282 3.235Z"/></svg>