<svg xmlns="http://www.w3.org/2000/svg" width="530" height="408" fill="none"><path stroke="#EDEDED" stroke-linecap="round" stroke-linejoin="round" stroke-width="2" d="M399.031 62.2949H147.639V270.824h251.392V62.2949Z"/><path fill="#EDEDED" d="M252.936 229.725H230.04v30.783h22.896v-30.783Z"/><path stroke="#DDD" stroke-linecap="round" stroke-linejoin="round" d="M217.022 234.437h-22.896v26.064h22.896v-26.064ZM360.678 149.695h-22.896v110.813h22.896V149.695Z"/><path fill="#EDEDED" d="M324.764 149.695h-22.896v110.813h22.896V149.695Z"/><path fill="#DDD" stroke="#EDEDED" stroke-linecap="round" stroke-linejoin="round" d="m355.551 72.0801-31.522 20.74 9.871 6.2492c-6.002 9.9547-37.312 51.8027-37.312 51.8027l-35.377 3.4c-13.085 25.758-43.123 71.073-43.123 71.073h-92.425v22.685l99.733-1.102 48.647-76.248 34.119-.809 40.532-63.403 7.784 3.012-.927-37.3999Z"/><path stroke="#DDD" stroke-linecap="round" stroke-linejoin="round" d="M288.85 191.393h-22.896v69.115h22.896v-69.115Z"/><path stroke="#DDD" stroke-linecap="round" stroke-linejoin="round" stroke-width="2" d="M413.287 270.824H133.388v11.811h279.899v-11.811ZM413.287 50.4834H133.388V62.295h279.899V50.4834Z"/><path fill="#683F1D" d="M383.753 333.955v21.005h33.125s1.987-1.952-4.041-4.964c-5.691-2.843-9.123-5.617-11.978-12.288l-17.106-3.753Z"/><path fill="#A7CAF0" d="M383.084 339.687h20.902l1.08-165.757-20.306 1.578-1.676 164.179Z"/><path stroke="#83ADDF" stroke-linecap="round" stroke-linejoin="round" stroke-width=".75" d="M388.225 196.39c2.802-.462 3.869-1.502 3.869-1.502M398.998 179.941c-.166 5.393 1.682 11.955 3.975 13.682"/><path fill="#683F1D" d="M366.362 342.72v14.783h33.125s1.988-1.952-4.048-4.964c-5.684-2.842-9.116-5.617-11.971-12.288l-17.106 2.469Z"/><path stroke="#91613D" stroke-linecap="round" stroke-linejoin="round" stroke-width=".75" d="M399.488 357.517s1.988-1.952-4.048-4.964c-5.684-2.843-9.116-5.617-11.971-12.288"/><path fill="#A7CAF0" d="M355.763 156.142c-2.895 40.242-1.392 67.32 1.192 101.666 2.584 34.347 6.758 84.912 6.758 84.912h21.862l1.603-172.04-31.415-14.538Z"/><path stroke="#83ADDF" stroke-linecap="round" stroke-linejoin="round" stroke-width=".75" d="m385.556 342.734 1.311-144.378"/><path fill="#FED81D" d="M466.434 136.422c0 6.5-2.372 12.287-6.069 16.041-2.327 2.449-5.412 3.993-8.725 4.365-.225 0-.451.034-.663.041h-.536c-6.718 0-12.475-5.277-14.853-12.757-.79-2.489-1.188-5.092-1.18-7.711 0-6.297 2.226-11.92 5.724-15.674 1.311-1.473 2.902-2.655 4.675-3.474 1.773-.818 3.69-1.256 5.634-1.286 8.818-.007 15.993 9.153 15.993 20.455Z"/><path fill="#FCC71F" d="M460.359 152.47c-2.328 2.449-5.412 3.992-8.726 4.365-.225 0-.45.034-.662.041h-.537c-6.717 0-12.475-5.277-14.853-12.757 7.42 4.454 10.309 13.539 23.327 8.895.444-.15.94-.334 1.451-.544Z"/><path fill="#FED81D" d="M458.875 153c-.897 1.101-2 2.006-3.244 2.66-1.244.654-2.603 1.045-3.998 1.148-.225 0-.45.034-.662.041h-.537c-1.975 0-3.938-.307-5.823-.911-11.759-3.577-24.963-12.37-33.503-17.857l-.119-.075c-1.987-1.292-3.743-2.387-5.148-3.182-.231-.143-.457-.266-.662-.381-3.147-1.714-5.691-5.549-7.248-10.023-.298-.864-.563-1.755-.788-2.659-2.75-11.145.596-24.2626 15.41-19.04 2.782.972 6.459 2.985 10.56 5.61 5.873 3.827 11.551 7.96 17.013 12.383 9.666 7.745 18.179 15.735 20.047 19.176 1.024 2.084 1.447 4.427 1.216 6.75-.23 2.322-1.102 4.529-2.514 6.36Z"/><path fill="#FCC71F" d="M460.358 152.469c-2.327 2.45-5.411 3.993-8.725 4.366-.225 0-.45.034-.662.041h-.537c-1.975 0-3.938-.307-5.823-.911-11.76-3.577-24.963-12.37-33.503-17.857 0 0-.04-.041-.119-.075-1.988-1.292-3.743-2.387-5.148-3.182-.232-.143-.457-.266-.662-.381-3.147-1.714-5.691-5.549-7.248-10.023-.298-.864-.563-1.755-.788-2.659 4.849-.803 10.487-.327 16.754 2.455 2.398 1.067 6.877 3.019 4.353 6.494-3.174 4.379-.537 11.111 8.99 11.111 2.933-.048 5.822.738 8.347 2.271 7.42 4.454 10.309 13.539 23.327 8.894.437-.149.934-.333 1.444-.544Z"/><path fill="#FFE05C" d="M423.079 108.365c-2.313-.18-4.64-.019-6.91.476-3.975.857-8.705 2.972-11.633 8.031-1.724 2.934-3.972 5.509-6.625 7.589-4.008-11.56-1.391-27.3432 14.621-21.706 2.769.972 6.446 2.985 10.547 5.61Z"/><path fill="#F7AD2B" d="M418.21 101.178c-1.246-.313.497-4.8625 3.829-9.1465 3.134-4.0256 5.114-6.2288 6.068-4.8824.583.8296-.284 13.6889-9.897 14.0289Z"/><path fill="#B25E47" d="M423.476 101.572c-3.975-5.692-6.625-10.3908-8.493-11.9276-1.868-1.5368-3.591-2.312-3.79-4.08-.056-1.2983.24-2.5872.853-3.7239.614-1.1366 1.523-2.0766 2.625-2.7157 2.75-1.6388 14.966 13.7224 14.966 13.7224s.398 7.6428-6.161 8.7248Z"/><path fill="#DDD" stroke="#EDEDED" stroke-linecap="round" stroke-linejoin="round" d="M403.913 70.5773c2.372-2.414 4.889-2.04 10.189 3.0464s11.223 7.7044 12.462 11.7912c1.325 4.4268-2.259 7.9356-7.063 7.344-1.696-.204-4.339-.51-1.696-6.7252l-7.115-6.12s-1.987 3.0532-5.028 2.1964c-3.167-.9248-7.281-5.882-1.749-11.5328Z"/><path fill="#B25E47" stroke="#934735" stroke-linecap="round" stroke-linejoin="round" stroke-width=".75" d="M418.998 80.716c1.146.6052 4.319-4.08 2.809-5.0048-2.034-1.2308-3.962 4.3928-2.809 5.0048Z"/><path stroke="#EDEDED" stroke-linecap="round" stroke-linejoin="round" d="M417.806 86.0336c.811-1.4504 2.087-2.5676 3.61-3.162M410.69 79.8864c.431-.6332.73-1.3507.878-2.1077.148-.7569.142-1.5372-.016-2.2919"/><path fill="#B25E47" stroke="#934735" stroke-linecap="round" stroke-linejoin="round" stroke-width=".75" d="M410.75 86.36c.941 2.1896 3.644-.9928 4.757-4.08 1.067-2.9172.808-3.5768-.815-3.2708-1.623.306-5.227 4.4472-3.942 7.3508ZM413.095 76.7179c1.285.68 4.863-4.5152 3.16-5.5284-2.285-1.36-4.459 4.8552-3.16 5.5284Z"/><path fill="#B25E47" stroke="#934735" stroke-linecap="round" stroke-linejoin="round" stroke-width=".75" d="M415.129 77.8195c1.285.68 4.863-4.5152 3.16-5.5284-2.285-1.36-4.458 4.8552-3.16 5.5284Z"/><path fill="#B25E47" stroke="#934735" stroke-linecap="round" stroke-linejoin="round" stroke-width=".75" d="M417.11 79.3628c1.239.68 4.638-4.3248 3.028-5.2904-2.193-1.3124-4.267 4.6512-3.028 5.2904Z"/><path fill="#FED81D" d="M418.21 101.177c5.061 7.31 18.974 28.56 24.234 35.687 6.824 9.261 23.155 10.764 23.188-6.95 0-8.772-37.498-42.7651-37.498-42.7651s-1.934 10.3972-9.924 14.0281Z"/><path stroke="#F7AD2B" stroke-linecap="round" stroke-linejoin="round" stroke-width=".75" d="M423.026 103.36c6.221-2.149 8.354-9.3634 8.354-9.3634"/><path stroke="#EDEDED" stroke-linecap="round" stroke-linejoin="round" stroke-width="2" d="M425.915 90.2769c9.275 13.1651 12.587 22.1611 10.381 25.6831-2.206 3.523-7.181 1.619-6.625-1.36.663-3.692 6.672-4.63 4.194 5.284-2.478 9.914-9.275 10.778-10.507 8.031-1.663-3.808 5.253-7.861 5.962 2.128.709 9.989-10.169 12.546-13.204 10.037-3.034-2.509 5.526-9.058 5.393 1.924-.132 10.982-12.779 11.322-18.484 9.854"/><path stroke="#F7AD2B" stroke-linecap="round" stroke-linejoin="round" stroke-width=".75" d="M418.21 101.177c5.061 7.31 18.974 28.56 24.234 35.687 1.567 2.097 3.573 3.805 5.87 4.998"/><path fill="#FED81D" d="M342.221 161.289c.029 2.585-.534 5.141-1.643 7.462-1.109 2.321-2.734 4.342-4.743 5.9-2.34 1.764-5.167 2.716-8.07 2.72h-.039c-1.824-.007-3.628-.395-5.3-1.142-5.34-2.353-9.116-8.16-9.116-14.96v-.388c.031-2.274.517-4.517 1.429-6.59.912-2.073 2.229-3.931 3.871-5.459 1.702-1.561 3.748-2.674 5.962-3.244 1.057-.276 2.143-.415 3.233-.415 5.731 0 10.686 3.72 13.018 9.106.52 1.182.9 2.424 1.133 3.699.194 1.092.283 2.201.265 3.311Z"/><path fill="#FCC71F" d="M327.726 177.385c-1.824-.007-3.628-.396-5.3-1.143-5.34-2.352-9.116-8.16-9.116-14.96v-.387c.031-2.274.517-4.518 1.429-6.59.912-2.073 2.229-3.932 3.871-5.46-1.18 15.674.477 23.759 9.116 28.54Z"/><path fill="#FED81D" d="M371.132 114.471c-.397 1.299-.861 2.625-1.378 3.972-.477 1.237-1.004 2.488-1.583 3.753-.186.395-.378.796-.57 1.19-.603 1.251-1.245 2.509-1.948 3.767-.231.422-.47.844-.708 1.265-4.123 6.969-8.796 13.578-13.973 19.761-1.192 1.428-2.411 2.836-3.65 4.209l-.874.959c-.928 1.006-1.862 1.986-2.803 2.938-.576.578-1.146 1.156-1.722 1.706-7.029 6.8-14.277 11.724-20.16 11.86-.549.016-1.099-.016-1.643-.096-1.611-.177-3.119-.894-4.293-2.04-1.57-1.57-2.405-3.937-2.498-6.8-.165-5.385 2.266-12.566 7.288-19.72l.861-1.244c4.936-7.262 12.223-19.584 20.306-29.6 7.42-9.201 15.515-16.4632 23.108-16.1096.608.0286 1.213.1082 1.808.238 6.592 1.4008 7.566 9.6966 4.432 19.9916Z"/><path fill="#FCC71F" d="M321.459 160.704c-1.07 1.29-1.632 2.943-1.577 4.636.055 1.693.724 3.304 1.875 4.517-.549.017-1.099-.015-1.643-.095-1.61-.178-3.119-.895-4.293-2.04-1.57-1.571-2.405-3.937-2.498-6.8-.165-5.386 2.266-12.566 7.288-19.72l.861-1.244c1.533 1.55 2.592 3.525 3.048 5.684.395 1.723.538 3.497.424 5.264-.193 3.651-1.425 7.316-3.485 9.798Z"/><path stroke="#F7AD2B" stroke-linecap="round" stroke-linejoin="round" stroke-width=".75" d="M369.755 118.442c-1.352 3.447-2.96 6.782-4.81 9.976-4.123 6.968-8.796 13.578-13.972 19.761-2.352 2.822-4.817 5.569-7.327 8.112"/><path fill="#FFE05C" d="M371.133 114.471c-3.538-4.454-7.46-6.868-13.912-6.902-3.975 0-8.957.877-15.404 2.754 7.42-9.2 15.516-16.4626 23.108-16.109.609.0287 1.213.1082 1.809.238 6.559 1.428 7.533 9.724 4.399 20.019Z"/><path fill="#FED81D" d="M416.17 108.841c-.279 6.304-2.902 18.272-4.737 27.411-.119.612-.239 1.231-.358 1.87-2.286 12.049-4.578 30.083-4.591 32.81 0 9.105-6.142 7.48-23.314 6.963-8.446-.238-17.788-.558-24.757-1.992-1.966-.367-3.893-.932-5.751-1.687-3.312-1.428-5.26-3.441-4.922-6.324.044-.359.117-.714.219-1.061 1.666-6.085 2.677-12.34 3.014-18.652.245-3.4.378-6.895.537-10.472.125-3.033.271-6.12.516-9.391.484-6.487 2.65-14.28 5.168-20.747 2.862-7.48 6.115-13.2189 7.612-13.3481h.093c2.855-.2176 10.09.7752 20.683.9928 4.485.0992 8.926.9301 13.157 2.4616 1.855.68 9.322 2.9037 13.774 5.0867 1.179.479 2.25 1.201 3.146 2.121.458.612.597 2.013.511 3.958Z"/><path fill="#FCC71F" d="M358.413 175.903c-1.966-.367-3.893-.932-5.751-1.687-3.312-1.428-5.26-3.441-4.922-6.324.044-.359.117-.714.219-1.061 1.666-6.085 2.677-12.34 3.014-18.652.245-3.4.378-6.895.537-10.472l14.667-14.321c4.022 6.909-3.703 20.271-8.857 23.705-5.155 3.434-4.797 10.2 6.062 12.573 8.234 1.789-.332 11.608-4.969 16.239Z"/><path fill="#FFE05C" d="M423.079 108.365c-2.313-.18-4.64-.019-6.91.476-3.975.857-8.705 2.971-11.633 8.031-1.724 2.934-3.972 5.509-6.625 7.588-6.917 5.44-16.258 7.066-22.214-3.094-1.357-2.403-2.875-4.707-4.544-6.895-3.538-4.454-7.46-6.868-13.913-6.902-3.975 0-8.957.877-15.403 2.754 7.42-9.2 15.516-16.4625 23.108-16.1089 2.855-.2176 10.09.7752 20.683.9928 4.485.0992 8.927.9301 13.157 2.4616 1.855.68 9.322 2.9035 13.774 5.0865 2.743.972 6.419 2.985 10.52 5.61Z"/><path fill="#683F1D" d="M394.188 106.257s1.987 6.562 2.755 7.146l3.313.531c1.088-1.992 2.002-4.078 2.73-6.236l-3.498-5.175-5.3 3.734Z"/><path fill="#683F1D" d="m396.971 113.404-7.639 29.92s.881 3.998 5.247 10.077c0 0 4.419-5.916 5.353-8.479l.364-30.988-3.325-.53Z"/><path fill="#fff" d="M388.649 92.8335c-1.815.0544-5.539 1.7612-5.585 3.3184-.046 1.5572 3.379 13.8791 8.818 16.9451 0 0 2.107-6.439 7.592-7.344l-10.825-12.9195ZM399.487 105.753c2.133 2.692 3.905 5.665 5.267 8.84 0 0 5.373-7.214 4.638-13.035-.126-.973-4.843-3.2982-4.843-3.2982l-5.062 7.4932Z"/><path stroke="#F7AD2B" stroke-linecap="round" stroke-linejoin="round" stroke-width=".75" d="M411.075 138.122c.119-.639.239-1.258.358-1.87.749-3.72 1.63-7.915 2.425-11.995.059-.3.112-.585.165-.871"/><path fill="#B25E47" d="M405.947 99.6744s-2.18 6.5956-6.625 6.5826c-7.234 0-11.753-11.9342-11.753-11.9342 2.226-9.2548 1.988-13.5524 1.988-13.5524-.245-6.12 13.449-14.2052 15.337 3.9712l.165 2.4072.583 8.432.305 4.0936Z"/><path fill="#914839" d="M405.662 95.5809c-4.637-.1632-8.91-2.652-9.136-8.432h8.553l.583 8.432Z"/><path fill="#604730" d="M404.516 63.0564c-.232 1.6456-2.292 2.72-2.292 2.72l-4.724 7.2828s-4.313 5.0592-8.904 4.5424c-.677-.075-1.336-.2706-1.947-.578-2.266-1.1288-.948-3.3184-1.412-4.0324-.463-.714-1.576-.8092-1.855-2.1284-.278-1.3192 1.789-1.224.908-2.6452-.881-1.4212-1.385-2.584.066-3.6108 1.451-1.0268.053-1.4348.981-3.0804.715-1.2784 1.908.272 2.345-1.4076.437-1.6796 1.769-1.0812 2.723-1.2376 1.206-.204.179-1.2716 1.828-1.6796.802-.204.782.7684 1.723.1224.401-.3155.88-.511 1.382-.565.503-.054 1.01.0356 1.467.259 1.212.8228 1.159-.8296 2.65-.3264 1.073.3672.391 1.2036 1.868 1.4416s1.431 1.1288 1.557 2.074c.013.1325.033.2641.059.3944.219 1.0744 1.802.8092 1.577 2.4548Z"/><path fill="#473526" d="M405.537 62.2608c-.239 1.768-2.405 2.9376-2.405 2.9376l-4.969 7.7656s-4.512 5.44-9.328 4.8688c.091-.4094.063-.8372-.08-1.2308-.49-.7616-1.649-.8636-1.941-2.278-.291-1.4144 1.875-1.3192.954-2.8356s-1.451-2.7608.06-3.8692c1.51-1.1084.06-1.5232 1.033-3.2844.749-1.36 1.988.2856 2.465-1.5096.477-1.7952 1.848-1.156 2.849-1.3192 1.265-.2176.185-1.36 1.921-1.802.841-.2176.815.8228 1.802.136.987-.6868 2.246-.85 2.988-.3332 1.272.884 1.212-.8908 2.802-.3468l.139.0544c0 .1428.04.2788.067.4216.231 1.1492 1.881.884 1.643 2.6248Z"/><path fill="#B25E47" d="M408.716 86.4754c-1.279 3.706-8.997 7.9016-18.371-4.182-1.206.4624-3.22.1156-4.326-2.04-1.385-2.72.596-6.732 5.207-4.8076.848.3536 1.325-1.836.292-3.3592-1.034-1.5232-2.783-5.236 1.325-7.9424 4.107-2.7064 9.579-2.4208 11.673.952 1.32 2.2436 2.37 4.6434 3.127 7.1468.351 1.122.662 2.278.921 3.4476.861 3.9168 1.126 7.9492.152 10.7848Z"/><path fill="#A0503D" d="M399.978 76.6019c-.219.9044-1.935 1.2444-3.843.7616-1.908-.4828-3.273-1.598-3.061-2.5024.212-.9044 1.935-1.2376 3.843-.7548s3.273 1.598 3.061 2.4956ZM408.584 75.6703c-.914.5168-1.755.6392-2.173.204-.616-.6256-.066-2.2508 1.252-3.6516.351 1.122.663 2.278.921 3.4476Z"/><path fill="#604730" d="M394.679 70.3666c.145.782 5.101-.7276 4.637-2.3392-.669-2.1896-4.909.9384-4.637 2.3392ZM401.892 67.9998c.106 1.0064 4.068 1.02 4.055.3672-.013-.6528-4.293-2.6452-4.055-.3672Z"/><path fill="#683F1D" d="M398.435 72.7056c0 .1816.052.359.15.51.099.151.238.2686.402.3381.163.0695.343.0877.516.0523.174-.0355.333-.1229.458-.2513.125-.1284.211-.2919.245-.47.035-.1781.017-.3627-.051-.5304-.067-.1678-.182-.3111-.329-.412-.147-.1009-.32-.1547-.497-.1547-.117 0-.234.0237-.342.0699-.109.0461-.207.1137-.29.199-.083.0852-.149.1864-.194.2978-.045.1114-.068.2307-.068.3513ZM403.596 71.7877c-.002.1831.05.3626.148.5156.099.153.239.2725.403.3436.165.071.346.0903.521.0554.176-.0349.337-.1224.463-.2515.127-.1291.214-.2938.249-.4734.035-.1796.018-.3659-.05-.5353-.068-.1693-.184-.3142-.332-.4161-.148-.1019-.323-.1563-.501-.1563-.118-.0009-.235.0221-.345.0679-.109.0457-.208.1132-.292.1985-.084.0853-.15.1868-.196.2987-.045.1118-.068.2317-.068.3529Z"/><path stroke="#934735" stroke-linecap="round" stroke-linejoin="round" stroke-width=".75" d="M387.562 78.2001c.663-1.7612 3.22-1.4348 4.015.5168"/><path stroke="#934735" stroke-linecap="round" stroke-linejoin="round" stroke-width=".75" d="M391.068 77.867c-1.213-.7548-3.28 2.0876 0 2.8968M390.346 82.2798c.796-.2251 1.544-.601 2.206-1.1084M401.641 70.2168c0 3.4 1.517 3.7808 3.041 4.3928 1.272.5168.867 1.9584.569 2.4276"/><path fill="#fff" stroke="#934735" stroke-linecap="round" stroke-linejoin="round" stroke-width=".75" d="M399.979 79.2541c2.597 0 4.558-.1496 4.558-.1496s-1.153 3.3592-2.65 3.1892c-1.498-.17-1.908-3.0396-1.908-3.0396Z"/><path fill="#EDEDED" d="m399.391 166.453-31.381-20.159-28.507 46.753 31.381 20.159 28.507-46.753Z"/><path fill="#F9F9F9" d="m394.569 168.593-26.327-16.912-23.917 39.226 26.327 16.911 23.917-39.225Z"/><path fill="#DDD" stroke="#EDEDED" stroke-linecap="round" stroke-linejoin="round" d="M388.344 157.23c.314-.268.583-.587.795-.945.269-.435.451-.921.534-1.429.084-.508.068-1.028-.046-1.53-.114-.501-.325-.974-.62-1.391-.294-.418-.667-.77-1.096-1.038-.429-.267-.905-.444-1.401-.521-.497-.076-1.003-.05-1.489.077-.487.127-.944.352-1.345.662-.4.31-.737.699-.989 1.144-.208.356-.36.744-.451 1.149l-4.763-2.978-3.644 6.12 15.642 9.778 3.637-6.12-4.764-2.978Z"/><path fill="#F9F9F9" d="M386.347 156.098c.977-.246 1.575-1.258 1.336-2.261-.239-1.004-1.225-1.618-2.202-1.372-.978.245-1.576 1.257-1.337 2.261.239 1.003 1.225 1.617 2.203 1.372Z"/><path stroke="#DDD" stroke-linecap="round" stroke-linejoin="round" d="m369.755 159.147 17.947 11.526M367.966 162.398l17.947 11.533M366.177 165.655l13.985 8.983"/><path fill="#B25E47" d="M370.232 179.942c8.394 4.284 11.15 5.766 11.72 6.283 1.716 1.564 1.517 4.461 1.517 4.461s3.69 1.931 4.061 3.026c.371 1.095-1.544 3.169-2.769 3.06 0 0-1.471 1.693-2.809 1.584 0 0-.491 2.237-2.299 2.346 0 0-.212 1.918-2.822 1.36-2.611-.557-13.694-9.778-13.694-9.778l7.095-12.342Z"/><path fill="#FED81D" d="M371.166 180.418c-.749 1.632-4.929 9.574-6.718 12.954-.49.938-.802 1.523-.802 1.523s-11.66-4.76-22.048-9.221c-6.181-2.659-11.925-5.195-14.455-6.548-1.634-.847-3.208-1.81-4.711-2.884-3.385-2.441-5.757-5.222-6.625-8.527-.868-3.305-.192-7.33 2.597-12.029.727-1.205 1.679-2.251 2.802-3.077 1.122-.826 2.392-1.417 3.737-1.737 1.447-.366 2.937-.515 4.426-.442l.497.034c.53 0 1.06.095 1.603.183l.47.082.537.109.888.204h.033l.477.129.212.068c.185.054.371.109.543.17l.556.183.55.191c.186.075.371.143.557.224.923.371 1.825.793 2.703 1.265.159.075.318.163.47.252.153.088.457.251.663.387l.576.354h.04c.755.469 1.517.986 2.279 1.55.192.143.391.286.576.435.961.735 1.921 1.558 2.875 2.448 11.217 10.527 24.427 21.38 24.765 21.38.066.034.026.122-.073.34Z"/><path fill="#FCC71F" d="M341.598 185.674c-6.181-2.659-11.925-5.195-14.455-6.548-1.634-.847-3.208-1.81-4.711-2.884-3.385-2.441-5.757-5.222-6.625-8.527-.868-3.305-.192-7.33 2.597-12.029.727-1.205 1.679-2.251 2.802-3.077 1.122-.826 2.392-1.417 3.737-1.737-.205 3.685-1.437 7.35-3.498 9.832-1.07 1.29-1.632 2.943-1.577 4.636.055 1.693.724 3.304 1.875 4.517 1.835 2.04 4.969 3.359 9.149 2.795 1.723-.231 3.412.585 4.929 1.999 2.862 2.618 5.102 7.303 5.777 11.023Z"/><path stroke="#F7AD2B" stroke-linecap="round" stroke-linejoin="round" stroke-width=".75" d="M328.879 150.416c5.3.075 11.627 2.72 17.642 8.323 11.263 10.567 24.513 21.461 24.765 21.379M365.588 180.316c-1.716 3.454-4.902 9.636-4.902 9.636"/><path stroke="#934735" stroke-linecap="round" stroke-linejoin="round" stroke-width=".75" d="M381.951 186.225c1.716 1.564 1.517 4.461 1.517 4.461s3.69 1.931 4.061 3.026c.371 1.095-1.543 3.169-2.769 3.06 0 0-1.471 1.693-2.809 1.584 0 0-.49 2.238-2.299 2.346 0 0-.212 1.918-2.822 1.36M383.66 190.788l-3.425-1.673"/><path stroke="#934735" stroke-linecap="round" stroke-linejoin="round" stroke-width=".75" d="M384.761 196.772c-1.131-.476-2.236-1.012-3.313-1.605M381.951 198.356c-.701-.29-1.368-.662-1.987-1.108"/><path fill="#C3DCF8" d="M170.613 155.319c-1.451 2.509-3.027 5.032-4.697 7.48-4.293 6.324-9.129 12.24-13.647 16.463-15.331 14.341-20.445-.49-19.001-6.555 1.146-4.849 13.648-22.814 20.842-32.783 1.802-2.496 3.266-4.481 4.141-5.651 4.386-5.807 9.818-8.84 17.132-6.555 6.625 2.067 2.703 14.674-4.77 27.601Z"/><path fill="#D0E5F7" d="M170.613 155.319c-1.193-1.081-2.291-2.269-3.279-3.55-3.849-4.923-6.281-10.349-13.25-11.838 1.802-2.496 3.266-4.482 4.141-5.651 4.385-5.807 9.818-8.84 17.132-6.555 6.651 2.06 2.729 14.667-4.744 27.594Z"/><path fill="#FEBD9D" d="M141.974 233.702c-4.459 15.81-15.37 47.124-15.238 47.736.04.279.272 3.666.517 7.419.325 4.91.662 10.452.662 10.452s-30.3089 9.853-32.9059 9.139c-2.597-.714-2.1001-4.522 1.9014-7.602.8413-.68 2.067-1.714 3.4785-2.979 5.247-4.719 13.024-12.315 13.024-12.315s6.95-60.438 8.096-66.021c1.146-5.583 5.91-11.499 13.012-10.88 7.347.639 11.891 9.241 7.453 25.051Z"/><path fill="#83ADDF" d="M127.909 299.309s-30.3097 9.853-32.9067 9.139c-2.597-.714-2.1002-4.522 1.9013-7.603.8414-.68 2.067-1.713 3.4784-2.978 5.545 1.176 11.481-.734 14.575-3.108 3.604-2.875 7.786-4.891 12.243-5.902.351 4.903.709 10.452.709 10.452Z"/><path fill="#A7CAF0" d="M244.343 152.715c.146-1.149.073-2.775-3.14-4.529l-1.06 4.95s3.948 1.585 4.2-.421Z"/><path fill="#FEBD9D" d="M229.291 147.608c1.027-5.025 1.477-5.488 1.325-7.929-.152-2.441-.45-5.358 3.478-10.247 3.929-4.89 6.248-8.732 7.023-8.337.775.394.258 3.917-1.226 7.317 0 0 10.434-6.12 12.627-6.984 2.193-.864.775 3.237-3.61 5.44 0 0 6.896-4.27 8.572-3.917 1.677.354-1.417 2.843-3.802 4.441 0 0 4.518-2.918 5.412-1.959.895.959-1.596 2.999-3.677 4.277 0 0 2.71-1.448 3.161-.727.45.721 0 1.523-2.65 3.243-2.65 1.721-8.441 4.631-12.879 9.854l-1.16 12.92s-10.408 1.734-12.594-7.392Z"/><path stroke="#EF8A66" stroke-linecap="round" stroke-linejoin="round" stroke-width=".75" d="M235.73 127.371c2.962-3.862 4.751-6.609 5.413-6.276.775.401.258 3.917-1.226 7.317 0 0 10.435-6.12 12.628-6.984 2.193-.864.775 3.237-3.611 5.44 0 0 6.897-4.27 8.573-3.917 1.676.354-1.418 2.843-3.803 4.441 0 0 4.518-2.918 5.413-1.959.894.959-1.597 2.999-3.677 4.277 0 0 2.709-1.448 3.16-.727.45.721 0 1.523-2.65 3.243M240.692 136.966c.451-3.638 2.816-4.842 4.81-5.372"/><path stroke="#EF8A66" stroke-linecap="round" stroke-linejoin="round" stroke-width=".75" d="M245.304 128.01c2.848.129 5.836 2.829 6.028 3.822"/><path stroke="#EF8A66" stroke-linecap="round" stroke-linejoin="round" stroke-width=".75" d="M246.722 128.269c.039 0 3.908-2.448 3.908-2.448M254.419 126.875l-4.862 2.904M256.003 129.33l-3.677 2.114"/><path fill="#C3DCF8" d="M220.692 196.214c4.935 5.107 14.369 2.006 17.708-11.56 3.339-13.566 5.963-31.96 5.963-31.96-5.492-1.239-10.618-3.803-14.953-7.48-4.823 13.444-15.125 44.364-8.718 51Z"/><path stroke="#83ADDF" stroke-linecap="round" stroke-linejoin="round" stroke-width=".75" d="M229.39 145.221c-3.186 8.929-8.811 25.568-10.341 37.686"/><path fill="#FEBD9D" d="M124.006 212.908c-2.809 14.212-7.698 25.629-12.826 38.012-5.127 12.383-10.388 27.88-10.388 30.294v10.955s-34.2243 5.97-35.7746 5.97c-1.5502 0-2.65-3.4.6625-5.827.8281-.599 2.5109-1.904 4.5779-3.523 6.2805-4.896 16.0656-12.695 16.0656-12.695s11.7196-50.109 14.4156-66.239c4.399-26.037 27.064-16.211 23.267 3.053Z"/><path stroke="#EF8A66" stroke-linecap="round" stroke-linejoin="round" stroke-width=".75" d="M119.462 229.724c1.173-3.461 2.246-7.01 3.173-10.737 5.121 1.075 11.263 1.965 18.948 3.366"/><path fill="#83ADDF" d="M100.792 282.091v10.064s-34.2243 5.971-35.7746 5.971c-1.5502 0-2.65-3.4.6625-5.828.8281-.598 2.5109-1.904 4.5779-3.522 6.2142 1.462 13.5481-.966 17.5099-2.795 4.1363-1.934 8.5232-3.244 13.0243-3.89Z"/><path fill="#C3DCF8" d="M139.589 185.47c6.436 0 11.653-4.795 11.653-10.71 0-5.915-5.217-10.71-11.653-10.71-6.436 0-11.653 4.795-11.653 10.71 0 5.915 5.217 10.71 11.653 10.71Z"/><path fill="#DD6819" d="M213.65 133.219c-.427.274-.869.522-1.325.741-7.215 3.556-11.071 2.529-11.793-.973-.722-3.502-8.275-.863-8.718-7.051-.444-6.188 2.232-8.208 1.729-11.363 0 0 .351-.816.887-1.782 1.133-2.04 3.108-4.658 4.578-1.985 2.18 3.957 3.531 3.536 7.553 3.998 4.021.463 5.87 3.325 4.637 5.393-1.497 2.516-.702 3.604 3.69 4.018 3.949.374 4.552 5.44-1.238 9.004Z"/><path fill="#CC5E0D" d="M213.65 133.219c-.427.275-.869.522-1.325.741-7.215 3.556-11.071 2.53-11.793-.972-.722-3.502-8.275-.864-8.718-7.052-.444-6.188 2.232-8.208 1.729-11.363 0 0 .351-.816.887-1.781 5.3 1.672 6.811 4.528 6.294 6.997-.662 3.141 2.034 7.269 8.732 6.705 3.359-.286 4.2 3.202 4.194 6.725Z"/><path fill="#C3DCF8" d="M209.9 221.211c-2.596 3.698-6.091 6.633-10.136 8.513 0 0 0-1.02-.232-2.72-.775-6.541-4.075-23.12-17.981-31.45l-.973-.183h-.087l-6.916-1.319s-1.802-7.385-3.101-13.172c-1.298-5.787-4.465-10.955-4.584-17.061v-1.013c.046-3.972.861-7.766 1.418-11.037.248-1.348.417-2.71.503-4.08.186-4.202-3.041-8.908-3.352-11.839-.311-2.93 0-9.105 7.506-8.452 1.226.102 2.345.204 3.392.306 1.047.102 2.16.231 3.107.354.338.04.663.095.994.149 1.328.184 2.641.466 3.929.843 1.033.305 2.028.729 2.968 1.265 2.908 1.666 9.566-.462 10.381-.727h.079c1.445-.096 2.723-.204 3.863-.306 1.139-.102 2.087-.184 2.948-.272 2.531-.272 4.021-.497 4.796-.592.458 0 1.113 6.385 1.816 14.96.384 4.665.775 9.976 1.159 15.259.782 10.982 1.517 21.862 1.948 26.52.066.755.132 1.36.179 1.761.689 4.971 4.737 22.189-3.624 34.293Z"/><path fill="#D0E5F7" d="M210.271 143.371c-2.096 1.323-4.072 2.836-5.903 4.522-7.394 6.651-12.7 14.375-23.85 12.172-3.653-.635-7.069-2.281-9.878-4.76-1.194-1.081-2.291-2.268-3.28-3.549.249-1.349.417-2.711.504-4.08.185-4.203-3.041-8.908-3.352-11.839-.312-2.931 0-9.105 7.506-8.453 1.225.102 2.345.204 3.392.306 1.047.102 2.16.232 3.107.354 1.664.195 3.31.527 4.922.993 1.033.304 2.029.728 2.968 1.265 2.909 1.666 9.567-.463 10.382-.728h.079c2.836-.197 5.068-.401 6.811-.578 2.53-.272 4.021-.496 4.796-.592.437.007 1.093 6.392 1.796 14.967Z"/><path fill="#fff" d="M193.125 178.065c.892 6.746 2.195 13.427 3.902 20.006l-16.45-2.72h-.086s-.464-10.88-3.584-20.836c-1.627-5.256-2.301-10.773-1.988-16.279.299-4.597 1.038-9.152 2.206-13.6 1.242-5.376 2.026-10.852 2.346-16.367.755.108 1.451.231 2.106.374l.451.102c.486.108.943.231 1.371.367 1.033.304 2.029.728 2.968 1.265 2.909 1.666 9.567-.463 10.382-.728h.079c.901-.068 1.743-.122 2.518-.19l.463-.041.882-.075c-1.246 3.924-6.4 20.21-8.083 28.798-.179.952-.325 1.809-.417 2.536-.484 3.917.02 10.602.934 17.388Z"/><path fill="#F9F9F9" d="M200.737 129.275c-1.245 3.923-6.4 20.209-8.082 28.798-3.649 2.226-7.988 2.939-12.131 1.992-1.922-.367-3.79-.986-5.558-1.843.298-4.596 1.037-9.152 2.206-13.6 1.241-5.376 2.026-10.852 2.345-16.367.755.109 1.451.231 2.107.374l.45.102c.486.109.943.231 1.372.367 1.033.304 2.029.728 2.968 1.265 2.908 1.666 9.566-.463 10.381-.728h.08c.901-.068 1.742-.122 2.517-.19l.464-.041.881-.129Z"/><path fill="#A7CAF0" d="m200.128 148.995 3.842 8.996c-1.1 1.925-7.884 14.552-10.845 20.074-.914-6.8-1.418-13.471-.921-17.456.921-7.384 7.115-26.975 8.5-31.334 1.113-.088 2.087-.184 2.948-.272l1.179 17.082c-.861.584-4.703 2.91-4.703 2.91ZM177.139 144.595c-1.411 5.855-4.207 17.204-.232 29.92-3.327-4.973-5.695-10.555-6.976-16.442l4.306-9.887-2.2-2.965s2.392-6.8 6.427-17.143c.338.041.662.095.993.15-.31 5.514-1.086 10.99-2.318 16.367Z"/><path fill="#683F1D" d="M198.849 128.52c1.61-.49 2.948 0 2.915.68-.079 1.816-3.167 12.777-4.498 13.335-.245.102-1.776-4.944-3.512-5.556-1.735-.612-4.942.225-4.869.184.073-.041 6.499-9.785 9.964-8.643ZM183.512 128.126c2.723 3.767 2.352 6.596 1.358 6.725-.994.129-2.206.034-3.405 1.326-1.199 1.292-3.101 3.4-3.247 3.128-.708-1.36.497-10.2 1.027-11.118.656-1.129 3.531-1.081 4.267-.061Z"/><path stroke="#DDD" stroke-linecap="round" stroke-linejoin="round" d="M185.612 141.317c-.331 7.188-1.954 9.942-2.935 14.376-.98 4.433-.113 10.472 1.471 17.428 1.583 6.956 1.497 10.703 1.464 11.465-.033.761-1.597 5.127 1.828 6.8"/><path fill="#FEBD9D" d="M198.856 128.52s-10.528 11.036-12.992 9.398c-2.465-1.639-3.412-7.902-3.14-10.003.099-.68.285-1.972.49-3.4.431-2.87.967-6.365 1.06-7.12.285-6.12 10.063-11.39 12.859-4.61-.404 5.31.181 10.65 1.723 15.735Z"/><path fill="#F4A789" d="M183.214 124.487c.43-2.869.967-6.364 1.06-7.119l6.367-2.278c.669 5.583-2.094 8.751-7.427 9.397Z"/><path stroke="#83ADDF" stroke-linecap="round" stroke-linejoin="round" stroke-width=".75" d="M165.916 162.806c.046-3.972.861-7.766 1.418-11.037.248-1.348.417-2.711.503-4.08.086-2.04-.609-4.155-1.398-6.154M199.18 198.56c-4.055-.993-17.629-2.999-17.629-2.999"/><path fill="#FEBD9D" d="M115.361 192.331c-7.096 0-17.6955 11.737-10.382 18.544 8.308 7.704 17.696 8.037 36.604 11.485 0 0 9.652-30.009-26.222-30.029Z"/><path fill="#FED81D" d="M199.531 226.984c-8.394 2.04-26.281.381-37-.843-2.796-.326-5.108-.612-6.625-.796-1.18-.142-1.895-.224-1.988-.21-20.822 1.985-23.406-2.686-32.191-14.233-8.785-11.546-6.486-17.863-6.366-18.571 16.257-1.36 44.122-.108 58.24 1.721l7.95 1.482c3.458 2.073 6.506 4.795 8.983 8.024 6.5 8.398 8.427 18.619 8.997 23.426Z"/><path stroke="#F7AD2B" stroke-linecap="round" stroke-linejoin="round" stroke-width=".75" d="M141.974 221.884c6.744 2.04 13.912 3.461 13.912 3.461"/><path fill="#FCC71F" d="M199.532 226.984c-8.394 2.04-26.282.381-37.001-.843 5.009-3.808 10.329-3.658 16.245-2.523 12.19 2.333 14.515-2.149 11.587-6.916-2.571-4.202-3.67-10.145.172-13.144 6.499 8.398 8.427 18.618 8.997 23.426Z"/><path fill="#C3DCF8" d="M229.224 197.601c-7.386 3.897-12.468-4.508-15.82-12.437-.663-1.598-1.285-3.162-1.822-4.617-2.292-6.12-5.962-20.516-7.188-32.64-1.007-9.867-.345-18.258 4.054-19.496 5.241-1.475 11.058.905 14.476 10.921.678 2.042 1.213 4.13 1.603 6.249 3.147 16.586 12.382 47.961 4.697 52.02Z"/><path stroke="#83ADDF" stroke-linecap="round" stroke-linejoin="round" stroke-width=".75" d="M213.378 185.164c-.663-1.598-1.285-3.162-1.822-4.617-1.782-4.76-4.419-14.552-6.062-24.378"/><path fill="#D0E5F7" d="M222.931 139.332c-4.478.269-8.824 1.655-12.661 4.039-2.096 1.323-4.071 2.836-5.902 4.522-.981-9.853-.318-18.244 4.081-19.482 5.247-1.475 11.063.905 14.482 10.921Z"/><path fill="#DD6819" d="M199.922 106.91c-2.537 4.998-22.001-.68-22.001-.68-3.16-.945-4.744-2.224-4.638-4.189.106-1.965 3.081-2.04 2.312-3.91-.388-.9122-.612-1.889-.662-2.8832-.053-1.7952.603-3.8556 3.167-5.5216 4.505-2.9376 10.692 1.0064 10.692 1.0064s2.829-2.4276 7.95.272c2.591 1.36 4.022 4.148 4.466 7.208.436 2.9654-.012 5.9974-1.286 8.6974Z"/><path fill="#CC5E0D" d="M199.922 106.91c-2.537 4.998-22.001-.68-22.001-.68-3.16-.945-4.744-2.224-4.638-4.189.106-1.965 3.081-2.04 2.312-3.91-.388-.9122-.612-1.889-.662-2.8832 4.194-4.5424 13.78-5.1 14.813-.8636 1.18 4.8212 3.412 12.4778 11.468 3.8284.435 2.9664-.016 5.9984-1.292 8.6974Z"/><path stroke="#FF79A0" stroke-linecap="round" stroke-linejoin="round" stroke-width=".75" d="M188.11 93.3098c3.671-2.5568 7.082-.6256 8.036 2.1896 1.385 4.08-3.312 8.3576 1.385 11.9956M177.411 95.9957c.331-3.8216 6.082-7.48 11.395-5.2904"/><path fill="#FEBD9D" d="M197.133 112.758s-5.333 5.318-11.143 7.031c-5.811 1.714-10.6-1.843-10.137-10.281v-.422c.08-1.027.199-2.04.358-2.992 1.226-7.276 4.909-12.5392 11.024-10.5672 1.875.5984.119 7.3912 1.378 10.4512.074.189.167.369.278.538.419.627.978 1.142 1.63 1.502 2.067 1.177 4.889.912 5.797-.884 1.325-2.597 4.929-3.855 6.181.517.934 3.135-2.425 5.977-5.366 5.107Z"/><path fill="#F4AF90" d="M190.548 108.018c-.589.721-1.362 1.261-2.232 1.557-1.716.68-3.372.456-3.697-.435-.325-.891.808-2.149 2.531-2.802.478-.189.98-.31 1.49-.36.074.189.168.369.279.537.418.628.977 1.143 1.629 1.503ZM177.622 109.099c-.298.449-.96.572-1.768.408v-.421c.079-1.027.198-2.04.357-2.992 1.266 1.013 1.875 2.291 1.411 3.005Z"/><path fill="#683F1D" d="M178.702 104.339c0 .15.043.295.124.42.081.124.196.22.33.278.134.057.282.072.425.043.143-.03.274-.101.377-.207.102-.106.172-.24.201-.386.028-.147.014-.299-.042-.437-.056-.137-.15-.255-.271-.338-.121-.083-.263-.128-.408-.128-.195 0-.383.08-.52.222-.138.141-.216.333-.216.533ZM182.777 105.489c0 .2.078.392.216.533.138.142.325.221.52.221s.382-.079.52-.221c.138-.141.215-.333.215-.533s-.077-.392-.215-.534c-.138-.142-.325-.221-.52-.221s-.382.079-.52.221c-.138.142-.216.334-.216.534Z"/><path stroke="#EF8A66" stroke-linecap="round" stroke-linejoin="round" stroke-width=".75" d="M197.266 109.61c.788-2.04 2.524-3.006 3.829-2.04"/><path stroke="#EF8A66" stroke-linecap="round" stroke-linejoin="round" stroke-width=".75" d="M197.531 109.025c2.107-1.653 3.564 2.04.186 2.04"/><path fill="#DD6819" d="M176.748 100.688c-.199.986 3.916 2.332 4.306.36.279-1.4212-4.087-1.4212-4.306-.36ZM183.545 101.32c-.45 1.714 4.227 2.612 4.73 1.456.431-.98-4.226-3.4005-4.73-1.456Z"/><path stroke="#EF8A66" stroke-linecap="round" stroke-linejoin="round" stroke-width=".75" d="M179.292 108.963c-.907-1.468-.43-2.556.762-2.556 1.471 0 1.948-1.36 1.882-3.264"/><path fill="#fff" stroke="#EF8A66" stroke-linecap="round" stroke-linejoin="round" stroke-width=".75" d="M179.266 110.459c1.888.238 4.399-.959 4.399-.959s-.12 3.4-2.2 3.7c-2.08.299-2.199-2.741-2.199-2.741Z"/><path fill="#F9F9F9" stroke="#DDD" stroke-linecap="round" stroke-linejoin="round" d="M128.206 90.4399c-1.941-1.2784-4.173-.9248-4.829.8364-.948 2.5432.835 4.2568 2.835 4.9232l1.994-5.7596Z"/><path fill="#DDD" stroke="#EDEDED" stroke-linecap="round" stroke-linejoin="round" d="M151.646 107.495c3.166 1.326 4.882 2.094 5.406 1.672.523-.421 2.941-6.12 2.683-6.732-.259-.612-5.221-3.3657-5.221-3.3657l-2.868 8.4257Z"/><path fill="#A7CAF0" d="M134.069 131.709c.497-2.169 7.606-3.93 10.004-4.338v7.324s-7.513 1.604-10.004-2.986Z"/><path fill="#FEBD9D" d="M137.077 134.967c1.226-6.066 2.054-7.48 1.67-8.242-.384-.762-2.869-3.25-3.167-5.8-.298-2.55 2.332-6.834 3.26-8.16.927-1.326 2.219-2.34 6.28-1.68 4.061.66 5.651 1.231 5.698 3.291.046 2.061-1.796 15.994-1.796 15.994s-3.213 10.39-11.945 4.597Z"/><path fill="#F9F9F9" stroke="#DDD" stroke-linecap="round" stroke-linejoin="round" d="M142.132 104.571c-.841 4.08-3.054 10.914-3.882 14.191-.828 3.278-.292 5.046 2.352 5.597 2.643.551 4.253-4.141 4.79-7.222.536-3.08 1.987-10.73 1.987-10.73l-5.247-1.836Z"/><path fill="#C3DCF8" d="M130.347 180.921c9.01 7.643 14.694-8.283 16.781-22.257 1.299-9.372 1.932-18.828 1.894-28.294 0 0-7.512 2.148-14.952 1.36-2.292 11.328-11.071 42.962-3.723 49.191Z"/><path stroke="#83ADDF" stroke-linecap="round" stroke-linejoin="round" stroke-width=".75" d="M142.636 175.358c2.113-4.658 3.617-10.846 4.491-16.694 1.3-9.372 1.933-18.828 1.895-28.294"/><path fill="#F9F9F9" stroke="#DDD" stroke-linecap="round" stroke-linejoin="round" d="M152.884 107.658c-1.033.422-3.385.544-6.452.17-5.206-.668-10.26-2.253-14.94-4.685l6.4-14.2802c4.814 1.4265 9.363 3.6648 13.462 6.6232 2.319 1.666 3.975 3.2436 4.551 4.284.577 1.04-.583 6.888-3.021 7.888Z"/><path fill="#F9F9F9" stroke="#EDEDED" stroke-linecap="round" stroke-linejoin="round" d="M152.884 107.658c-1.033.421-3.385.544-6.452.17 3.08-3.564 5.26-7.433 4.922-12.3085 2.319 1.666 3.975 3.2436 4.551 4.284.577 1.0405-.583 6.8545-3.021 7.8545Z"/><path fill="#DDD" stroke="#EDEDED" stroke-linecap="round" stroke-linejoin="round" d="M132.798 104.176c1.709-.517 6.963-11.0294 6.208-14.1166-.755-3.0872-7.182-10.2-7.182-10.2s-8.201 14.5928-9.719 25.3846c0 .013 8.209-.313 10.693-1.068Z"/><path stroke="#DDD" stroke-linecap="round" stroke-linejoin="round" d="m122.794 84.8778-2.524-4.2704M112.923 87.8496l4.452 1.8496M112.399 97.0702l4.605-.85"/><path fill="#FEBD9D" stroke="#EF8A66" stroke-linecap="round" stroke-linejoin="round" stroke-width=".75" d="M134.865 117.77c1.842-.973 6.917 4.76 3.829 5.127-1.828.231-6.539-3.699-3.829-5.127Z"/><path fill="#FEBD9D" stroke="#EF8A66" stroke-linecap="round" stroke-linejoin="round" stroke-width=".75" d="M135.262 114.587c1.848-.972 7.287 4.808 4.233 5.202-1.835.231-6.943-3.774-4.233-5.202Z"/><path fill="#FEBD9D" stroke="#EF8A66" stroke-linecap="round" stroke-linejoin="round" stroke-width=".75" d="M136.024 111.357c1.988-1.047 7.864 5.175 4.545 5.596-1.968.245-7.46-4.073-4.545-5.596Z"/><path fill="#FEBD9D" stroke="#EF8A66" stroke-linecap="round" stroke-linejoin="round" stroke-width=".75" d="M137.137 108.46c1.928-1.156 7.666 5.277 4.751 6.616-1.372.633-7.566-4.916-4.751-6.616Z"/><path fill="#FEBD9D" d="M145.385 114.968c-.47-.633-4.836-2.761-4.326-4.461.51-1.7 5.724.048 8.162.85 2.438.802 1.835 2.36 1.226 7.405 0 0-2.154.129-5.062-3.794Z"/><path stroke="#EF8A66" stroke-linecap="round" stroke-linejoin="round" stroke-width=".75" d="M145.385 114.968c-.47-.633-4.836-2.761-4.326-4.461.51-1.7 5.724.048 8.162.85 2.438.802 1.835 2.36 1.226 7.405"/></svg>