<svg width="365" height="285" viewBox="0 0 365 285" fill="none" xmlns="http://www.w3.org/2000/svg">
<path d="M132.08 121.685C132.274 113.505 136.816 107.161 138.829 104.1C140.842 101.039 137.581 98.7078 138.829 92.0257C140.745 81.7745 150.703 87.5318 150.703 71.0284C150.703 65.8963 151.714 64.8022 151.714 64.8022C151.714 64.8022 144.244 44.9251 157.796 38.3342C157.796 38.3342 159.002 29.8936 171.316 26.1162C183.631 22.3387 194.718 37.7089 186.742 59.9827L186.139 77.5673C187.293 77.8222 188.347 78.5265 189.14 79.5728C189.932 80.6192 190.421 81.9503 190.531 83.3637C191.435 90.8143 199.304 86.1772 199.713 105.507L132.08 121.685Z" fill="#7F542D"/>
<path d="M160.691 95.5426C154.577 97.8351 149.776 97.4183 149.776 90.8013C149.776 84.6011 156.117 81.2926 155.083 71.2629C154.05 61.2332 155.654 56.3877 158.463 52.0241C161.273 47.6605 165.32 32.8113 175.288 35.4425C185.256 38.0737 186.741 59.9176 186.741 59.9176L181.478 80.2506C181.478 80.2506 187.936 91.0878 186.042 95.0346C184.147 98.9814 160.691 95.5426 160.691 95.5426Z" fill="#704725"/>
<path d="M184.578 81.1753C184.578 81.1753 189.616 81.2665 188.324 89.1209C187.867 91.8011 188.169 94.5894 189.18 97.0372C190.191 99.4849 191.854 101.45 193.9 102.615" stroke="#A56F42" stroke-width="0.61" stroke-linecap="round" stroke-linejoin="round"/>
<path d="M157.796 43.9614C152.199 51.907 154.362 59.8266 154.362 59.8266" stroke="#A56F42" stroke-width="0.61" stroke-linecap="round" stroke-linejoin="round"/>
<path d="M152.361 85.9688C146.279 89.7331 142.737 97.1056 146.526 104.205C147.301 105.6 147.812 107.185 148.022 108.847C148.232 110.508 148.137 112.206 147.743 113.817" stroke="#A56F42" stroke-width="0.61" stroke-linecap="round" stroke-linejoin="round"/>
<path d="M157.796 38.334C157.796 38.334 162.295 39.9101 163.587 43.2837" stroke="#A56F42" stroke-width="0.61" stroke-linecap="round" stroke-linejoin="round"/>
<path d="M166.85 37.839C166.85 37.839 176.914 26.637 184.127 36.797" stroke="#A56F42" stroke-width="0.61" stroke-linecap="round" stroke-linejoin="round"/>
<path d="M189.551 73.6076C189.766 87.7273 181.769 91.2963 177.915 91.5829C169.077 91.9606 160.896 79.8598 158.162 75.2748C158.065 74.324 157.958 73.3601 157.828 72.3701C152.575 73.6727 150.423 70.755 149.83 66.2742C149.238 61.7933 153.76 56.5961 159.615 62.3665C165.105 57.7815 165.869 51.425 164.718 45.7719C166.012 43.5201 167.868 41.828 170.014 40.9422C172.159 40.0565 174.483 40.0235 176.645 40.8482C182.78 43.0104 187.054 53.1574 188.744 64.2161C189.128 66.7386 189.38 69.2881 189.497 71.8491C189.519 72.4353 189.54 73.0214 189.551 73.6076Z" fill="#FEBD9D"/>
<path d="M180.262 48.6896C180.455 50.5653 184.46 50.8649 186.257 49.7708C188.055 48.6766 179.766 43.3361 180.262 48.6896Z" fill="#7F542D"/>
<path d="M167.861 52.7143C167.549 54.3816 171.478 52.1933 172.91 52.063C174.342 51.9328 175.063 51.1773 174.374 49.0541C173.685 46.9309 168.518 49.1323 167.861 52.7143Z" fill="#7F542D"/>
<path d="M175.708 62.3793C176.362 62.3793 176.893 61.7378 176.893 60.9465C176.893 60.1552 176.362 59.5137 175.708 59.5137C175.055 59.5137 174.524 60.1552 174.524 60.9465C174.524 61.7378 175.055 62.3793 175.708 62.3793Z" fill="#683F1D"/>
<path d="M184.072 58.7714C184.726 58.7714 185.256 58.1299 185.256 57.3386C185.256 56.5473 184.726 55.9058 184.072 55.9058C183.418 55.9058 182.888 56.5473 182.888 57.3386C182.888 58.1299 183.418 58.7714 184.072 58.7714Z" fill="#683F1D"/>
<path d="M180.498 56.5698C180.412 60.8422 182.113 62.3141 182.533 62.8091C183.491 63.9423 185.762 62.8091 184.686 66.9642" stroke="#EF8A66" stroke-width="0.61" stroke-linecap="round" stroke-linejoin="round"/>
<path d="M176.408 74.337C177.937 72.5003 183.739 72.8781 184.395 73.6075C185.052 74.3369 183.943 77.5152 181.424 77.5152C178.905 77.5152 175.698 75.2097 176.408 74.337Z" fill="white" stroke="#EF8A66" stroke-width="0.61" stroke-linecap="round" stroke-linejoin="round"/>
<path d="M153.136 66.7431C154.471 64.3724 157.248 65.167 158.356 66.3523C154.772 65.6359 154.438 70.4684 158.464 69.1919" stroke="#EF8A66" stroke-width="0.61" stroke-linecap="round" stroke-linejoin="round"/>
<path d="M176.796 71.1197C176.225 73.1387 173.243 73.7248 170.111 72.4223C166.978 71.1197 164.912 68.5146 165.471 66.4696C166.031 64.4246 169.024 63.8645 172.145 65.167C175.267 66.4696 177.355 69.1008 176.796 71.1197Z" fill="#F4AF90"/>
<path d="M189.454 71.8231C187.979 72.1618 186.752 71.8231 186.225 70.8462C185.331 69.244 186.44 66.3914 188.744 64.2031C189.113 66.7225 189.35 69.2675 189.454 71.8231Z" fill="#F4AF90"/>
<path d="M154.621 73.6077C154.619 74.2256 154.769 74.8303 155.052 75.3448C155.335 75.8592 155.738 76.2602 156.209 76.4967C156.681 76.7331 157.2 76.7943 157.701 76.6724C158.202 76.5506 158.661 76.2512 159.021 75.8124C159.38 75.3737 159.624 74.8153 159.72 74.2085C159.817 73.6017 159.762 72.9739 159.562 72.405C159.363 71.8362 159.028 71.3519 158.601 71.014C158.173 70.6761 157.672 70.4998 157.162 70.5076C156.487 70.5178 155.842 70.8485 155.367 71.4284C154.892 72.0083 154.624 72.791 154.621 73.6077Z" fill="#C3DCF8"/>
<path d="M258.347 117.621L245.795 137.29C245.795 137.29 229.003 218.999 220.553 225.864C217.878 228 214.812 229.31 211.621 229.68C208.431 230.051 205.215 229.469 202.253 227.987C202.258 227.939 202.258 227.891 202.253 227.844C202.253 227.648 194.718 220.211 196.204 208.97C196.333 207.928 213.104 172.85 220.294 157.401C226.043 144.949 233.029 130.725 233.029 130.725L258.347 117.621Z" fill="#FEBD9D"/>
<path d="M233.04 130.75C233.04 130.75 234.02 112.293 234.364 110.222C234.709 108.151 245.01 96.1545 246.474 95.2036C247.938 94.2528 257.066 97.5222 257.809 98.5252C258.552 99.5281 257.712 101.912 255.258 101.729C252.804 101.547 254.913 108.737 254.913 108.737C254.913 108.737 258.885 113.817 258.293 117.621C258.293 117.621 242.9 136.391 242.706 136.325C242.513 136.26 233.04 130.75 233.04 130.75Z" fill="#FEBD9D"/>
<path d="M233.04 130.75C233.04 130.75 234.02 112.293 234.364 110.222C234.709 108.151 245.01 96.1545 246.474 95.2036C247.938 94.2528 257.066 97.5222 257.809 98.5252C258.552 99.5281 257.712 101.912 255.258 101.729C252.804 101.547 254.913 108.737 254.913 108.737C254.913 108.737 258.885 113.817 258.293 117.621C258.293 117.621 242.9 136.391 242.706 136.325C242.513 136.26 233.04 130.75 233.04 130.75Z" fill="#FEBD9D"/>
<path d="M234.363 110.222C234.665 108.112 245.009 96.1545 246.506 95.2036C248.002 94.2528 257.098 97.5222 257.84 98.5252C258.583 99.5281 257.744 101.912 255.289 101.729" stroke="#EF8A66" stroke-width="0.61" stroke-linecap="round" stroke-linejoin="round"/>
<path d="M249.078 102.628C249.218 102.211 254.966 99.8929 255.946 100.31C256.925 100.727 261.629 110.222 261.78 112.111C261.931 114 259.692 122.349 257.657 121.607C255.623 120.864 257.743 113.791 257.743 113.791L249.078 102.628Z" fill="#FEBD9D" stroke="#EF8A66" stroke-width="0.61" stroke-linecap="round" stroke-linejoin="round"/>
<path d="M253.05 119.067C254.708 120.369 256.646 117.321 257.744 113.856L254.041 110.157C254.041 110.157 250.596 117.1 253.05 119.067Z" fill="#FEBD9D" stroke="#EF8A66" stroke-width="0.61" stroke-linecap="round" stroke-linejoin="round"/>
<path d="M258.627 111.121L259.832 114.768C259.868 114.876 259.878 114.993 259.863 115.108C259.847 115.222 259.806 115.329 259.744 115.417C259.683 115.506 259.602 115.572 259.511 115.609C259.42 115.646 259.323 115.653 259.23 115.628L256.054 114.82L229.552 87.7923C229.352 87.5881 229.187 87.3381 229.066 87.0566C228.946 86.7751 228.873 86.4677 228.851 86.1519C228.829 85.8361 228.858 85.5182 228.938 85.2163C229.018 84.9144 229.146 84.6345 229.315 84.3926C229.656 83.9004 230.145 83.5923 230.674 83.5361C231.203 83.48 231.729 83.6803 232.135 84.093L258.627 111.121Z" fill="#683F1D"/>
<path d="M241.479 109.48C244.46 104.27 247.733 100.18 249.326 99.7107C251.726 99.0074 252.264 102.446 246.624 112.411C247.54 115.253 247.682 118.376 247.03 121.323C246.377 124.271 244.964 126.889 242.996 128.797" fill="#FEBD9D"/>
<path d="M241.479 109.48C244.46 104.27 247.733 100.18 249.326 99.7107C251.726 99.0074 252.264 102.446 246.624 112.411C247.54 115.253 247.682 118.376 247.03 121.323C246.377 124.271 244.964 126.889 242.996 128.797" stroke="#EF8A66" stroke-width="0.61" stroke-linecap="round" stroke-linejoin="round"/>
<path d="M217.291 170.635C217.108 171.677 215.762 174.673 215.569 175.702C211.65 195.84 205.105 215.313 202.264 227.935C201.466 231.596 200.823 235.305 200.337 239.046C198.905 249.596 198.453 259.522 198.453 259.522L133.985 258.063L126.181 257.894L126.482 217.996L126.547 209.608C126.547 209.608 108.118 208.071 107.978 208.527C107.838 208.982 108.872 196.335 108.872 196.335C102.833 187.946 102.413 175.663 103.952 168.264C104.953 163.315 109.055 150.029 113.263 138.84C114.946 134.155 116.918 129.631 119.162 125.306C124.458 115.823 127.774 115.107 134.685 113.388C141.595 111.668 153.415 104.139 153.415 104.139L175.783 101.104C175.783 101.104 187.495 102.094 197.936 101.56C207.861 101.052 213.437 103.762 217.797 114.82C218.023 115.394 218.26 116.006 218.486 116.644C221.715 125.762 224.6 138.696 226.021 145.392C221.543 158.339 217.291 170.635 217.291 170.635Z" fill="#FED81D"/>
<path d="M217.797 114.755C208.647 113.557 202.931 122.74 196.214 140.142C188.195 160.866 170.703 163.719 153.953 147.476C139.195 133.148 128.377 129.774 113.264 138.775C114.946 134.09 116.918 129.566 119.163 125.241C124.459 115.758 127.774 115.042 134.685 113.323C141.596 111.603 153.415 104.075 153.415 104.075L175.783 101.04C175.783 101.04 187.495 102.029 197.937 101.495C207.861 100.987 213.437 103.697 217.797 114.755Z" fill="#FFE05C"/>
<path d="M135.837 203.838L141.822 157.61C143.49 160.71 148.087 165.008 146.601 173.749C142.823 195.827 155.428 178.347 160.337 188.962C162.371 193.339 145.148 200.594 135.837 203.838Z" fill="#FCC71F"/>
<path d="M157.689 100.896C155.956 99.9843 153.383 102.98 153.383 104.074C153.383 105.168 155.923 114.729 159.314 119.223C162.705 123.717 168.884 124.668 171.23 114.169C177.495 122.063 183.62 119.093 182.77 109.493C181.919 99.8931 176.311 98.0435 176.311 98.0435L157.689 100.896Z" fill="white"/>
<path d="M135.298 208.006L135.836 203.838L141.821 157.571L143.694 143.112" stroke="#F7AD2B" stroke-width="0.61" stroke-linecap="round" stroke-linejoin="round"/>
<path d="M108.871 196.27C118.026 192.711 127.697 191.522 137.257 192.779" stroke="#F7AD2B" stroke-width="0.61" stroke-linecap="round" stroke-linejoin="round"/>
<path d="M174.696 129.618C176.022 129.618 177.097 128.317 177.097 126.713C177.097 125.109 176.022 123.808 174.696 123.808C173.371 123.808 172.296 125.109 172.296 126.713C172.296 128.317 173.371 129.618 174.696 129.618Z" fill="white"/>
<path d="M177.107 141.809C178.433 141.809 179.508 140.509 179.508 138.905C179.508 137.3 178.433 136 177.107 136C175.782 136 174.707 137.3 174.707 138.905C174.707 140.509 175.782 141.809 177.107 141.809Z" fill="white"/>
<path d="M114.103 237.066C103.974 232.846 107.096 214.037 108.269 204.202L119.582 200.894L136.913 195.84C136.913 195.84 139.852 241.976 114.103 237.066Z" fill="#FEBD9D"/>
<path d="M177.914 91.596C177.914 91.8565 177.763 96.715 177.656 100.206C177.656 101.743 177.559 103.019 177.537 103.501C177.473 105.117 174.642 111.838 168.721 110.014C162.801 108.191 157.828 102.029 157.677 100.896C157.526 99.763 160.239 90.4758 158.753 76.33C163.963 69.0356 179.098 73.6076 177.914 91.596Z" fill="#FEBD9D"/>
<path d="M177.915 91.5828C177.915 91.5828 177.764 96.6107 177.646 100.206C173.577 99.5285 165.805 96.6107 166.289 84.002C168.001 87.089 173.857 91.8043 177.915 91.5828Z" fill="#F4A789"/>
<path d="M227.345 164.461C227.279 164.456 227.216 164.433 227.158 164.395C227.1 164.357 227.05 164.304 227.011 164.24L207.345 130.438C207.309 130.376 207.284 130.306 207.271 130.233C207.258 130.159 207.257 130.082 207.269 130.008C207.284 129.937 207.311 129.87 207.348 129.812C207.385 129.754 207.432 129.705 207.485 129.67C208.727 128.713 210.149 128.153 211.618 128.042C214.848 128.042 218.077 131.637 222.802 140.455C231.608 156.815 228.777 162.833 227.7 164.279C227.659 164.336 227.607 164.382 227.55 164.414C227.492 164.445 227.43 164.461 227.367 164.461H227.345Z" fill="#F9F9F9"/>
<path d="M211.618 128.562C214.406 128.562 217.442 131.48 222.383 140.754C229.702 154.366 229.207 161.374 227.313 163.927L207.754 130.125C208.927 129.206 210.277 128.668 211.672 128.562M211.672 127.507C210.142 127.623 208.66 128.206 207.366 129.201C207.261 129.276 207.169 129.378 207.096 129.498C207.024 129.618 206.972 129.755 206.945 129.9C206.918 130.045 206.916 130.195 206.938 130.342C206.96 130.488 207.007 130.627 207.076 130.751L226.742 164.539C226.821 164.671 226.922 164.78 227.039 164.858C227.157 164.937 227.287 164.984 227.42 164.995C227.544 164.996 227.667 164.965 227.78 164.905C227.893 164.844 227.995 164.755 228.077 164.643C229.153 163.119 232.2 156.828 223.222 140.168C218.378 131.168 215.031 127.507 211.672 127.507Z" fill="#DDDDDD"/>
<path d="M235.429 170.635C235.346 170.636 235.264 170.609 235.192 170.557L227.129 164.383C227.074 164.335 227.028 164.272 226.995 164.2C226.962 164.128 226.941 164.049 226.936 163.966C226.931 163.887 226.941 163.807 226.965 163.732C226.99 163.658 227.027 163.591 227.076 163.536C227.955 162.559 229.111 162.028 230.305 162.052C231.202 162.09 232.083 162.354 232.891 162.827C233.699 163.3 234.417 163.972 234.998 164.8C237.237 167.796 235.87 170.401 235.849 170.427C235.801 170.504 235.737 170.565 235.663 170.601C235.589 170.638 235.508 170.65 235.429 170.635Z" fill="#F9F9F9"/>
<path d="M230.251 162.585C231.089 162.63 231.91 162.885 232.662 163.333C233.414 163.781 234.082 164.414 234.622 165.19C236.656 167.913 235.429 170.166 235.429 170.166L227.366 163.953C228.162 163.103 229.19 162.639 230.251 162.65M230.251 161.582C228.969 161.577 227.733 162.153 226.785 163.197C226.683 163.308 226.604 163.445 226.554 163.599C226.503 163.753 226.483 163.918 226.494 164.083C226.506 164.245 226.548 164.402 226.617 164.542C226.686 164.682 226.78 164.801 226.893 164.891L234.955 171.104C235.098 171.209 235.262 171.267 235.429 171.273C235.575 171.274 235.718 171.231 235.846 171.147C235.974 171.062 236.082 170.94 236.161 170.791C236.236 170.661 237.732 167.808 235.278 164.513C234.66 163.616 233.893 162.886 233.027 162.37C232.161 161.854 231.216 161.563 230.251 161.517V161.582Z" fill="#DDDDDD"/>
<path d="M165.052 158.508L209.53 126.713C209.53 126.713 224.331 145.483 227.367 163.927L180.165 193.56C180.165 193.56 174.955 173.24 165.052 158.508Z" fill="#F9F9F9" stroke="#DDDDDD" stroke-width="0.82" stroke-linecap="round" stroke-linejoin="round"/>
<path d="M182.393 192.167L193.76 196.27L235.407 170.14C233.191 167.287 230.419 165.151 227.345 163.927L182.393 192.167Z" fill="#DDDDDD" stroke="#DDDDDD" stroke-width="0.82" stroke-miterlimit="10"/>
<path d="M203.34 175.116C202.91 177.539 198.873 178.112 196.397 177.917C193.922 177.721 185.633 178.307 185.633 178.307C185.633 178.307 190.197 181.29 190.681 181.85C192.166 184.52 193.319 187.438 194.105 190.512C195.299 194.967 194.406 197.637 193.2 197.312C191.995 196.986 191.575 194.707 191.575 194.707C191.155 197.689 189.627 195.215 189.627 195.215C189.627 196.165 185.848 204.333 184.32 202.652C182.791 200.972 184.933 196.869 184.933 196.869H183.372C180.505 199.755 177.48 202.405 174.32 204.801C171.42 206.843 168.247 208.249 164.944 208.957C164.944 208.957 157.645 215.209 148.453 221.878C137.107 230.136 122.855 239.046 115.955 237.665C114.156 237.395 112.456 236.519 111.047 235.137C109.639 233.756 108.58 231.924 107.989 229.85C107.994 229.785 107.994 229.719 107.989 229.654C107.989 229.498 107.871 229.264 107.795 228.964C106.719 224.679 104.415 206.286 136.859 195.866L137.064 195.801L160.283 188.871C165.127 182.892 175.902 171.261 177.678 170.635C179.454 170.01 203.76 172.693 203.34 175.116Z" fill="#FEBD9D"/>
<path d="M184.977 196.817C184.977 196.817 182.824 200.946 184.363 202.6C185.903 204.254 189.67 196.087 189.67 195.162C189.67 195.162 191.199 197.637 191.618 194.654C191.618 194.654 192.038 196.999 193.244 197.325C194.45 197.65 195.343 194.967 194.137 190.512C193.365 187.439 192.214 184.523 190.725 181.863C190.251 181.29 185.677 178.307 185.677 178.307C185.677 178.307 193.922 177.734 196.441 177.917C198.96 178.099 202.964 177.539 203.384 175.116C203.804 172.693 179.519 170.036 177.732 170.674C176.839 170.987 173.696 174.061 170.197 177.799" stroke="#EF8A66" stroke-width="0.61" stroke-linecap="round" stroke-linejoin="round"/>
<path d="M185.677 178.307L181.543 176.327" stroke="#EF8A66" stroke-width="0.61" stroke-linecap="round" stroke-linejoin="round"/>
<path d="M182.619 182.97C182.619 182.97 189.218 186.396 189.67 187.568C190.616 189.795 191.273 192.185 191.618 194.654" stroke="#EF8A66" stroke-width="0.61" stroke-linecap="round" stroke-linejoin="round"/>
<path d="M183.361 188.871C183.361 188.871 188.259 192.531 188.851 193.248C189.254 193.816 189.535 194.496 189.669 195.228" stroke="#EF8A66" stroke-width="0.61" stroke-linecap="round" stroke-linejoin="round"/>
</svg>
