<svg width="28" height="28" viewBox="0 0 28 28" fill="none" xmlns="http://www.w3.org/2000/svg">
<path d="M19.25 3.5H15.75V1.75C15.75 0.7875 14.9625 0 14 0H10.5C9.53739 0 8.75 0.7875 8.75 1.75V3.5H5.25V7H19.25V3.5ZM14 3.5H10.5V1.75312C10.5009 1.75208 10.502 1.75098 10.5031 1.75H13.9968C13.9979 1.75098 13.999 1.75208 14 1.75312V3.5ZM22.75 8.75V4.375C22.75 3.89375 22.3563 3.5 21.875 3.5H20.125V5.25H21V8.75H15.75L10.5 14V21H3.5V5.25H4.375V3.5H2.625C2.1437 3.5 1.75 3.89375 1.75 4.375V21.875C1.75 22.3563 2.1437 22.75 2.625 22.75H10.5V28H28V8.75H22.75ZM15.75 11.2249V14H12.9749L15.75 11.2249ZM26.25 26.25H12.25V15.75H17.5V10.5H26.25V26.25Z" fill="#488AA7"/>
</svg>
