<svg width="23" height="23" viewBox="0 0 23 23" fill="none" xmlns="http://www.w3.org/2000/svg">
<g clip-path="url(#clip0_41_3000)">
<path d="M14.5181 15.5833V14.6501C15.716 13.9476 16.6931 12.1963 16.6931 10.4447C16.6931 7.63225 16.6931 5.35229 13.4307 5.35229C10.1682 5.35229 10.1682 7.63225 10.1682 10.4447C10.1682 12.1963 11.1453 13.9476 12.3432 14.6501V15.5833C8.65424 15.8971 5.81836 17.7833 5.81836 20.0637H21.0429C21.0429 17.7833 18.2071 15.8971 14.5181 15.5833Z" fill="#488AA7"/>
<path d="M7.02789 16.0204C7.9677 15.3812 9.13622 14.8952 10.4226 14.5985C10.1668 14.2841 9.93483 13.9333 9.7346 13.5549C9.21781 12.5783 8.94462 11.5028 8.94462 10.4448C8.94462 8.92337 8.94462 7.48639 9.46457 6.31138C9.96932 5.17082 10.8771 4.46368 12.17 4.19859C11.8826 2.84627 11.1176 1.9574 9.08055 1.9574C5.81814 1.9574 5.81814 4.23735 5.81814 7.04982C5.81814 8.8014 6.7952 10.5527 7.99308 11.2552V12.1884C4.30415 12.5022 1.46826 14.3884 1.46826 16.6688H6.20906C6.45574 16.4406 6.72893 16.2237 7.02789 16.0204Z" fill="#488AA7"/>
</g>
<defs>
<clipPath id="clip0_41_3000">
<rect width="19.5745" height="18.1064" fill="white" transform="translate(1.46826 1.9574)"/>
</clipPath>
</defs>
</svg>
