<svg width="20" height="20" viewBox="0 0 20 20" fill="none" xmlns="http://www.w3.org/2000/svg">
<g clip-path="url(#clip0_321_180)">
<path d="M10 0C4.47715 0 0 4.47715 0 10C0 15.5229 4.47715 20 10 20C15.5229 20 20 15.5229 20 10C20 4.47715 15.5229 0 10 0ZM10 18.75C8.77035 18.75 7.60016 18.4959 6.53848 18.0381L11.0921 12.9152C11.1938 12.8008 11.25 12.6531 11.25 12.5V10.625C11.25 10.2798 10.9702 10 10.625 10C8.41816 10 6.08977 7.70582 6.06691 7.68309C5.94973 7.56586 5.79074 7.5 5.625 7.5H3.125C2.77984 7.5 2.5 7.77984 2.5 8.125V11.875C2.5 12.1118 2.63375 12.3282 2.84551 12.434L5 13.5113V17.1809C2.73336 15.5998 1.25 12.9733 1.25 10C1.25 8.65793 1.55254 7.3866 2.09254 6.25H4.375C4.54078 6.25 4.69973 6.18414 4.81695 6.06695L7.31695 3.56695C7.43414 3.44973 7.5 3.29078 7.5 3.125V1.61305C8.29223 1.37723 9.13121 1.25 10 1.25C11.3751 1.25 12.6759 1.56758 13.8336 2.13281C13.7527 2.20121 13.6739 2.27273 13.5984 2.34836C12.89 3.05664 12.5 3.99832 12.5 5C12.5 6.00168 12.89 6.94336 13.5984 7.65164C14.31 8.3632 15.2628 8.75055 16.2475 8.75047C16.3093 8.75047 16.3713 8.74891 16.4334 8.74586C16.7032 9.75762 17.1902 12.3915 16.2692 16.018C16.2605 16.0521 16.2556 16.0861 16.2528 16.12C14.6644 17.7427 12.45 18.75 10 18.75Z" fill="#488AA7"/>
</g>
<defs>
<clipPath id="clip0_321_180">
<rect width="20" height="20" fill="white"/>
</clipPath>
</defs>
</svg>
