<svg width="13" height="18" viewBox="0 0 13 18" fill="none" xmlns="http://www.w3.org/2000/svg">
<path d="M0.8458 6.4017L1.78738 16.2189C1.83955 16.6338 3.74324 17.9982 6.49957 18C9.25761 17.9982 11.1613 16.6338 11.2126 16.2189L12.1551 6.4017C10.7149 7.2495 8.56233 7.65 6.49957 7.65C4.43852 7.65 2.28511 7.2495 0.8458 6.4017ZM9.20887 1.359L8.47425 0.5031C8.19032 0.0774 7.88244 0 7.28294 0H5.71706C5.11841 0 4.80968 0.0774 4.52661 0.5031L3.79199 1.359C1.59411 1.7631 0 2.835 0 3.6261V3.7791C0 5.1714 2.91027 6.3 6.49957 6.3C10.0897 6.3 13 5.1714 13 3.7791V3.6261C13 2.835 11.4067 1.7631 9.20887 1.359ZM8.26985 3.906L7.35478 2.7H5.64437L4.731 3.906H3.27715C3.27715 3.906 4.86955 1.9071 5.08249 1.6362C5.24498 1.4292 5.41089 1.35 5.62641 1.35H7.37359C7.58996 1.35 7.75587 1.4292 7.91836 1.6362C8.13045 1.9071 9.7237 3.906 9.7237 3.906H8.26985Z" fill="#488AA7"/>
</svg>
