<svg width="46" height="46" viewBox="0 0 46 46" fill="none" xmlns="http://www.w3.org/2000/svg">
<path d="M43.7 4.6001H2.3C1.0281 4.6001 0 5.6282 0 6.9001V39.1001C0 40.3697 1.0281 41.4001 2.3 41.4001H43.7C44.9719 41.4001 46 40.3697 46 39.1001V6.9001C46 5.6305 44.9719 4.6001 43.7 4.6001ZM41.4 36.8001H4.6V9.2001H41.4V36.8001ZM32.9245 25.0172L25.4932 28.7087L16.8222 14.6764L9.2 32.2001H36.8L32.9245 25.0172ZM30.475 20.7001C32.062 20.7001 33.35 19.4121 33.35 17.8251C33.35 16.2381 32.062 14.9501 30.475 14.9501C28.888 14.9501 27.6 16.2381 27.6 17.8251C27.6 19.4121 28.888 20.7001 30.475 20.7001Z" fill="#488AA7"/>
</svg>
