<svg width="24" height="25" viewBox="0 0 24 25" fill="none" xmlns="http://www.w3.org/2000/svg">
<g filter="url(#filter0_d_41_3036)">
<path d="M9.3125 6.375H11.4375V8.5H9.3125V6.375ZM12.5 6.375H14.625V8.5H12.5V6.375ZM15.6875 6.375H17.8125V8.5H15.6875V6.375ZM6.125 12.75H8.25V14.875H6.125V12.75ZM9.3125 12.75H11.4375V14.875H9.3125V12.75ZM12.5 12.75H14.625V14.875H12.5V12.75ZM9.3125 9.5625H11.4375V11.6875H9.3125V9.5625ZM12.5 9.5625H14.625V11.6875H12.5V9.5625ZM15.6875 9.5625H17.8125V11.6875H15.6875V9.5625ZM6.125 9.5625H8.25V11.6875H6.125V9.5625ZM17.8125 0V1.0625H15.6875V0H8.25V1.0625H6.125V0H4V17H19.9375V0H17.8125ZM18.875 15.9375H5.0625V4.25H18.875V15.9375Z" fill="#488AA7"/>
</g>
<defs>
<filter id="filter0_d_41_3036" x="0" y="0" width="25" height="25" filterUnits="userSpaceOnUse" color-interpolation-filters="sRGB">
<feFlood flood-opacity="0" result="BackgroundImageFix"/>
<feColorMatrix in="SourceAlpha" type="matrix" values="0 0 0 0 0 0 0 0 0 0 0 0 0 0 0 0 0 0 127 0" result="hardAlpha"/>
<feOffset dy="4"/>
<feGaussianBlur stdDeviation="2"/>
<feComposite in2="hardAlpha" operator="out"/>
<feColorMatrix type="matrix" values="0 0 0 0 0 0 0 0 0 0 0 0 0 0 0 0 0 0 0.25 0"/>
<feBlend mode="normal" in2="BackgroundImageFix" result="effect1_dropShadow_41_3036"/>
<feBlend mode="normal" in="SourceGraphic" in2="effect1_dropShadow_41_3036" result="shape"/>
</filter>
</defs>
</svg>
