<svg width="20" height="21" viewBox="0 0 20 21" fill="none" xmlns="http://www.w3.org/2000/svg">
<path d="M1.574 5.55025C2.062 5.82535 8.822 9.63895 9.074 9.7807C9.326 9.92245 9.652 9.98965 9.98 9.98965C10.308 9.98965 10.634 9.92245 10.886 9.7807C11.138 9.63895 17.898 5.82535 18.386 5.55025C18.875 5.2741 19.337 4.19995 18.44 4.19995H1.521C0.624002 4.19995 1.086 5.2741 1.574 5.55025ZM18.613 7.8634C18.058 8.16685 11.226 11.9049 10.886 12.0918C10.546 12.2787 10.308 12.3007 9.98 12.3007C9.652 12.3007 9.414 12.2787 9.074 12.0918C8.734 11.9049 1.941 8.1658 1.386 7.86235C0.996002 7.64815 1 7.8991 1 8.0923C1 8.2855 1 15.75 1 15.75C1 16.191 1.566 16.8 2 16.8H18C18.434 16.8 19 16.191 19 15.75C19 15.75 19 8.28655 19 8.09335C19 7.90015 19.004 7.6492 18.613 7.8634Z" fill="#488AA7"/>
</svg>
