<svg width="20" height="20" viewBox="0 0 20 20" fill="none" xmlns="http://www.w3.org/2000/svg">
<path d="M19 3H1C0.447 3 0 3.447 0 4V16C0 16.552 0.447 17 1 17H19C19.553 17 20 16.552 20 16V4C20 3.448 19.553 3 19 3ZM13 7H17V8H13V7ZM11 14.803C10.871 14.701 10.707 14.602 10.471 14.5C9.291 13.992 7.51 13.24 7.51 12.324C7.51 11.773 7.869 11.953 8.028 10.945C8.094 10.527 8.413 10.938 8.473 9.984C8.473 9.604 8.299 9.509 8.299 9.509C8.299 9.509 8.387 8.947 8.422 8.513C8.458 8.06 8.201 6.713 7.145 6.416C6.959 6.228 6.834 6.305 7.403 6.004C6.159 5.945 5.869 6.596 5.207 7.075C4.643 7.495 4.49 8.16 4.518 8.514C4.555 8.947 4.643 9.51 4.643 9.51C4.643 9.51 4.468 9.604 4.468 9.984C4.529 10.938 4.848 10.527 4.913 10.945C5.071 11.953 5.432 11.773 5.432 12.324C5.432 13.24 3.651 13.992 2.471 14.5C2.268 14.588 2.122 14.673 2 14.76V5H11V14.803ZM18 11H13V10H18V11Z" fill="#488AA7"/>
</svg>
