<svg width="18" height="18" viewBox="0 0 18 18" fill="none" xmlns="http://www.w3.org/2000/svg">
<g clip-path="url(#clip0_41_3040)">
<path d="M11.3247 6.86089C11.3247 6.55267 11.0745 6.30298 10.7668 6.30298H7.23272C6.92464 6.30298 6.6748 6.55267 6.6748 6.86089V10.3951H7.66053V14.5801H10.3388V10.3951H11.3247V6.86089Z" fill="#488AA7"/>
<path d="M10.2089 4.62885C10.2089 5.29651 9.66763 5.83777 8.99994 5.83777C8.33225 5.83777 7.79102 5.29653 7.79102 4.62885C7.79102 3.96119 8.33225 3.41992 8.99994 3.41992C9.66763 3.41992 10.2089 3.96116 10.2089 4.62885Z" fill="#488AA7"/>
<path d="M8.9889 0.360136C6.59546 0.360136 4.56959 1.1952 2.91176 2.86551C1.21019 4.5936 0.359863 6.63831 0.359863 9.00002C0.359863 11.3614 1.21019 13.3922 2.91176 15.0913C4.61281 16.7903 6.63871 17.6399 8.9889 17.6399C11.3677 17.6399 13.4296 16.7834 15.1743 15.0696C16.8177 13.4428 17.6399 11.4194 17.6399 9C17.6399 6.5806 16.8035 4.53583 15.1311 2.86548C13.4584 1.19517 11.4109 0.360107 8.9889 0.360107V0.360136ZM9.01052 1.91497C10.9714 1.91497 12.6365 2.60606 14.0065 3.98874C15.3905 5.35665 16.0824 7.02697 16.0824 9C16.0824 10.987 15.405 12.636 14.0495 13.9464C12.622 15.3575 10.9424 16.0631 9.01052 16.0631C7.07825 16.0631 5.41305 15.3649 4.01457 13.968C2.61608 12.5711 1.91684 10.9153 1.91684 9C1.91684 7.08471 2.62334 5.41437 4.03634 3.98874C5.39171 2.60606 7.04951 1.91497 9.01055 1.91497H9.01052Z" fill="#488AA7"/>
</g>
<defs>
<clipPath id="clip0_41_3040">
<rect width="18" height="18" fill="white"/>
</clipPath>
</defs>
</svg>
