<svg width="17" height="16" viewBox="0 0 17 16" fill="none" xmlns="http://www.w3.org/2000/svg">
<path d="M14.1675 3.62025C13.74 1.23865 11.4305 -0.353352 9.00889 0.0674482C6.58639 0.487448 4.54129 2.32025 4.96884 4.70345C5.05979 5.21625 5.31564 6.01865 5.61739 6.59545L1.21864 12.7738C1.05629 13.0018 0.964487 13.413 1.01294 13.6866L1.29599 15.2634C1.34529 15.537 1.61219 15.721 1.89099 15.6746L3.17959 15.4498C3.45839 15.4026 3.81199 15.1714 3.96499 14.9386L5.70494 12.2898L5.72024 12.2722L6.89834 12.0674L8.92984 8.96425C9.59709 9.07545 10.555 9.03785 11.1211 8.93945C13.5419 8.51865 14.5951 6.00345 14.1675 3.62025ZM12.0213 4.84185C11.3549 5.77785 10.6749 5.11865 9.72374 4.46185C8.77259 3.80745 7.90899 3.40425 8.57454 2.46825C9.24094 1.53225 10.5516 1.30425 11.5045 1.96025C12.4565 2.61545 12.6868 3.90585 12.0213 4.84185Z" fill="#488AA7"/>
</svg>
