<svg width="20" height="24" viewBox="0 0 20 24" fill="none" xmlns="http://www.w3.org/2000/svg">
<g clip-path="url(#clip0_32_24)">
<path d="M7.10198 23.9342C5.50802 23.9342 4.00504 23.3838 2.75469 22.3425C2.52145 22.1481 2.29703 21.9357 2.08684 21.7111C0.628265 20.1504 -0.105806 18.0723 0.020259 15.8589C0.115666 14.1862 0.738389 12.574 1.77364 11.3187C3.14564 9.65496 5.03785 8.73868 7.10173 8.73868C7.45614 8.73868 7.81447 8.76735 8.16691 8.82391C8.40727 8.86267 8.58533 9.08597 8.58533 9.34936V13.1348C8.58533 13.3052 8.50979 13.4653 8.38225 13.5652C8.25447 13.6647 8.09039 13.6923 7.94102 13.639C7.67295 13.5431 7.39433 13.4945 7.11203 13.4945C6.39955 13.4945 5.73219 13.7967 5.23259 14.3452C4.73593 14.8914 4.46786 15.6136 4.47865 16.3796C4.49214 17.3676 4.97261 18.2632 5.76358 18.7751C6.12804 19.0114 6.54327 19.1492 6.96439 19.1741C7.29696 19.1938 7.62537 19.1465 7.94078 19.0342C9.01993 18.6481 9.74518 17.5643 9.74518 16.3369L9.75033 0.569112C9.75033 0.275985 9.97008 0.0380859 10.2409 0.0380859H13.6848C13.9541 0.0380859 14.1729 0.272799 14.1754 0.564332C14.1783 0.895958 14.2095 1.22572 14.2681 1.54434C14.4994 2.80314 15.1513 3.92387 16.1029 4.70076C16.9432 5.38684 17.9448 5.75139 19.0007 5.75564C19.0384 5.75298 19.0774 5.75564 19.1162 5.76334C19.3494 5.80901 19.5191 6.02885 19.5191 6.2856V9.99747C19.5191 10.2906 19.2994 10.5285 19.0289 10.5285C19.0279 10.5285 19.0267 10.5285 19.0259 10.5285C17.7817 10.5285 16.5728 10.2643 15.4326 9.74338C14.999 9.54504 14.5805 9.31192 14.1815 9.04587L14.1969 16.3647C14.1891 18.3871 13.4501 20.2845 12.1171 21.7111C11.035 22.869 9.66915 23.6085 8.16691 23.8495C7.81692 23.9058 7.45859 23.9342 7.10198 23.9342ZM7.10198 9.80073C5.32137 9.80073 3.6889 10.5912 2.50575 12.026C1.61643 13.1042 1.08151 14.4884 0.999593 15.9243C0.891433 17.8269 1.52249 19.6138 2.77677 20.9555C2.95826 21.1495 3.15227 21.333 3.35363 21.5011C4.43009 22.398 5.72654 22.8722 7.10198 22.8722C7.41052 22.8722 7.72029 22.8475 8.02294 22.7989C9.31744 22.5915 10.4947 21.954 11.4272 20.956C12.5738 19.7293 13.209 18.0985 13.2159 16.3639L13.1982 8.03427C13.1977 7.83168 13.3039 7.64636 13.4717 7.55688C13.6397 7.46767 13.8403 7.48864 13.9882 7.61264C14.5464 8.07888 15.1606 8.46653 15.8137 8.76523C16.6829 9.16217 17.597 9.39237 18.5376 9.45131V6.79672C17.4376 6.7006 16.3999 6.27392 15.5118 5.5488C14.3674 4.615 13.584 3.26646 13.3054 1.75197C13.2667 1.53797 13.2375 1.32025 13.2188 1.10014H10.7314L10.727 16.3377C10.727 18.0237 9.7312 19.5129 8.24883 20.0432C7.81643 20.1974 7.36637 20.2611 6.91116 20.2351C6.33136 20.2009 5.76039 20.0113 5.26005 19.6871C4.17526 18.9846 3.51648 17.7544 3.4976 16.3958C3.48313 15.3433 3.85102 14.3506 4.53383 13.6005C5.21885 12.8475 6.13466 12.433 7.11203 12.433C7.2771 12.433 7.44142 12.4452 7.60428 12.4694V9.8233C7.43701 9.80816 7.269 9.80073 7.10198 9.80073Z" fill="#2A4563"/>
</g>
<defs>
<clipPath id="clip0_32_24">
<rect width="19.5512" height="24.0001" fill="white"/>
</clipPath>
</defs>
</svg>
