<svg width="25" height="24" viewBox="0 0 25 24" fill="none" xmlns="http://www.w3.org/2000/svg">
<g clip-path="url(#clip0_74_108)">
<path d="M12.4967 3.12549C8.81211 3.12549 5.35208 3.40456 3.50978 3.79482C2.28231 4.07389 1.22054 4.9111 0.998156 6.19526C0.775773 7.53392 0.551208 9.54409 0.551208 12.0557C0.551208 14.5673 0.773592 16.5208 1.05266 17.9162C1.27723 19.1437 2.33682 20.0376 3.56429 20.3166C5.51996 20.7069 8.86662 20.986 12.5512 20.986C16.2358 20.986 19.5825 20.7069 21.5359 20.3166C22.7656 20.0376 23.8252 19.2003 24.0476 17.9162C24.2721 16.5208 24.5512 14.5128 24.6057 12.0012C24.6057 9.48959 24.3266 7.47941 24.0476 6.08406C23.8252 4.85659 22.7656 3.9627 21.5359 3.68363C19.5825 3.40456 16.1791 3.12549 12.4967 3.12549ZM12.4967 4.24177C16.5149 4.24177 19.7503 4.57534 21.3136 4.85441C22.1508 5.07898 22.8201 5.63712 22.9313 6.36313C23.2671 8.14874 23.4894 10.0477 23.4894 12.0012C23.4349 14.3995 23.1559 16.353 22.9313 17.7483C22.7656 18.8079 21.6493 19.1437 21.3136 19.257C19.3034 19.6473 15.9546 19.9242 12.6057 19.9242C9.25688 19.9242 5.85353 19.7018 3.90005 19.257C3.06284 19.0325 2.3935 18.4743 2.28231 17.7483C1.83537 16.1851 1.66749 14.1204 1.66749 12.0557C1.66749 9.48741 1.89205 7.5906 2.11444 6.41982C2.28231 5.35805 3.4531 5.02229 3.73217 4.9111C5.57446 4.52084 8.97999 4.24177 12.4967 4.24177ZM9.48144 7.5906V16.5208L17.2954 12.0557L9.48144 7.5906ZM10.5977 9.48959L15.0628 12.0557L10.5977 14.6219V9.48959Z" fill="#2A4563"/>
</g>
<defs>
<clipPath id="clip0_74_108">
<rect width="24" height="24" fill="white" transform="translate(0.551208)"/>
</clipPath>
</defs>
</svg>
