<svg width="25" height="24" viewBox="0 0 25 24" fill="none" xmlns="http://www.w3.org/2000/svg">
<g clip-path="url(#clip0_32_16)">
<path d="M7.64212 0C3.73256 0 0.551208 3.18135 0.551208 7.09091V16.9091C0.551208 20.8186 3.73256 24 7.64212 24H17.4603C21.3699 24 24.5512 20.8186 24.5512 16.9091V7.09091C24.5512 3.18135 21.3699 0 17.4603 0H7.64212ZM7.64212 1.09091H17.4603C20.7802 1.09091 23.4603 3.77101 23.4603 7.09091V16.9091C23.4603 20.229 20.7802 22.9091 17.4603 22.9091H7.64212C4.32222 22.9091 1.64212 20.229 1.64212 16.9091V7.09091C1.64212 3.77101 4.32222 1.09091 7.64212 1.09091ZM19.0967 4.36364C18.8073 4.36364 18.5299 4.47857 18.3253 4.68316C18.1207 4.88774 18.0058 5.16522 18.0058 5.45455C18.0058 5.74387 18.1207 6.02135 18.3253 6.22593C18.5299 6.43052 18.8073 6.54545 19.0967 6.54545C19.386 6.54545 19.6635 6.43052 19.8681 6.22593C20.0726 6.02135 20.1876 5.74387 20.1876 5.45455C20.1876 5.16522 20.0726 4.88774 19.8681 4.68316C19.6635 4.47857 19.386 4.36364 19.0967 4.36364ZM12.5512 6C9.24396 6 6.55121 8.69275 6.55121 12C6.55121 15.3072 9.24396 18 12.5512 18C15.8585 18 18.5512 15.3072 18.5512 12C18.5512 8.69275 15.8585 6 12.5512 6ZM12.5512 7.09091C15.2689 7.09091 17.4603 9.28232 17.4603 12C17.4603 14.7177 15.2689 16.9091 12.5512 16.9091C9.83353 16.9091 7.64212 14.7177 7.64212 12C7.64212 9.28232 9.83353 7.09091 12.5512 7.09091Z" fill="#161616"/>
</g>
<defs>
<clipPath id="clip0_32_16">
<rect width="24" height="24" fill="white" transform="translate(0.551208)"/>
</clipPath>
</defs>
</svg>
