<svg width="25" height="24" viewBox="0 0 25 24" fill="none" xmlns="http://www.w3.org/2000/svg">
<path d="M15.0187 0.959961C13.449 0.959961 12.093 1.43849 11.1412 2.38402C10.1894 3.32956 9.67122 4.7154 9.67122 6.41621V8.63996H6.79122C6.66392 8.63997 6.54184 8.69055 6.45182 8.78056C6.36181 8.87058 6.31123 8.99266 6.31122 9.11996V12.96C6.31123 13.0873 6.36181 13.2093 6.45182 13.2994C6.54184 13.3894 6.66392 13.4399 6.79122 13.44H9.67122V22.56C9.67123 22.6873 9.72181 22.8093 9.81182 22.8994C9.90184 22.9894 10.0239 23.0399 10.1512 23.04H13.9912C14.1185 23.0399 14.2406 22.9894 14.3306 22.8994C14.4206 22.8093 14.4712 22.6873 14.4712 22.56V13.44H17.8312C17.9481 13.44 18.061 13.3973 18.1487 13.32C18.2364 13.2426 18.2928 13.136 18.3075 13.02L18.7875 9.17996C18.796 9.11239 18.79 9.04379 18.77 8.97871C18.7499 8.91363 18.7163 8.85356 18.6712 8.80248C18.6262 8.75141 18.5708 8.7105 18.5087 8.68248C18.4466 8.65446 18.3793 8.63997 18.3112 8.63996H14.4712V6.71996C14.4712 6.18396 14.8952 5.75996 15.4312 5.75996H18.3112C18.4385 5.75995 18.5606 5.70937 18.6506 5.61936C18.7406 5.52934 18.7912 5.40726 18.7912 5.27996V1.6059C18.7911 1.48957 18.7487 1.37726 18.672 1.28983C18.5952 1.20241 18.4894 1.14582 18.374 1.13059C17.9499 1.07431 16.4187 0.959961 15.0187 0.959961ZM15.0187 1.91996C16.1889 1.91996 17.3201 2.01358 17.8312 2.06152V4.79996H15.4312C14.3765 4.79996 13.5112 5.66524 13.5112 6.71996V9.11996C13.5112 9.24726 13.5618 9.36934 13.6518 9.45936C13.7418 9.54937 13.8639 9.59995 13.9912 9.59996H17.7675L17.4075 12.48H13.9912C13.8639 12.48 13.7418 12.5305 13.6518 12.6206C13.5618 12.7106 13.5112 12.8327 13.5112 12.96V22.08H10.6312V12.96C10.6312 12.8327 10.5806 12.7106 10.4906 12.6206C10.4006 12.5305 10.2785 12.48 10.1512 12.48H7.27122V9.59996H10.1512C10.2785 9.59995 10.4006 9.54937 10.4906 9.45936C10.5806 9.36934 10.6312 9.24726 10.6312 9.11996V6.41621C10.6312 4.90679 11.073 3.80488 11.8181 3.06465C12.5632 2.32442 13.6408 1.91996 15.0187 1.91996Z" fill="#161616"/>
</svg>
