<svg width="24" height="23" viewBox="0 0 24 23" fill="none" xmlns="http://www.w3.org/2000/svg">
<path d="M21.3009 2.75379C21.0672 2.76362 20.8396 2.82598 20.6344 2.90473C20.4313 2.98296 19.2619 3.46128 17.535 4.16883C15.8081 4.87639 13.5633 5.79777 11.3381 6.71141C6.8877 8.53869 2.51438 10.3366 2.51438 10.3366L2.54625 10.3249C2.54625 10.3249 2.2823 10.4095 2.01469 10.5882C1.88089 10.6775 1.73693 10.7929 1.61907 10.961C1.5012 11.1292 1.41503 11.3675 1.44751 11.6196C1.56156 12.505 2.51907 12.7561 2.51907 12.7561L2.52282 12.7579L6.79594 14.1595C6.90489 14.5078 8.092 18.3048 8.35313 19.1089C8.49735 19.5535 8.63233 19.81 8.77313 19.9849C8.84359 20.0725 8.91743 20.1402 8.99907 20.1898C9.03151 20.2095 9.06562 20.2242 9.09938 20.2374H9.10125C9.1054 20.2391 9.1093 20.2393 9.11344 20.241L9.10219 20.2383C9.11004 20.2413 9.11778 20.2464 9.12563 20.2491C9.14086 20.2542 9.1502 20.254 9.16969 20.2581C9.65907 20.4218 10.0641 20.1179 10.0641 20.1179L10.0809 20.1053L12.7059 17.7721L16.9659 20.9552L17.0194 20.9786C17.765 21.2959 18.4394 21.1189 18.8128 20.8277C19.1863 20.5365 19.3331 20.161 19.3331 20.161L19.3491 20.1215L22.4794 4.48598C22.5595 4.13618 22.5709 3.83382 22.4953 3.56059C22.4198 3.28737 22.2362 3.04985 22.0059 2.91821C21.7756 2.78656 21.5347 2.74397 21.3009 2.75379ZM21.3263 3.68907C21.4212 3.68485 21.4916 3.69526 21.5138 3.70794C21.5359 3.72061 21.5459 3.71895 21.5672 3.79598C21.5885 3.87302 21.6 4.03528 21.5419 4.28922L21.54 4.29462L18.4275 19.8394C18.4201 19.855 18.3553 19.9988 18.2072 20.1143C18.0561 20.2321 17.8881 20.3241 17.4422 20.1448L12.7838 16.6634L12.6525 16.5646L12.6497 16.5673L11.2566 15.5655L19.0856 6.73837C19.1458 6.67071 19.1842 6.58781 19.1962 6.49968C19.2083 6.41154 19.1934 6.32196 19.1535 6.24175C19.1135 6.16154 19.0501 6.09414 18.971 6.0477C18.892 6.00127 18.8005 5.97778 18.7078 5.98008C18.6172 5.98234 18.5291 6.00913 18.4538 6.05735L7.12501 13.2952L2.84532 11.8909C2.84532 11.8909 2.42035 11.6643 2.4 11.5064C2.39888 11.4976 2.39386 11.5055 2.41594 11.474C2.43803 11.4425 2.49354 11.3893 2.56313 11.3429C2.70232 11.2499 2.86125 11.1937 2.86125 11.1937L2.87719 11.1883L2.89313 11.182C2.89313 11.182 7.26667 9.38403 11.7169 7.55684C13.942 6.64325 16.1864 5.72254 17.9128 5.01516C19.6388 4.30797 20.886 3.79893 20.9916 3.75825C21.1118 3.71211 21.2313 3.69328 21.3263 3.68907ZM16.1344 8.64485L10.1972 15.3391L10.1944 15.3418C10.1851 15.3525 10.1764 15.3636 10.1681 15.375C10.1587 15.3875 10.15 15.4004 10.1419 15.4137C10.1085 15.4679 10.0871 15.5282 10.0791 15.5907C10.0791 15.5919 10.0791 15.5931 10.0791 15.5943L9.30563 18.9275C9.29277 18.8915 9.28377 18.8783 9.27001 18.8358V18.8349C9.02435 18.0785 7.90434 14.4975 7.74938 14.0022L16.1344 8.64485ZM10.8675 16.4361L11.9344 17.2034L10.3669 18.5959L10.8675 16.4361Z" fill="#2A4563"/>
</svg>
