<svg width="25" height="24" viewBox="0 0 25 24" fill="none" xmlns="http://www.w3.org/2000/svg">
<g clip-path="url(#clip0_33_37)">
<path d="M12.5512 0C5.9301 0 0.551208 5.37889 0.551208 12C0.551208 14.1282 1.13487 16.1144 2.10827 17.8482L0.57057 23.3376C0.546004 23.4255 0.544894 23.5182 0.567351 23.6066C0.589808 23.695 0.635047 23.776 0.698558 23.8415C0.762069 23.907 0.841633 23.9546 0.929316 23.9798C1.017 24.0049 1.10974 24.0066 1.19829 23.9847L6.92213 22.5662C8.60406 23.4641 10.5126 24 12.5512 24C19.1723 24 24.5512 18.6211 24.5512 12C24.5512 5.37889 19.1723 0 12.5512 0ZM12.5512 1.04348C18.6084 1.04348 23.5077 5.94285 23.5077 12C23.5077 18.0571 18.6084 22.9565 12.5512 22.9565C10.6093 22.9565 8.79058 22.4502 7.2095 21.5656C7.09386 21.5009 6.95797 21.4827 6.8294 21.5146L1.81683 22.7568L3.16092 17.9613C3.18016 17.8935 3.18547 17.8225 3.17653 17.7527C3.1676 17.6828 3.14461 17.6154 3.10895 17.5547C2.14809 15.9254 1.59469 14.0296 1.59469 12C1.59469 5.94285 6.49406 1.04348 12.5512 1.04348ZM8.19081 5.73913C7.85636 5.73913 7.37871 5.86356 6.98633 6.28635C6.75065 6.54029 5.7686 7.49714 5.7686 9.17935C5.7686 10.9332 6.98498 12.4465 7.13205 12.641H7.13307V12.642C7.11912 12.6236 7.31975 12.9142 7.58755 13.2626C7.85536 13.6109 8.22985 14.0685 8.70033 14.5639C9.64127 15.5546 10.9642 16.6995 12.6062 17.3998C13.3624 17.7218 13.959 17.9162 14.4109 18.0581C15.2485 18.3211 16.0114 18.2811 16.5845 18.1967C17.0135 18.1335 17.4852 17.9275 17.952 17.6321C18.4188 17.3367 18.8763 16.9694 19.078 16.4113C19.2226 16.0113 19.296 15.6415 19.3226 15.3373C19.3359 15.1852 19.3376 15.0509 19.3277 14.9266C19.3178 14.8023 19.3284 14.7071 19.2126 14.517C18.9696 14.1182 18.6946 14.1077 18.4075 13.9657C18.248 13.8868 17.794 13.665 17.3386 13.448C16.8837 13.2313 16.4898 13.0393 16.2472 12.9528C16.0939 12.8976 15.9068 12.8183 15.6368 12.8488C15.3668 12.8794 15.1001 13.0742 14.9449 13.3043C14.7977 13.5225 14.2053 14.2217 14.0247 14.4273C14.0223 14.4258 14.038 14.4331 13.9666 14.3978C13.7433 14.2872 13.4701 14.1932 13.0658 13.98C12.6616 13.7667 12.1559 13.4518 11.6025 12.964V12.963C10.7789 12.2379 10.202 11.3275 10.02 11.0217C10.0322 11.0072 10.0185 11.0248 10.0444 10.9993L10.0454 10.9983C10.2314 10.8151 10.3963 10.5963 10.5356 10.4358C10.7331 10.2083 10.8202 10.0077 10.9147 9.82031C11.1028 9.44684 10.9981 9.03586 10.8892 8.81963V8.81861C10.8967 8.83357 10.8303 8.68704 10.7587 8.518C10.687 8.34848 10.5956 8.12872 10.4979 7.89436C10.3025 7.42565 10.0844 6.89995 9.95474 6.59205V6.59103C9.80195 6.22836 9.59524 5.96708 9.32499 5.84103C9.05473 5.71498 8.81596 5.75082 8.8063 5.75034H8.80528C8.61243 5.74144 8.40079 5.73913 8.19081 5.73913ZM8.19081 6.78261C8.39197 6.78261 8.59028 6.78506 8.75637 6.7928C8.92724 6.80131 8.91661 6.80201 8.88375 6.78668C8.85036 6.77112 8.89566 6.76606 8.99278 6.9966C9.11978 7.29809 9.33895 7.8257 9.5349 8.29586C9.63288 8.53094 9.72458 8.75156 9.79781 8.92459C9.87105 9.09763 9.91073 9.19424 9.95678 9.28635V9.28736L9.9578 9.28838C10.0029 9.37747 9.99896 9.32043 9.98327 9.35156C9.87317 9.57008 9.85823 9.62374 9.74686 9.75204C9.57728 9.94739 9.40431 10.1653 9.31276 10.2554C9.23265 10.3341 9.08812 10.4567 8.99788 10.6967C8.9075 10.937 8.94968 11.2667 9.09469 11.5129C9.28775 11.8407 9.92394 12.8762 10.9126 13.7466C11.5353 14.2955 12.1153 14.6587 12.5787 14.9032C13.0421 15.1476 13.4195 15.2904 13.504 15.3322C13.7045 15.4315 13.9237 15.5085 14.1786 15.4779C14.4334 15.4473 14.6532 15.2927 14.7931 15.1345L14.7941 15.1335C14.9802 14.9224 15.5334 14.2908 15.7988 13.9015C15.8101 13.9055 15.8064 13.9024 15.8946 13.9341V13.9351H15.8956C15.9359 13.9495 16.4404 14.1753 16.8902 14.3896C17.34 14.6039 17.7965 14.8267 17.9449 14.9001C18.159 15.0061 18.2601 15.0751 18.2863 15.0754C18.288 15.1213 18.2898 15.1711 18.2832 15.2466C18.2649 15.4562 18.2089 15.7462 18.0967 16.0567C18.0418 16.2087 17.7556 16.5223 17.3946 16.7507C17.0337 16.9791 16.5943 17.1404 16.4316 17.1644C15.9425 17.2365 15.3616 17.2628 14.7238 17.0625C14.2815 16.9237 13.73 16.744 13.0159 16.4399C11.5676 15.8222 10.3367 14.7712 9.45746 13.8454C9.01782 13.3826 8.66559 12.9517 8.415 12.6257C8.16488 12.3003 8.05566 12.131 7.96459 12.0112L7.96357 12.0102C7.80192 11.7964 6.81208 10.4196 6.81208 9.17935C6.81208 7.86678 7.42173 7.35205 7.75162 6.9966C7.9248 6.81 8.11414 6.78261 8.19081 6.78261Z" fill="#2A4563"/>
</g>
<defs>
<clipPath id="clip0_33_37">
<rect width="24" height="24" fill="white" transform="translate(0.551208)"/>
</clipPath>
</defs>
</svg>
