<svg xmlns="http://www.w3.org/2000/svg" viewBox="0 0 917.04 773"><defs><style>.cls-2{fill:#fff}.cls-14,.cls-18,.cls-3{fill:none}.cls-3{stroke:#000}.cls-18,.cls-3{stroke-miterlimit:10}.cls-10{fill:#50b89d}.cls-8{fill:#ab8de5}.cls-9{fill:#73e5e2}.cls-11{fill:#f98b67}.cls-12{fill:#1f161e}.cls-13{fill:#fbdc8e}.cls-14{stroke:#fff;stroke-linejoin:round;stroke-width:.4px}.cls-14,.cls-18{stroke-linecap:round}.cls-15{fill:#b37361}.cls-16{fill:#f8cdba}.cls-17{fill:#fa9e9f}.cls-18{stroke:#1f161e}.cls-19{fill:#969696}</style></defs><g id="Layer_2" data-name="Layer 2"><circle id="Background" cx="468.03" cy="386.5" r="386.5" style="fill:#faefe9"/><g id="Middle_ground" data-name="Middle ground"><path d="M445.53 218h237v367h-237z" class="cls-2"/><path d="M398.03 442h243M398.03 466h243M398.03 490h243M398.03 514h243" class="cls-3"/><circle cx="564.03" cy="325" r="62" style="fill:#f2f2f2"/><path d="M641.03 348.5h98v91h-98z" style="opacity:.7;fill:#50b89d"/><text style="font-size:44.04px;font-family:ProximaNova-Medium,Proxima Nova;fill:#fff" transform="matrix(.6 0 0 1 666.15 408.41)">&lt; / &gt;</text><path d="M36.03 37.5h529v348h-529zM36.03 56h529" class="cls-3"/><path d="M74.53 87h159v159h-159zM264.03 101h243M264.03 125h243M264.03 149h243M264.03 173h243" class="cls-3"/><path d="m154.03 129-43.3 75h86.6l-43.3-75z" style="opacity:.44;fill:#50b89d"/><circle cx="47.53" cy="47" r="4.5" class="cls-8"/><circle cx="63.03" cy="47" r="4.5" class="cls-9"/><circle cx="78.53" cy="47" r="4.5" class="cls-10"/><path d="m269.03 321.25 15-13.25h-15.3l.3 13.25z" class="cls-8"/><rect width="116" height="51" x="254.03" y="258.5" class="cls-8" rx="20.68" ry="20.68"/><circle cx="296.53" cy="284" r="4.5" class="cls-2"/><circle cx="312.03" cy="284" r="4.5" class="cls-2"/><circle cx="327.53" cy="284" r="4.5" class="cls-2"/><path d="m744.03 171.25-15-13.25h15.3l-.3 13.25z" class="cls-9"/><rect width="116" height="51" x="643.03" y="108.5" class="cls-9" rx="20.68" ry="20.68" transform="rotate(-180 701.03 134)"/><circle cx="716.53" cy="134" r="4.5" class="cls-2"/><circle cx="701.03" cy="134" r="4.5" class="cls-2"/><circle cx="685.53" cy="134" r="4.5" class="cls-2"/><circle cx="736.03" cy="42.5" r="4.5" class="cls-11"/><circle cx="745.53" cy="61" r="4.5" class="cls-11"/><circle cx="642.03" cy="243.5" r="7" class="cls-11"/><circle cx="683.03" cy="267.5" r="7" class="cls-11"/><circle cx="53.03" cy="275.5" r="7" class="cls-11"/><path d="M658.23 595.25v-1l-2.4-3-5.55-6.74-5.9-7.14s-5.68-3.93-7.14-4.61c-5.32-2.46-10.56-4.34-16.82-4.34-3.85 0-18.24.58-18.27 3 0 3.59 20.15 17.18 34.93 23.78 6.49.05 21.15.05 21.15.05Z" class="cls-12"/><path d="M655.18 595.25c-20.51-15.78-62.38-101.85-51.64-133.75 22.86 11.65 47.94 51.82 59.77 85.74a60.79 60.79 0 0 1 1.53 6.71l4.8 22 1.16 19.33Z" class="cls-13"/><path d="M669.18 595.25c-6.92-5.62-9.13-22.26-9.19-28.47-.11-11.59 1.67-20.13 11.58-32.88s7.27-33.9 20.43-48.17 21.88-18.25 37.5-18.25 20.58 25.32 20.5 31.69c-.18 25.7-16.37 29.34-26.25 41.6-7.17 8.9-7.73 16.18-9.9 20.34-11.64 22.42-21.1 30.85-28.1 34.14" class="cls-9"/><path d="M673 593.39c.2-43.83 46.39-109.66 56.26-119.53" class="cls-14"/><path d="M675.49 573.47c-5.11-5.57-9.76-21.36-9.06-25.46M662.4 591.47c-7.24-12.83-41.59-75.39-54.4-121.47" class="cls-14"/><path d="M685.79 595.25h21.52l-18 67h-48.13l-17.71-67h62.32" class="cls-15"/><path d="M609.19 572.78c10.49.72 23.69 1.2 33 7.55" class="cls-14"/></g><g id="Man"><path d="M775.47 321c-2.53 12.07-20.91 161.79-14.9 197.55s104 110.69 108.29 112c5-3.67 12.36-15.7 12.36-15.7s-71.85-83.29-73.22-86.63S823.74 332 823.74 332Z" class="cls-12"/><path d="m892.49 348.25-73.31 299.01h-24.69l25.02-311.93 72.98 12.92z" class="cls-8"/><path d="M840.42 177.05c10.12 0 62.91 1.71 72.45 20.29s.55 104.46-5.38 107.79c-3.2 1.79-4.07.05-5 3.69s-10 39.43-10 39.43c-5.76.16-89.74-12.49-117-27.28.16-4.11 1.48-14.8 1.48-15.62-3.62 1.48-8 1.79-9.2 0-10.64-16.11 5.22-100.1 16.6-117 4.84-7.25 39.81-11.25 56.05-11.3Z" class="cls-13"/><path d="M875.18 307.45c2.48 0 23.83 15 22 22.37 1.5-5.92 6.22-24.21 6.22-24.21-2.03.39-26.4 1.87-28.22 1.84Z" class="cls-12"/><path d="M853.49 186.85c0 3.26-25.71 3.26-25.71 0v-33h25.71Z" class="cls-16"/><path d="M838.74 161.66c2 0 14.75 5.64 14.75 8.78v-16.59c-3.18 0-14.75 7.81-14.75 7.81Z" class="cls-12"/><circle cx="835.22" cy="139.06" r="25.01" class="cls-16"/><path d="M826.76 102.5c-12.84 0-20.84 8.06-20.84 18.39 0 8.59 2.08 13.45 4.53 14.68 1.55-8.34 4.92-12.2 7.71-13.86 2.17 1.66 5.88 5.68 10.84 6.92s17.87 1 28.3 8.58c3.41-3.1 6.81-7.13 6.81-11.88s-2.1-10.71-14.45-14.15c-8.16-2.27-9.3-8.68-22.9-8.68Z" class="cls-12"/><ellipse cx="811.85" cy="144.21" class="cls-17" rx="4.38" ry="2.28"/><ellipse cx="839.4" cy="144.21" class="cls-17" rx="4.38" ry="2.28"/><path d="M822.55 139.48c-.82 1.17-5 6.08-.59 8.06M830.79 153.28c1.32 0 3.35-1.64 4.42-3.11" class="cls-18"/><circle cx="858.34" cy="141.94" r="5.78" class="cls-16"/><path d="M875.76 226.26c-.45 5.52-2.21 32.8-1.55 36.39-8.39 2.92-85.21 39.35-98.5 43.35M786.54 217.65c-1.77 6.18-7.73 34.23-3.54 47.26" class="cls-18"/><path d="M806.15 293.24c4 2.81 42.34 19.78 95.35 13.38" class="cls-18"/><path d="M802.48 264.91c2.57.41-5.81-6.28-10.56-3.79s-11.15 13.76-9.84 16.37a3.38 3.38 0 0 0 5 1.66c1.29-.83 10.92-14.96 15.4-14.24Z" class="cls-16"/><path d="M880.4 616.08c1.37 1 13.52 9.22 13.62 14.4s-11.32 22.35-13.62 22.84-3.94-1.45-3.94-4.92 4.34-9.55 3.76-12.25-6.19-7.64-9.07-7.73M816.84 647.26c0 2.38 1.38 17.32-1.38 18.71s-33.22 2.21-34.6.83-2.22-4.29-1-5.12 13-3.19 14.6-4.29 3.81-7 3-10.13" class="cls-12"/></g><g id="Woman"><path d="M26.01 536.34h193.38v98.09H26.01z" class="cls-15"/><path d="M314.66 490.37c.84 5 15.1 119.31 17.41 121.2s26.84 6.08 28.94 2.94c.42-5 1-84.72 2.3-91.85" class="cls-12"/><path d="M38.76 466.52c-9.89-4.87 10.73 91.67 65 91.67s145.62-82.67 160.41-82.67c32.65 0 109.94 64.1 116 64.1 4.64-4.64 13.92-12.76 13.92-16s-74-125-129.37-125c-21.47.03-203.63 78.93-225.96 67.9Z" class="cls-10"/><path d="M69.3 468.16c10.85-2.46 24.35-8.83 36.3-15.34-32.51 10.63-59.15 17.5-66.84 13.7-5.24-2.58-1.92 23.26 10.4 48.15-2.23-4.81-5.41-40.67 20.14-46.51Z" class="cls-12"/><path d="M93.22 298.8c8.55.23 53.06-1.08 65.26 10.54 9.05 8.62 37.19 82.75 41.53 108.78C181.11 427.73 44.79 493 2.6 464.3 1.67 442 6 353.35 33.59 306.86c10.09-6.72 51.41-8.27 59.63-8.06Z" class="cls-9"/><path d="M110.56 277.59h-26v27.94c0 7 26 6.94 26 0Z" class="cls-16"/><path d="M84.56 294.46c0-3.1 8.59-10.89 13.9-10.61.13-3.45-12.13-8.41-12.13-8.41l-1.77 4.77Z" class="cls-12"/><path d="M137.79 277.59a39.08 39.08 0 0 0 .88-8.23c0-20.62-16.11-37.34-36-37.34s-36 16.72-36 37.34a39.08 39.08 0 0 0 .88 8.23Z" class="cls-12"/><path d="M128.3 252.42c-4.41-.67-8.81-4.14-11.88-6.41C98.92 258.83 87.71 259 86.5 259s-6.14 7.08-8.41 7.88l-.2-.12a27.3 27.3 0 1 0 52.47-14.33 8.36 8.36 0 0 1-2.06-.01Z" class="cls-16"/><circle cx="83.17" cy="226.05" r="10.62" class="cls-12"/><path d="M87.9 258.43a4.47 4.47 0 0 0 0 8.93M121.94 259c1.31 1.75 4.68 4.82 0 8.07M107.75 269.41c0 1.31.56 4.44 3.37 5.25" class="cls-18"/><ellipse cx="99.04" cy="267.58" class="cls-17" rx="4.12" ry="2.14"/><ellipse cx="129.67" cy="267.58" class="cls-17" rx="4.12" ry="2.14"/><path d="m157.54 376.07 27.79-7.15C188 373.46 201 418.07 201 418.07l-42.9 18.08c.56-8.45 2.25-47.15-.56-60.08Z" class="cls-16"/><path d="M60.1 369.08c0 3.36-2.83 16.15-4.5 22.16M157.54 376.07c-.67-5.29-4.59-35.1-11.26-50.79" class="cls-18"/><path d="m157.54 376.07 27.79-7.15C188 373.46 201 418.07 201 418.07l-42.9 18.08c.56-8.45 2.25-47.15-.56-60.08Z" class="cls-16"/><path d="M381 537.26c.62 1 8.9 11.16 11.83 11.27s20.72-11.94 19.94-14.53-11.94-.9-13.86-1.81-6.21-5.19-6.91-7.09M337.25 612.63c-.21 1.11-1.34 14.2.69 16.32s23.2 5.8 24.43 3.39-8-8.94-8.71-10.92-.86-8 0-9.88" class="cls-12"/><path d="M304.06 420.87h-94.17l22.42-59.41h94.17l-22.42 59.41z" class="cls-19"/><path d="M131.42 418.63h94.17v2.24h-94.17z" class="cls-19"/><path d="M55.6 391.24C53.79 398 45 427 48.58 432s93.24-6.33 117.23-13.8c6.11-2 10.64-7.24 13.35-7.92a14.31 14.31 0 0 1 16.16 10.22c-9.58 4.64-147.9 75.26-192.72 43.83-8.47-6.07 6.39-80.07 7.07-83.8 7.57.91 45.93 10.71 45.93 10.71Z" class="cls-16"/><path d="M158.82 420c2.7-.64 5.06-1.27 7-1.87 6.11-2 10.64-7.24 13.35-7.92a14.31 14.31 0 0 1 16.16 10.22" class="cls-18"/></g></g></svg>