<svg xmlns="http://www.w3.org/2000/svg" width="499" height="1000" version="1.0" viewBox="0 0 374.25 749.999983"><path fill="#683f1d" d="M171.574219 665.214844v48.925781h79.207031s4.734375-4.554687-9.667969-11.632813c-13.589843-6.648437-21.796875-13.078124-28.605469-28.632812Zm0 0"/><path fill="#a7caf0" d="M170.03125 678.578125h49.9375l2.589844-386.042969-48.507813 3.671875Zm0 0"/><path fill="none" stroke="#83addf" stroke-linecap="round" stroke-linejoin="round" stroke-width=".377" d="M91.838024 109.868349c2.122537-.339266 2.956079-1.113841 2.956079-1.113841m5.284505-11.117206c-.127277 4.011324 1.284004 8.893266 3.04093 10.177987" transform="matrix(3.130467 0 0 3.131759 -105.171666 .754773)"/><path fill="#683f1d" d="M130.046875 685.625v34.433594h79.207031s4.730469-4.554688-9.671875-11.632813c-13.585937-6.648437-21.777343-13.082031-28.605469-28.617187Zm0 0"/><path fill="none" stroke="#91613d" stroke-linecap="round" stroke-linejoin="round" stroke-width=".377" d="M100.445466 229.695436s1.511107-1.453107-3.088347-3.713219c-4.341156-2.122909-6.957828-4.177215-9.137765-9.137737" transform="matrix(3.130467 0 0 3.131759 -105.171666 .754773)"/><path fill="#a7caf0" d="M104.792969 251.105469c-6.925781 93.730469-3.320313 156.765625 2.84375 236.769531 6.160156 80.003906 16.144531 197.765625 16.144531 197.765625h52.144531l3.839844-400.714844Zm0 0"/><path fill="none" stroke="#83addf" stroke-linecap="round" stroke-linejoin="round" stroke-width=".377" d="m89.795347 218.700466 1.001998-107.367784" transform="matrix(3.130467 0 0 3.131759 -105.171666 .754773)"/><path fill="#fed81d" d="M369.261719 205.1875c0 15.140625-5.664063 28.617188-14.503907 37.359375-5.5625 5.703125-12.929687 9.300781-20.847656 10.171875-.53125 0-1.078125.082031-1.660156.097656h-1.277344c-16.050781 0-29.804687-12.28125-35.484375-29.714844-1.890625-5.792968-2.847656-11.851562-2.824219-17.949218 0-14.671875 5.316407-27.769532 13.671876-36.558594 3.128906-3.441406 6.925781-6.207031 11.164062-8.125 4.238281-1.917969 8.820312-2.949219 13.472656-3.027344 21.078125.082032 38.289063 21.421875 38.289063 47.746094Zm0 0"/><path fill="#fcc71f" d="M354.675781 242.546875c-5.5625 5.703125-12.933593 9.300781-20.847656 10.171875-.535156 0-1.082031.082031-1.664063.097656h-1.277343c-16.046875 0-29.800781-12.28125-35.484375-29.714844 17.710937 10.386719 24.636718 31.578126 55.734375 20.722657 1.148437-.265625 2.324219-.78125 3.539062-1.277344Zm0 0"/><path fill="#fed81d" d="M351.132812 243.859375c-2.144531 2.5625-4.777343 4.664063-7.753906 6.1875-2.972656 1.519531-6.222656 2.429687-9.550781 2.671875-.535156 0-1.082031.082031-1.664063.097656h-1.277343c-4.722657 0-9.417969-.71875-13.921875-2.125-28.109375-8.3125-59.652344-28.820312-80.054688-41.550781l-.28125-.179687c-4.800781-3.011719-8.953125-5.550782-12.292968-7.414063l-1.660157-.878906c-7.527343-3.988281-13.605469-12.929688-17.3125-23.269531-.710937-2.027344-1.34375-4.101563-1.875-6.214844-6.644531-25.941406 1.410157-56.503906 36.8125-44.355469 6.644531 2.277344 15.433594 6.964844 25.234375 13.078125 14.035156 8.910156 27.601563 18.535156 40.648438 28.835938 23.105468 18.03125 43.441406 36.5625 47.910156 44.65625 2.457031 4.832031 3.484375 10.265624 2.960938 15.660156-.523438 5.398437-2.578126 10.53125-5.921876 14.800781Zm0 0"/><path fill="#fcc71f" d="M354.675781 242.546875c-5.5625 5.703125-12.933593 9.300781-20.847656 10.171875-.535156 0-1.082031.082031-1.664063.097656h-1.277343c-4.722657 0-9.417969-.71875-13.921875-2.125-28.109375-8.3125-59.652344-28.820312-80.054688-41.550781 0 0-.082031-.097656-.28125-.179687-4.800781-3.007813-8.953125-5.550782-12.292968-7.414063l-1.660157-.878906c-7.527343-3.988281-13.605469-12.929688-17.308593-23.269531-.714844-2.027344-1.347657-4.101563-1.878907-6.214844 11.628907-1.859375 25.050781-.746094 40.035157 5.71875 5.730468 2.492187 16.429687 7.046875 10.398437 15.140625-7.59375 10.1875-1.296875 25.875 21.480469 25.875 7.003906-.109375 13.902344 1.71875 19.933594 5.285156 17.710937 10.386719 24.636718 31.574219 55.734374 20.722656 1.214844-.367187 2.390626-.882812 3.605469-1.378906Zm0 0"/><path fill="#ffe05c" d="M265.601562 139.839844c-5.527343-.421875-11.089843-.054688-16.515624 1.097656-9.464844 2.011719-20.792969 6.914062-27.789063 18.710938-4.136719 6.839843-9.523437 12.839843-15.882813 17.683593-9.582031-26.90625-3.320312-63.683593 34.886719-50.570312 6.710938 2.277343 15.5 6.960937 25.300781 13.078125Zm0 0"/><path fill="#f7ad2b" d="M253.972656 123.089844c-2.992187-.734375 1.179688-11.320313 9.136719-21.289063 7.492187-9.390625 12.226563-14.507812 14.503906-11.367187 1.390625 1.894531-.667969 31.808594-23.640625 32.65625Zm0 0"/><path fill="#b25e47" d="M266.546875 124.019531c-9.535156-13.296875-15.816406-24.199219-20.28125-27.789062-4.472656-3.589844-8.589844-5.367188-9.074219-9.554688-.125-3.015625.585938-6.007812 2.050782-8.648437 1.464843-2.640625 3.632812-4.820313 6.257812-6.308594 6.644531-3.804688 35.746094 31.957031 35.746094 31.957031s.964844 17.832031-14.699219 20.34375Zm0 0"/><path fill="#ddd" stroke="#ededed" stroke-linecap="round" stroke-linejoin="round" stroke-width=".504" d="M103.79336 16.31319c1.809334-1.799857 3.714751-1.507988 7.780139 2.260112 4.064141 3.768101 8.558778 5.726365 9.508367 8.772277 1.035688 3.289137-1.718245 5.900988-5.39057 5.459443-1.290243-.153418-3.311707-.381675-1.290243-5.00293l-5.434244-4.570116s-1.512354 2.271338-3.835789 1.630225c-2.399553-.663565-5.5453-4.351838-1.33766-8.549011Zm0 0" transform="matrix(3.130467 0 0 3.131759 -105.171666 .754773)"/><path fill="#b25e47" stroke="#934735" stroke-linecap="round" stroke-linejoin="round" stroke-width=".377" d="M115.324437 23.848144c.875968.451523 3.295485-3.040923 2.122537-3.714467-1.528576-.923003-2.998504 3.26918-2.122537 3.714467Zm0 0" transform="matrix(3.130467 0 0 3.131759 -105.171666 .754773)"/><path fill="none" stroke="#ededed" stroke-linecap="round" stroke-linejoin="round" stroke-width=".504" d="M114.407292 27.802092c.616421-1.080164 1.590967-1.910867 2.753932-2.351165m-8.178193-2.217703c.326928-.472728.552783-1.007821.663839-1.570354.111055-.563781.106064-1.143776-.016222-1.703815" transform="matrix(3.130467 0 0 3.131759 -105.171666 .754773)"/><path fill="#b25e47" stroke="#934735" stroke-linecap="round" stroke-linejoin="round" stroke-width=".377" d="M109.005492 28.045316c.714999 1.623988 2.778888-.742145 3.628652-3.019719.812329-2.170306.616421-2.653012-.621413-2.434734-1.235339.217031-3.974298 3.295373-3.007239 5.454453Zm1.814326-7.174483c.980784.498921 3.714751-3.352749 2.409535-4.107366-1.746944-1.01281-3.402798 3.608445-2.409535 4.107366Zm0 0" transform="matrix(3.130467 0 0 3.131759 -105.171666 .754773)"/><path fill="#b25e47" stroke="#934735" stroke-linecap="round" stroke-linejoin="round" stroke-width=".377" d="M112.369607 21.694053c.985775.497673 3.714751-3.360233 2.414526-4.113603-1.745697-1.007821-3.40155 3.614682-2.414526 4.113603Zm0 0" transform="matrix(3.130467 0 0 3.131759 -105.171666 .754773)"/><path fill="#b25e47" stroke="#934735" stroke-linecap="round" stroke-linejoin="round" stroke-width=".377" d="M113.875722 22.871506c.939606.477717 3.550039-3.215545 2.308461-3.937733-1.660844-.997842-3.24682 3.433823-2.308461 3.937733Zm0 0" transform="matrix(3.130467 0 0 3.131759 -105.171666 .754773)"/><path fill="#fed81d" d="M253.972656 123.085938c12.074219 17.035156 45.332032 66.476562 57.910156 83.097656 16.296876 21.605468 55.316407 25.078125 55.332032-16.171875 0-20.441407-89.605469-99.597657-89.605469-99.597657s-4.550781 24.214844-23.636719 32.671876Zm0 0"/><path fill="none" stroke="#f7ad2b" stroke-linecap="round" stroke-linejoin="round" stroke-width=".377" d="M118.396563 40.659285c4.75044-1.591558 6.368859-6.956206 6.368859-6.956206" transform="matrix(3.130467 0 0 3.131759 -105.171666 .754773)"/><path fill="none" stroke="#ededed" stroke-linecap="round" stroke-linejoin="round" stroke-width="1.014" d="M120.605199 30.959014c7.083858 9.790076 9.60944 16.476864 7.922391 19.103683-1.687049 2.626818-5.48166 1.199905-5.099828-.997842.53157-2.742818 5.089846-3.443802 3.184429 3.932744-1.905417 7.375299-7.067636 8.01267-7.959825 5.958363-1.267783-2.832623 4.011732-5.836127 4.558275 1.592805.546544 7.428933-7.742705 9.30737-10.082362 7.428933-2.339657-1.878437 4.21887-6.734185 4.117797 1.43814-.101073 8.172325-9.754187 8.415548-14.110316 7.322912" transform="matrix(3.130467 0 0 3.131759 -105.171666 .754773)"/><path fill="none" stroke="#f7ad2b" stroke-linecap="round" stroke-linejoin="round" stroke-width=".377" d="M114.725485 39.06149c3.857003 5.439486 14.480918 21.226591 18.498889 26.533863 1.191665 1.559128 2.720241 2.828881 4.472176 3.714466" transform="matrix(3.130467 0 0 3.131759 -105.171666 .754773)"/><path fill="#fed81d" d="M72.382812 263.085938c.074219 6.019531-1.269531 11.972656-3.917968 17.378906-2.648438 5.40625-6.53125 10.113281-11.332032 13.746094-5.589843 4.117187-12.34375 6.347656-19.285156 6.367187h-.101562c-4.347656-.019531-8.648438-.925781-12.640625-2.660156-12.757813-5.484375-21.777344-19.011719-21.777344-34.898438v-.898437c.066406-5.292969 1.21875-10.511719 3.390625-15.335938 2.167969-4.828125 5.304688-9.15625 9.21875-12.71875 4.042969-3.632812 8.914062-6.226562 14.183594-7.558594 2.527344-.640624 5.121094-.964843 7.726562-.964843 13.6875 0 25.53125 8.65625 31.113282 21.207031 1.234374 2.75 2.136718 5.640625 2.691406 8.605469.503906 2.546875.746094 5.136719.730468 7.730469Zm0 0"/><path fill="#fcc71f" d="M37.746094 300.578125c-4.347656-.019531-8.648438-.921875-12.640625-2.660156-12.757813-5.484375-21.777344-19.011719-21.777344-34.898438v-.898437c.066406-5.289063 1.21875-10.511719 3.390625-15.335938 2.167969-4.828125 5.304688-9.15625 9.21875-12.714844-2.773438 36.542969 1.144531 55.375 21.808594 66.507813Zm0 0"/><path fill="#fed81d" d="M141.476562 154.066406c-.949218 3.007813-2.0625 6.097656-3.324218 9.238282-1.261719 3.140624-2.410156 5.800781-3.785156 8.742187-.449219.929687-.898438 1.84375-1.363282 2.777344-1.429687 2.914062-2.980468 5.832031-4.652344 8.757812-.566406.996094-1.113281 1.976563-1.660156 2.941407-9.84375 16.238281-21.011718 31.636718-33.390625 46.035156-2.839843 3.320312-5.75 6.644531-8.722656 9.820312l-2.09375 2.226563c-2.207031 2.328125-4.433594 4.621093-6.644531 6.832031-1.378906 1.34375-2.757813 2.691406-4.136719 3.96875-16.792969 15.804688-34.101563 27.308594-48.171875 27.621094-1.3125.039062-2.625-.035156-3.921875-.214844-3.847656-.425781-7.449219-2.101562-10.25-4.769531-3.753906-3.65625-5.746094-9.15625-5.980469-15.871094-.382812-12.53125 5.414063-29.265625 17.460938-45.96875.664062-.914063 1.34375-1.878906 2.058594-2.890625 11.792968-16.917969 29.203124-45.601562 48.507812-68.9375 17.691406-21.402344 37.042969-38.320312 55.183594-37.492188 1.453125.0625 2.898437.246094 4.320312.550782 15.746094 3.289062 18.039063 22.652344 10.566406 46.632812Zm0 0"/><path fill="#fcc71f" d="M22.765625 261.738281c-2.566406 3-3.917969 6.847657-3.785156 10.792969.128906 3.945312 1.738281 7.695312 4.5 10.515625-1.3125.035156-2.625-.035156-3.921875-.21875-3.847656-.421875-7.445313-2.097656-10.25-4.769531-3.753906-3.65625-5.746094-9.15625-5.980469-15.871094-.382813-12.53125 5.417969-29.265625 17.460937-45.964844.664063-.917968 1.34375-1.878906 2.058594-2.894531 3.664063 3.632813 6.191406 8.253906 7.277344 13.296875.949219 4.011719 1.289062 8.148438 1.011719 12.265625-.496094 8.523437-3.4375 17.066406-8.371094 22.847656Zm0 0"/><path fill="none" stroke="#f7ad2b" stroke-linecap="round" stroke-linejoin="round" stroke-width=".377" d="M77.737691 51.903715c-1.029449 2.568195-2.257301 5.051574-3.671078 7.43018-3.144499 5.185036-6.712008 10.101902-10.666341 14.698211-1.794361 2.122908-3.678565 4.144785-5.593964 6.034448" transform="matrix(3.130467 0 0 3.131759 -105.171666 .754773)"/><path fill="#ffe05c" d="M141.476562 154.066406c-8.457031-10.371094-17.828124-16.003906-33.226562-16.085937-9.550781 0-21.414062 2.042969-36.8125 6.414062 17.660156-21.421875 37.011719-38.339843 55.152344-37.511719 1.453125.0625 2.898437.246094 4.320312.550782 15.746094 3.289062 18.039063 22.652344 10.566406 46.632812Zm0 0"/><path fill="#fed81d" d="M249.085938 140.9375c-.660157 14.691406-6.925782 42.558594-11.3125 63.847656-.28125 1.414063-.582032 2.875-.863282 4.355469-5.445312 28.054687-10.933594 70.066406-10.964844 76.449219 0 21.1875-14.683593 17.363281-55.699218 16.21875-20.199219-.566406-42.511719-1.3125-59.171875-4.636719-4.695313-.863281-9.296875-2.179687-13.738281-3.9375-7.957032-3.324219-12.558594-8.011719-11.761719-14.742187.113281-.824219.285156-1.640626.515625-2.445313 3.992187-14.175781 6.40625-28.75 7.210937-43.457031.582031-7.992188.894531-16.054688 1.277344-24.378906.300781-7.082032.648437-14.34375 1.246094-21.871094 1.148437-15.105469 6.394531-33.238282 12.34375-48.328125 6.828125-17.367188 14.601562-30.777344 18.273437-31.078125h.230469c6.8125-.515625 24.089844 1.796875 49.40625 2.292968 10.71875.246094 21.332031 2.179688 31.445313 5.734376 4.4375 1.5625 22.277343 6.765624 32.910156 11.851562 2.820312 1.125 5.382812 2.824219 7.523437 4.984375 1.015625 1.34375 1.347657 4.621094 1.128907 9.140625Zm0 0"/><path fill="#fcc71f" d="M111.074219 297.136719c-4.695313-.859375-9.296875-2.179688-13.738281-3.9375-7.957032-3.324219-12.558594-8.011719-11.761719-14.742188.113281-.824219.285156-1.640625.515625-2.441406 3.992187-14.179687 6.40625-28.753906 7.210937-43.460937.582031-7.992188.894531-16.054688 1.277344-24.378907l35.050781-33.355469c9.621094 16.089844-8.851562 47.214844-21.164062 55.207032-12.308594 7.996094-11.460938 23.765625 14.488281 29.285156 19.683594 4.1875-.816406 27.023438-11.878906 37.824219Zm0 0"/><path fill="#ffe05c" d="M265.597656 139.839844c-5.523437-.421875-11.089844-.054688-16.511718 1.097656-9.46875 2.011719-20.796876 6.914062-27.789063 18.714844-4.140625 6.835937-9.527344 12.835937-15.882813 17.679687-16.613281 12.632813-38.855468 16.453125-53.160156-7.210937-3.242187-5.601563-6.871094-10.964844-10.863281-16.054688-8.457031-10.371094-17.824219-16.003906-33.222656-16.085937-9.554688 0-21.414063 2.042969-36.8125 6.414062 17.742187-21.421875 37.09375-38.339843 55.234375-37.507812 6.808594-.515625 24.085937 1.792969 49.402344 2.292969 10.71875.242187 21.332031 2.179687 31.449218 5.734374 4.433594 1.558594 22.273438 6.761719 32.90625 11.847657 6.660156 2.277343 15.453125 6.964843 25.25 13.078125Zm0 0"/><path fill="#683f1d" d="M196.625 134.921875s4.71875 15.289063 6.644531 16.617187l7.957031 1.246094c2.597657-4.644531 4.773438-9.511718 6.511719-14.542968l-8.484375-12.046876Zm6.511719 16.652344-18.273438 69.683593s2.109375 9.304688 12.542969 23.464844c0 0 10.550781-13.777344 12.777344-19.742187l.878906-72.160157Zm0 0"/><path fill="#fff" d="M183.320312 103.660156c-4.320312.132813-13.289062 4.105469-13.289062 7.726563 0 3.625 8.070312 32.324219 21.0625 39.472656 0 0 4.984375-14.957031 18.140625-17.101563Zm0 0"/><path fill="#fff" d="M209.183594 133.757812c5.113281 6.289063 9.355468 13.238282 12.609375 20.65625 0 0 12.824219-16.785156 11.0625-30.34375-.28125-2.261718-11.625-7.679687-11.625-7.679687Zm0 0"/><path fill="none" stroke="#f7ad2b" stroke-linecap="round" stroke-linejoin="round" stroke-width=".377" d="M109.27502 66.539561c.089843-.472728.185925-.939219.275768-1.390743.572748-2.770258 1.242826-5.884772 1.85176-8.925695.042426-.217031.079861-.430319.122286-.642361" transform="matrix(3.130467 0 0 3.131759 -105.171666 .754773)"/><path fill="#b25e47" d="M224.734375 119.582031s-5.21875 15.371094-15.816406 15.339844c-17.292969 0-28.089844-27.789063-28.089844-27.789063 5.316406-21.605468 4.785156-31.574218 4.785156-31.574218-.582031-14.257813 32.125-33.074219 36.644531 9.257812l.398438 5.617188 1.398438 19.625Zm0 0"/><path fill="#914839" d="M223.988281 110.058594c-11.132812-.367188-21.296875-6.164063-21.832031-19.625h20.433594Zm0 0"/><path fill="#604730" d="M221.246094 34.308594c-.546875 3.839844-5.480469 6.382812-5.480469 6.382812l-11.347656 16.917969s-10.285157 11.785156-21.265625 10.585937c-1.613282-.183593-3.1875-.640624-4.648438-1.34375-5.417968-2.628906-2.261718-7.746093-3.324218-9.390624-1.0625-1.644532-3.769532-1.878907-4.433594-4.984376-.667969-3.109374 4.269531-2.84375 2.175781-6.152343-2.09375-3.304688-3.324219-6.015625.148437-8.425781 3.472657-2.40625.132813-3.320313 2.34375-7.160157 1.660157-2.976562 4.566407.628907 5.613282-3.324219 1.046875-3.957031 4.21875-2.527343 6.496094-2.890624 2.890624-.46875.429687-2.960938 4.367187-3.90625 1.929687-.464844 1.863281 1.792968 4.121094.28125.964843-.726563 2.105469-1.175782 3.304687-1.300782 1.203125-.128906 2.414063.074219 3.507813.585938 2.886719 1.910156 2.753906-1.945313 6.378906-.746094 2.558594.847656.929687 2.789062 4.449219 3.324219 3.523437.53125 3.4375 2.625 3.722656 4.835937l.148438.914063c.464843 2.589843 4.253906 1.960937 3.722656 5.796875Zm0 0"/><path fill="#473526" d="M223.671875 32.5c-.566406 4.105469-5.734375 6.828125-5.734375 6.828125l-11.890625 18.097656S195.265625 70.039062 183.75 68.761719c.222656-.949219.15625-1.945313-.179688-2.859375-1.179687-1.777344-3.953124-2.011719-4.652343-5.316406-.699219-3.308594 4.484375-3.058594 2.292969-6.648438-2.195313-3.589844-3.472657-6.433594.148437-9.007812 3.621094-2.574219.132813-3.554688 2.457031-7.660157 1.796875-3.191406 4.785156.664063 5.898438-3.507812 1.113281-4.171875 4.417968-2.691407 6.796875-3.074219 3.023437-.515625.445312-3.175781 4.601562-4.1875 1.992188-.515625 1.941407 1.910156 4.300781.296875 2.359376-1.609375 5.367188-1.976563 7.144532-.761719 3.019531 2.042969 2.890625-2.078125 6.640625-.800781.125.027344.238281.066406.351562.117187 0 .332032 0 .648438.148438.980469.582031 2.691407 4.550781 2.027344 3.972656 6.167969Zm0 0"/><path fill="#b25e47" d="M231.277344 88.871094c-3.054688 8.625-21.496094 18.410156-43.886719-9.757813-2.011719.609375-4.179687.460938-6.085937-.421875-1.910157-.882812-3.425782-2.433594-4.265626-4.363281C173.71875 67.960938 178.46875 58.640625 189.5 63.125c2.007812.816406 3.121094-4.269531.695312-7.824219-2.421874-3.558593-6.644531-12.199219 3.191407-18.5 9.835937-6.296875 22.890625-5.648437 27.910156 2.210938 3.148437 5.21875 5.652344 10.796875 7.457031 16.621093.847656 2.609376 1.660156 5.300782 2.207032 8.027344 2.078124 9.203125 2.644531 18.5625.316406 25.210938Zm0 0"/><path fill="#a0503d" d="M210.398438 65.871094c-.515626 2.09375-4.621094 2.890625-9.1875 1.761718-4.570313-1.132812-7.824219-3.722656-7.308594-5.820312.515625-2.09375 4.632812-2.890625 9.183594-1.777344 4.554687 1.113282 7.824218 3.742188 7.3125 5.835938Zm20.5625-2.179688c-2.191407 1.214844-4.183594 1.480469-5.199219.480469-1.460938-1.460937-.144531-5.25 2.992187-8.507813.847656 2.609376 1.59375 5.300782 2.207032 8.027344Zm0 0"/><path fill="#604730" d="M197.722656 51.34375c.363282 1.8125 12.195313-1.660156 11.042969-5.449219-1.542969-5.085937-11.675781 2.195313-11.042969 5.449219Zm17.242188-5.550781c.25 2.34375 9.738281 2.375 9.703125.863281-.035157-1.511719-10.265625-6.132812-9.703125-.863281Zm0 0"/><path fill="#683f1d" d="M206.707031 56.796875c0 .421875.128907.835937.363281 1.191406.234376.351563.570313.625.960938.789063.390625.160156.824219.203125 1.238281.121094.414063-.082032.796875-.285157 1.097657-.585938.300781-.300781.503906-.683594.585937-1.097656.082031-.417969.039063-.847656-.121094-1.238282-.160156-.390624-.4375-.726562-.789062-.964843-.351563-.234375-.769531-.359375-1.191407-.359375-.28125-.003906-.558593.050781-.824218.160156-.257813.105469-.496094.261719-.695313.460938-.199219.203124-.359375.4375-.464843.699218-.105469.261719-.160157.542969-.160157.824219Zm12.34375-2.144531c.011719.421875.148438.828125.394531 1.171875.242188.34375.582032.609375.972657.761719.394531.148437.820312.183593 1.234375.09375.410156-.089844.785156-.300782 1.078125-.601563.292969-.304687.488281-.683594.570312-1.097656.078125-.414063.03125-.84375-.132812-1.230469-.167969-.386719-.4375-.71875-.789063-.953125-.351562-.230469-.765625-.355469-1.183594-.355469-.289062 0-.574218.058594-.835937.167969-.265625.113281-.503906.277344-.703125.484375-.203125.203125-.359375.449219-.460938.714844-.105468.269531-.152343.554687-.144531.84375Zm0 0"/><path fill="none" stroke="#934735" stroke-linecap="round" stroke-linejoin="round" stroke-width=".377" d="M91.338897 21.969706c.530322-1.310914 2.461943-1.061454 3.067135.382922" transform="matrix(3.130467 0 0 3.131759 -105.171666 .754773)"/><path fill="none" stroke="#934735" stroke-linecap="round" stroke-linejoin="round" stroke-width=".377" d="M94.002987 21.731472c-.923385-.562534-2.504369 1.549149 0 2.154091m-.546544 1.135045c.607687-.164644 1.177939-.44404 1.682057-.821972m6.935368-8.15611c0 2.530776 1.156726 2.80643 2.324683 3.267932.970802.382922.662591 1.454354.43424 1.799857" transform="matrix(3.130467 0 0 3.131759 -105.171666 .754773)"/><path fill="#fff" stroke="#934735" stroke-linecap="round" stroke-linejoin="round" stroke-width=".377" d="M100.806085 22.760496c1.979038 0 3.48141-.11101 3.48141-.11101s-.880959 2.498347-2.00649 2.371122c-1.125531-.127225-1.47492-2.260112-1.47492-2.260112Zm0 0" transform="matrix(3.130467 0 0 3.131759 -105.171666 .754773)"/><path fill="#ededed" d="m209.015625 275.097656-74.988281-46.945312-68.113282 108.882812 74.984376 46.945313Zm0 0"/><path fill="#f9f9f9" d="m197.492188 280.082031-62.902344-39.386719L77.4375 332.054688l62.902344 39.382812Zm0 0"/><path fill="#ddd" stroke="#ededed" stroke-linecap="round" stroke-linejoin="round" stroke-width=".504" d="M91.927867 80.751323c.237085-.200815.441727-.437803.605191-.700984.197155-.323051.328176-.682274.385576-1.056465.058647-.37419.042425-.755865-.047417-1.123819-.088595-.367954-.249564-.714704-.472923-1.020293-.223359-.30559-.505366-.563781-.828551-.760855-.323184-.197074-.682556-.32804-1.056901-.386664-.373097-.057376-.754929-.041161-1.123035.047398-.368106.089806-.714999.250708-1.020715.473975-.305715.223267-.564013.505157-.761168.828209-.158473.265675-.27452.553802-.344398.854402l-3.634891-2.212715-2.781384 4.55889 11.940362 7.274267 2.775145-4.562631Zm0 0" transform="matrix(3.130467 0 0 3.131759 -105.171666 .754773)"/><path fill="#f9f9f9" d="M177.828125 250.976562c2.335937-.570312 3.765625-2.929687 3.195313-5.265624-.574219-2.335938-2.929688-3.765626-5.261719-3.191407-2.335938.570313-3.765625 2.925781-3.195313 5.261719.570313 2.335938 2.925782 3.765625 5.261719 3.195312Zm0 0"/><path fill="none" stroke="#ddd" stroke-linecap="round" stroke-linejoin="round" stroke-width=".504" d="m77.737691 82.173248 13.697288 8.575203m-15.066144-6.155437 13.70228 8.575204m-15.066144-6.155437 10.677571 6.680551" transform="matrix(3.130467 0 0 3.131759 -105.171666 .754773)"/><path fill="#b25e47" d="M139.3125 306.527344c20.050781 9.972656 26.582031 13.429687 28.011719 14.640625 4.101562 3.640625 3.636719 10.386719 3.636719 10.386719s8.804687 4.503906 9.699218 7.046874c.898438 2.542969-3.6875 7.378907-6.644531 7.128907 0 0-3.539063 3.941406-6.726563 3.691406 0 0-1.164062 5.21875-5.5 5.464844 0 0-.496093 4.457031-6.644531 3.175781-6.144531-1.28125-32.742187-22.765625-32.742187-22.765625Zm0 0"/><path fill="#fed81d" d="M141.558594 307.644531c-1.792969 3.804688-11.777344 22.300781-16.046875 30.164063-1.179688 2.191406-1.929688 3.554687-1.929688 3.554687s-27.855469-11.121093-52.675781-21.472656c-14.769531-6.199219-28.457031-12.113281-34.550781-15.257813-3.902344-1.945312-7.660157-4.167968-11.25-6.644531-8.089844-5.683593-13.753907-12.167969-15.796875-19.945312-2.042969-7.777344-.449219-17.066407 6.195312-28.019531 1.746094-2.800782 4.023438-5.234376 6.703125-7.15625 2.683594-1.921876 5.71875-3.296876 8.929688-4.042969 3.453125-.859375 7.011719-1.207031 10.566406-1.03125h1.195313c1.261718 0 2.542968.234375 3.820312.433593.382812 0 .765625.113282 1.148438.199219l1.261718.230469 2.125.5h.082032l1.132812.300781.511719.148438c.449219.117187.882812.25 1.3125.398437l1.3125.414063 1.3125.464843 1.347656.515626c2.203125.855468 4.355469 1.839843 6.445313 2.941406.382812.183594.761718.367187 1.128906.582031l1.660156.914063 1.378906.816406h.101563c1.808593 1.097656 3.621093 2.292968 5.449219 3.605468l1.378906 1.011719c2.292968 1.664063 4.601562 3.625 6.875 5.703125 26.796875 24.511719 58.359375 49.855469 59.171875 49.855469.019531.101563-.066407.347656-.296875.816406Zm0 0"/><path fill="#fcc71f" d="M70.90625 319.890625c-14.769531-6.199219-28.457031-12.113281-34.550781-15.257813-3.902344-1.945312-7.660157-4.167968-11.25-6.644531-8.089844-5.683593-13.753907-12.167969-15.796875-19.945312-2.042969-7.777344-.449219-17.066407 6.195312-28.019531 1.746094-2.800782 4.023438-5.234376 6.703125-7.15625 2.683594-1.921876 5.71875-3.296876 8.929688-4.042969-.496094 8.574219-3.4375 17.117187-8.304688 22.898437-2.566406 3-3.917969 6.847656-3.785156 10.792969.132813 3.945313 1.738281 7.695313 4.5 10.515625 4.402344 4.785156 11.894531 7.824219 21.875 6.496094 4.105469-.515625 8.140625 1.378906 11.78125 4.671875 6.726563 6.113281 12.074219 17.015625 13.703125 25.691406Zm0 0"/><path fill="none" stroke="#f7ad2b" stroke-linecap="round" stroke-linejoin="round" stroke-width=".377" d="M46.536024 75.683534c4.032945.052387 8.876971 1.994436 13.46769 6.186619 8.591221 7.859252 18.716009 15.962976 18.901934 15.920567m-4.351139.127225c-1.305216 2.568196-3.740955 7.163257-3.740955 7.163257" transform="matrix(3.130467 0 0 3.131759 -105.171666 .754773)"/><path fill="none" stroke="#934735" stroke-linecap="round" stroke-linejoin="round" stroke-width=".377" d="M87.046406 102.312191c1.310208 1.161239 1.161718 3.31533 1.161718 3.31533s2.81258 1.438139 3.099578 2.250133c.28575.811994-1.179187 2.356154-2.123785 2.277574 0 0-1.129274 1.257281-2.148741 1.177454 0 0-.37185 1.666396-1.755679 1.746223 0 0-.15972 1.421925-2.123784 1.012809m5.19591-8.384366-2.616672-1.247302" transform="matrix(3.130467 0 0 3.131759 -105.171666 .754773)"/><path fill="none" stroke="#934735" stroke-linecap="round" stroke-linejoin="round" stroke-width=".377" d="M89.195147 110.153981c-.864737-.352987-1.709509-.750876-2.530573-1.193668m.381832 2.372369c-.529074-.217031-1.030697-.492685-1.49738-.82322" transform="matrix(3.130467 0 0 3.131759 -105.171666 .754773)"/></svg>