<svg width="340" height="450" viewBox="0 0 340 450" fill="none" xmlns="http://www.w3.org/2000/svg">
<path d="M166 399.72V429.16H213.68C213.68 429.16 216.53 426.42 207.86 422.16C199.68 418.16 194.74 414.29 190.64 404.93L166 399.72Z" fill="#683F1D"/>
<path d="M165.07 407.76H195.13L196.69 175.47L167.49 177.68L165.07 407.76Z" fill="#A7CAF0"/>
<path d="M172.47 206.94C176.47 206.3 178.04 204.84 178.04 204.84" stroke="#83ADDF" stroke-width="0.71" stroke-linecap="round" stroke-linejoin="round"/>
<path d="M188 183.89C187.76 191.45 190.42 200.65 193.73 203.07" stroke="#83ADDF" stroke-width="0.71" stroke-linecap="round" stroke-linejoin="round"/>
<path d="M141 412V432.72H188.68C188.68 432.72 191.53 429.98 182.86 425.72C174.68 421.72 169.75 417.85 165.64 408.5L141 412Z" fill="#683F1D"/>
<path d="M188.69 432.75C188.69 432.75 191.54 430.01 182.87 425.75C174.69 421.75 169.76 417.88 165.65 408.53" stroke="#91613D" stroke-width="0.71" stroke-linecap="round" stroke-linejoin="round"/>
<path d="M125.8 150.54C121.63 206.94 123.8 244.87 127.51 293.01C131.22 341.15 137.23 412.01 137.23 412.01H168.62L170.93 170.89L125.8 150.54Z" fill="#A7CAF0"/>
<path d="M168.62 412.03L170.51 209.7" stroke="#83ADDF" stroke-width="0.71" stroke-linecap="round" stroke-linejoin="round"/>
<path d="M285 122.91C285 132.02 281.59 140.13 276.27 145.39C272.922 148.823 268.486 150.986 263.72 151.51C263.4 151.51 263.07 151.56 262.72 151.57H261.95C252.29 151.57 244.01 144.18 240.59 133.69C239.452 130.204 238.879 126.558 238.89 122.89C238.89 114.06 242.09 106.18 247.12 100.89C249.004 98.8198 251.291 97.1565 253.842 96.0026C256.392 94.8487 259.151 94.2285 261.95 94.1802C274.64 94.2302 285 107.07 285 122.91Z" fill="#FED81D"/>
<path d="M276.22 145.39C272.872 148.823 268.436 150.986 263.67 151.51C263.35 151.51 263.02 151.56 262.67 151.57H261.9C252.24 151.57 243.96 144.18 240.54 133.69C251.2 139.94 255.37 152.69 274.09 146.16C274.78 146 275.49 145.69 276.22 145.39Z" fill="#FCC71F"/>
<path d="M274.09 146.18C272.799 147.722 271.211 148.988 269.421 149.904C267.631 150.819 265.675 151.366 263.67 151.51C263.35 151.51 263.02 151.56 262.67 151.57H261.9C259.058 151.569 256.233 151.138 253.52 150.29C236.6 145.29 217.61 132.95 205.33 125.29L205.16 125.18C202.27 123.37 199.77 121.84 197.76 120.72L196.76 120.19C192.23 117.79 188.57 112.41 186.34 106.19C185.91 104.97 185.53 103.72 185.21 102.45C181.21 86.8403 186.06 68.4503 207.37 75.7603C211.37 77.1303 216.66 79.9503 222.56 83.6303C231.008 88.9908 239.176 94.7818 247.03 100.98C260.94 111.83 273.18 122.98 275.87 127.85C277.35 130.758 277.968 134.028 277.653 137.275C277.337 140.522 276.101 143.612 274.09 146.18Z" fill="#FED81D"/>
<path d="M276.22 145.39C272.872 148.823 268.436 150.986 263.67 151.51C263.35 151.51 263.02 151.56 262.67 151.57H261.9C259.058 151.569 256.233 151.138 253.52 150.29C236.6 145.29 217.61 132.95 205.33 125.29C205.33 125.29 205.28 125.23 205.16 125.18C202.27 123.37 199.77 121.84 197.76 120.72L196.76 120.19C192.23 117.79 188.57 112.41 186.34 106.19C185.91 104.97 185.53 103.72 185.21 102.45C192.21 101.33 200.29 102 209.31 105.89C212.76 107.39 219.2 110.13 215.57 115C211 121.13 214.79 130.57 228.5 130.57C232.716 130.505 236.869 131.606 240.5 133.75C251.16 140 255.33 152.75 274.05 146.22C274.78 146 275.49 145.69 276.22 145.39Z" fill="#FCC71F"/>
<path d="M222.6 83.5901C219.272 83.3351 215.925 83.5573 212.66 84.2502C206.96 85.4602 200.14 88.4102 195.93 95.5102C193.44 99.6256 190.196 103.235 186.37 106.15C180.6 89.9602 184.37 67.8302 207.37 75.7202C211.41 77.0902 216.7 79.9101 222.6 83.5901Z" fill="#FFE05C"/>
<path d="M215.6 73.51C213.8 73.07 216.31 66.7 221.1 60.7C225.61 55.05 228.46 51.97 229.83 53.86C230.67 55 229.43 73 215.6 73.51Z" fill="#F7AD2B"/>
<path d="M223.17 74.0703C217.43 66.0703 213.65 59.5103 210.96 57.3503C208.27 55.1903 205.79 54.1203 205.5 51.6003C205.424 49.7853 205.851 47.9847 206.733 46.3967C207.615 44.8087 208.919 43.495 210.5 42.6003C214.5 40.3103 232.02 61.8303 232.02 61.8303C232.02 61.8303 232.6 72.5603 223.17 74.0703Z" fill="#B25E47"/>
<path d="M195 30.6401C198.41 27.2501 202 27.8001 209.66 34.9001C217.32 42.0001 225.79 45.6901 227.58 51.4301C229.53 57.6301 224.34 62.5501 217.42 61.7201C214.99 61.4301 211.18 61.0001 214.99 52.2901L204.75 43.6801C204.75 43.6801 201.9 47.9601 197.52 46.7501C193 45.5001 187.07 38.5501 195 30.6401Z" fill="#DDDDDD" stroke="#EDEDED" stroke-width="0.95" stroke-linecap="round" stroke-linejoin="round"/>
<path d="M216.73 44.8404C218.38 45.6904 222.94 39.1104 220.73 37.8404C217.85 36.1004 215.08 44.0004 216.73 44.8404Z" fill="#B25E47" stroke="#934735" stroke-width="0.71" stroke-linecap="round" stroke-linejoin="round"/>
<path d="M215 52.2904C216.163 50.2563 217.998 48.6902 220.19 47.8604" stroke="#EDEDED" stroke-width="0.95" stroke-linecap="round" stroke-linejoin="round"/>
<path d="M204.78 43.6803C205.395 42.7902 205.82 41.7832 206.03 40.7219C206.24 39.6606 206.23 38.5674 206 37.5103" stroke="#EDEDED" stroke-width="0.95" stroke-linecap="round" stroke-linejoin="round"/>
<path d="M204.82 52.7503C206.17 55.8103 210.06 51.3503 211.66 47.0603C213.19 42.9703 212.82 42.0603 210.49 42.4703C208.16 42.8803 203 48.6803 204.82 52.7503Z" fill="#B25E47" stroke="#934735" stroke-width="0.71" stroke-linecap="round" stroke-linejoin="round"/>
<path d="M208.24 39.2302C210.09 40.1702 215.24 32.9102 212.78 31.4902C209.49 29.5802 206.37 38.2902 208.24 39.2302Z" fill="#B25E47" stroke="#934735" stroke-width="0.71" stroke-linecap="round" stroke-linejoin="round"/>
<path d="M211.16 40.78C213.02 41.72 218.16 34.45 215.71 33.03C212.42 31.13 209.3 39.84 211.16 40.78Z" fill="#B25E47" stroke="#934735" stroke-width="0.71" stroke-linecap="round" stroke-linejoin="round"/>
<path d="M214 42.9999C215.77 43.8999 220.69 36.9399 218.35 35.5799C215.22 33.6999 212.23 42.0499 214 42.9999Z" fill="#B25E47" stroke="#934735" stroke-width="0.71" stroke-linecap="round" stroke-linejoin="round"/>
<path d="M215.6 73.5101C222.87 83.7601 242.89 113.51 250.46 123.51C260.27 136.51 283.76 138.6 283.77 113.78C283.77 101.48 229.83 53.8501 229.83 53.8501C229.83 53.8501 227.09 68.4201 215.6 73.5101Z" fill="#FED81D"/>
<path d="M222.52 76.5202C231.47 73.5202 234.52 63.4102 234.52 63.4102" stroke="#F7AD2B" stroke-width="0.71" stroke-linecap="round" stroke-linejoin="round"/>
<path d="M226.68 58.2402C240.03 76.6902 244.79 89.2902 241.61 94.2402C238.43 99.1902 231.28 96.5002 232 92.3602C233 87.1902 241.59 85.8702 238 99.7702C234.41 113.67 224.68 114.87 223 111C220.61 105.66 230.56 100 231.59 114C232.62 128 217 131.54 212.59 128C208.18 124.46 220.54 115.31 220.35 130.71C220.16 146.11 201.97 146.57 193.76 144.51" stroke="#EDEDED" stroke-width="1.91" stroke-linecap="round" stroke-linejoin="round"/>
<path d="M215.6 73.5103C222.87 83.7603 242.89 113.51 250.46 123.51C252.706 126.45 255.588 128.843 258.89 130.51" stroke="#F7AD2B" stroke-width="0.71" stroke-linecap="round" stroke-linejoin="round"/>
<path d="M106.29 157.75C106.333 161.372 105.525 164.954 103.93 168.208C102.336 171.461 99.9995 174.294 97.11 176.48C93.7447 178.956 89.6784 180.298 85.5 180.31H85.44C82.821 180.299 80.2316 179.754 77.83 178.71C70.15 175.41 64.72 167.27 64.72 157.71V157.17C64.7602 153.986 65.4548 150.845 66.7605 147.941C68.0662 145.037 69.9551 142.433 72.31 140.29C74.7453 138.103 77.6763 136.541 80.85 135.74C82.37 135.354 83.9319 135.16 85.5 135.16C93.74 135.16 100.87 140.37 104.23 147.92C104.973 149.576 105.516 151.315 105.85 153.1C106.152 154.631 106.299 156.189 106.29 157.75Z" fill="#FED81D"/>
<path d="M85.44 180.31C82.821 180.299 80.2316 179.755 77.83 178.71C70.15 175.41 64.72 167.27 64.72 157.71V157.17C64.7602 153.986 65.4548 150.845 66.7605 147.941C68.0662 145.037 69.9551 142.433 72.31 140.29C70.64 162.28 73 173.61 85.44 180.31Z" fill="#FCC71F"/>
<path d="M147.88 92.1499C147.31 93.9599 146.64 95.8198 145.88 97.7098C145.12 99.5998 144.43 101.2 143.6 102.97C143.33 103.53 143.06 104.08 142.78 104.64C141.92 106.393 140.987 108.15 139.98 109.91C139.64 110.51 139.31 111.1 138.98 111.68C133.055 121.452 126.332 130.716 118.88 139.38C117.17 141.38 115.42 143.38 113.63 145.29L112.37 146.63C111.04 148.03 109.7 149.41 108.37 150.74C107.54 151.55 106.71 152.36 105.88 153.13C95.7699 162.64 85.3499 169.56 76.8799 169.75C76.091 169.772 75.3016 169.729 74.5199 169.62C72.2045 169.364 70.037 168.356 68.3499 166.75C66.0899 164.55 64.8899 161.24 64.7499 157.2C64.5199 149.66 68.0099 139.59 75.2599 129.54C75.6599 128.99 76.0699 128.41 76.4999 127.8C83.5999 117.62 94.0799 100.36 105.7 86.3198C116.35 73.4398 128 63.2598 138.92 63.7598C139.794 63.7958 140.664 63.9062 141.52 64.0898C151 66.0698 152.38 77.7199 147.88 92.1499Z" fill="#FED81D"/>
<path d="M76.4199 156.94C74.8745 158.743 74.0614 161.06 74.141 163.434C74.2206 165.807 75.1872 168.064 76.8499 169.76C76.061 169.782 75.2716 169.739 74.4899 169.63C72.1745 169.375 70.0069 168.366 68.3199 166.76C66.0599 164.56 64.8599 161.25 64.7199 157.21C64.4899 149.67 67.9799 139.6 75.2299 129.55C75.6299 129 76.0399 128.42 76.4699 127.81C78.6751 129.995 80.197 132.775 80.8499 135.81C81.422 138.226 81.6277 140.713 81.4599 143.19C81.1599 148.32 79.3899 153.46 76.4199 156.94Z" fill="#FCC71F"/>
<path d="M145.9 97.71C143.958 102.548 141.644 107.229 138.98 111.71C133.055 121.482 126.332 130.747 118.88 139.41C115.5 143.41 111.95 147.22 108.34 150.78" stroke="#F7AD2B" stroke-width="0.71" stroke-linecap="round" stroke-linejoin="round"/>
<path d="M147.88 92.1499C142.79 85.9099 137.15 82.5198 127.88 82.4699C122.13 82.4699 114.99 83.6999 105.72 86.3299C116.35 73.4399 128 63.2598 138.92 63.7598C139.794 63.7958 140.664 63.9062 141.52 64.0898C151 66.0698 152.38 77.7199 147.88 92.1499Z" fill="#FFE05C"/>
<path d="M212.66 84.2499C212.26 93.0899 208.49 109.86 205.85 122.67C205.68 123.52 205.5 124.4 205.33 125.29C202.05 142.17 198.75 167.45 198.73 171.29C198.73 184.04 189.89 181.74 165.2 181.05C153.04 180.71 139.61 180.26 129.58 178.26C126.752 177.742 123.983 176.948 121.31 175.89C116.52 173.89 113.75 171.07 114.23 167.02C114.299 166.523 114.402 166.032 114.54 165.55C116.942 157.019 118.397 148.249 118.88 139.4C119.23 134.59 119.42 129.74 119.65 124.73C119.83 120.47 120.04 116.1 120.4 111.57C121.09 102.48 124.25 91.5699 127.83 82.4899C131.94 72.0399 136.62 63.9699 138.83 63.7899H138.97C143.07 63.4799 153.47 64.8699 168.71 65.1699C175.162 65.3166 181.551 66.4809 187.64 68.6199C190.31 69.5599 201.05 72.6899 207.45 75.7499C209.15 76.4288 210.692 77.45 211.98 78.7499C212.59 79.5599 212.79 81.5299 212.66 84.2499Z" fill="#FED81D"/>
<path d="M129.58 178.24C126.752 177.722 123.983 176.928 121.31 175.87C116.52 173.87 113.75 171.05 114.23 167C114.299 166.503 114.402 166.012 114.54 165.53C116.942 156.999 118.397 148.229 118.88 139.38C119.23 134.57 119.42 129.72 119.65 124.71L140.75 104.64C146.54 114.32 135.42 133.05 128.01 137.86C120.6 142.67 121.11 152.16 136.73 155.48C148.58 158 136.24 171.74 129.58 178.24Z" fill="#FCC71F"/>
<path d="M222.6 83.5901C219.272 83.3351 215.925 83.5573 212.66 84.2501C206.96 85.4601 200.14 88.4101 195.93 95.5101C193.439 99.6255 190.196 103.235 186.37 106.15C176.37 113.75 162.98 116.05 154.37 101.81C152.419 98.441 150.233 95.2131 147.83 92.1501C142.74 85.9101 137.1 82.5201 127.83 82.4701C122.08 82.4701 114.94 83.7001 105.67 86.3301C116.35 73.4401 128 63.2601 138.92 63.7601C143.02 63.4501 153.42 64.8401 168.66 65.1401C175.112 65.2868 181.501 66.4511 187.59 68.5901C190.26 69.5301 201 72.6601 207.4 75.7201C211.41 77.0901 216.7 79.9101 222.6 83.5901Z" fill="#FFE05C"/>
<path d="M181.08 80.6299C181.08 80.6299 183.92 89.8299 185.08 90.6299L189.87 91.3799C191.432 88.5847 192.744 85.6565 193.79 82.6299L188.68 75.3799L181.08 80.6299Z" fill="#683F1D"/>
<path d="M185 90.6499L174 132.58C174 132.58 175.27 138.18 181.55 146.7C181.55 146.7 187.9 138.41 189.24 134.82L189.77 91.3999L185 90.6499Z" fill="#683F1D"/>
<path d="M173.07 61.8198C170.47 61.8998 165.07 64.2898 165.07 66.4698C165.07 68.6498 169.93 85.9198 177.75 90.2198C177.75 90.2198 180.75 81.2198 188.67 79.9298L173.07 61.8198Z" fill="white"/>
<path d="M188.64 79.93C191.716 83.714 194.269 87.8949 196.23 92.36C196.23 92.36 203.95 82.26 202.89 74.1C202.72 72.74 195.89 69.48 195.89 69.48L188.64 79.93Z" fill="white"/>
<path d="M205.33 125.29C205.5 124.4 205.68 123.52 205.85 122.67C206.93 117.45 208.19 111.58 209.34 105.85C209.42 105.44 209.49 105.04 209.57 104.64" stroke="#F7AD2B" stroke-width="0.71" stroke-linecap="round" stroke-linejoin="round"/>
<path d="M198 71.3999C198 71.3999 194.86 80.6499 188.48 80.6299C178.07 80.6299 171.57 63.9099 171.57 63.9099C174.77 50.9099 174.45 44.9099 174.45 44.9099C174.1 36.3299 193.79 25.0099 196.51 50.4799L196.75 53.8599L197.59 65.6699L198 71.3999Z" fill="#B25E47"/>
<path d="M197.55 65.6699C190.85 65.4499 184.73 61.9599 184.41 53.8599H196.71L197.55 65.6699Z" fill="#914839"/>
<path d="M195.9 20.0901C195.57 22.4001 192.6 23.9301 192.6 23.9301L185.77 34.1101C185.77 34.1101 179.58 41.2001 172.97 40.4801C171.998 40.3689 171.051 40.0951 170.17 39.67C166.91 38.09 168.81 35.0101 168.17 34.0201C167.53 33.0301 165.9 32.8901 165.5 31.0201C165.1 29.1501 168.07 29.3101 166.81 27.3201C165.55 25.3301 164.81 23.7001 166.9 22.2501C168.99 20.8001 166.98 20.2501 168.31 17.9401C169.31 16.1501 171.06 18.3201 171.69 15.9401C172.32 13.5601 174.23 14.4201 175.6 14.2001C177.34 13.9201 175.86 12.4201 178.23 11.8501C179.39 11.5701 179.35 12.9301 180.71 12.0201C181.29 11.5829 181.978 11.3119 182.7 11.2362C183.422 11.1604 184.152 11.2828 184.81 11.5901C186.55 12.7401 186.47 10.4201 188.65 11.1401C190.19 11.6501 189.21 12.8201 191.33 13.1401C193.45 13.4601 193.4 14.7201 193.57 16.0501L193.66 16.6001C193.94 18.1601 196.22 17.7801 195.9 20.0901Z" fill="#604730"/>
<path d="M197.36 18.9999C197.02 21.4699 193.91 23.1099 193.91 23.1099L186.75 33.9999C186.75 33.9999 180.26 41.5899 173.33 40.8199C173.462 40.2482 173.424 39.6501 173.22 39.0999C172.51 38.0299 170.84 37.8899 170.42 35.8999C170 33.9099 173.12 34.0599 171.8 31.8999C170.48 29.7399 169.71 28.0299 171.89 26.4799C174.07 24.9299 171.97 24.3399 173.37 21.8699C174.45 19.9499 176.25 22.2699 176.92 19.7599C177.59 17.2499 179.58 18.1399 181.01 17.9099C182.83 17.5999 181.28 15.9999 183.78 15.3899C184.98 15.0799 184.95 16.5399 186.37 15.5699C187.79 14.5999 189.6 14.3799 190.67 15.1099C192.49 16.3399 192.41 13.8599 194.67 14.6299C194.742 14.6454 194.813 14.6689 194.88 14.6999C194.88 14.8999 194.88 15.0899 194.97 15.2899C195.32 16.9099 197.71 16.5099 197.36 18.9999Z" fill="#473526"/>
<path d="M201.94 52.9199C200.1 58.1099 189 63.9999 175.52 47.0499C174.309 47.4173 173.005 47.3269 171.857 46.7959C170.708 46.2649 169.795 45.3304 169.29 44.1699C167.29 40.3399 170.15 34.7299 176.79 37.4299C178 37.9199 178.67 34.8599 177.21 32.7199C175.75 30.5799 173.21 25.3799 179.13 21.5899C185.05 17.7999 192.91 18.1899 195.93 22.9199C197.825 26.0594 199.333 29.4173 200.42 32.9199C200.93 34.4899 201.42 36.1099 201.75 37.7499C203 43.2899 203.34 48.9199 201.94 52.9199Z" fill="#B25E47"/>
<path d="M189.37 39.0802C189.06 40.3402 186.59 40.8202 183.84 40.1402C181.09 39.4602 179.13 37.9002 179.44 36.6402C179.75 35.3802 182.23 34.9002 184.97 35.5702C187.71 36.2402 189.68 37.8202 189.37 39.0802Z" fill="#A0503D"/>
<path d="M201.75 37.7699C200.43 38.4999 199.23 38.6599 198.62 38.0599C197.74 37.1799 198.53 34.8999 200.42 32.9399C200.93 34.5099 201.38 36.1299 201.75 37.7699Z" fill="#A0503D"/>
<path d="M181.74 30.3402C181.96 31.4302 189.08 29.3402 188.39 27.0602C187.46 24.0002 181.36 28.3802 181.74 30.3402Z" fill="#604730"/>
<path d="M192.12 26.9999C192.27 28.4099 197.98 28.4299 197.96 27.5199C197.94 26.6099 191.78 23.8299 192.12 26.9999Z" fill="#604730"/>
<path d="M187.15 33.6201C187.15 33.8753 187.225 34.1247 187.367 34.3368C187.509 34.5489 187.71 34.7143 187.946 34.8119C188.182 34.9096 188.441 34.9351 188.691 34.8853C188.942 34.8356 189.171 34.7127 189.352 34.5323C189.532 34.3519 189.655 34.122 189.705 33.8718C189.755 33.6215 189.729 33.3622 189.632 33.1265C189.534 32.8907 189.369 32.6893 189.156 32.5475C188.944 32.4058 188.695 32.3301 188.44 32.3301C188.27 32.3288 188.102 32.3612 187.944 32.4256C187.787 32.49 187.645 32.5849 187.525 32.705C187.405 32.825 187.31 32.9678 187.245 33.1249C187.181 33.282 187.148 33.4503 187.15 33.6201Z" fill="#683F1D"/>
<path d="M194.58 32.33C194.588 32.5833 194.67 32.8286 194.816 33.0355C194.963 33.2423 195.167 33.4014 195.403 33.4929C195.639 33.5844 195.897 33.6043 196.145 33.5501C196.393 33.4959 196.619 33.37 196.795 33.1881C196.972 33.0062 197.09 32.7764 197.137 32.5273C197.184 32.2782 197.156 32.0209 197.057 31.7875C196.959 31.5541 196.793 31.355 196.582 31.2149C196.371 31.0749 196.123 31.0001 195.87 31C195.697 30.9999 195.526 31.0346 195.367 31.1019C195.207 31.1692 195.063 31.2678 194.943 31.3919C194.823 31.5159 194.729 31.6629 194.666 31.824C194.604 31.9852 194.574 32.1573 194.58 32.33Z" fill="#683F1D"/>
<path d="M171.53 41.3002C172.53 38.8302 176.17 39.3002 177.31 42.0202" stroke="#934735" stroke-width="0.71" stroke-linecap="round" stroke-linejoin="round"/>
<path d="M176.55 40.8501C174.81 39.7901 171.83 43.7701 176.55 44.9101" stroke="#934735" stroke-width="0.71" stroke-linecap="round" stroke-linejoin="round"/>
<path d="M175.52 47.05C176.665 46.739 177.741 46.213 178.69 45.5" stroke="#934735" stroke-width="0.71" stroke-linecap="round" stroke-linejoin="round"/>
<path d="M191.76 30.1299C191.76 34.8999 193.94 35.4199 196.14 36.2899C197.97 37.0099 197.39 39.0299 196.96 39.6799" stroke="#934735" stroke-width="0.71" stroke-linecap="round" stroke-linejoin="round"/>
<path d="M189.37 42.7901C193.1 42.7901 195.93 42.5801 195.93 42.5801C195.93 42.5801 194.27 47.2901 192.15 47.0501C190.03 46.8101 189.37 42.7901 189.37 42.7901Z" fill="white" stroke="#934735" stroke-width="0.71" stroke-linecap="round" stroke-linejoin="round"/>
<path d="M188.537 164.979L143.398 136.729L102.395 202.246L147.534 230.496L188.537 164.979Z" fill="#EDEDED"/>
<path d="M181.601 167.975L143.735 144.277L109.331 199.249L147.197 222.947L181.601 167.975Z" fill="#F9F9F9"/>
<path d="M172.64 152.07C173.087 151.692 173.471 151.247 173.78 150.75C174.151 150.141 174.398 149.464 174.508 148.759C174.617 148.054 174.587 147.335 174.419 146.642C174.25 145.948 173.947 145.295 173.526 144.719C173.105 144.143 172.574 143.656 171.965 143.285C171.356 142.914 170.679 142.667 169.974 142.557C169.269 142.448 168.55 142.478 167.857 142.646C167.163 142.815 166.51 143.118 165.934 143.539C165.358 143.96 164.871 144.491 164.5 145.1C164.2 145.599 163.981 146.143 163.85 146.71L157 142.54L151.76 151.13L174.26 164.84L179.49 156.24L172.64 152.07Z" fill="#DDDDDD" stroke="#EDEDED" stroke-width="0.95" stroke-linecap="round" stroke-linejoin="round"/>
<path d="M169.764 150.464C171.17 150.12 172.03 148.702 171.686 147.296C171.342 145.891 169.924 145.03 168.519 145.374C167.113 145.718 166.252 147.136 166.596 148.541C166.94 149.947 168.358 150.808 169.764 150.464Z" fill="#F9F9F9"/>
<path d="M145.9 154.75L171.71 170.91" stroke="#DDDDDD" stroke-width="0.95" stroke-linecap="round" stroke-linejoin="round"/>
<path d="M143.32 159.31L169.14 175.47" stroke="#DDDDDD" stroke-width="0.95" stroke-linecap="round" stroke-linejoin="round"/>
<path d="M140.75 163.87L160.87 176.46" stroke="#DDDDDD" stroke-width="0.95" stroke-linecap="round" stroke-linejoin="round"/>
<path d="M146.58 183.89C158.65 189.89 162.58 191.97 163.44 192.7C165.91 194.89 165.63 198.95 165.63 198.95C165.63 198.95 170.93 201.66 171.47 203.19C172.01 204.72 169.25 207.63 167.47 207.48C167.47 207.48 165.34 209.85 163.42 209.7C163.42 209.7 162.72 212.84 160.11 212.99C160.11 212.99 159.81 215.67 156.11 214.9C152.41 214.13 136.4 201.2 136.4 201.2L146.58 183.89Z" fill="#B25E47"/>
<path d="M147.93 184.56C146.85 186.85 140.84 197.98 138.27 202.71C137.56 204.03 137.11 204.85 137.11 204.85C137.11 204.85 120.34 198.16 105.4 191.93C96.51 188.2 88.27 184.64 84.6 182.75C82.2517 181.578 79.9894 180.241 77.83 178.75C72.96 175.33 69.55 171.43 68.32 166.75C67.09 162.07 68.05 156.48 72.05 149.89C73.099 148.203 74.4699 146.74 76.0845 145.584C77.6991 144.427 79.5257 143.6 81.46 143.15C83.5381 142.632 85.6811 142.423 87.82 142.53H88.54C89.3 142.53 90.07 142.67 90.84 142.79C91.07 142.79 91.3 142.86 91.53 142.91L92.29 143.05L93.57 143.35H93.62L94.3 143.53L94.61 143.62C94.88 143.69 95.14 143.77 95.4 143.86L96.19 144.11L96.98 144.39L97.79 144.7C99.1164 145.215 100.412 145.806 101.67 146.47C101.9 146.58 102.13 146.69 102.35 146.82L103.35 147.37L104.18 147.86H104.24C105.33 148.52 106.42 149.24 107.52 150.03L108.35 150.64C109.73 151.64 111.12 152.82 112.49 154.07C128.62 168.82 147.62 184.07 148.11 184.07C148.12 184.13 148.07 184.28 147.93 184.56Z" fill="#FED81D"/>
<path d="M105.4 191.93C96.51 188.2 88.27 184.64 84.6 182.75C82.2517 181.578 79.9894 180.241 77.83 178.75C72.96 175.33 69.55 171.43 68.32 166.75C67.09 162.07 68.05 156.48 72.05 149.89C73.099 148.204 74.4699 146.74 76.0845 145.584C77.6991 144.427 79.5257 143.6 81.46 143.15C81.16 148.31 79.39 153.45 76.46 156.93C74.9147 158.733 74.1015 161.05 74.1811 163.424C74.2607 165.797 75.2273 168.054 76.89 169.75C79.54 172.63 84.05 174.46 90.06 173.66C92.53 173.35 94.96 174.49 97.15 176.47C101.2 180.15 104.42 186.71 105.4 191.93Z" fill="#FCC71F"/>
<path d="M87.1001 142.52C94.7001 142.62 103.83 146.28 112.48 154.18C128.67 168.99 147.75 184.26 148.1 184.18" stroke="#F7AD2B" stroke-width="0.71" stroke-linecap="round" stroke-linejoin="round"/>
<path d="M139.9 184.42C137.44 189.26 132.85 197.92 132.85 197.92" stroke="#F7AD2B" stroke-width="0.71" stroke-linecap="round" stroke-linejoin="round"/>
<path d="M163.44 192.7C165.91 194.89 165.63 198.95 165.63 198.95C165.63 198.95 170.93 201.66 171.47 203.19C172.01 204.72 169.25 207.63 167.47 207.48C167.47 207.48 165.34 209.85 163.42 209.7C163.42 209.7 162.72 212.84 160.11 212.99C160.11 212.99 159.81 215.67 156.11 214.9" stroke="#934735" stroke-width="0.71" stroke-linecap="round" stroke-linejoin="round"/>
<path d="M165.9 199.1L160.97 196.75" stroke="#934735" stroke-width="0.71" stroke-linecap="round" stroke-linejoin="round"/>
<path d="M167.49 207.48C165.861 206.815 164.269 206.064 162.72 205.23" stroke="#934735" stroke-width="0.71" stroke-linecap="round" stroke-linejoin="round"/>
<path d="M163.44 209.7C162.445 209.291 161.499 208.771 160.62 208.15" stroke="#934735" stroke-width="0.71" stroke-linecap="round" stroke-linejoin="round"/>
</svg>
