<svg xmlns="http://www.w3.org/2000/svg" xmlns:xlink="http://www.w3.org/1999/xlink" width="499" zoomAndPan="magnify" viewBox="0 0 374.25 749.999983" height="1000" preserveAspectRatio="xMidYMid meet" version="1.0"><path fill="#683f1d" d="M 171.574219 665.214844 L 171.574219 714.140625 L 250.78125 714.140625 C 250.78125 714.140625 255.515625 709.585938 241.113281 702.507812 C 227.523438 695.859375 219.316406 689.429688 212.507812 673.875 Z M 171.574219 665.214844 " fill-opacity="1" fill-rule="nonzero"/><path fill="#a7caf0" d="M 170.03125 678.578125 L 219.96875 678.578125 L 222.558594 292.535156 L 174.050781 296.207031 Z M 170.03125 678.578125 " fill-opacity="1" fill-rule="nonzero"/><path stroke-linecap="round" transform="matrix(3.130467, 0, 0, 3.131759, -105.171666, 0.754773)" fill="none" stroke-linejoin="round" d="M 91.838024 109.868349 C 93.960561 109.529083 94.794103 108.754508 94.794103 108.754508 " stroke="#83addf" stroke-width="0.377" stroke-opacity="1" stroke-miterlimit="4"/><path stroke-linecap="round" transform="matrix(3.130467, 0, 0, 3.131759, -105.171666, 0.754773)" fill="none" stroke-linejoin="round" d="M 100.078608 97.637302 C 99.951331 101.648626 101.362612 106.530568 103.119538 107.815289 " stroke="#83addf" stroke-width="0.377" stroke-opacity="1" stroke-miterlimit="4"/><path fill="#683f1d" d="M 130.046875 685.625 L 130.046875 720.058594 L 209.253906 720.058594 C 209.253906 720.058594 213.984375 715.503906 199.582031 708.425781 C 185.996094 701.777344 177.804688 695.34375 170.976562 679.808594 Z M 130.046875 685.625 " fill-opacity="1" fill-rule="nonzero"/><path stroke-linecap="round" transform="matrix(3.130467, 0, 0, 3.131759, -105.171666, 0.754773)" fill="none" stroke-linejoin="round" d="M 100.445466 229.695436 C 100.445466 229.695436 101.956573 228.242329 97.357119 225.982217 C 93.015963 223.859308 90.399291 221.805002 88.219354 216.84448 " stroke="#91613d" stroke-width="0.377" stroke-opacity="1" stroke-miterlimit="4"/><path fill="#a7caf0" d="M 104.792969 251.105469 C 97.867188 344.835938 101.472656 407.871094 107.636719 487.875 C 113.796875 567.878906 123.78125 685.640625 123.78125 685.640625 L 175.925781 685.640625 L 179.765625 284.925781 Z M 104.792969 251.105469 " fill-opacity="1" fill-rule="nonzero"/><path stroke-linecap="round" transform="matrix(3.130467, 0, 0, 3.131759, -105.171666, 0.754773)" fill="none" stroke-linejoin="round" d="M 89.795347 218.700466 L 90.797345 111.332682 " stroke="#83addf" stroke-width="0.377" stroke-opacity="1" stroke-miterlimit="4"/><path fill="#fed81d" d="M 369.261719 205.1875 C 369.261719 220.328125 363.597656 233.804688 354.757812 242.546875 C 349.195312 248.25 341.828125 251.847656 333.910156 252.71875 C 333.378906 252.71875 332.832031 252.800781 332.25 252.816406 L 330.972656 252.816406 C 314.921875 252.816406 301.167969 240.535156 295.488281 223.101562 C 293.597656 217.308594 292.640625 211.25 292.664062 205.152344 C 292.664062 190.480469 297.980469 177.382812 306.335938 168.59375 C 309.464844 165.152344 313.261719 162.386719 317.5 160.46875 C 321.738281 158.550781 326.320312 157.519531 330.972656 157.441406 C 352.050781 157.523438 369.261719 178.863281 369.261719 205.1875 Z M 369.261719 205.1875 " fill-opacity="1" fill-rule="nonzero"/><path fill="#fcc71f" d="M 354.675781 242.546875 C 349.113281 248.25 341.742188 251.847656 333.828125 252.71875 C 333.292969 252.71875 332.746094 252.800781 332.164062 252.816406 L 330.886719 252.816406 C 314.839844 252.816406 301.085938 240.535156 295.402344 223.101562 C 313.113281 233.488281 320.039062 254.679688 351.136719 243.824219 C 352.285156 243.558594 353.460938 243.042969 354.675781 242.546875 Z M 354.675781 242.546875 " fill-opacity="1" fill-rule="nonzero"/><path fill="#fed81d" d="M 351.132812 243.859375 C 348.988281 246.421875 346.355469 248.523438 343.378906 250.046875 C 340.40625 251.566406 337.15625 252.476562 333.828125 252.71875 C 333.292969 252.71875 332.746094 252.800781 332.164062 252.816406 L 330.886719 252.816406 C 326.164062 252.816406 321.46875 252.097656 316.964844 250.691406 C 288.855469 242.378906 257.3125 221.871094 236.910156 209.140625 L 236.628906 208.960938 C 231.828125 205.949219 227.675781 203.410156 224.335938 201.546875 L 222.675781 200.667969 C 215.148438 196.679688 209.070312 187.738281 205.363281 177.398438 C 204.652344 175.371094 204.019531 173.296875 203.488281 171.183594 C 196.84375 145.242188 204.898438 114.679688 240.300781 126.828125 C 246.945312 129.105469 255.734375 133.792969 265.535156 139.90625 C 279.570312 148.816406 293.136719 158.441406 306.183594 168.742188 C 329.289062 186.773438 349.625 205.304688 354.09375 213.398438 C 356.550781 218.230469 357.578125 223.664062 357.054688 229.058594 C 356.53125 234.457031 354.476562 239.589844 351.132812 243.859375 Z M 351.132812 243.859375 " fill-opacity="1" fill-rule="nonzero"/><path fill="#fcc71f" d="M 354.675781 242.546875 C 349.113281 248.25 341.742188 251.847656 333.828125 252.71875 C 333.292969 252.71875 332.746094 252.800781 332.164062 252.816406 L 330.886719 252.816406 C 326.164062 252.816406 321.46875 252.097656 316.964844 250.691406 C 288.855469 242.378906 257.3125 221.871094 236.910156 209.140625 C 236.910156 209.140625 236.828125 209.042969 236.628906 208.960938 C 231.828125 205.953125 227.675781 203.410156 224.335938 201.546875 L 222.675781 200.667969 C 215.148438 196.679688 209.070312 187.738281 205.367188 177.398438 C 204.652344 175.371094 204.019531 173.296875 203.488281 171.183594 C 215.117188 169.324219 228.539062 170.4375 243.523438 176.902344 C 249.253906 179.394531 259.953125 183.949219 253.921875 192.042969 C 246.328125 202.230469 252.625 217.917969 275.402344 217.917969 C 282.40625 217.808594 289.304688 219.636719 295.335938 223.203125 C 313.046875 233.589844 319.972656 254.777344 351.070312 243.925781 C 352.285156 243.558594 353.460938 243.042969 354.675781 242.546875 Z M 354.675781 242.546875 " fill-opacity="1" fill-rule="nonzero"/><path fill="#ffe05c" d="M 265.601562 139.839844 C 260.074219 139.417969 254.511719 139.785156 249.085938 140.9375 C 239.621094 142.949219 228.292969 147.851562 221.296875 159.648438 C 217.160156 166.488281 211.773438 172.488281 205.414062 177.332031 C 195.832031 150.425781 202.09375 113.648438 240.300781 126.761719 C 247.011719 129.039062 255.800781 133.722656 265.601562 139.839844 Z M 265.601562 139.839844 " fill-opacity="1" fill-rule="nonzero"/><path fill="#f7ad2b" d="M 253.972656 123.089844 C 250.980469 122.355469 255.152344 111.769531 263.109375 101.800781 C 270.601562 92.410156 275.335938 87.292969 277.613281 90.433594 C 279.003906 92.328125 276.945312 122.242188 253.972656 123.089844 Z M 253.972656 123.089844 " fill-opacity="1" fill-rule="nonzero"/><path fill="#b25e47" d="M 266.546875 124.019531 C 257.011719 110.722656 250.730469 99.820312 246.265625 96.230469 C 241.792969 92.640625 237.675781 90.863281 237.191406 86.675781 C 237.066406 83.660156 237.777344 80.667969 239.242188 78.027344 C 240.707031 75.386719 242.875 73.207031 245.5 71.71875 C 252.144531 67.914062 281.246094 103.675781 281.246094 103.675781 C 281.246094 103.675781 282.210938 121.507812 266.546875 124.019531 Z M 266.546875 124.019531 " fill-opacity="1" fill-rule="nonzero"/><path stroke-linecap="round" transform="matrix(3.130467, 0, 0, 3.131759, -105.171666, 0.754773)" fill-opacity="1" fill="#dddddd" fill-rule="nonzero" stroke-linejoin="round" d="M 103.79336 16.31319 C 105.602694 14.513333 107.508111 14.805202 111.573499 18.573302 C 115.63764 22.341403 120.132277 24.299667 121.081866 27.345579 C 122.117554 30.634716 119.363621 33.246567 115.691296 32.805022 C 114.401053 32.651604 112.379589 32.423347 114.401053 27.802092 L 108.966809 23.231976 C 108.966809 23.231976 107.454455 25.503314 105.13102 24.862201 C 102.731467 24.198636 99.58572 20.510363 103.79336 16.31319 Z M 103.79336 16.31319 " stroke="#ededed" stroke-width="0.504" stroke-opacity="1" stroke-miterlimit="4"/><path stroke-linecap="round" transform="matrix(3.130467, 0, 0, 3.131759, -105.171666, 0.754773)" fill-opacity="1" fill="#b25e47" fill-rule="nonzero" stroke-linejoin="round" d="M 115.324437 23.848144 C 116.200405 24.299667 118.619922 20.807221 117.446974 20.133677 C 115.918398 19.210674 114.44847 23.402857 115.324437 23.848144 Z M 115.324437 23.848144 " stroke="#934735" stroke-width="0.377" stroke-opacity="1" stroke-miterlimit="4"/><path stroke-linecap="round" transform="matrix(3.130467, 0, 0, 3.131759, -105.171666, 0.754773)" fill="none" stroke-linejoin="round" d="M 114.407292 27.802092 C 115.023713 26.721928 115.998259 25.891225 117.161224 25.450927 " stroke="#ededed" stroke-width="0.504" stroke-opacity="1" stroke-miterlimit="4"/><path stroke-linecap="round" transform="matrix(3.130467, 0, 0, 3.131759, -105.171666, 0.754773)" fill="none" stroke-linejoin="round" d="M 108.983031 23.233224 C 109.309959 22.760496 109.535814 22.225403 109.64687 21.66287 C 109.757925 21.099089 109.752934 20.519094 109.630648 19.959055 " stroke="#ededed" stroke-width="0.504" stroke-opacity="1" stroke-miterlimit="4"/><path stroke-linecap="round" transform="matrix(3.130467, 0, 0, 3.131759, -105.171666, 0.754773)" fill-opacity="1" fill="#b25e47" fill-rule="nonzero" stroke-linejoin="round" d="M 109.005492 28.045316 C 109.720491 29.669304 111.78438 27.303171 112.634144 25.025597 C 113.446473 22.855291 113.250565 22.372585 112.012731 22.590863 C 110.777392 22.807894 108.038433 25.886236 109.005492 28.045316 Z M 109.005492 28.045316 " stroke="#934735" stroke-width="0.377" stroke-opacity="1" stroke-miterlimit="4"/><path stroke-linecap="round" transform="matrix(3.130467, 0, 0, 3.131759, -105.171666, 0.754773)" fill-opacity="1" fill="#b25e47" fill-rule="nonzero" stroke-linejoin="round" d="M 110.819818 20.870833 C 111.800602 21.369754 114.534569 17.518084 113.229353 16.763467 C 111.482409 15.750657 109.826555 20.371912 110.819818 20.870833 Z M 110.819818 20.870833 " stroke="#934735" stroke-width="0.377" stroke-opacity="1" stroke-miterlimit="4"/><path stroke-linecap="round" transform="matrix(3.130467, 0, 0, 3.131759, -105.171666, 0.754773)" fill-opacity="1" fill="#b25e47" fill-rule="nonzero" stroke-linejoin="round" d="M 112.369607 21.694053 C 113.355382 22.191726 116.084358 18.33382 114.784133 17.58045 C 113.038436 16.572629 111.382583 21.195132 112.369607 21.694053 Z M 112.369607 21.694053 " stroke="#934735" stroke-width="0.377" stroke-opacity="1" stroke-miterlimit="4"/><path stroke-linecap="round" transform="matrix(3.130467, 0, 0, 3.131759, -105.171666, 0.754773)" fill-opacity="1" fill="#b25e47" fill-rule="nonzero" stroke-linejoin="round" d="M 113.875722 22.871506 C 114.815328 23.349223 117.425761 19.655961 116.184183 18.933773 C 114.523339 17.935931 112.937363 22.367596 113.875722 22.871506 Z M 113.875722 22.871506 " stroke="#934735" stroke-width="0.377" stroke-opacity="1" stroke-miterlimit="4"/><path fill="#fed81d" d="M 253.972656 123.085938 C 266.046875 140.121094 299.304688 189.5625 311.882812 206.183594 C 328.179688 227.789062 367.199219 231.261719 367.214844 190.011719 C 367.214844 169.570312 277.609375 90.414062 277.609375 90.414062 C 277.609375 90.414062 273.058594 114.628906 253.972656 123.085938 Z M 253.972656 123.085938 " fill-opacity="1" fill-rule="nonzero"/><path stroke-linecap="round" transform="matrix(3.130467, 0, 0, 3.131759, -105.171666, 0.754773)" fill="none" stroke-linejoin="round" d="M 118.396563 40.659285 C 123.147003 39.067727 124.765422 33.703079 124.765422 33.703079 " stroke="#f7ad2b" stroke-width="0.377" stroke-opacity="1" stroke-miterlimit="4"/><path stroke-linecap="round" transform="matrix(3.130467, 0, 0, 3.131759, -105.171666, 0.754773)" fill="none" stroke-linejoin="round" d="M 120.605199 30.959014 C 127.689057 40.74909 130.214639 47.435878 128.52759 50.062697 C 126.840541 52.689515 123.04593 51.262602 123.427762 49.064855 C 123.959332 46.322037 128.517608 45.621053 126.612191 52.997599 C 124.706774 60.372898 119.544555 61.010269 118.652366 58.955962 C 117.384583 56.123339 122.664098 53.119835 123.210641 60.548767 C 123.757185 67.9777 115.467936 69.856137 113.128279 67.9777 C 110.788622 66.099263 117.347149 61.243515 117.246076 69.41584 C 117.145003 77.588165 107.491889 77.831388 103.13576 76.738752 " stroke="#ededed" stroke-width="1.014" stroke-opacity="1" stroke-miterlimit="4"/><path stroke-linecap="round" transform="matrix(3.130467, 0, 0, 3.131759, -105.171666, 0.754773)" fill="none" stroke-linejoin="round" d="M 114.725485 39.06149 C 118.582488 44.500976 129.206403 60.288081 133.224374 65.595353 C 134.416039 67.154481 135.944615 68.424234 137.69655 69.309819 " stroke="#f7ad2b" stroke-width="0.377" stroke-opacity="1" stroke-miterlimit="4"/><path fill="#fed81d" d="M 72.382812 263.085938 C 72.457031 269.105469 71.113281 275.058594 68.464844 280.464844 C 65.816406 285.871094 61.933594 290.578125 57.132812 294.210938 C 51.542969 298.328125 44.789062 300.558594 37.847656 300.578125 L 37.746094 300.578125 C 33.398438 300.558594 29.097656 299.652344 25.105469 297.917969 C 12.347656 292.433594 3.328125 278.90625 3.328125 263.019531 L 3.328125 262.121094 C 3.394531 256.828125 4.546875 251.609375 6.71875 246.785156 C 8.886719 241.957031 12.023438 237.628906 15.9375 234.066406 C 19.980469 230.433594 24.851562 227.839844 30.121094 226.507812 C 32.648438 225.867188 35.242188 225.542969 37.847656 225.542969 C 51.535156 225.542969 63.378906 234.199219 68.960938 246.75 C 70.195312 249.5 71.097656 252.390625 71.652344 255.355469 C 72.15625 257.902344 72.398438 260.492188 72.382812 263.085938 Z M 72.382812 263.085938 " fill-opacity="1" fill-rule="nonzero"/><path fill="#fcc71f" d="M 37.746094 300.578125 C 33.398438 300.558594 29.097656 299.65625 25.105469 297.917969 C 12.347656 292.433594 3.328125 278.90625 3.328125 263.019531 L 3.328125 262.121094 C 3.394531 256.832031 4.546875 251.609375 6.71875 246.785156 C 8.886719 241.957031 12.023438 237.628906 15.9375 234.070312 C 13.164062 270.613281 17.082031 289.445312 37.746094 300.578125 Z M 37.746094 300.578125 " fill-opacity="1" fill-rule="nonzero"/><path fill="#fed81d" d="M 141.476562 154.066406 C 140.527344 157.074219 139.414062 160.164062 138.152344 163.304688 C 136.890625 166.445312 135.742188 169.105469 134.367188 172.046875 C 133.917969 172.976562 133.46875 173.890625 133.003906 174.824219 C 131.574219 177.738281 130.023438 180.65625 128.351562 183.582031 C 127.785156 184.578125 127.238281 185.558594 126.691406 186.523438 C 116.847656 202.761719 105.679688 218.160156 93.300781 232.558594 C 90.460938 235.878906 87.550781 239.203125 84.578125 242.378906 L 82.484375 244.605469 C 80.277344 246.933594 78.050781 249.226562 75.839844 251.4375 C 74.460938 252.78125 73.082031 254.128906 71.703125 255.40625 C 54.910156 271.210938 37.601562 282.714844 23.53125 283.027344 C 22.21875 283.066406 20.90625 282.992188 19.609375 282.8125 C 15.761719 282.386719 12.160156 280.710938 9.359375 278.042969 C 5.605469 274.386719 3.613281 268.886719 3.378906 262.171875 C 2.996094 249.640625 8.792969 232.90625 20.839844 216.203125 C 21.503906 215.289062 22.183594 214.324219 22.898438 213.3125 C 34.691406 196.394531 52.101562 167.710938 71.40625 144.375 C 89.097656 122.972656 108.449219 106.054688 126.589844 106.882812 C 128.042969 106.945312 129.488281 107.128906 130.910156 107.433594 C 146.65625 110.722656 148.949219 130.085938 141.476562 154.066406 Z M 141.476562 154.066406 " fill-opacity="1" fill-rule="nonzero"/><path fill="#fcc71f" d="M 22.765625 261.738281 C 20.199219 264.738281 18.847656 268.585938 18.980469 272.53125 C 19.109375 276.476562 20.71875 280.226562 23.480469 283.046875 C 22.167969 283.082031 20.855469 283.011719 19.558594 282.828125 C 15.710938 282.40625 12.113281 280.730469 9.308594 278.058594 C 5.554688 274.402344 3.5625 268.902344 3.328125 262.1875 C 2.945312 249.65625 8.746094 232.921875 20.789062 216.222656 C 21.453125 215.304688 22.132812 214.34375 22.847656 213.328125 C 26.511719 216.960938 29.039062 221.582031 30.125 226.625 C 31.074219 230.636719 31.414062 234.773438 31.136719 238.890625 C 30.640625 247.414062 27.699219 255.957031 22.765625 261.738281 Z M 22.765625 261.738281 " fill-opacity="1" fill-rule="nonzero"/><path stroke-linecap="round" transform="matrix(3.130467, 0, 0, 3.131759, -105.171666, 0.754773)" fill="none" stroke-linejoin="round" d="M 77.737691 51.903715 C 76.708242 54.47191 75.48039 56.955289 74.066613 59.333895 C 70.922114 64.518931 67.354605 69.435797 63.400272 74.032106 C 61.605911 76.155014 59.721707 78.176891 57.806308 80.066554 " stroke="#f7ad2b" stroke-width="0.377" stroke-opacity="1" stroke-miterlimit="4"/><path fill="#ffe05c" d="M 141.476562 154.066406 C 133.019531 143.695312 123.648438 138.0625 108.25 137.980469 C 98.699219 137.980469 86.835938 140.023438 71.4375 144.394531 C 89.097656 122.972656 108.449219 106.054688 126.589844 106.882812 C 128.042969 106.945312 129.488281 107.128906 130.910156 107.433594 C 146.65625 110.722656 148.949219 130.085938 141.476562 154.066406 Z M 141.476562 154.066406 " fill-opacity="1" fill-rule="nonzero"/><path fill="#fed81d" d="M 249.085938 140.9375 C 248.425781 155.628906 242.160156 183.496094 237.773438 204.785156 C 237.492188 206.199219 237.191406 207.660156 236.910156 209.140625 C 231.464844 237.195312 225.976562 279.207031 225.945312 285.589844 C 225.945312 306.777344 211.261719 302.953125 170.246094 301.808594 C 150.046875 301.242188 127.734375 300.496094 111.074219 297.171875 C 106.378906 296.308594 101.777344 294.992188 97.335938 293.234375 C 89.378906 289.910156 84.777344 285.222656 85.574219 278.492188 C 85.6875 277.667969 85.859375 276.851562 86.089844 276.046875 C 90.082031 261.871094 92.496094 247.296875 93.300781 232.589844 C 93.882812 224.597656 94.195312 216.535156 94.578125 208.210938 C 94.878906 201.128906 95.226562 193.867188 95.824219 186.339844 C 96.972656 171.234375 102.21875 153.101562 108.167969 138.011719 C 114.996094 120.644531 122.769531 107.234375 126.441406 106.933594 L 126.671875 106.933594 C 133.484375 106.417969 150.761719 108.730469 176.078125 109.226562 C 186.796875 109.472656 197.410156 111.40625 207.523438 114.960938 C 211.960938 116.523438 229.800781 121.726562 240.433594 126.8125 C 243.253906 127.9375 245.816406 129.636719 247.957031 131.796875 C 248.972656 133.140625 249.304688 136.417969 249.085938 140.9375 Z M 249.085938 140.9375 " fill-opacity="1" fill-rule="nonzero"/><path fill="#fcc71f" d="M 111.074219 297.136719 C 106.378906 296.277344 101.777344 294.957031 97.335938 293.199219 C 89.378906 289.875 84.777344 285.1875 85.574219 278.457031 C 85.6875 277.632812 85.859375 276.816406 86.089844 276.015625 C 90.082031 261.835938 92.496094 247.261719 93.300781 232.554688 C 93.882812 224.5625 94.195312 216.5 94.578125 208.175781 L 129.628906 174.820312 C 139.25 190.910156 120.777344 222.035156 108.464844 230.027344 C 96.15625 238.023438 97.003906 253.792969 122.953125 259.3125 C 142.636719 263.5 122.136719 286.335938 111.074219 297.136719 Z M 111.074219 297.136719 " fill-opacity="1" fill-rule="nonzero"/><path fill="#ffe05c" d="M 265.597656 139.839844 C 260.074219 139.417969 254.507812 139.785156 249.085938 140.9375 C 239.617188 142.949219 228.289062 147.851562 221.296875 159.652344 C 217.15625 166.488281 211.769531 172.488281 205.414062 177.332031 C 188.800781 189.964844 166.558594 193.785156 152.253906 170.121094 C 149.011719 164.519531 145.382812 159.15625 141.390625 154.066406 C 132.933594 143.695312 123.566406 138.0625 108.167969 137.980469 C 98.613281 137.980469 86.753906 140.023438 71.355469 144.394531 C 89.097656 122.972656 108.449219 106.054688 126.589844 106.886719 C 133.398438 106.371094 150.675781 108.679688 175.992188 109.179688 C 186.710938 109.421875 197.324219 111.359375 207.441406 114.914062 C 211.875 116.472656 229.714844 121.675781 240.347656 126.761719 C 247.007812 129.039062 255.800781 133.726562 265.597656 139.839844 Z M 265.597656 139.839844 " fill-opacity="1" fill-rule="nonzero"/><path fill="#683f1d" d="M 196.625 134.921875 C 196.625 134.921875 201.34375 150.210938 203.269531 151.539062 L 211.226562 152.785156 C 213.824219 148.140625 216 143.273438 217.738281 138.242188 L 209.253906 126.195312 Z M 196.625 134.921875 " fill-opacity="1" fill-rule="nonzero"/><path fill="#683f1d" d="M 203.136719 151.574219 L 184.863281 221.257812 C 184.863281 221.257812 186.972656 230.5625 197.40625 244.722656 C 197.40625 244.722656 207.957031 230.945312 210.183594 224.980469 L 211.0625 152.820312 Z M 203.136719 151.574219 " fill-opacity="1" fill-rule="nonzero"/><path fill="#ffffff" d="M 183.320312 103.660156 C 179 103.792969 170.03125 107.765625 170.03125 111.386719 C 170.03125 115.011719 178.101562 143.710938 191.09375 150.859375 C 191.09375 150.859375 196.078125 135.902344 209.234375 133.757812 Z M 183.320312 103.660156 " fill-opacity="1" fill-rule="nonzero"/><path fill="#ffffff" d="M 209.183594 133.757812 C 214.296875 140.046875 218.539062 146.996094 221.792969 154.414062 C 221.792969 154.414062 234.617188 137.628906 232.855469 124.070312 C 232.574219 121.808594 221.230469 116.390625 221.230469 116.390625 Z M 209.183594 133.757812 " fill-opacity="1" fill-rule="nonzero"/><path stroke-linecap="round" transform="matrix(3.130467, 0, 0, 3.131759, -105.171666, 0.754773)" fill="none" stroke-linejoin="round" d="M 109.27502 66.539561 C 109.364863 66.066833 109.460945 65.600342 109.550788 65.148818 C 110.123536 62.37856 110.793614 59.264046 111.402548 56.223123 C 111.444974 56.006092 111.482409 55.792804 111.524834 55.580762 " stroke="#f7ad2b" stroke-width="0.377" stroke-opacity="1" stroke-miterlimit="4"/><path fill="#b25e47" d="M 224.734375 119.582031 C 224.734375 119.582031 219.515625 134.953125 208.917969 134.921875 C 191.625 134.921875 180.828125 107.132812 180.828125 107.132812 C 186.144531 85.527344 185.613281 75.558594 185.613281 75.558594 C 185.03125 61.300781 217.738281 42.484375 222.257812 84.816406 L 222.65625 90.433594 L 224.054688 110.058594 Z M 224.734375 119.582031 " fill-opacity="1" fill-rule="nonzero"/><path fill="#914839" d="M 223.988281 110.058594 C 212.855469 109.691406 202.691406 103.894531 202.15625 90.433594 L 222.589844 90.433594 Z M 223.988281 110.058594 " fill-opacity="1" fill-rule="nonzero"/><path fill="#604730" d="M 221.246094 34.308594 C 220.699219 38.148438 215.765625 40.691406 215.765625 40.691406 L 204.417969 57.609375 C 204.417969 57.609375 194.132812 69.394531 183.152344 68.195312 C 181.539062 68.011719 179.964844 67.554688 178.503906 66.851562 C 173.085938 64.222656 176.242188 59.105469 175.179688 57.460938 C 174.117188 55.816406 171.410156 55.582031 170.746094 52.476562 C 170.078125 49.367188 175.015625 49.632812 172.921875 46.324219 C 170.828125 43.019531 169.597656 40.308594 173.070312 37.898438 C 176.542969 35.492188 173.203125 34.578125 175.414062 30.738281 C 177.074219 27.761719 179.980469 31.367188 181.027344 27.414062 C 182.074219 23.457031 185.246094 24.886719 187.523438 24.523438 C 190.414062 24.054688 187.953125 21.5625 191.890625 20.617188 C 193.820312 20.152344 193.753906 22.410156 196.011719 20.898438 C 196.976562 20.171875 198.117188 19.722656 199.316406 19.597656 C 200.519531 19.46875 201.730469 19.671875 202.824219 20.183594 C 205.710938 22.09375 205.578125 18.238281 209.203125 19.4375 C 211.761719 20.285156 210.132812 22.226562 213.652344 22.761719 C 217.175781 23.292969 217.089844 25.386719 217.375 27.597656 L 217.523438 28.511719 C 217.988281 31.101562 221.777344 30.472656 221.246094 34.308594 Z M 221.246094 34.308594 " fill-opacity="1" fill-rule="nonzero"/><path fill="#473526" d="M 223.671875 32.5 C 223.105469 36.605469 217.9375 39.328125 217.9375 39.328125 L 206.046875 57.425781 C 206.046875 57.425781 195.265625 70.039062 183.75 68.761719 C 183.972656 67.8125 183.90625 66.816406 183.570312 65.902344 C 182.390625 64.125 179.617188 63.890625 178.917969 60.585938 C 178.21875 57.277344 183.402344 57.527344 181.210938 53.9375 C 179.015625 50.347656 177.738281 47.503906 181.359375 44.929688 C 184.980469 42.355469 181.492188 41.375 183.816406 37.269531 C 185.613281 34.078125 188.601562 37.933594 189.714844 33.761719 C 190.828125 29.589844 194.132812 31.070312 196.511719 30.6875 C 199.535156 30.171875 196.957031 27.511719 201.113281 26.5 C 203.105469 25.984375 203.054688 28.410156 205.414062 26.796875 C 207.773438 25.1875 210.78125 24.820312 212.558594 26.035156 C 215.578125 28.078125 215.449219 23.957031 219.199219 25.234375 C 219.324219 25.261719 219.4375 25.300781 219.550781 25.351562 C 219.550781 25.683594 219.550781 26 219.699219 26.332031 C 220.28125 29.023438 224.25 28.359375 223.671875 32.5 Z M 223.671875 32.5 " fill-opacity="1" fill-rule="nonzero"/><path fill="#b25e47" d="M 231.277344 88.871094 C 228.222656 97.496094 209.78125 107.28125 187.390625 79.113281 C 185.378906 79.722656 183.210938 79.574219 181.304688 78.691406 C 179.394531 77.808594 177.878906 76.257812 177.039062 74.328125 C 173.71875 67.960938 178.46875 58.640625 189.5 63.125 C 191.507812 63.941406 192.621094 58.855469 190.195312 55.300781 C 187.773438 51.742188 183.550781 43.101562 193.386719 36.800781 C 203.222656 30.503906 216.277344 31.152344 221.296875 39.011719 C 224.445312 44.230469 226.949219 49.808594 228.753906 55.632812 C 229.601562 58.242188 230.414062 60.933594 230.960938 63.660156 C 233.039062 72.863281 233.605469 82.222656 231.277344 88.871094 Z M 231.277344 88.871094 " fill-opacity="1" fill-rule="nonzero"/><path fill="#a0503d" d="M 210.398438 65.871094 C 209.882812 67.964844 205.777344 68.761719 201.210938 67.632812 C 196.640625 66.5 193.386719 63.910156 193.902344 61.8125 C 194.417969 59.71875 198.535156 58.921875 203.085938 60.035156 C 207.640625 61.148438 210.910156 63.777344 210.398438 65.871094 Z M 210.398438 65.871094 " fill-opacity="1" fill-rule="nonzero"/><path fill="#a0503d" d="M 230.960938 63.691406 C 228.769531 64.90625 226.777344 65.171875 225.761719 64.171875 C 224.300781 62.710938 225.617188 58.921875 228.753906 55.664062 C 229.601562 58.273438 230.347656 60.964844 230.960938 63.691406 Z M 230.960938 63.691406 " fill-opacity="1" fill-rule="nonzero"/><path fill="#604730" d="M 197.722656 51.34375 C 198.085938 53.15625 209.917969 49.683594 208.765625 45.894531 C 207.222656 40.808594 197.089844 48.089844 197.722656 51.34375 Z M 197.722656 51.34375 " fill-opacity="1" fill-rule="nonzero"/><path fill="#604730" d="M 214.964844 45.792969 C 215.214844 48.136719 224.703125 48.167969 224.667969 46.65625 C 224.632812 45.144531 214.402344 40.523438 214.964844 45.792969 Z M 214.964844 45.792969 " fill-opacity="1" fill-rule="nonzero"/><path fill="#683f1d" d="M 206.707031 56.796875 C 206.707031 57.21875 206.835938 57.632812 207.070312 57.988281 C 207.304688 58.339844 207.640625 58.613281 208.03125 58.777344 C 208.421875 58.9375 208.855469 58.980469 209.269531 58.898438 C 209.683594 58.816406 210.066406 58.613281 210.367188 58.3125 C 210.667969 58.011719 210.871094 57.628906 210.953125 57.214844 C 211.035156 56.796875 210.992188 56.367188 210.832031 55.976562 C 210.671875 55.585938 210.394531 55.25 210.042969 55.011719 C 209.691406 54.777344 209.273438 54.652344 208.851562 54.652344 C 208.570312 54.648438 208.292969 54.703125 208.027344 54.8125 C 207.769531 54.917969 207.53125 55.074219 207.332031 55.273438 C 207.132812 55.476562 206.972656 55.710938 206.867188 55.972656 C 206.761719 56.234375 206.707031 56.515625 206.707031 56.796875 Z M 206.707031 56.796875 " fill-opacity="1" fill-rule="nonzero"/><path fill="#683f1d" d="M 219.050781 54.652344 C 219.0625 55.074219 219.199219 55.480469 219.445312 55.824219 C 219.6875 56.167969 220.027344 56.433594 220.417969 56.585938 C 220.8125 56.734375 221.238281 56.769531 221.652344 56.679688 C 222.0625 56.589844 222.4375 56.378906 222.730469 56.078125 C 223.023438 55.773438 223.21875 55.394531 223.300781 54.980469 C 223.378906 54.566406 223.332031 54.136719 223.167969 53.75 C 223 53.363281 222.730469 53.03125 222.378906 52.796875 C 222.027344 52.566406 221.613281 52.441406 221.195312 52.441406 C 220.90625 52.441406 220.621094 52.5 220.359375 52.609375 C 220.09375 52.722656 219.855469 52.886719 219.65625 53.09375 C 219.453125 53.296875 219.296875 53.542969 219.195312 53.808594 C 219.089844 54.078125 219.042969 54.363281 219.050781 54.652344 Z M 219.050781 54.652344 " fill-opacity="1" fill-rule="nonzero"/><path stroke-linecap="round" transform="matrix(3.130467, 0, 0, 3.131759, -105.171666, 0.754773)" fill="none" stroke-linejoin="round" d="M 91.338897 21.969706 C 91.869219 20.658792 93.80084 20.908252 94.406032 22.352628 " stroke="#934735" stroke-width="0.377" stroke-opacity="1" stroke-miterlimit="4"/><path stroke-linecap="round" transform="matrix(3.130467, 0, 0, 3.131759, -105.171666, 0.754773)" fill="none" stroke-linejoin="round" d="M 94.002987 21.731472 C 93.079602 21.168938 91.498618 23.280621 94.002987 23.885563 " stroke="#934735" stroke-width="0.377" stroke-opacity="1" stroke-miterlimit="4"/><path stroke-linecap="round" transform="matrix(3.130467, 0, 0, 3.131759, -105.171666, 0.754773)" fill="none" stroke-linejoin="round" d="M 93.456443 25.020608 C 94.06413 24.855964 94.634382 24.576568 95.1385 24.198636 " stroke="#934735" stroke-width="0.377" stroke-opacity="1" stroke-miterlimit="4"/><path stroke-linecap="round" transform="matrix(3.130467, 0, 0, 3.131759, -105.171666, 0.754773)" fill="none" stroke-linejoin="round" d="M 102.073868 16.042526 C 102.073868 18.573302 103.230594 18.848956 104.398551 19.310458 C 105.369353 19.69338 105.061142 20.764812 104.832791 21.110315 " stroke="#934735" stroke-width="0.377" stroke-opacity="1" stroke-miterlimit="4"/><path stroke-linecap="round" transform="matrix(3.130467, 0, 0, 3.131759, -105.171666, 0.754773)" fill-opacity="1" fill="#ffffff" fill-rule="nonzero" stroke-linejoin="round" d="M 100.806085 22.760496 C 102.785123 22.760496 104.287495 22.649486 104.287495 22.649486 C 104.287495 22.649486 103.406536 25.147833 102.281005 25.020608 C 101.155474 24.893383 100.806085 22.760496 100.806085 22.760496 Z M 100.806085 22.760496 " stroke="#934735" stroke-width="0.377" stroke-opacity="1" stroke-miterlimit="4"/><path fill="#ededed" d="M 209.015625 275.097656 L 134.027344 228.152344 L 65.914062 337.035156 L 140.898438 383.980469 Z M 209.015625 275.097656 " fill-opacity="1" fill-rule="nonzero"/><path fill="#f9f9f9" d="M 197.492188 280.082031 L 134.589844 240.695312 L 77.4375 332.054688 L 140.339844 371.4375 Z M 197.492188 280.082031 " fill-opacity="1" fill-rule="nonzero"/><path stroke-linecap="round" transform="matrix(3.130467, 0, 0, 3.131759, -105.171666, 0.754773)" fill-opacity="1" fill="#dddddd" fill-rule="nonzero" stroke-linejoin="round" d="M 91.927867 80.751323 C 92.164952 80.550508 92.369594 80.31352 92.533058 80.050339 C 92.730213 79.727288 92.861234 79.368065 92.918634 78.993874 C 92.977281 78.619684 92.961059 78.238009 92.871217 77.870055 C 92.782622 77.502101 92.621653 77.155351 92.398294 76.849762 C 92.174935 76.544172 91.892928 76.285981 91.569743 76.088907 C 91.246559 75.891833 90.887187 75.760867 90.512842 75.702243 C 90.139745 75.644867 89.757913 75.661082 89.389807 75.749641 C 89.021701 75.839447 88.674808 76.000349 88.369092 76.223616 C 88.063377 76.446883 87.805079 76.728773 87.607924 77.051825 C 87.449451 77.3175 87.333404 77.605627 87.263526 77.906227 L 83.628635 75.693512 L 80.847251 80.252402 L 92.787613 87.526669 L 95.562758 82.964038 Z M 91.927867 80.751323 " stroke="#ededed" stroke-width="0.504" stroke-opacity="1" stroke-miterlimit="4"/><path fill="#f9f9f9" d="M 177.828125 250.976562 C 180.164062 250.40625 181.59375 248.046875 181.023438 245.710938 C 180.449219 243.375 178.09375 241.945312 175.761719 242.519531 C 173.425781 243.089844 171.996094 245.445312 172.566406 247.78125 C 173.136719 250.117188 175.492188 251.546875 177.828125 250.976562 Z M 177.828125 250.976562 " fill-opacity="1" fill-rule="nonzero"/><path stroke-linecap="round" transform="matrix(3.130467, 0, 0, 3.131759, -105.171666, 0.754773)" fill="none" stroke-linejoin="round" d="M 77.737691 82.173248 L 91.434979 90.748451 " stroke="#dddddd" stroke-width="0.504" stroke-opacity="1" stroke-miterlimit="4"/><path stroke-linecap="round" transform="matrix(3.130467, 0, 0, 3.131759, -105.171666, 0.754773)" fill="none" stroke-linejoin="round" d="M 76.368835 84.593014 L 90.071115 93.168218 " stroke="#dddddd" stroke-width="0.504" stroke-opacity="1" stroke-miterlimit="4"/><path stroke-linecap="round" transform="matrix(3.130467, 0, 0, 3.131759, -105.171666, 0.754773)" fill="none" stroke-linejoin="round" d="M 75.004971 87.012781 L 85.682542 93.693332 " stroke="#dddddd" stroke-width="0.504" stroke-opacity="1" stroke-miterlimit="4"/><path fill="#b25e47" d="M 139.3125 306.527344 C 159.363281 316.5 165.894531 319.957031 167.324219 321.167969 C 171.425781 324.808594 170.960938 331.554688 170.960938 331.554688 C 170.960938 331.554688 179.765625 336.058594 180.660156 338.601562 C 181.558594 341.144531 176.972656 345.980469 174.015625 345.730469 C 174.015625 345.730469 170.476562 349.671875 167.289062 349.421875 C 167.289062 349.421875 166.125 354.640625 161.789062 354.886719 C 161.789062 354.886719 161.292969 359.34375 155.144531 358.0625 C 149 356.78125 122.402344 335.296875 122.402344 335.296875 Z M 139.3125 306.527344 " fill-opacity="1" fill-rule="nonzero"/><path fill="#fed81d" d="M 141.558594 307.644531 C 139.765625 311.449219 129.78125 329.945312 125.511719 337.808594 C 124.332031 340 123.582031 341.363281 123.582031 341.363281 C 123.582031 341.363281 95.726562 330.242188 70.90625 319.890625 C 56.136719 313.691406 42.449219 307.777344 36.355469 304.632812 C 32.453125 302.6875 28.695312 300.464844 25.105469 297.988281 C 17.015625 292.304688 11.351562 285.820312 9.308594 278.042969 C 7.265625 270.265625 8.859375 260.976562 15.503906 250.023438 C 17.25 247.222656 19.527344 244.789062 22.207031 242.867188 C 24.890625 240.945312 27.925781 239.570312 31.136719 238.824219 C 34.589844 237.964844 38.148438 237.617188 41.703125 237.792969 L 42.898438 237.792969 C 44.160156 237.792969 45.441406 238.027344 46.71875 238.226562 C 47.101562 238.226562 47.484375 238.339844 47.867188 238.425781 L 49.128906 238.65625 L 51.253906 239.15625 L 51.335938 239.15625 L 52.46875 239.457031 L 52.980469 239.605469 C 53.429688 239.722656 53.863281 239.855469 54.292969 240.003906 L 55.605469 240.417969 L 56.917969 240.882812 L 58.265625 241.398438 C 60.46875 242.253906 62.621094 243.238281 64.710938 244.339844 C 65.09375 244.523438 65.472656 244.707031 65.839844 244.921875 L 67.5 245.835938 L 68.878906 246.652344 L 68.980469 246.652344 C 70.789062 247.75 72.601562 248.945312 74.429688 250.257812 L 75.808594 251.269531 C 78.101562 252.933594 80.410156 254.894531 82.683594 256.972656 C 109.480469 281.484375 141.042969 306.828125 141.855469 306.828125 C 141.875 306.929688 141.789062 307.175781 141.558594 307.644531 Z M 141.558594 307.644531 " fill-opacity="1" fill-rule="nonzero"/><path fill="#fcc71f" d="M 70.90625 319.890625 C 56.136719 313.691406 42.449219 307.777344 36.355469 304.632812 C 32.453125 302.6875 28.695312 300.464844 25.105469 297.988281 C 17.015625 292.304688 11.351562 285.820312 9.308594 278.042969 C 7.265625 270.265625 8.859375 260.976562 15.503906 250.023438 C 17.25 247.222656 19.527344 244.789062 22.207031 242.867188 C 24.890625 240.945312 27.925781 239.570312 31.136719 238.824219 C 30.640625 247.398438 27.699219 255.941406 22.832031 261.722656 C 20.265625 264.722656 18.914062 268.570312 19.046875 272.515625 C 19.179688 276.460938 20.785156 280.210938 23.546875 283.03125 C 27.949219 287.816406 35.441406 290.855469 45.421875 289.527344 C 49.527344 289.011719 53.5625 290.90625 57.203125 294.199219 C 63.929688 300.3125 69.277344 311.214844 70.90625 319.890625 Z M 70.90625 319.890625 " fill-opacity="1" fill-rule="nonzero"/><path stroke-linecap="round" transform="matrix(3.130467, 0, 0, 3.131759, -105.171666, 0.754773)" fill="none" stroke-linejoin="round" d="M 46.536024 75.683534 C 50.568969 75.735921 55.412995 77.67797 60.003714 81.870153 C 68.594935 89.729405 78.719723 97.833129 78.905648 97.79072 " stroke="#f7ad2b" stroke-width="0.377" stroke-opacity="1" stroke-miterlimit="4"/><path stroke-linecap="round" transform="matrix(3.130467, 0, 0, 3.131759, -105.171666, 0.754773)" fill="none" stroke-linejoin="round" d="M 74.554509 97.917945 C 73.249293 100.486141 70.813554 105.081202 70.813554 105.081202 " stroke="#f7ad2b" stroke-width="0.377" stroke-opacity="1" stroke-miterlimit="4"/><path stroke-linecap="round" transform="matrix(3.130467, 0, 0, 3.131759, -105.171666, 0.754773)" fill="none" stroke-linejoin="round" d="M 87.046406 102.312191 C 88.356614 103.47343 88.208124 105.627521 88.208124 105.627521 C 88.208124 105.627521 91.020704 107.06566 91.307702 107.877654 C 91.593452 108.689648 90.128515 110.233808 89.183917 110.155228 C 89.183917 110.155228 88.054643 111.412509 87.035176 111.332682 C 87.035176 111.332682 86.663326 112.999078 85.279497 113.078905 C 85.279497 113.078905 85.119777 114.50083 83.155713 114.091714 " stroke="#934735" stroke-width="0.377" stroke-opacity="1" stroke-miterlimit="4"/><path stroke-linecap="round" transform="matrix(3.130467, 0, 0, 3.131759, -105.171666, 0.754773)" fill="none" stroke-linejoin="round" d="M 88.351623 105.707348 L 85.734951 104.460046 " stroke="#934735" stroke-width="0.377" stroke-opacity="1" stroke-miterlimit="4"/><path stroke-linecap="round" transform="matrix(3.130467, 0, 0, 3.131759, -105.171666, 0.754773)" fill="none" stroke-linejoin="round" d="M 89.195147 110.153981 C 88.33041 109.800994 87.485638 109.403105 86.664574 108.960313 " stroke="#934735" stroke-width="0.377" stroke-opacity="1" stroke-miterlimit="4"/><path stroke-linecap="round" transform="matrix(3.130467, 0, 0, 3.131759, -105.171666, 0.754773)" fill="none" stroke-linejoin="round" d="M 87.046406 111.332682 C 86.517332 111.115651 86.015709 110.839997 85.549026 110.509462 " stroke="#934735" stroke-width="0.377" stroke-opacity="1" stroke-miterlimit="4"/></svg>