<svg width="72" height="72" viewBox="0 0 72 72" fill="none" xmlns="http://www.w3.org/2000/svg">
<path d="M66 36C66 52.5685 52.5685 66 36 66C19.4315 66 6 52.5685 6 36C6 19.4315 19.4315 6 36 6C52.5685 6 66 19.4315 66 36Z" fill="white"/>
<path d="M66 36.1833C66 19.5135 52.5686 6 36 6C19.4314 6 6 19.5135 6 36.1833C6 51.2485 16.9705 63.7357 31.3125 66V44.9082H23.6953V36.1833H31.3125V29.5336C31.3125 21.9689 35.7914 17.7904 42.6439 17.7904C45.9252 17.7904 49.3594 18.3799 49.3594 18.3799V25.8078H45.5766C41.85 25.8078 40.6875 28.1346 40.6875 30.524V36.1833H49.0078L47.6777 44.9082H40.6875V66C55.0295 63.7357 66 51.2485 66 36.1833Z" fill="url(#paint0_linear_698_7654)"/>
<defs>
<linearGradient id="paint0_linear_698_7654" x1="36" y1="6" x2="36" y2="66" gradientUnits="userSpaceOnUse">
<stop stop-color="#50AAF7"/>
<stop offset="1" stop-color="#2961D8"/>
</linearGradient>
</defs>
</svg>
