<svg width="72" height="72" viewBox="0 0 72 72" fill="none" xmlns="http://www.w3.org/2000/svg">
<path d="M66 36.675C66 34.7 65.8212 32.825 65.5147 31H36.6513V42.275H53.1775C52.4368 45.975 50.2656 49.1 47.0473 51.225V58.725H56.9068C62.6794 53.5 66 45.8 66 36.675Z" fill="#4285F4"/>
<path d="M36.6513 66C44.9272 66 51.8493 63.3 56.9068 58.725L47.0473 51.225C44.2886 53.025 40.7893 54.125 36.6513 54.125C28.6564 54.125 21.8876 48.85 19.461 41.725H9.29502V49.45C14.3269 59.25 24.6718 66 36.6513 66Z" fill="#34A853"/>
<path d="M19.461 41.725C18.8225 39.925 18.4904 38 18.4904 36C18.4904 34 18.848 32.075 19.461 30.275V22.55H9.29502C7.20051 26.6 6 31.15 6 36C6 40.85 7.20051 45.4 9.29502 49.45L19.461 41.725Z" fill="#FBBC05"/>
<path d="M36.6513 17.875C41.1724 17.875 45.2082 19.4 48.401 22.375L57.1367 13.825C51.8493 8.975 44.9272 6 36.6513 6C24.6718 6 14.3269 12.75 9.29502 22.55L19.461 30.275C21.8876 23.15 28.6564 17.875 36.6513 17.875Z" fill="#EA4335"/>
</svg>
