<svg xmlns="http://www.w3.org/2000/svg" xmlns:xlink="http://www.w3.org/1999/xlink" width="406" zoomAndPan="magnify" viewBox="0 0 304.5 169.5" height="226" preserveAspectRatio="xMidYMid meet" version="1.0"><defs><clipPath id="4aa6e7ef3f"><path d="M 64.910156 0.0390625 L 233.4375 0.0390625 L 233.4375 168.570312 L 64.910156 168.570312 Z M 64.910156 0.0390625 " clip-rule="nonzero"/></clipPath><clipPath id="a80d52b2a8"><path d="M 64.910156 0.0390625 L 233.4375 0.0390625 L 233.4375 168.570312 L 64.910156 168.570312 Z M 64.910156 0.0390625 " clip-rule="nonzero"/></clipPath><clipPath id="da9168296c"><path d="M 199.273438 134.269531 C 188.273438 134.269531 177.273438 134.269531 166.269531 134.269531 C 166.269531 98.210938 166.273438 62.152344 166.273438 26.09375 C 166.273438 7.558594 158.75 0.0390625 140.195312 0.0390625 L 64.910156 0.0390625 L 99.242188 34.339844 C 110.140625 34.339844 121.039062 34.339844 131.9375 34.339844 C 131.9375 70.398438 131.933594 106.457031 131.933594 142.515625 C 131.933594 161.050781 139.460938 168.566406 158.015625 168.566406 L 233.609375 168.566406 Z M 199.273438 134.269531 " clip-rule="nonzero"/></clipPath><linearGradient x1="2566.556983" gradientTransform="matrix(0.0596553, 0, 0, 0.0595935, 64.908622, 0.0409592)" y1="2944.785595" x2="1025.898391" gradientUnits="userSpaceOnUse" y2="-463.711694" id="f9d5777136"><stop stop-opacity="1" stop-color="rgb(9.799194%, 39.199829%, 67.799377%)" offset="0"/><stop stop-opacity="1" stop-color="rgb(9.799194%, 39.199829%, 67.799377%)" offset="0.125"/><stop stop-opacity="1" stop-color="rgb(9.799194%, 39.199829%, 67.799377%)" offset="0.1875"/><stop stop-opacity="1" stop-color="rgb(9.794617%, 39.212036%, 67.810059%)" offset="0.203125"/><stop stop-opacity="1" stop-color="rgb(9.732056%, 39.402771%, 67.964172%)" offset="0.210938"/><stop stop-opacity="1" stop-color="rgb(9.617615%, 39.759827%, 68.251038%)" offset="0.21875"/><stop stop-opacity="1" stop-color="rgb(9.501648%, 40.115356%, 68.539429%)" offset="0.226562"/><stop stop-opacity="1" stop-color="rgb(9.385681%, 40.472412%, 68.82782%)" offset="0.234375"/><stop stop-opacity="1" stop-color="rgb(9.269714%, 40.829468%, 69.116211%)" offset="0.242188"/><stop stop-opacity="1" stop-color="rgb(9.155273%, 41.184998%, 69.403076%)" offset="0.25"/><stop stop-opacity="1" stop-color="rgb(9.039307%, 41.542053%, 69.691467%)" offset="0.257813"/><stop stop-opacity="1" stop-color="rgb(8.92334%, 41.897583%, 69.979858%)" offset="0.265625"/><stop stop-opacity="1" stop-color="rgb(8.807373%, 42.254639%, 70.266724%)" offset="0.273438"/><stop stop-opacity="1" stop-color="rgb(8.691406%, 42.610168%, 70.555115%)" offset="0.28125"/><stop stop-opacity="1" stop-color="rgb(8.576965%, 42.967224%, 70.843506%)" offset="0.289062"/><stop stop-opacity="1" stop-color="rgb(8.460999%, 43.32428%, 71.131897%)" offset="0.296875"/><stop stop-opacity="1" stop-color="rgb(8.345032%, 43.67981%, 71.418762%)" offset="0.304688"/><stop stop-opacity="1" stop-color="rgb(8.229065%, 44.036865%, 71.707153%)" offset="0.311079"/><stop stop-opacity="1" stop-color="rgb(8.171082%, 44.215393%, 71.852112%)" offset="0.3125"/><stop stop-opacity="1" stop-color="rgb(8.113098%, 44.392395%, 71.995544%)" offset="0.320313"/><stop stop-opacity="1" stop-color="rgb(7.998657%, 44.749451%, 72.28241%)" offset="0.328125"/><stop stop-opacity="1" stop-color="rgb(7.88269%, 45.10498%, 72.570801%)" offset="0.335938"/><stop stop-opacity="1" stop-color="rgb(7.766724%, 45.462036%, 72.859192%)" offset="0.34375"/><stop stop-opacity="1" stop-color="rgb(7.650757%, 45.819092%, 73.147583%)" offset="0.351563"/><stop stop-opacity="1" stop-color="rgb(7.53479%, 46.174622%, 73.434448%)" offset="0.359375"/><stop stop-opacity="1" stop-color="rgb(7.420349%, 46.531677%, 73.722839%)" offset="0.367188"/><stop stop-opacity="1" stop-color="rgb(7.304382%, 46.887207%, 74.01123%)" offset="0.375"/><stop stop-opacity="1" stop-color="rgb(7.188416%, 47.244263%, 74.298096%)" offset="0.382813"/><stop stop-opacity="1" stop-color="rgb(7.072449%, 47.599792%, 74.586487%)" offset="0.390625"/><stop stop-opacity="1" stop-color="rgb(6.956482%, 47.956848%, 74.874878%)" offset="0.398438"/><stop stop-opacity="1" stop-color="rgb(6.842041%, 48.313904%, 75.163269%)" offset="0.40625"/><stop stop-opacity="1" stop-color="rgb(6.726074%, 48.669434%, 75.450134%)" offset="0.414062"/><stop stop-opacity="1" stop-color="rgb(6.610107%, 49.026489%, 75.738525%)" offset="0.421875"/><stop stop-opacity="1" stop-color="rgb(6.494141%, 49.382019%, 76.026917%)" offset="0.429688"/><stop stop-opacity="1" stop-color="rgb(6.378174%, 49.739075%, 76.313782%)" offset="0.4375"/><stop stop-opacity="1" stop-color="rgb(6.263733%, 50.094604%, 76.602173%)" offset="0.445312"/><stop stop-opacity="1" stop-color="rgb(6.147766%, 50.45166%, 76.890564%)" offset="0.453125"/><stop stop-opacity="1" stop-color="rgb(6.031799%, 50.808716%, 77.178955%)" offset="0.460938"/><stop stop-opacity="1" stop-color="rgb(5.915833%, 51.164246%, 77.46582%)" offset="0.46875"/><stop stop-opacity="1" stop-color="rgb(5.799866%, 51.521301%, 77.754211%)" offset="0.476562"/><stop stop-opacity="1" stop-color="rgb(5.685425%, 51.876831%, 78.042603%)" offset="0.484375"/><stop stop-opacity="1" stop-color="rgb(5.569458%, 52.233887%, 78.329468%)" offset="0.492188"/><stop stop-opacity="1" stop-color="rgb(5.453491%, 52.590942%, 78.617859%)" offset="0.5"/><stop stop-opacity="1" stop-color="rgb(5.337524%, 52.946472%, 78.90625%)" offset="0.507812"/><stop stop-opacity="1" stop-color="rgb(5.221558%, 53.303528%, 79.194641%)" offset="0.515625"/><stop stop-opacity="1" stop-color="rgb(5.107117%, 53.659058%, 79.481506%)" offset="0.523438"/><stop stop-opacity="1" stop-color="rgb(4.99115%, 54.016113%, 79.769897%)" offset="0.53125"/><stop stop-opacity="1" stop-color="rgb(4.875183%, 54.371643%, 80.058289%)" offset="0.539062"/><stop stop-opacity="1" stop-color="rgb(4.759216%, 54.728699%, 80.345154%)" offset="0.546875"/><stop stop-opacity="1" stop-color="rgb(4.64325%, 55.085754%, 80.633545%)" offset="0.554688"/><stop stop-opacity="1" stop-color="rgb(4.528809%, 55.441284%, 80.921936%)" offset="0.5625"/><stop stop-opacity="1" stop-color="rgb(4.412842%, 55.79834%, 81.210327%)" offset="0.570312"/><stop stop-opacity="1" stop-color="rgb(4.296875%, 56.15387%, 81.497192%)" offset="0.578125"/><stop stop-opacity="1" stop-color="rgb(4.180908%, 56.510925%, 81.785583%)" offset="0.585938"/><stop stop-opacity="1" stop-color="rgb(4.064941%, 56.866455%, 82.073975%)" offset="0.59375"/><stop stop-opacity="1" stop-color="rgb(3.9505%, 57.223511%, 82.36084%)" offset="0.601562"/><stop stop-opacity="1" stop-color="rgb(3.834534%, 57.580566%, 82.649231%)" offset="0.609375"/><stop stop-opacity="1" stop-color="rgb(3.718567%, 57.936096%, 82.937622%)" offset="0.617188"/><stop stop-opacity="1" stop-color="rgb(3.6026%, 58.293152%, 83.226013%)" offset="0.625"/><stop stop-opacity="1" stop-color="rgb(3.488159%, 58.648682%, 83.512878%)" offset="0.632813"/><stop stop-opacity="1" stop-color="rgb(3.372192%, 59.005737%, 83.80127%)" offset="0.640625"/><stop stop-opacity="1" stop-color="rgb(3.256226%, 59.361267%, 84.089661%)" offset="0.648438"/><stop stop-opacity="1" stop-color="rgb(3.140259%, 59.718323%, 84.378052%)" offset="0.65625"/><stop stop-opacity="1" stop-color="rgb(3.024292%, 60.075378%, 84.664917%)" offset="0.664063"/><stop stop-opacity="1" stop-color="rgb(2.909851%, 60.430908%, 84.953308%)" offset="0.671875"/><stop stop-opacity="1" stop-color="rgb(2.793884%, 60.787964%, 85.241699%)" offset="0.679688"/><stop stop-opacity="1" stop-color="rgb(2.677917%, 61.143494%, 85.528564%)" offset="0.6875"/><stop stop-opacity="1" stop-color="rgb(2.561951%, 61.500549%, 85.816956%)" offset="0.688921"/><stop stop-opacity="1" stop-color="rgb(2.503967%, 61.679077%, 85.961914%)" offset="0.695312"/><stop stop-opacity="1" stop-color="rgb(2.445984%, 61.856079%, 86.105347%)" offset="0.703125"/><stop stop-opacity="1" stop-color="rgb(2.331543%, 62.213135%, 86.393738%)" offset="0.710938"/><stop stop-opacity="1" stop-color="rgb(2.215576%, 62.57019%, 86.680603%)" offset="0.71875"/><stop stop-opacity="1" stop-color="rgb(2.099609%, 62.92572%, 86.968994%)" offset="0.726563"/><stop stop-opacity="1" stop-color="rgb(1.983643%, 63.282776%, 87.257385%)" offset="0.734375"/><stop stop-opacity="1" stop-color="rgb(1.867676%, 63.638306%, 87.54425%)" offset="0.742188"/><stop stop-opacity="1" stop-color="rgb(1.753235%, 63.995361%, 87.832642%)" offset="0.75"/><stop stop-opacity="1" stop-color="rgb(1.637268%, 64.350891%, 88.121033%)" offset="0.757812"/><stop stop-opacity="1" stop-color="rgb(1.521301%, 64.707947%, 88.409424%)" offset="0.765625"/><stop stop-opacity="1" stop-color="rgb(1.405334%, 65.065002%, 88.696289%)" offset="0.773438"/><stop stop-opacity="1" stop-color="rgb(1.289368%, 65.420532%, 88.98468%)" offset="0.78125"/><stop stop-opacity="1" stop-color="rgb(1.174927%, 65.777588%, 89.273071%)" offset="0.789063"/><stop stop-opacity="1" stop-color="rgb(1.05896%, 66.133118%, 89.559937%)" offset="0.796875"/><stop stop-opacity="1" stop-color="rgb(0.942993%, 66.490173%, 89.848328%)" offset="0.804688"/><stop stop-opacity="1" stop-color="rgb(0.827026%, 66.845703%, 90.136719%)" offset="0.8125"/><stop stop-opacity="1" stop-color="rgb(0.71106%, 67.202759%, 90.42511%)" offset="0.820313"/><stop stop-opacity="1" stop-color="rgb(0.596619%, 67.559814%, 90.711975%)" offset="0.828125"/><stop stop-opacity="1" stop-color="rgb(0.480652%, 67.915344%, 91.000366%)" offset="0.835938"/><stop stop-opacity="1" stop-color="rgb(0.364685%, 68.2724%, 91.288757%)" offset="0.84375"/><stop stop-opacity="1" stop-color="rgb(0.248718%, 68.62793%, 91.575623%)" offset="0.851562"/><stop stop-opacity="1" stop-color="rgb(0.132751%, 68.984985%, 91.864014%)" offset="0.859375"/><stop stop-opacity="1" stop-color="rgb(0.038147%, 69.281006%, 92.103577%)" offset="0.875"/><stop stop-opacity="1" stop-color="rgb(0%, 69.398499%, 92.199707%)" offset="1"/></linearGradient><clipPath id="4ef61be47f"><path d="M 64.910156 0.0390625 L 233.4375 0.0390625 L 233.4375 168.570312 L 64.910156 168.570312 Z M 64.910156 0.0390625 " clip-rule="nonzero"/></clipPath><clipPath id="2a6c901ac9"><path d="M 99.242188 34.339844 L 99.242188 55.863281 C 99.242188 58.910156 100.503906 61.6875 102.53125 63.714844 C 104.558594 65.742188 107.34375 67 110.390625 67 L 188.128906 67 C 200.652344 67 212.027344 72.105469 220.261719 80.332031 C 228.496094 88.558594 233.609375 99.921875 233.609375 112.433594 L 233.609375 168.566406 L 199.273438 134.265625 L 199.273438 112.433594 C 199.273438 109.390625 198.015625 106.609375 195.984375 104.582031 C 193.957031 102.558594 191.175781 101.300781 188.128906 101.300781 L 110.390625 101.300781 C 97.863281 101.300781 86.488281 96.191406 78.253906 87.96875 C 70.019531 79.742188 64.910156 68.378906 64.910156 55.863281 L 64.910156 0.0390625 Z M 99.242188 34.339844 " clip-rule="nonzero"/></clipPath><linearGradient x1="-48.208968" gradientTransform="matrix(0.0596553, 0, 0, 0.0595935, 64.908622, 0.0409592)" y1="50.571877" x2="2844.215463" gradientUnits="userSpaceOnUse" y2="2807.838517" id="ad4061a92f"><stop stop-opacity="1" stop-color="rgb(14.099121%, 25.099182%, 50.999451%)" offset="0"/><stop stop-opacity="1" stop-color="rgb(14.064026%, 25.215149%, 51.13678%)" offset="0.03125"/><stop stop-opacity="1" stop-color="rgb(13.983154%, 25.476074%, 51.449585%)" offset="0.046875"/><stop stop-opacity="1" stop-color="rgb(13.894653%, 25.769043%, 51.797485%)" offset="0.0625"/><stop stop-opacity="1" stop-color="rgb(13.804626%, 26.062012%, 52.145386%)" offset="0.078125"/><stop stop-opacity="1" stop-color="rgb(13.716125%, 26.353455%, 52.494812%)" offset="0.09375"/><stop stop-opacity="1" stop-color="rgb(13.627625%, 26.646423%, 52.842712%)" offset="0.109375"/><stop stop-opacity="1" stop-color="rgb(13.537598%, 26.939392%, 53.190613%)" offset="0.125"/><stop stop-opacity="1" stop-color="rgb(13.449097%, 27.230835%, 53.540039%)" offset="0.140625"/><stop stop-opacity="1" stop-color="rgb(13.35907%, 27.523804%, 53.887939%)" offset="0.15625"/><stop stop-opacity="1" stop-color="rgb(13.270569%, 27.816772%, 54.23584%)" offset="0.171875"/><stop stop-opacity="1" stop-color="rgb(13.180542%, 28.108215%, 54.585266%)" offset="0.1875"/><stop stop-opacity="1" stop-color="rgb(13.092041%, 28.401184%, 54.933167%)" offset="0.203125"/><stop stop-opacity="1" stop-color="rgb(13.002014%, 28.694153%, 55.281067%)" offset="0.21875"/><stop stop-opacity="1" stop-color="rgb(12.913513%, 28.985596%, 55.630493%)" offset="0.234375"/><stop stop-opacity="1" stop-color="rgb(12.825012%, 29.278564%, 55.978394%)" offset="0.25"/><stop stop-opacity="1" stop-color="rgb(12.734985%, 29.570007%, 56.326294%)" offset="0.265625"/><stop stop-opacity="1" stop-color="rgb(12.646484%, 29.862976%, 56.67572%)" offset="0.28125"/><stop stop-opacity="1" stop-color="rgb(12.556458%, 30.155945%, 57.023621%)" offset="0.296875"/><stop stop-opacity="1" stop-color="rgb(12.467957%, 30.447388%, 57.371521%)" offset="0.3125"/><stop stop-opacity="1" stop-color="rgb(12.37793%, 30.740356%, 57.720947%)" offset="0.328125"/><stop stop-opacity="1" stop-color="rgb(12.289429%, 31.033325%, 58.068848%)" offset="0.34375"/><stop stop-opacity="1" stop-color="rgb(12.199402%, 31.324768%, 58.416748%)" offset="0.359375"/><stop stop-opacity="1" stop-color="rgb(12.110901%, 31.617737%, 58.766174%)" offset="0.375"/><stop stop-opacity="1" stop-color="rgb(12.0224%, 31.910706%, 59.114075%)" offset="0.390625"/><stop stop-opacity="1" stop-color="rgb(11.932373%, 32.202148%, 59.461975%)" offset="0.40625"/><stop stop-opacity="1" stop-color="rgb(11.843872%, 32.495117%, 59.811401%)" offset="0.421875"/><stop stop-opacity="1" stop-color="rgb(11.753845%, 32.78656%, 60.159302%)" offset="0.4375"/><stop stop-opacity="1" stop-color="rgb(11.665344%, 33.079529%, 60.507202%)" offset="0.453125"/><stop stop-opacity="1" stop-color="rgb(11.575317%, 33.372498%, 60.856628%)" offset="0.46875"/><stop stop-opacity="1" stop-color="rgb(11.486816%, 33.66394%, 61.204529%)" offset="0.484375"/><stop stop-opacity="1" stop-color="rgb(11.39679%, 33.956909%, 61.552429%)" offset="0.488292"/><stop stop-opacity="1" stop-color="rgb(11.352539%, 34.103394%, 61.727905%)" offset="0.5"/><stop stop-opacity="1" stop-color="rgb(11.308289%, 34.249878%, 61.901855%)" offset="0.511708"/><stop stop-opacity="1" stop-color="rgb(11.264038%, 34.396362%, 62.075806%)" offset="0.515625"/><stop stop-opacity="1" stop-color="rgb(11.219788%, 34.541321%, 62.249756%)" offset="0.53125"/><stop stop-opacity="1" stop-color="rgb(11.129761%, 34.83429%, 62.597656%)" offset="0.546875"/><stop stop-opacity="1" stop-color="rgb(11.04126%, 35.127258%, 62.947083%)" offset="0.5625"/><stop stop-opacity="1" stop-color="rgb(10.951233%, 35.418701%, 63.294983%)" offset="0.578125"/><stop stop-opacity="1" stop-color="rgb(10.862732%, 35.71167%, 63.642883%)" offset="0.59375"/><stop stop-opacity="1" stop-color="rgb(10.772705%, 36.003113%, 63.99231%)" offset="0.609375"/><stop stop-opacity="1" stop-color="rgb(10.684204%, 36.296082%, 64.34021%)" offset="0.625"/><stop stop-opacity="1" stop-color="rgb(10.595703%, 36.58905%, 64.68811%)" offset="0.640625"/><stop stop-opacity="1" stop-color="rgb(10.505676%, 36.880493%, 65.037537%)" offset="0.65625"/><stop stop-opacity="1" stop-color="rgb(10.417175%, 37.173462%, 65.385437%)" offset="0.671875"/><stop stop-opacity="1" stop-color="rgb(10.327148%, 37.466431%, 65.734863%)" offset="0.6875"/><stop stop-opacity="1" stop-color="rgb(10.238647%, 37.757874%, 66.082764%)" offset="0.703125"/><stop stop-opacity="1" stop-color="rgb(10.148621%, 38.050842%, 66.430664%)" offset="0.71875"/><stop stop-opacity="1" stop-color="rgb(10.06012%, 38.343811%, 66.78009%)" offset="0.734375"/><stop stop-opacity="1" stop-color="rgb(9.970093%, 38.635254%, 67.127991%)" offset="0.75"/><stop stop-opacity="1" stop-color="rgb(9.881592%, 38.928223%, 67.475891%)" offset="0.765625"/><stop stop-opacity="1" stop-color="rgb(9.817505%, 39.137268%, 67.724609%)" offset="0.78125"/><stop stop-opacity="1" stop-color="rgb(9.799194%, 39.199829%, 67.799377%)" offset="0.8125"/><stop stop-opacity="1" stop-color="rgb(9.799194%, 39.199829%, 67.799377%)" offset="0.875"/><stop stop-opacity="1" stop-color="rgb(9.799194%, 39.199829%, 67.799377%)" offset="1"/></linearGradient></defs><path fill="#000000" d="M 212.65625 44.089844 C 212.65625 43.394531 212.09375 42.828125 211.398438 42.828125 C 210.707031 42.828125 210.144531 43.394531 210.144531 44.089844 C 210.144531 44.785156 210.707031 45.347656 211.398438 45.347656 C 212.09375 45.347656 212.65625 44.785156 212.65625 44.089844 Z M 211.398438 43.851562 L 165.652344 43.851562 L 165.652344 44.324219 L 211.398438 44.324219 Z M 211.398438 43.851562 " fill-opacity="0.7686" fill-rule="nonzero"/><path fill="#000000" d="M 189.117188 40.753906 L 190.113281 41.628906 L 189.863281 41.859375 L 188.871094 40.996094 Z M 190.167969 38.679688 L 190.167969 39.148438 C 190.167969 39.453125 190.128906 39.730469 190.050781 39.980469 C 189.96875 40.226562 189.855469 40.4375 189.707031 40.613281 C 189.558594 40.789062 189.382812 40.921875 189.171875 41.015625 C 188.964844 41.109375 188.730469 41.15625 188.472656 41.15625 C 188.21875 41.15625 187.988281 41.109375 187.777344 41.015625 C 187.570312 40.921875 187.394531 40.789062 187.242188 40.613281 C 187.089844 40.4375 186.976562 40.226562 186.894531 39.980469 C 186.8125 39.730469 186.773438 39.453125 186.773438 39.148438 L 186.773438 38.679688 C 186.773438 38.375 186.8125 38.101562 186.894531 37.855469 C 186.976562 37.605469 187.089844 37.394531 187.242188 37.21875 C 187.390625 37.042969 187.570312 36.90625 187.777344 36.8125 C 187.984375 36.71875 188.214844 36.671875 188.46875 36.671875 C 188.726562 36.671875 188.957031 36.71875 189.164062 36.8125 C 189.375 36.90625 189.554688 37.042969 189.703125 37.21875 C 189.855469 37.394531 189.96875 37.605469 190.050781 37.855469 C 190.128906 38.101562 190.167969 38.375 190.167969 38.679688 Z M 189.800781 39.148438 L 189.800781 38.675781 C 189.800781 38.417969 189.773438 38.1875 189.714844 37.980469 C 189.652344 37.773438 189.566406 37.597656 189.449219 37.453125 C 189.335938 37.304688 189.195312 37.195312 189.03125 37.117188 C 188.867188 37.039062 188.679688 37 188.46875 37 C 188.261719 37 188.078125 37.039062 187.914062 37.117188 C 187.75 37.195312 187.609375 37.304688 187.496094 37.453125 C 187.378906 37.597656 187.289062 37.773438 187.230469 37.980469 C 187.167969 38.1875 187.136719 38.417969 187.136719 38.675781 L 187.136719 39.148438 C 187.136719 39.410156 187.167969 39.640625 187.230469 39.851562 C 187.292969 40.054688 187.382812 40.234375 187.5 40.378906 C 187.613281 40.527344 187.753906 40.636719 187.917969 40.714844 C 188.082031 40.792969 188.269531 40.832031 188.472656 40.832031 C 188.6875 40.832031 188.871094 40.792969 189.035156 40.714844 C 189.203125 40.636719 189.34375 40.527344 189.457031 40.378906 C 189.570312 40.234375 189.65625 40.054688 189.714844 39.851562 C 189.773438 39.640625 189.800781 39.410156 189.800781 39.148438 Z M 193.925781 36.734375 L 194.292969 36.734375 L 194.292969 39.6875 C 194.292969 40.015625 194.226562 40.289062 194.089844 40.507812 C 193.949219 40.722656 193.765625 40.886719 193.53125 40.996094 C 193.300781 41.101562 193.042969 41.15625 192.761719 41.15625 C 192.472656 41.15625 192.210938 41.101562 191.980469 40.996094 C 191.75 40.886719 191.566406 40.722656 191.429688 40.507812 C 191.296875 40.289062 191.230469 40.015625 191.230469 39.6875 L 191.230469 36.734375 L 191.59375 36.734375 L 191.59375 39.6875 C 191.59375 39.941406 191.644531 40.15625 191.746094 40.328125 C 191.84375 40.5 191.980469 40.628906 192.15625 40.714844 C 192.332031 40.800781 192.535156 40.84375 192.761719 40.84375 C 192.988281 40.84375 193.1875 40.800781 193.363281 40.714844 C 193.539062 40.628906 193.675781 40.5 193.777344 40.328125 C 193.875 40.15625 193.925781 39.941406 193.925781 39.6875 Z M 196.878906 36.992188 L 195.371094 41.097656 L 194.988281 41.097656 L 196.632812 36.734375 L 196.902344 36.734375 Z M 198.25 41.097656 L 196.738281 36.992188 L 196.71875 36.734375 L 196.984375 36.734375 L 198.632812 41.097656 Z M 197.980469 39.554688 L 197.980469 39.875 L 195.667969 39.875 L 195.667969 39.554688 Z M 201.984375 40.78125 L 201.984375 41.097656 L 199.726562 41.097656 L 199.726562 40.78125 Z M 199.832031 36.734375 L 199.832031 41.097656 L 199.464844 41.097656 L 199.464844 36.734375 Z M 203.332031 36.734375 L 203.332031 41.097656 L 202.960938 41.097656 L 202.960938 36.734375 Z M 206.070312 36.734375 L 206.070312 41.097656 L 205.707031 41.097656 L 205.707031 36.734375 Z M 207.566406 36.734375 L 207.566406 37.050781 L 204.214844 37.050781 L 204.214844 36.734375 Z M 208.460938 36.734375 L 209.78125 39.109375 L 211.113281 36.734375 L 211.539062 36.734375 L 209.96875 39.453125 L 209.96875 41.097656 L 209.601562 41.097656 L 209.601562 39.453125 L 208.023438 36.734375 Z M 208.460938 36.734375 " fill-opacity="1" fill-rule="nonzero"/><path fill="#000000" d="M 1.21875 72.308594 C 1.222656 73.003906 1.789062 73.5625 2.484375 73.558594 C 3.179688 73.550781 3.738281 72.984375 3.730469 72.289062 C 3.726562 71.59375 3.160156 71.035156 2.464844 71.039062 C 1.769531 71.046875 1.210938 71.613281 1.21875 72.308594 Z M 2.476562 72.535156 L 72.039062 72.535156 L 72.039062 72.0625 L 2.476562 72.0625 Z M 2.476562 72.535156 " fill-opacity="0.7686" fill-rule="nonzero"/><path fill="#000000" d="M 15.75 64 L 17.164062 64 C 17.46875 64 17.730469 64.046875 17.949219 64.144531 C 18.171875 64.246094 18.34375 64.390625 18.460938 64.582031 C 18.582031 64.769531 18.644531 65.003906 18.644531 65.28125 C 18.644531 65.488281 18.601562 65.675781 18.511719 65.84375 C 18.425781 66.011719 18.308594 66.152344 18.15625 66.265625 C 18.003906 66.378906 17.828125 66.453125 17.628906 66.496094 L 17.5 66.542969 L 15.988281 66.542969 L 15.984375 66.230469 L 17.25 66.230469 C 17.476562 66.230469 17.667969 66.183594 17.820312 66.097656 C 17.96875 66.007812 18.085938 65.894531 18.160156 65.75 C 18.238281 65.605469 18.277344 65.449219 18.277344 65.28125 C 18.277344 65.085938 18.234375 64.914062 18.148438 64.769531 C 18.0625 64.625 17.9375 64.511719 17.773438 64.433594 C 17.609375 64.355469 17.40625 64.316406 17.164062 64.316406 L 16.117188 64.316406 L 16.117188 68.363281 L 15.75 68.363281 Z M 18.441406 68.363281 L 17.3125 66.410156 L 17.707031 66.410156 L 18.832031 68.324219 L 18.832031 68.363281 Z M 22.550781 68.046875 L 22.550781 68.363281 L 20.097656 68.363281 L 20.097656 68.046875 Z M 20.207031 64 L 20.207031 68.363281 L 19.839844 68.363281 L 19.839844 64 Z M 22.246094 65.957031 L 22.246094 66.269531 L 20.097656 66.269531 L 20.097656 65.957031 Z M 22.535156 64 L 22.535156 64.316406 L 20.097656 64.316406 L 20.097656 64 Z M 26.035156 68.046875 L 26.035156 68.363281 L 23.777344 68.363281 L 23.777344 68.046875 Z M 23.882812 64 L 23.882812 68.363281 L 23.515625 68.363281 L 23.515625 64 Z M 27.382812 64 L 27.382812 68.363281 L 27.011719 68.363281 L 27.011719 64 Z M 30.234375 64.261719 L 28.726562 68.363281 L 28.34375 68.363281 L 29.988281 64 L 30.257812 64 Z M 31.605469 68.363281 L 30.09375 64.261719 L 30.074219 64 L 30.339844 64 L 31.988281 68.363281 Z M 31.335938 66.824219 L 31.335938 67.140625 L 29.023438 67.140625 L 29.023438 66.824219 Z M 34.320312 66.265625 L 33.09375 66.265625 L 33.085938 65.953125 L 34.144531 65.953125 C 34.359375 65.953125 34.542969 65.921875 34.695312 65.859375 C 34.847656 65.796875 34.960938 65.707031 35.039062 65.585938 C 35.117188 65.460938 35.160156 65.308594 35.160156 65.128906 C 35.160156 64.945312 35.121094 64.792969 35.042969 64.671875 C 34.964844 64.550781 34.847656 64.460938 34.691406 64.402344 C 34.535156 64.347656 34.339844 64.316406 34.105469 64.316406 L 33.1875 64.316406 L 33.1875 68.363281 L 32.820312 68.363281 L 32.820312 64 L 34.105469 64 C 34.328125 64 34.523438 64.019531 34.699219 64.066406 C 34.875 64.109375 35.027344 64.179688 35.148438 64.273438 C 35.273438 64.367188 35.367188 64.484375 35.429688 64.628906 C 35.496094 64.769531 35.53125 64.941406 35.53125 65.136719 C 35.53125 65.316406 35.488281 65.480469 35.410156 65.625 C 35.332031 65.769531 35.21875 65.886719 35.070312 65.980469 C 34.929688 66.070312 34.753906 66.125 34.554688 66.148438 Z M 34.292969 68.363281 L 32.976562 68.363281 L 33.164062 68.046875 L 34.292969 68.046875 C 34.507812 68.046875 34.691406 68.011719 34.84375 67.941406 C 34.996094 67.867188 35.117188 67.761719 35.199219 67.625 C 35.277344 67.488281 35.320312 67.328125 35.320312 67.140625 C 35.320312 66.976562 35.285156 66.824219 35.210938 66.695312 C 35.140625 66.5625 35.03125 66.457031 34.882812 66.382812 C 34.734375 66.304688 34.546875 66.265625 34.320312 66.265625 L 33.558594 66.265625 L 33.5625 65.953125 L 34.644531 65.953125 L 34.710938 66.066406 C 34.90625 66.085938 35.074219 66.144531 35.222656 66.246094 C 35.371094 66.347656 35.484375 66.472656 35.5625 66.628906 C 35.644531 66.78125 35.683594 66.949219 35.683594 67.132812 C 35.683594 67.398438 35.625 67.621094 35.507812 67.804688 C 35.394531 67.988281 35.230469 68.125 35.019531 68.222656 C 34.8125 68.316406 34.570312 68.363281 34.292969 68.363281 Z M 37.214844 64 L 37.214844 68.363281 L 36.84375 68.363281 L 36.84375 64 Z M 41.105469 68.046875 L 41.105469 68.363281 L 38.84375 68.363281 L 38.84375 68.046875 Z M 38.953125 64 L 38.953125 68.363281 L 38.582031 68.363281 L 38.582031 64 Z M 42.449219 64 L 42.449219 68.363281 L 42.082031 68.363281 L 42.082031 64 Z M 45.191406 64 L 45.191406 68.363281 L 44.824219 68.363281 L 44.824219 64 Z M 46.683594 64 L 46.683594 64.316406 L 43.332031 64.316406 L 43.332031 64 Z M 47.578125 64 L 48.898438 66.375 L 50.230469 64 L 50.65625 64 L 49.085938 66.71875 L 49.085938 68.363281 L 48.71875 68.363281 L 48.71875 66.71875 L 47.144531 64 Z M 47.578125 64 " fill-opacity="1" fill-rule="nonzero"/><path fill="#000000" d="M 61.585938 158.246094 C 61.59375 158.941406 62.164062 159.5 62.859375 159.492188 C 63.554688 159.484375 64.109375 158.914062 64.101562 158.21875 C 64.09375 157.523438 63.523438 156.964844 62.832031 156.972656 C 62.136719 156.980469 61.578125 157.550781 61.585938 158.246094 Z M 62.84375 158.46875 L 149.386719 158.46875 L 149.386719 157.996094 L 62.84375 157.996094 Z M 62.84375 158.46875 " fill-opacity="0.7686" fill-rule="nonzero"/><path fill="#000000" d="M 67.273438 150.863281 C 67.273438 150.742188 67.253906 150.636719 67.214844 150.542969 C 67.171875 150.449219 67.105469 150.367188 67.015625 150.292969 C 66.925781 150.214844 66.804688 150.144531 66.648438 150.082031 C 66.5 150.015625 66.308594 149.949219 66.082031 149.886719 C 65.863281 149.824219 65.667969 149.757812 65.492188 149.683594 C 65.316406 149.609375 65.164062 149.523438 65.039062 149.429688 C 64.914062 149.332031 64.820312 149.21875 64.753906 149.09375 C 64.691406 148.964844 64.65625 148.8125 64.65625 148.640625 C 64.65625 148.472656 64.691406 148.320312 64.765625 148.179688 C 64.835938 148.042969 64.9375 147.925781 65.066406 147.824219 C 65.199219 147.726562 65.351562 147.648438 65.53125 147.59375 C 65.710938 147.539062 65.90625 147.511719 66.121094 147.511719 C 66.425781 147.511719 66.6875 147.570312 66.910156 147.6875 C 67.132812 147.804688 67.308594 147.960938 67.429688 148.15625 C 67.550781 148.351562 67.613281 148.574219 67.613281 148.816406 L 67.246094 148.816406 C 67.246094 148.628906 67.199219 148.457031 67.109375 148.308594 C 67.023438 148.160156 66.894531 148.042969 66.726562 147.960938 C 66.5625 147.875 66.359375 147.832031 66.121094 147.832031 C 65.882812 147.832031 65.679688 147.867188 65.515625 147.941406 C 65.355469 148.015625 65.230469 148.109375 65.148438 148.234375 C 65.066406 148.351562 65.023438 148.488281 65.023438 148.632812 C 65.023438 148.738281 65.042969 148.835938 65.085938 148.921875 C 65.125 149.007812 65.1875 149.089844 65.277344 149.164062 C 65.371094 149.238281 65.492188 149.308594 65.640625 149.375 C 65.792969 149.4375 65.976562 149.5 66.195312 149.558594 C 66.425781 149.621094 66.632812 149.691406 66.8125 149.769531 C 66.992188 149.847656 67.144531 149.9375 67.265625 150.039062 C 67.390625 150.140625 67.484375 150.257812 67.546875 150.390625 C 67.613281 150.523438 67.644531 150.679688 67.644531 150.859375 C 67.644531 151.035156 67.605469 151.195312 67.53125 151.335938 C 67.457031 151.476562 67.351562 151.597656 67.214844 151.695312 C 67.082031 151.792969 66.921875 151.867188 66.738281 151.917969 C 66.558594 151.972656 66.359375 151.996094 66.144531 151.996094 C 65.949219 151.996094 65.757812 151.972656 65.566406 151.921875 C 65.375 151.871094 65.199219 151.796875 65.039062 151.691406 C 64.882812 151.585938 64.753906 151.449219 64.660156 151.285156 C 64.566406 151.117188 64.519531 150.921875 64.519531 150.691406 L 64.882812 150.691406 C 64.882812 150.875 64.921875 151.03125 64.996094 151.15625 C 65.070312 151.28125 65.167969 151.382812 65.289062 151.460938 C 65.410156 151.539062 65.546875 151.59375 65.695312 151.632812 C 65.84375 151.664062 65.996094 151.683594 66.144531 151.683594 C 66.375 151.683594 66.574219 151.648438 66.738281 151.582031 C 66.910156 151.511719 67.039062 151.417969 67.132812 151.296875 C 67.226562 151.171875 67.273438 151.027344 67.273438 150.863281 Z M 71.253906 147.574219 L 71.625 147.574219 L 71.625 150.527344 C 71.625 150.855469 71.554688 151.128906 71.417969 151.347656 C 71.28125 151.566406 71.09375 151.726562 70.859375 151.835938 C 70.628906 151.945312 70.371094 151.996094 70.089844 151.996094 C 69.800781 151.996094 69.542969 151.945312 69.308594 151.835938 C 69.078125 151.726562 68.894531 151.566406 68.757812 151.347656 C 68.625 151.128906 68.558594 150.855469 68.558594 150.527344 L 68.558594 147.574219 L 68.921875 147.574219 L 68.921875 150.527344 C 68.921875 150.78125 68.972656 150.996094 69.074219 151.167969 C 69.171875 151.339844 69.3125 151.46875 69.488281 151.554688 C 69.664062 151.640625 69.863281 151.683594 70.089844 151.683594 C 70.316406 151.683594 70.515625 151.640625 70.691406 151.554688 C 70.867188 151.46875 71.007812 151.339844 71.105469 151.167969 C 71.207031 150.996094 71.253906 150.78125 71.253906 150.527344 Z M 74.324219 150.160156 L 73.082031 150.160156 L 73.082031 149.84375 L 74.324219 149.84375 C 74.585938 149.84375 74.796875 149.804688 74.957031 149.71875 C 75.121094 149.632812 75.238281 149.519531 75.3125 149.371094 C 75.390625 149.226562 75.425781 149.0625 75.425781 148.878906 C 75.425781 148.703125 75.390625 148.539062 75.3125 148.386719 C 75.238281 148.238281 75.121094 148.117188 74.957031 148.027344 C 74.796875 147.9375 74.585938 147.890625 74.324219 147.890625 L 73.210938 147.890625 L 73.210938 151.9375 L 72.84375 151.9375 L 72.84375 147.574219 L 74.324219 147.574219 C 74.644531 147.574219 74.914062 147.628906 75.132812 147.738281 C 75.351562 147.847656 75.515625 148 75.628906 148.195312 C 75.738281 148.394531 75.796875 148.617188 75.796875 148.875 C 75.796875 149.140625 75.738281 149.371094 75.628906 149.566406 C 75.515625 149.757812 75.351562 149.90625 75.132812 150.007812 C 74.917969 150.109375 74.648438 150.160156 74.324219 150.160156 Z M 78.289062 150.160156 L 77.046875 150.160156 L 77.046875 149.84375 L 78.289062 149.84375 C 78.546875 149.84375 78.757812 149.804688 78.917969 149.71875 C 79.082031 149.632812 79.203125 149.519531 79.277344 149.371094 C 79.351562 149.226562 79.390625 149.0625 79.390625 148.878906 C 79.390625 148.703125 79.351562 148.539062 79.277344 148.386719 C 79.203125 148.238281 79.082031 148.117188 78.917969 148.027344 C 78.757812 147.9375 78.546875 147.890625 78.289062 147.890625 L 77.175781 147.890625 L 77.175781 151.9375 L 76.804688 151.9375 L 76.804688 147.574219 L 78.289062 147.574219 C 78.605469 147.574219 78.875 147.628906 79.09375 147.738281 C 79.3125 147.847656 79.476562 148 79.589844 148.195312 C 79.703125 148.394531 79.757812 148.617188 79.757812 148.875 C 79.757812 149.140625 79.703125 149.371094 79.589844 149.566406 C 79.476562 149.757812 79.3125 149.90625 79.097656 150.007812 C 78.878906 150.109375 78.609375 150.160156 78.289062 150.160156 Z M 83.984375 149.519531 L 83.984375 149.988281 C 83.984375 150.292969 83.945312 150.570312 83.867188 150.820312 C 83.789062 151.066406 83.675781 151.277344 83.523438 151.453125 C 83.378906 151.628906 83.199219 151.761719 82.992188 151.855469 C 82.785156 151.949219 82.550781 151.996094 82.292969 151.996094 C 82.039062 151.996094 81.804688 151.949219 81.597656 151.855469 C 81.390625 151.761719 81.210938 151.628906 81.0625 151.453125 C 80.910156 151.277344 80.796875 151.066406 80.714844 150.820312 C 80.632812 150.570312 80.589844 150.292969 80.589844 149.988281 L 80.589844 149.519531 C 80.589844 149.214844 80.632812 148.941406 80.710938 148.695312 C 80.792969 148.445312 80.910156 148.234375 81.058594 148.058594 C 81.207031 147.882812 81.386719 147.75 81.59375 147.65625 C 81.800781 147.558594 82.03125 147.511719 82.285156 147.511719 C 82.546875 147.511719 82.777344 147.558594 82.984375 147.65625 C 83.195312 147.75 83.371094 147.882812 83.523438 148.058594 C 83.671875 148.234375 83.785156 148.445312 83.867188 148.695312 C 83.945312 148.941406 83.984375 149.214844 83.984375 149.519531 Z M 83.621094 149.988281 L 83.621094 149.515625 C 83.621094 149.257812 83.589844 149.027344 83.53125 148.820312 C 83.472656 148.613281 83.386719 148.4375 83.269531 148.292969 C 83.15625 148.148438 83.015625 148.035156 82.851562 147.957031 C 82.6875 147.878906 82.496094 147.839844 82.285156 147.839844 C 82.078125 147.839844 81.894531 147.878906 81.730469 147.957031 C 81.566406 148.035156 81.429688 148.148438 81.3125 148.292969 C 81.199219 148.4375 81.109375 148.613281 81.050781 148.820312 C 80.988281 149.027344 80.960938 149.257812 80.960938 149.515625 L 80.960938 149.988281 C 80.960938 150.25 80.988281 150.484375 81.050781 150.691406 C 81.109375 150.894531 81.199219 151.074219 81.316406 151.222656 C 81.429688 151.367188 81.570312 151.480469 81.734375 151.558594 C 81.898438 151.632812 82.085938 151.671875 82.292969 151.671875 C 82.503906 151.671875 82.695312 151.632812 82.855469 151.558594 C 83.019531 151.480469 83.160156 151.367188 83.273438 151.222656 C 83.386719 151.074219 83.472656 150.894531 83.53125 150.691406 C 83.589844 150.484375 83.621094 150.25 83.621094 149.988281 Z M 85.09375 147.574219 L 86.507812 147.574219 C 86.808594 147.574219 87.070312 147.621094 87.292969 147.71875 C 87.515625 147.816406 87.683594 147.964844 87.804688 148.15625 C 87.925781 148.34375 87.988281 148.578125 87.988281 148.855469 C 87.988281 149.0625 87.941406 149.25 87.855469 149.417969 C 87.769531 149.585938 87.652344 149.726562 87.5 149.839844 C 87.347656 149.949219 87.171875 150.027344 86.972656 150.070312 L 86.84375 150.117188 L 85.332031 150.117188 L 85.324219 149.804688 L 86.589844 149.804688 C 86.820312 149.804688 87.007812 149.757812 87.160156 149.671875 C 87.3125 149.582031 87.425781 149.46875 87.5 149.324219 C 87.578125 149.175781 87.617188 149.023438 87.617188 148.855469 C 87.617188 148.660156 87.574219 148.488281 87.488281 148.34375 C 87.40625 148.199219 87.28125 148.085938 87.117188 148.007812 C 86.949219 147.929688 86.746094 147.890625 86.507812 147.890625 L 85.460938 147.890625 L 85.460938 151.9375 L 85.09375 151.9375 Z M 87.785156 151.9375 L 86.65625 149.984375 L 87.050781 149.984375 L 88.175781 151.898438 L 88.175781 151.9375 Z M 90.402344 147.574219 L 90.402344 151.9375 L 90.039062 151.9375 L 90.039062 147.574219 Z M 91.898438 147.574219 L 91.898438 147.890625 L 88.546875 147.890625 L 88.546875 147.574219 Z M 91.898438 147.574219 " fill-opacity="1" fill-rule="nonzero"/><path fill="#000000" d="M 302.03125 152.449219 C 302.03125 151.753906 301.46875 151.191406 300.773438 151.191406 C 300.078125 151.195312 299.515625 151.757812 299.515625 152.453125 C 299.519531 153.148438 300.082031 153.710938 300.777344 153.710938 C 301.472656 153.707031 302.035156 153.144531 302.03125 152.449219 Z M 300.773438 152.214844 L 231.683594 152.214844 L 231.683594 152.6875 L 300.773438 152.6875 Z M 300.773438 152.214844 " fill-opacity="0.7686" fill-rule="nonzero"/><path fill="#000000" d="M 256.066406 146.390625 L 255.078125 146.390625 L 255.085938 146.078125 L 256.066406 146.078125 C 256.378906 146.078125 256.648438 146.007812 256.875 145.867188 C 257.101562 145.726562 257.277344 145.53125 257.402344 145.28125 C 257.523438 145.03125 257.585938 144.742188 257.585938 144.410156 L 257.585938 144.003906 C 257.585938 143.753906 257.550781 143.523438 257.480469 143.320312 C 257.410156 143.117188 257.308594 142.941406 257.175781 142.800781 C 257.046875 142.652344 256.886719 142.542969 256.703125 142.464844 C 256.523438 142.386719 256.320312 142.347656 256.09375 142.347656 L 255.058594 142.347656 L 255.058594 142.027344 L 256.09375 142.027344 C 256.367188 142.027344 256.613281 142.074219 256.839844 142.167969 C 257.066406 142.261719 257.261719 142.394531 257.429688 142.570312 C 257.597656 142.746094 257.726562 142.953125 257.816406 143.195312 C 257.90625 143.441406 257.953125 143.710938 257.953125 144.011719 L 257.953125 144.410156 C 257.953125 144.710938 257.90625 144.984375 257.816406 145.226562 C 257.726562 145.46875 257.597656 145.679688 257.429688 145.851562 C 257.261719 146.027344 257.0625 146.160156 256.832031 146.253906 C 256.601562 146.347656 256.347656 146.390625 256.066406 146.390625 Z M 255.242188 142.027344 L 255.242188 146.390625 L 254.875 146.390625 L 254.875 142.027344 Z M 261.785156 146.078125 L 261.785156 146.390625 L 259.335938 146.390625 L 259.335938 146.078125 Z M 259.445312 142.027344 L 259.445312 146.390625 L 259.078125 146.390625 L 259.078125 142.027344 Z M 261.480469 143.984375 L 261.480469 144.300781 L 259.335938 144.300781 L 259.335938 143.984375 Z M 261.769531 142.027344 L 261.769531 142.347656 L 259.335938 142.347656 L 259.335938 142.027344 Z M 264.113281 145.851562 L 265.488281 142.027344 L 265.886719 142.027344 L 264.265625 146.390625 L 263.96875 146.390625 Z M 262.695312 142.027344 L 264.0625 145.851562 L 264.210938 146.390625 L 263.914062 146.390625 L 262.292969 142.027344 Z M 269.429688 146.078125 L 269.429688 146.390625 L 266.976562 146.390625 L 266.976562 146.078125 Z M 267.085938 142.027344 L 267.085938 146.390625 L 266.71875 146.390625 L 266.71875 142.027344 Z M 269.121094 143.984375 L 269.121094 144.300781 L 266.976562 144.300781 L 266.976562 143.984375 Z M 269.414062 142.027344 L 269.414062 142.347656 L 266.976562 142.347656 L 266.976562 142.027344 Z M 272.914062 146.078125 L 272.914062 146.390625 L 270.652344 146.390625 L 270.652344 146.078125 Z M 270.761719 142.027344 L 270.761719 146.390625 L 270.394531 146.390625 L 270.394531 142.027344 Z M 276.832031 143.976562 L 276.832031 144.445312 C 276.832031 144.75 276.792969 145.027344 276.710938 145.273438 C 276.632812 145.519531 276.519531 145.730469 276.371094 145.90625 C 276.222656 146.082031 276.042969 146.21875 275.835938 146.3125 C 275.628906 146.40625 275.394531 146.453125 275.136719 146.453125 C 274.882812 146.453125 274.652344 146.40625 274.441406 146.3125 C 274.234375 146.21875 274.054688 146.082031 273.90625 145.90625 C 273.757812 145.730469 273.640625 145.519531 273.558594 145.273438 C 273.476562 145.027344 273.4375 144.75 273.4375 144.445312 L 273.4375 143.976562 C 273.4375 143.671875 273.476562 143.394531 273.554688 143.148438 C 273.636719 142.902344 273.753906 142.691406 273.902344 142.515625 C 274.054688 142.339844 274.230469 142.203125 274.4375 142.109375 C 274.648438 142.015625 274.878906 141.96875 275.132812 141.96875 C 275.390625 141.96875 275.625 142.015625 275.832031 142.109375 C 276.039062 142.203125 276.21875 142.339844 276.367188 142.515625 C 276.515625 142.691406 276.632812 142.902344 276.710938 143.148438 C 276.792969 143.394531 276.832031 143.671875 276.832031 143.976562 Z M 276.464844 144.445312 L 276.464844 143.96875 C 276.464844 143.710938 276.4375 143.480469 276.375 143.273438 C 276.320312 143.070312 276.230469 142.894531 276.117188 142.746094 C 276 142.601562 275.863281 142.488281 275.695312 142.414062 C 275.53125 142.335938 275.34375 142.296875 275.132812 142.296875 C 274.925781 142.296875 274.742188 142.335938 274.578125 142.414062 C 274.414062 142.488281 274.273438 142.601562 274.15625 142.746094 C 274.042969 142.894531 273.957031 143.070312 273.894531 143.273438 C 273.835938 143.480469 273.804688 143.710938 273.804688 143.96875 L 273.804688 144.445312 C 273.804688 144.703125 273.835938 144.9375 273.894531 145.144531 C 273.957031 145.351562 274.046875 145.527344 274.160156 145.675781 C 274.277344 145.824219 274.414062 145.933594 274.578125 146.011719 C 274.746094 146.089844 274.929688 146.128906 275.136719 146.128906 C 275.351562 146.128906 275.539062 146.089844 275.703125 146.011719 C 275.867188 145.933594 276.003906 145.824219 276.117188 145.675781 C 276.234375 145.527344 276.320312 145.351562 276.375 145.144531 C 276.4375 144.9375 276.464844 144.703125 276.464844 144.445312 Z M 279.429688 144.613281 L 278.1875 144.613281 L 278.1875 144.300781 L 279.429688 144.300781 C 279.6875 144.300781 279.898438 144.257812 280.058594 144.175781 C 280.222656 144.089844 280.34375 143.972656 280.414062 143.828125 C 280.492188 143.679688 280.53125 143.519531 280.53125 143.335938 C 280.53125 143.15625 280.492188 142.992188 280.414062 142.84375 C 280.34375 142.695312 280.222656 142.574219 280.058594 142.484375 C 279.898438 142.390625 279.6875 142.347656 279.429688 142.347656 L 278.316406 142.347656 L 278.316406 146.390625 L 277.945312 146.390625 L 277.945312 142.027344 L 279.429688 142.027344 C 279.746094 142.027344 280.015625 142.082031 280.234375 142.195312 C 280.453125 142.304688 280.617188 142.457031 280.730469 142.652344 C 280.84375 142.847656 280.898438 143.074219 280.898438 143.328125 C 280.898438 143.597656 280.84375 143.828125 280.730469 144.023438 C 280.617188 144.214844 280.453125 144.359375 280.234375 144.460938 C 280.019531 144.5625 279.75 144.613281 279.429688 144.613281 Z M 282.023438 142.027344 L 282.394531 142.027344 L 284.003906 145.871094 L 285.617188 142.027344 L 285.984375 142.027344 L 284.144531 146.390625 L 283.863281 146.390625 Z M 281.90625 142.027344 L 282.234375 142.027344 L 282.273438 144.484375 L 282.273438 146.390625 L 281.90625 146.390625 Z M 285.777344 142.027344 L 286.105469 142.027344 L 286.105469 146.390625 L 285.738281 146.390625 L 285.738281 144.484375 Z M 290.105469 146.078125 L 290.105469 146.390625 L 287.65625 146.390625 L 287.65625 146.078125 Z M 287.765625 142.027344 L 287.765625 146.390625 L 287.398438 146.390625 L 287.398438 142.027344 Z M 289.800781 143.984375 L 289.800781 144.300781 L 287.65625 144.300781 L 287.65625 143.984375 Z M 290.089844 142.027344 L 290.089844 142.347656 L 287.65625 142.347656 L 287.65625 142.027344 Z M 294.316406 142.027344 L 294.316406 146.390625 L 293.945312 146.390625 L 291.441406 142.664062 L 291.441406 146.390625 L 291.070312 146.390625 L 291.070312 142.027344 L 291.441406 142.027344 L 293.949219 145.757812 L 293.949219 142.027344 Z M 296.984375 142.027344 L 296.984375 146.390625 L 296.621094 146.390625 L 296.621094 142.027344 Z M 298.480469 142.027344 L 298.480469 142.347656 L 295.128906 142.347656 L 295.128906 142.027344 Z M 298.480469 142.027344 " fill-opacity="1" fill-rule="nonzero"/><path fill="#000000" d="M 282.226562 97.070312 C 282.222656 96.375 281.65625 95.8125 280.964844 95.816406 C 280.269531 95.816406 279.707031 96.382812 279.710938 97.078125 C 279.710938 97.773438 280.277344 98.335938 280.972656 98.332031 C 281.664062 98.332031 282.226562 97.765625 282.226562 97.070312 Z M 280.96875 96.835938 L 229.324219 96.769531 L 229.324219 97.242188 L 280.96875 97.308594 Z M 280.96875 96.835938 " fill-opacity="0.7686" fill-rule="nonzero"/><path fill="#000000" d="M 233.625 88.671875 L 233.625 93.035156 L 233.257812 93.035156 L 233.257812 88.671875 Z M 238.238281 88.671875 L 238.238281 93.035156 L 237.867188 93.035156 L 235.363281 89.308594 L 235.363281 93.035156 L 234.996094 93.035156 L 234.996094 88.671875 L 235.363281 88.671875 L 237.875 92.402344 L 237.875 88.671875 Z M 240.730469 93.035156 L 239.742188 93.035156 L 239.746094 92.722656 L 240.730469 92.722656 C 241.042969 92.722656 241.3125 92.652344 241.539062 92.511719 C 241.765625 92.371094 241.941406 92.175781 242.066406 91.925781 C 242.1875 91.675781 242.25 91.386719 242.25 91.054688 L 242.25 90.648438 C 242.25 90.394531 242.214844 90.167969 242.140625 89.964844 C 242.074219 89.761719 241.972656 89.585938 241.839844 89.441406 C 241.707031 89.296875 241.550781 89.183594 241.367188 89.109375 C 241.1875 89.03125 240.980469 88.992188 240.757812 88.992188 L 239.722656 88.992188 L 239.722656 88.671875 L 240.757812 88.671875 C 241.027344 88.671875 241.277344 88.71875 241.5 88.8125 C 241.730469 88.90625 241.925781 89.039062 242.089844 89.214844 C 242.257812 89.390625 242.386719 89.597656 242.476562 89.839844 C 242.570312 90.085938 242.617188 90.355469 242.617188 90.65625 L 242.617188 91.054688 C 242.617188 91.355469 242.570312 91.628906 242.476562 91.871094 C 242.386719 92.113281 242.257812 92.324219 242.089844 92.496094 C 241.925781 92.671875 241.726562 92.804688 241.496094 92.898438 C 241.265625 92.992188 241.011719 93.035156 240.730469 93.035156 Z M 239.90625 88.671875 L 239.90625 93.035156 L 239.539062 93.035156 L 239.539062 88.671875 Z M 244.1875 88.671875 L 244.1875 93.035156 L 243.820312 93.035156 L 243.820312 88.671875 Z M 246.921875 92.496094 L 248.292969 88.671875 L 248.695312 88.671875 L 247.070312 93.035156 L 246.777344 93.035156 Z M 245.5 88.671875 L 246.867188 92.496094 L 247.019531 93.035156 L 246.71875 93.035156 L 245.101562 88.671875 Z M 249.976562 88.671875 L 249.976562 93.035156 L 249.605469 93.035156 L 249.605469 88.671875 Z M 252.535156 93.035156 L 251.546875 93.035156 L 251.554688 92.722656 L 252.535156 92.722656 C 252.847656 92.722656 253.117188 92.652344 253.34375 92.511719 C 253.570312 92.371094 253.746094 92.175781 253.871094 91.925781 C 253.996094 91.675781 254.054688 91.386719 254.054688 91.054688 L 254.054688 90.648438 C 254.054688 90.394531 254.019531 90.167969 253.949219 89.964844 C 253.878906 89.761719 253.777344 89.585938 253.644531 89.441406 C 253.515625 89.296875 253.355469 89.183594 253.171875 89.109375 C 252.992188 89.03125 252.789062 88.992188 252.5625 88.992188 L 251.53125 88.992188 L 251.53125 88.671875 L 252.5625 88.671875 C 252.835938 88.671875 253.082031 88.71875 253.308594 88.8125 C 253.535156 88.90625 253.730469 89.039062 253.898438 89.214844 C 254.066406 89.390625 254.195312 89.597656 254.285156 89.839844 C 254.375 90.085938 254.421875 90.355469 254.421875 90.65625 L 254.421875 91.054688 C 254.421875 91.355469 254.375 91.628906 254.285156 91.871094 C 254.195312 92.113281 254.066406 92.324219 253.898438 92.496094 C 253.730469 92.671875 253.53125 92.804688 253.300781 92.898438 C 253.074219 92.992188 252.816406 93.035156 252.535156 93.035156 Z M 251.710938 88.671875 L 251.710938 93.035156 L 251.34375 93.035156 L 251.34375 88.671875 Z M 258.175781 88.671875 L 258.546875 88.671875 L 258.546875 91.628906 C 258.546875 91.957031 258.476562 92.226562 258.339844 92.445312 C 258.199219 92.664062 258.015625 92.828125 257.78125 92.933594 C 257.550781 93.042969 257.292969 93.097656 257.011719 93.097656 C 256.722656 93.097656 256.460938 93.042969 256.230469 92.933594 C 256 92.828125 255.816406 92.664062 255.679688 92.445312 C 255.546875 92.226562 255.480469 91.957031 255.480469 91.628906 L 255.480469 88.671875 L 255.84375 88.671875 L 255.84375 91.628906 C 255.84375 91.882812 255.894531 92.09375 255.996094 92.265625 C 256.09375 92.4375 256.230469 92.566406 256.410156 92.652344 C 256.582031 92.738281 256.785156 92.78125 257.011719 92.78125 C 257.238281 92.78125 257.4375 92.738281 257.613281 92.652344 C 257.789062 92.566406 257.929688 92.4375 258.027344 92.265625 C 258.128906 92.09375 258.175781 91.882812 258.175781 91.628906 Z M 261.128906 88.933594 L 259.621094 93.035156 L 259.238281 93.035156 L 260.886719 88.671875 L 261.152344 88.671875 Z M 262.5 93.035156 L 260.988281 88.933594 L 260.96875 88.671875 L 261.234375 88.671875 L 262.882812 93.035156 Z M 262.230469 91.496094 L 262.230469 91.8125 L 259.917969 91.8125 L 259.917969 91.496094 Z M 266.234375 92.722656 L 266.234375 93.035156 L 263.976562 93.035156 L 263.976562 92.722656 Z M 264.082031 88.671875 L 264.082031 93.035156 L 263.714844 93.035156 L 263.714844 88.671875 Z M 267.582031 88.671875 L 267.582031 93.035156 L 267.210938 93.035156 L 267.210938 88.671875 Z M 270.320312 88.671875 L 270.320312 93.035156 L 269.957031 93.035156 L 269.957031 88.671875 Z M 271.816406 88.671875 L 271.816406 88.992188 L 268.464844 88.992188 L 268.464844 88.671875 Z M 272.710938 88.671875 L 274.03125 91.050781 L 275.363281 88.671875 L 275.789062 88.671875 L 274.21875 91.390625 L 274.21875 93.035156 L 273.847656 93.035156 L 273.847656 91.390625 L 272.273438 88.671875 Z M 272.710938 88.671875 " fill-opacity="1" fill-rule="nonzero"/><g clip-path="url(#4aa6e7ef3f)"><path fill="#1964ad" d="M 199.273438 134.269531 L 166.269531 134.269531 L 166.269531 101.300781 L 188.128906 101.300781 C 191.175781 101.300781 193.957031 102.558594 195.988281 104.585938 C 198.015625 106.609375 199.273438 109.390625 199.273438 112.433594 Z M 166.273438 67 L 166.273438 26.09375 C 166.273438 7.558594 158.75 0.0429688 140.195312 0.0429688 L 64.910156 0.0429688 L 64.910156 55.867188 C 64.910156 68.378906 70.019531 79.742188 78.253906 87.96875 C 86.488281 96.191406 97.863281 101.300781 110.390625 101.300781 L 131.933594 101.300781 L 131.933594 142.515625 C 131.933594 161.050781 139.460938 168.570312 158.015625 168.570312 L 233.609375 168.570312 L 233.609375 112.433594 C 233.609375 99.921875 228.496094 88.558594 220.265625 80.332031 C 212.03125 72.109375 200.652344 67 188.128906 67 Z M 99.246094 34.339844 L 131.9375 34.339844 L 131.9375 67 L 110.390625 67 C 107.34375 67 104.5625 65.742188 102.53125 63.714844 C 100.503906 61.6875 99.246094 58.910156 99.246094 55.867188 Z M 99.246094 34.339844 " fill-opacity="1" fill-rule="nonzero"/></g><g clip-path="url(#a80d52b2a8)"><g clip-path="url(#da9168296c)"><path fill="url(#f9d5777136)" d="M 64.910156 0.0390625 L 64.910156 168.566406 L 233.4375 168.566406 L 233.4375 0.0390625 Z M 64.910156 0.0390625 " fill-rule="nonzero"/></g></g><g clip-path="url(#4ef61be47f)"><g clip-path="url(#2a6c901ac9)"><path fill="url(#ad4061a92f)" d="M 64.910156 0.0390625 L 64.910156 168.566406 L 233.4375 168.566406 L 233.4375 0.0390625 Z M 64.910156 0.0390625 " fill-rule="nonzero"/></g></g></svg>