<svg xmlns="http://www.w3.org/2000/svg" width="406" height="226" version="1.0" viewBox="0 0 304.5 169.5"><defs><clipPath id="a"><path d="M64.910156.0390625H233.4375V168.570312H64.910156Zm0 0"/></clipPath><clipPath id="b"><path d="M64.910156.0390625H233.4375V168.570312H64.910156Zm0 0"/></clipPath><clipPath id="c"><path d="M199.273438 134.269531h-33.003907c0-36.058593.003907-72.117187.003907-108.175781 0-18.535156-7.523438-26.0546875-26.078126-26.0546875H64.910156L99.242188 34.339844H131.9375c0 36.058594-.003906 72.117187-.003906 108.175781 0 18.535156 7.527344 26.050781 26.082031 26.050781h75.59375Zm0 0"/></clipPath><clipPath id="e"><path d="M64.910156.0390625H233.4375V168.570312H64.910156Zm0 0"/></clipPath><clipPath id="f"><path d="M99.242188 34.339844v21.523437c0 3.046875 1.261718 5.824219 3.289062 7.851563C104.558594 65.742188 107.34375 67 110.390625 67h77.738281c12.523438 0 23.898438 5.105469 32.132813 13.332031 8.234375 8.226563 13.347656 19.589844 13.347656 32.101563v56.132812l-34.335937-34.300781v-21.832031c0-3.042969-1.257813-5.824219-3.289063-7.851563-2.027344-2.023437-4.808594-3.28125-7.855469-3.28125h-77.738281c-12.527344 0-23.902344-5.109375-32.136719-13.332031-8.234375-8.226562-13.34375-19.589844-13.34375-32.105469V.0390625Zm0 0"/></clipPath><linearGradient id="d" x1="2566.556983" x2="1025.898391" y1="2944.785595" y2="-463.711694" gradientTransform="matrix(.0596553 0 0 .0595935 64.908622 .0409592)" gradientUnits="userSpaceOnUse"><stop offset="0" stop-color="#1964AD"/><stop offset=".125" stop-color="#1964AD"/><stop offset=".1875" stop-color="#1964AD"/><stop offset=".203125" stop-color="#1964AD"/><stop offset=".210938" stop-color="#1964AD"/><stop offset=".21875" stop-color="#1965AE"/><stop offset=".226562" stop-color="#1866AF"/><stop offset=".234375" stop-color="#1867B0"/><stop offset=".242188" stop-color="#1868B0"/><stop offset=".25" stop-color="#1769B1"/><stop offset=".257813" stop-color="#176AB2"/><stop offset=".265625" stop-color="#176BB2"/><stop offset=".273438" stop-color="#166CB3"/><stop offset=".28125" stop-color="#166DB4"/><stop offset=".289062" stop-color="#166EB5"/><stop offset=".296875" stop-color="#166EB5"/><stop offset=".304688" stop-color="#156FB6"/><stop offset=".311079" stop-color="#1570B7"/><stop offset=".3125" stop-color="#1571B7"/><stop offset=".320313" stop-color="#1571B8"/><stop offset=".328125" stop-color="#1472B8"/><stop offset=".335938" stop-color="#1473B9"/><stop offset=".34375" stop-color="#1474BA"/><stop offset=".351563" stop-color="#1475BB"/><stop offset=".359375" stop-color="#1376BB"/><stop offset=".367188" stop-color="#1377BC"/><stop offset=".375" stop-color="#1378BD"/><stop offset=".382813" stop-color="#1278BD"/><stop offset=".390625" stop-color="#1279BE"/><stop offset=".398438" stop-color="#127ABF"/><stop offset=".40625" stop-color="#117BC0"/><stop offset=".414062" stop-color="#117CC0"/><stop offset=".421875" stop-color="#117DC1"/><stop offset=".429688" stop-color="#117EC2"/><stop offset=".4375" stop-color="#107FC3"/><stop offset=".445312" stop-color="#1080C3"/><stop offset=".453125" stop-color="#1081C4"/><stop offset=".460938" stop-color="#0F82C5"/><stop offset=".46875" stop-color="#0F82C6"/><stop offset=".476562" stop-color="#0F83C6"/><stop offset=".484375" stop-color="#0E84C7"/><stop offset=".492188" stop-color="#0E85C8"/><stop offset=".5" stop-color="#0E86C8"/><stop offset=".507812" stop-color="#0E87C9"/><stop offset=".515625" stop-color="#0D88CA"/><stop offset=".523438" stop-color="#0D89CB"/><stop offset=".53125" stop-color="#0D8ACB"/><stop offset=".539062" stop-color="#0C8BCC"/><stop offset=".546875" stop-color="#0C8CCD"/><stop offset=".554688" stop-color="#0C8CCE"/><stop offset=".5625" stop-color="#0C8DCE"/><stop offset=".570312" stop-color="#0B8ECF"/><stop offset=".578125" stop-color="#0B8FD0"/><stop offset=".585938" stop-color="#0B90D1"/><stop offset=".59375" stop-color="#0A91D1"/><stop offset=".601562" stop-color="#0A92D2"/><stop offset=".609375" stop-color="#0A93D3"/><stop offset=".617188" stop-color="#0994D3"/><stop offset=".625" stop-color="#0995D4"/><stop offset=".632813" stop-color="#0996D5"/><stop offset=".640625" stop-color="#0996D6"/><stop offset=".648438" stop-color="#0897D6"/><stop offset=".65625" stop-color="#0898D7"/><stop offset=".664063" stop-color="#0899D8"/><stop offset=".671875" stop-color="#079AD9"/><stop offset=".679688" stop-color="#079BD9"/><stop offset=".6875" stop-color="#079CDA"/><stop offset=".688921" stop-color="#079DDB"/><stop offset=".695312" stop-color="#069DDB"/><stop offset=".703125" stop-color="#069EDC"/><stop offset=".710938" stop-color="#069FDC"/><stop offset=".71875" stop-color="#06A0DD"/><stop offset=".726563" stop-color="#05A0DE"/><stop offset=".734375" stop-color="#05A1DF"/><stop offset=".742188" stop-color="#05A2DF"/><stop offset=".75" stop-color="#04A3E0"/><stop offset=".757812" stop-color="#04A4E1"/><stop offset=".765625" stop-color="#04A5E1"/><stop offset=".773438" stop-color="#04A6E2"/><stop offset=".78125" stop-color="#03A7E3"/><stop offset=".789063" stop-color="#03A8E4"/><stop offset=".796875" stop-color="#03A9E4"/><stop offset=".804688" stop-color="#02AAE5"/><stop offset=".8125" stop-color="#02AAE6"/><stop offset=".820313" stop-color="#02ABE7"/><stop offset=".828125" stop-color="#02ACE7"/><stop offset=".835938" stop-color="#01ADE8"/><stop offset=".84375" stop-color="#01AEE9"/><stop offset=".851562" stop-color="#01AFEA"/><stop offset=".859375" stop-color="#00B0EA"/><stop offset=".875" stop-color="#00B1EB"/><stop offset="1" stop-color="#00B1EB"/></linearGradient><linearGradient id="g" x1="-48.208968" x2="2844.215463" y1="50.571877" y2="2807.838517" gradientTransform="matrix(.0596553 0 0 .0595935 64.908622 .0409592)" gradientUnits="userSpaceOnUse"><stop offset="0" stop-color="#244082"/><stop offset=".03125" stop-color="#244082"/><stop offset=".046875" stop-color="#244183"/><stop offset=".0625" stop-color="#234284"/><stop offset=".078125" stop-color="#234285"/><stop offset=".09375" stop-color="#234386"/><stop offset=".109375" stop-color="#234487"/><stop offset=".125" stop-color="#234588"/><stop offset=".140625" stop-color="#224589"/><stop offset=".15625" stop-color="#224689"/><stop offset=".171875" stop-color="#22478A"/><stop offset=".1875" stop-color="#22488B"/><stop offset=".203125" stop-color="#21488C"/><stop offset=".21875" stop-color="#21498D"/><stop offset=".234375" stop-color="#214A8E"/><stop offset=".25" stop-color="#214B8F"/><stop offset=".265625" stop-color="#204B90"/><stop offset=".28125" stop-color="#204C91"/><stop offset=".296875" stop-color="#204D91"/><stop offset=".3125" stop-color="#204E92"/><stop offset=".328125" stop-color="#204E93"/><stop offset=".34375" stop-color="#1F4F94"/><stop offset=".359375" stop-color="#1F5095"/><stop offset=".375" stop-color="#1F5196"/><stop offset=".390625" stop-color="#1F5197"/><stop offset=".40625" stop-color="#1E5298"/><stop offset=".421875" stop-color="#1E5399"/><stop offset=".4375" stop-color="#1E5499"/><stop offset=".453125" stop-color="#1E549A"/><stop offset=".46875" stop-color="#1E559B"/><stop offset=".484375" stop-color="#1D569C"/><stop offset=".488292" stop-color="#1D579D"/><stop offset=".5" stop-color="#1D579D"/><stop offset=".511708" stop-color="#1D579E"/><stop offset=".515625" stop-color="#1D589E"/><stop offset=".53125" stop-color="#1D589F"/><stop offset=".546875" stop-color="#1C59A0"/><stop offset=".5625" stop-color="#1C5AA1"/><stop offset=".578125" stop-color="#1C5AA1"/><stop offset=".59375" stop-color="#1C5BA2"/><stop offset=".609375" stop-color="#1B5CA3"/><stop offset=".625" stop-color="#1B5DA4"/><stop offset=".640625" stop-color="#1B5DA5"/><stop offset=".65625" stop-color="#1B5EA6"/><stop offset=".671875" stop-color="#1B5FA7"/><stop offset=".6875" stop-color="#1A60A8"/><stop offset=".703125" stop-color="#1A60A9"/><stop offset=".71875" stop-color="#1A61A9"/><stop offset=".734375" stop-color="#1A62AA"/><stop offset=".75" stop-color="#1963AB"/><stop offset=".765625" stop-color="#1963AC"/><stop offset=".78125" stop-color="#1964AD"/><stop offset=".8125" stop-color="#1964AD"/><stop offset=".875" stop-color="#1964AD"/><stop offset="1" stop-color="#1964AD"/></linearGradient></defs><path fill-opacity=".7686" d="M212.65625 44.089844c0-.695313-.5625-1.261719-1.257812-1.261719-.691407 0-1.253907.566406-1.253907 1.261719 0 .695312.5625 1.257812 1.253907 1.257812.695312 0 1.257812-.5625 1.257812-1.257812Zm-1.257812-.238282h-45.746094v.472657h45.746094Zm0 0"/><path d="m189.117188 40.753906.996093.875-.25.230469-.992187-.863281Zm1.050781-2.074218v.46875c0 .304687-.039063.582031-.117188.832031-.082031.246093-.195312.457031-.34375.632812-.148437.175781-.324219.308594-.535156.402344-.207031.09375-.441406.140625-.699219.140625-.253906 0-.484375-.046875-.695312-.140625-.207032-.09375-.382813-.226563-.535156-.402344-.152344-.175781-.265626-.386719-.347657-.632812-.082031-.25-.121093-.527344-.121093-.832031v-.46875c0-.304688.039062-.578126.121093-.824219.082031-.25.195313-.460938.347657-.636719.148437-.175781.328124-.3125.535156-.40625.207031-.09375.4375-.140625.691406-.140625.257812 0 .488281.046875.695312.140625.210938.09375.390626.230469.539063.40625.152344.175781.265625.386719.347656.636719.078125.246093.117188.519531.117188.824219Zm-.367188.46875v-.472657c0-.257812-.027343-.488281-.085937-.695312-.0625-.207031-.148438-.382813-.265625-.527344-.113281-.148437-.253907-.257813-.417969-.335937-.164062-.078126-.351562-.117188-.5625-.117188-.207031 0-.390625.039062-.554688.117188-.164062.078124-.304687.1875-.417968.335937-.117188.144531-.207032.320313-.265625.527344-.0625.207031-.09375.4375-.09375.695312v.472657c0 .261718.03125.492187.09375.703124.0625.203126.152343.382813.269531.527344.113281.148438.253906.257813.417969.335938.164062.078125.351562.117187.554687.117187.214844 0 .398438-.039062.5625-.117187.167969-.078125.308594-.1875.421875-.335938.113281-.144531.199219-.324218.257813-.527344.058594-.210937.085937-.441406.085937-.703124Zm4.125-2.414063h.367188V39.6875c0 .328125-.066407.601562-.203125.820312-.140625.214844-.324219.378907-.558594.488282-.230469.105468-.488281.160156-.769531.160156-.289063 0-.550781-.054688-.78125-.160156-.230469-.109375-.414063-.273438-.550781-.488282-.132813-.21875-.199219-.492187-.199219-.820312v-2.953125h.363281V39.6875c0 .253906.050781.46875.152344.640625.097656.171875.234375.300781.410156.386719.175781.085937.378906.128906.605469.128906.226562 0 .425781-.042969.601562-.128906.175781-.085938.3125-.214844.414063-.386719.097656-.171875.148437-.386719.148437-.640625Zm2.953125.257813-1.507812 4.105468h-.382813l1.644531-4.363281h.269532ZM198.25 41.097656l-1.511719-4.105468-.019531-.257813h.265625l1.648437 4.363281Zm-.269531-1.542968V39.875h-2.3125v-.320312Zm4.003906 1.226562v.316406h-2.257813v-.316406Zm-2.152344-4.046875v4.363281h-.367187v-4.363281Zm3.5 0v4.363281h-.371093v-4.363281Zm2.738281 0v4.363281h-.363281v-4.363281Zm1.496094 0v.316406h-3.351562v-.316406Zm.894532 0 1.320312 2.375 1.332031-2.375h.425781l-1.570312 2.71875v1.644531h-.367188v-1.644531l-1.578124-2.71875Zm0 0"/><path fill-opacity=".7686" d="M1.21875 72.308594c.003906.695312.570312 1.253906 1.265625 1.25.695313-.007813 1.253906-.574219 1.246094-1.269532-.003907-.695312-.570313-1.253906-1.265625-1.25-.695313.007813-1.253906.574219-1.246094 1.269532Zm1.257812.226562h69.5625V72.0625h-69.5625Zm0 0"/><path d="M15.75 64h1.414062c.304688 0 .566407.046875.785157.144531.222656.101563.394531.246094.511719.4375.121093.1875.183593.421875.183593.699219 0 .207031-.042969.394531-.132812.5625-.085938.167969-.203125.308594-.355469.421875-.152344.113281-.328125.1875-.527344.230469L17.5 66.542969h-1.511719l-.003906-.3125H17.25c.226562 0 .417969-.046875.570312-.132813.148438-.089844.265626-.203125.339844-.347656.078125-.144531.117188-.300781.117188-.46875 0-.195312-.042969-.367188-.128906-.511719-.085938-.144531-.210938-.257812-.375-.335937-.164063-.078125-.367188-.117188-.609376-.117188h-1.046874v4.046875H15.75Zm2.691406 4.363281L17.3125 66.410156h.394531l1.125 1.914063v.039062Zm4.109375-.316406v.316406h-2.453125v-.316406ZM20.207031 64v4.363281h-.367187V64Zm2.039063 1.957031v.3125h-2.148438v-.3125ZM22.535156 64v.316406h-2.4375V64Zm3.5 4.046875v.316406h-2.257812v-.316406ZM23.882812 64v4.363281h-.367187V64Zm3.5 0v4.363281h-.371093V64Zm2.851563.261719-1.507813 4.101562h-.382812L29.988281 64h.269531Zm1.371094 4.101562-1.511719-4.101562L30.074219 64h.265625l1.648437 4.363281Zm-.269531-1.539062v.316406h-2.3125v-.316406Zm2.984374-.558594H33.09375l-.007812-.3125h1.058593c.214844 0 .398438-.03125.550781-.09375.152344-.0625.265626-.152344.34375-.273437.078126-.125.121094-.277344.121094-.457032 0-.183594-.039062-.335937-.117187-.457031-.078125-.121094-.195313-.210937-.351563-.269531-.15625-.054688-.351562-.085938-.585937-.085938H33.1875v4.046875h-.367188V64h1.285157c.222656 0 .417969.019531.59375.066406.175781.042969.328125.113282.449219.207032.125.09375.21875.210937.28125.355468.066406.140625.101562.3125.101562.507813 0 .179687-.042969.34375-.121094.488281-.078125.144531-.191406.261719-.339844.355469-.140624.089843-.316406.144531-.515624.167969Zm-.027343 2.097656h-1.316407l.1875-.316406h1.128907c.214843 0 .398437-.035156.550781-.105469.152344-.074218.273438-.179687.355469-.316406.078125-.136719.121093-.296875.121093-.484375 0-.164063-.035156-.316406-.109374-.445313-.070313-.132812-.179688-.238281-.328126-.3125-.148437-.078124-.335937-.117187-.5625-.117187h-.761718l.003906-.3125h1.082031l.066407.113281c.195312.019532.363281.078125.511718.179688.148438.101562.261719.226562.339844.382812.082031.152344.121094.320313.121094.503906 0 .265626-.058594.488282-.175782.671876-.113281.183593-.277343.320312-.488281.417968-.207031.09375-.449219.140625-.726562.140625ZM37.214844 64v4.363281h-.371094V64Zm3.890625 4.046875v.316406H38.84375v-.316406ZM38.953125 64v4.363281h-.371094V64Zm3.496094 0v4.363281h-.367188V64Zm2.742187 0v4.363281h-.367187V64Zm1.492188 0v.316406h-3.351563V64Zm.894531 0 1.320313 2.375L50.230469 64h.425781l-1.570312 2.71875v1.644531h-.367188V66.71875L47.144531 64Zm0 0"/><path fill-opacity=".7686" d="M61.585938 158.246094c.007812.695312.578124 1.253906 1.273437 1.246094.695313-.007813 1.25-.578126 1.242187-1.273438-.007812-.695312-.578124-1.253906-1.269531-1.246094-.695312.007813-1.253906.578125-1.246093 1.273438Zm1.257812.222656h86.542969v-.472656H62.84375Zm0 0"/><path d="M67.273438 150.863281c0-.121093-.019532-.226562-.058594-.320312-.042969-.09375-.109375-.175781-.199219-.25-.089844-.078125-.210937-.148438-.367187-.210938-.148438-.066406-.339844-.132812-.566407-.195312-.21875-.0625-.414062-.128907-.589843-.203125-.175782-.074219-.328126-.160156-.453126-.253906-.125-.097657-.21875-.210938-.285156-.335938-.0625-.128906-.097656-.28125-.097656-.453125 0-.167969.035156-.320313.109375-.460937.070313-.136719.171875-.253907.300781-.355469.132813-.097657.285156-.175781.464844-.230469.179688-.054688.375-.082031.589844-.082031.304687 0 .566406.058593.789062.175781.222656.117188.398438.273438.519532.46875.121093.195312.183593.417969.183593.660156h-.367187c0-.1875-.046875-.359375-.136719-.507812-.085937-.148438-.214844-.265625-.382813-.347656-.164062-.085938-.367187-.128907-.605468-.128907-.238282 0-.441406.035157-.605469.109375-.160156.074219-.285156.167969-.367187.292969-.082032.117187-.125.253906-.125.398437 0 .105469.019531.203126.0625.289063.039062.085937.101562.167969.191406.242187.09375.074219.214844.144532.363281.210938.152344.0625.335937.125.554687.183594.230469.0625.4375.132812.617188.210937.179688.078125.332031.167969.453125.269531.125.101563.21875.21875.28125.351563.066406.132813.097656.289063.097656.46875 0 .175781-.039062.335937-.113281.476563-.074219.140624-.179688.261718-.316406.359374-.132813.097657-.292969.171876-.476563.222657-.179687.054687-.378906.078125-.59375.078125-.195312 0-.386719-.023438-.578125-.074219-.191406-.050781-.367187-.125-.527344-.230469-.15625-.105468-.285156-.242187-.378906-.40625-.09375-.167968-.140625-.363281-.140625-.59375h.363281c0 .183594.039063.339844.113282.464844.074218.125.171875.226562.292968.304688.121094.078124.257813.132812.40625.171874.148438.03125.300782.050782.449219.050782.230469 0 .429688-.035156.59375-.101563.171875-.070312.300781-.164062.394531-.285156.09375-.125.140626-.269531.140626-.433594Zm3.980468-3.289062H71.625v2.953125c0 .328125-.070312.601562-.207031.820312-.136719.21875-.324219.378906-.558594.488282-.230469.109374-.488281.160156-.769531.160156-.289063 0-.546875-.050782-.78125-.160156-.230469-.109376-.414063-.269532-.550782-.488282-.132812-.21875-.199218-.492187-.199218-.820312v-2.953125h.363281v2.953125c0 .253906.050781.46875.152344.640625.097656.171875.238281.300781.414062.386719.175781.085937.375.128906.601563.128906.226562 0 .425781-.042969.601562-.128906.175782-.085938.316406-.214844.414063-.386719.101562-.171875.148437-.386719.148437-.640625Zm3.070313 2.585937h-1.242188v-.316406h1.242188c.261719 0 .472656-.039062.632812-.125.164063-.085938.28125-.199219.355469-.347656.078125-.144532.113281-.308594.113281-.492188 0-.175781-.035156-.339844-.113281-.492187-.074219-.148438-.191406-.269531-.355469-.359375-.160156-.089844-.371093-.136719-.632812-.136719h-1.113281v4.046875h-.367188v-4.363281h1.480469c.320312 0 .589843.054687.808593.164062.21875.109375.382813.261719.496094.457031.109375.199219.167969.421876.167969.679688 0 .265625-.058594.496094-.167969.691406-.113281.191406-.277344.339844-.496094.441406-.214843.101563-.484374.152344-.808593.152344Zm3.964843 0h-1.242187v-.316406h1.242187c.257813 0 .46875-.039062.628907-.125.164062-.085938.285156-.199219.359375-.347656.074218-.144532.113281-.308594.113281-.492188 0-.175781-.039063-.339844-.113281-.492187-.074219-.148438-.195313-.269531-.359375-.359375-.160157-.089844-.371094-.136719-.628907-.136719h-1.113281v4.046875h-.371093v-4.363281h1.484374c.316407 0 .585938.054687.804688.164062.21875.109375.382812.261719.496094.457031.113281.199219.167968.421876.167968.679688 0 .265625-.054687.496094-.167968.691406-.113282.191406-.277344.339844-.492188.441406-.21875.101563-.488281.152344-.808594.152344Zm5.695313-.640625v.46875c0 .304688-.039063.582031-.117187.832031-.078126.246094-.191407.457032-.34375.632813-.144532.175781-.324219.308594-.53125.402344-.207032.09375-.441407.140625-.699219.140625-.253907 0-.488281-.046875-.695313-.140625-.207031-.09375-.386718-.226563-.535156-.402344-.152344-.175781-.265625-.386719-.347656-.632813-.082032-.25-.125-.527343-.125-.832031v-.46875c0-.304687.042968-.578125.121094-.824219.082031-.25.199218-.460937.347656-.636718.148437-.175782.328125-.308594.535156-.402344.207031-.097656.4375-.144531.691406-.144531.261719 0 .492188.046875.699219.144531.210937.09375.386719.226562.539063.402344.148437.175781.261718.386718.34375.636718.078124.246094.117187.519532.117187.824219Zm-.363281.46875v-.472656c0-.257813-.03125-.488281-.089844-.695313-.058594-.207031-.144531-.382812-.261719-.527343-.113281-.144531-.253906-.257813-.417969-.335938-.164062-.078125-.355468-.117187-.566406-.117187-.207031 0-.390625.039062-.554687.117187-.164063.078125-.300781.191407-.417969.335938-.113281.144531-.203125.320312-.261719.527343-.0625.207032-.089843.4375-.089843.695313v.472656c0 .261719.027343.496094.089843.703125.058594.203125.148438.382813.265625.53125.113282.144532.253906.257813.417969.335938.164063.074218.351563.113281.558594.113281.210937 0 .402343-.039063.5625-.113281.164062-.078125.304687-.191406.417969-.335938.113281-.148437.199218-.328125.257812-.53125.058594-.207031.089844-.441406.089844-.703125Zm1.472656-2.414062h1.414062c.300782 0 .5625.046875.785157.144531.222656.097656.390625.246094.511719.4375.121093.1875.183593.421875.183593.699219 0 .207031-.046875.394531-.132812.5625-.085938.167969-.203125.308593-.355469.421875-.152344.109375-.328125.1875-.527344.230468l-.128906.046876h-1.511719l-.007812-.3125h1.265625c.230468 0 .417968-.046876.570312-.132813.152344-.089844.265625-.203125.339844-.347656.078125-.148438.117188-.300781.117188-.46875 0-.195313-.042969-.367188-.128907-.511719-.082031-.144531-.207031-.257812-.371093-.335938-.167969-.078124-.371094-.117187-.609376-.117187h-1.046874v4.046875h-.367188Zm2.691406 4.363281-1.128906-1.953125h.394531l1.125 1.914063v.039062Zm2.617188-4.363281v4.363281h-.363282v-4.363281Zm1.496094 0v.316406h-3.351563v-.316406Zm0 0"/><path fill-opacity=".7686" d="M302.03125 152.449219c0-.695313-.5625-1.257813-1.257812-1.257813-.695313.003906-1.257813.566406-1.257813 1.261719.003906.695313.566406 1.257813 1.261719 1.257813.695312-.003907 1.257812-.566407 1.253906-1.261719Zm-1.257812-.234375h-69.089844v.472656h69.089844Zm0 0"/><path d="M256.066406 146.390625h-.988281l.007813-.3125h.980468c.3125 0 .582032-.070313.808594-.210937.226562-.140626.402344-.335938.527344-.585938.121094-.25.183594-.539062.183594-.871094v-.40625c0-.25-.035157-.480468-.105469-.683594-.070313-.203124-.171875-.378906-.304688-.519531-.128906-.148437-.289062-.257812-.472656-.335937-.179687-.078125-.382813-.117188-.609375-.117188h-1.035156v-.320312h1.035156c.273438 0 .519531.046875.746094.140625.226562.09375.421875.226562.589844.402343.167968.175782.296874.382813.386718.625.089844.246094.136719.515626.136719.816407v.398437c0 .300782-.046875.574219-.136719.816406-.089844.242188-.21875.453126-.386718.625-.167969.175782-.367188.308594-.597657.402344-.230469.09375-.484375.136719-.765625.136719Zm-.824218-4.363281v4.363281H254.875v-4.363281Zm6.542968 4.050781v.3125h-2.449218v-.3125Zm-2.339844-4.050781v4.363281h-.367187v-4.363281Zm2.035157 1.957031v.316406h-2.144531v-.316406Zm.289062-1.957031v.320312h-2.433593v-.320312Zm2.34375 3.824218 1.375-3.824218h.398438l-1.621094 4.363281h-.296875Zm-1.417969-3.824218 1.367188 3.824218.148438.539063h-.296876l-1.621093-4.363281Zm6.734376 4.050781v.3125h-2.453126v-.3125Zm-2.34375-4.050781v4.363281h-.367188v-4.363281Zm2.035156 1.957031v.316406h-2.144532v-.316406Zm.292968-1.957031v.320312h-2.4375v-.320312Zm3.5 4.050781v.3125h-2.261718v-.3125Zm-2.152343-4.050781v4.363281h-.367188v-4.363281Zm6.070312 1.949218v.46875c0 .304688-.039062.582032-.121093.828126-.078126.246093-.191407.457031-.339844.632812-.148438.175781-.328125.3125-.535156.40625-.207032.09375-.441407.140625-.699219.140625-.253907 0-.484375-.046875-.695313-.140625-.207031-.09375-.386718-.230469-.535156-.40625-.148438-.175781-.265625-.386719-.347656-.632812-.082032-.246094-.121094-.523438-.121094-.828126v-.46875c0-.304687.039062-.582031.117188-.828124.082031-.246094.199218-.457032.347656-.632813.152344-.175781.328125-.3125.535156-.40625.210938-.09375.441406-.140625.695312-.140625.257813 0 .492188.046875.699219.140625.207031.09375.386719.230469.535157.40625.148437.175781.265624.386719.34375.632813.082031.246093.121093.523437.121093.828124Zm-.367187.46875v-.476562c0-.257812-.027344-.488281-.089844-.695312-.054688-.203126-.144531-.378907-.257812-.527344-.117188-.144532-.253907-.257813-.421876-.332032-.164062-.078124-.351562-.117187-.5625-.117187-.207031 0-.390624.039063-.554687.117187-.164063.074219-.304687.1875-.421875.332032-.113281.148437-.199219.324218-.261719.527344-.058593.207031-.089843.4375-.089843.695312v.476562c0 .257813.03125.492188.089843.699219.0625.207031.152344.382813.265625.53125.117188.148438.253906.257813.417969.335938.167969.078125.351563.117187.558594.117187.214843 0 .402343-.039062.566406-.117187.164063-.078125.300781-.1875.414063-.335938.117187-.148437.203124-.324219.257812-.53125.0625-.207031.089844-.441406.089844-.699219Zm2.964844.167969H278.1875v-.3125h1.242188c.257812 0 .46875-.042969.628906-.125.164062-.085937.285156-.203125.355468-.347656.078126-.148437.117188-.308594.117188-.492187 0-.179688-.039062-.34375-.117188-.492188-.070312-.148438-.191406-.269531-.355468-.359375-.160156-.09375-.371094-.136719-.628906-.136719h-1.113282v4.042969h-.371094v-4.363281h1.484376c.316406 0 .585937.054687.804687.167968.21875.109376.382813.261719.496094.457032.113281.195312.167969.421875.167969.675781 0 .269531-.054688.5-.167969.695313-.113281.191406-.277344.335937-.496094.4375-.214844.101562-.484375.152343-.804687.152343Zm2.59375-2.585937h.371093l1.609375 3.84375 1.613282-3.84375h.367187l-1.839844 4.363281h-.28125Zm-.117188 0h.328125l.039063 2.457031v1.90625h-.367188Zm3.871094 0h.328125v4.363281h-.367188v-1.90625Zm4.328125 4.050781v.3125h-2.449219v-.3125Zm-2.339844-4.050781v4.363281h-.367187v-4.363281Zm2.035156 1.957031v.316406h-2.144531v-.316406Zm.289063-1.957031v.320312h-2.433594v-.320312Zm4.226562 0v4.363281h-.371094l-2.503906-3.726563v3.726563h-.371094v-4.363281h.371094l2.507813 3.730468v-3.730468Zm2.667969 0v4.363281h-.363281v-4.363281Zm1.496094 0v.320312h-3.351563v-.320312Zm0 0"/><path fill-opacity=".7686" d="M282.226562 97.070312c-.003906-.695312-.570312-1.257812-1.261718-1.253906-.695313 0-1.257813.566406-1.253906 1.261719 0 .695313.566406 1.257813 1.261718 1.253906.691406 0 1.253906-.566406 1.253906-1.261719Zm-1.257812-.234374-51.644531-.066407v.472657l51.644531.066406Zm0 0"/><path d="M233.625 88.671875v4.363281h-.367188v-4.363281Zm4.613281 0v4.363281h-.371093l-2.503907-3.726562v3.726562h-.367187v-4.363281h.367187l2.511719 3.730469v-3.730469Zm2.492188 4.363281h-.988281l.003906-.3125h.984375c.3125 0 .582031-.070312.808593-.210937.226563-.140625.402344-.335938.527344-.585938.121094-.25.183594-.539062.183594-.871093v-.40625c0-.253907-.035156-.480469-.109375-.683594-.066406-.203125-.167969-.378906-.300781-.523438-.132813-.144531-.289063-.257812-.472656-.332031-.179688-.078125-.386719-.117187-.609376-.117187h-1.035156v-.320313h1.035156c.269532 0 .519532.046875.742188.140625.230469.09375.425781.226562.589844.402344.167968.175781.296875.382812.386718.625.09375.246094.140626.515625.140626.816406v.398438c0 .300781-.046876.574218-.140626.816406-.089843.242187-.21875.453125-.386718.625-.164063.175781-.363282.308594-.59375.402344-.230469.09375-.484375.136718-.765625.136718Zm-.824219-4.363281v4.363281h-.367188v-4.363281Zm4.28125 0v4.363281h-.367188v-4.363281Zm2.734375 3.824219 1.371094-3.824219h.402343l-1.625 4.363281h-.292968ZM245.5 88.671875l1.367188 3.824219.152343.539062h-.300781l-1.617188-4.363281Zm4.476562 0v4.363281h-.371093v-4.363281Zm2.558594 4.363281h-.988281l.007813-.3125h.980468c.3125 0 .582032-.070312.808594-.210937.226562-.140625.402344-.335938.527344-.585938.125-.25.183594-.539062.183594-.871093v-.40625c0-.253907-.035157-.480469-.105469-.683594-.070313-.203125-.171875-.378906-.304688-.523438-.128906-.144531-.289062-.257812-.472656-.332031-.179687-.078125-.382813-.117187-.609375-.117187h-1.03125v-.320313h1.03125c.273438 0 .519531.046875.746094.140625.226562.09375.421875.226562.589844.402344.167968.175781.296874.382812.386718.625.089844.246094.136719.515625.136719.816406v.398438c0 .300781-.046875.574218-.136719.816406-.089844.242187-.21875.453125-.386718.625-.167969.175781-.367188.308594-.597657.402344-.226562.09375-.484375.136718-.765625.136718Zm-.824218-4.363281v4.363281h-.367188v-4.363281Zm6.464843 0h.371094v2.957031c0 .328125-.070313.597656-.207031.816406-.140625.21875-.324219.382813-.558594.488282-.230469.109375-.488281.164062-.769531.164062-.289063 0-.550781-.054687-.78125-.164062-.230469-.105469-.414063-.269532-.550781-.488282-.132813-.21875-.199219-.488281-.199219-.816406v-2.957031h.363281v2.957031c0 .253906.050781.464844.152344.636719.097656.171875.234375.300781.414062.386719.171875.085937.375.128906.601563.128906.226562 0 .425781-.042969.601562-.128906.175781-.085938.316407-.214844.414063-.386719.101562-.171875.148437-.382813.148437-.636719Zm2.953125.261719-1.507812 4.101562h-.382813l1.648438-4.363281h.265625ZM262.5 93.035156l-1.511719-4.101562-.019531-.261719h.265625l1.648437 4.363281Zm-.269531-1.539062v.316406h-2.3125v-.316406Zm4.003906 1.226562v.3125h-2.257813v-.3125Zm-2.152344-4.050781v4.363281h-.367187v-4.363281Zm3.5 0v4.363281h-.371093v-4.363281Zm2.738281 0v4.363281h-.363281v-4.363281Zm1.496094 0v.320313h-3.351562v-.320313Zm.894532 0 1.320312 2.378906 1.332031-2.378906h.425781l-1.570312 2.71875v1.644531h-.371094v-1.644531l-1.574218-2.71875Zm0 0"/><g clip-path="url(#a)"><path fill="#1964ad" d="M199.273438 134.269531h-33.003907v-32.96875h21.859375c3.046875 0 5.828125 1.257813 7.859375 3.285157 2.027344 2.023437 3.285157 4.804687 3.285157 7.847656Zm-33-67.269531V26.09375c0-18.535156-7.523438-26.0507812-26.078126-26.0507812H64.910156V55.867188c0 12.511718 5.109375 23.875 13.34375 32.101562 8.234375 8.222656 19.609375 13.332031 32.136719 13.332031h21.542969v41.214844c0 18.535156 7.527344 26.054687 26.082031 26.054687h75.59375v-56.136718c0-12.511719-5.113281-23.875-13.34375-32.101563C212.03125 72.109375 200.652344 67 188.128906 67ZM99.246094 34.339844H131.9375V67h-21.546875c-3.046875 0-5.828125-1.257812-7.859375-3.285156-2.027344-2.027344-3.285156-4.804688-3.285156-7.847656Zm0 0"/></g><g clip-path="url(#b)"><g clip-path="url(#c)"><path fill="url(#d)" d="M64.910156.0390625V168.566406H233.4375V.0390625Zm0 0"/></g></g><g clip-path="url(#e)"><g clip-path="url(#f)"><path fill="url(#g)" d="M64.910156.0390625V168.566406H233.4375V.0390625Zm0 0"/></g></g></svg>