<svg width="72" height="72" viewBox="0 0 72 72" fill="none" xmlns="http://www.w3.org/2000/svg">
<path fill-rule="evenodd" clip-rule="evenodd" d="M29.5714 28.8214H36.8409V32.5269H36.9206C38.0289 30.5289 41.3023 28.5 45.3497 28.5C53.118 28.5 55.2857 32.6246 55.2857 40.2643V54.5357H47.5714V41.6709C47.5714 38.2509 46.206 35.25 43.0123 35.25C39.1346 35.25 37.2857 37.8754 37.2857 42.1851V54.5357H29.5714V28.8214ZM16.7143 54.5357H24.4286V28.8214H16.7143V54.5357ZM25.3929 19.8214C25.3929 22.4854 23.2354 24.6429 20.5714 24.6429C17.9074 24.6429 15.75 22.4854 15.75 19.8214C15.75 17.1574 17.9074 15 20.5714 15C23.2354 15 25.3929 17.1574 25.3929 19.8214Z" fill="white"/>
<path fill-rule="evenodd" clip-rule="evenodd" d="M59.0889 9H13.0706C10.8694 9 9 10.7409 9 12.8854V59.112C9 61.2591 10.2266 63 12.4277 63H58.446C60.6497 63 63 61.2591 63 59.112V12.8854C63 10.7409 61.2926 9 59.0889 9ZM29.5714 29.5714H36.8409V33.2769H36.9206C38.0289 31.2789 41.3023 29.25 45.3497 29.25C53.118 29.25 55.2857 33.3746 55.2857 41.0143V55.2857H47.5714V42.4209C47.5714 39.0009 46.206 36 43.0123 36C39.1346 36 37.2857 38.6254 37.2857 42.9351V55.2857H29.5714V29.5714ZM16.7143 55.2857H24.4286V29.5714H16.7143V55.2857ZM25.3929 20.5714C25.3929 23.2354 23.2354 25.3929 20.5714 25.3929C17.9074 25.3929 15.75 23.2354 15.75 20.5714C15.75 17.9074 17.9074 15.75 20.5714 15.75C23.2354 15.75 25.3929 17.9074 25.3929 20.5714Z" fill="#2D64BC"/>
</svg>
