<?xml version="1.0" encoding="UTF-8"?>
<!DOCTYPE svg PUBLIC "-//W3C//DTD SVG 1.1//EN" "http://www.w3.org/Graphics/SVG/1.1/DTD/svg11.dtd">
<!-- Creator: CorelDRAW -->
<svg xmlns="http://www.w3.org/2000/svg" xml:space="preserve" width="150.73mm" height="29.572mm" version="1.1" style="shape-rendering:geometricPrecision; text-rendering:geometricPrecision; image-rendering:optimizeQuality; fill-rule:evenodd; clip-rule:evenodd"
viewBox="0 0 14414.1 2827.94"
 xmlns:xlink="http://www.w3.org/1999/xlink"
 xmlns:xodm="http://www.corel.com/coreldraw/odm/2003">
 <defs>
  <style type="text/css">
   <![CDATA[
    .fil1 {fill:black;fill-rule:nonzero}
    .fil0 {fill:#1964AD;fill-rule:nonzero}
    .fil3 {fill:url(#id0);fill-rule:nonzero}
    .fil2 {fill:url(#id1);fill-rule:nonzero}
   ]]>
  </style>
  <linearGradient id="id0" gradientUnits="userSpaceOnUse" x1="6.38" y1="102.61" x2="2185.58" y2="2179.98">
   <stop offset="0" style="stop-opacity:1; stop-color:#244082"/>
   <stop offset="1" style="stop-opacity:1; stop-color:#1964AD"/>
  </linearGradient>
  <linearGradient id="id1" gradientUnits="userSpaceOnUse" x1="2254.49" y1="2254.38" x2="1234.59" y2="-2.01">
   <stop offset="0" style="stop-opacity:1; stop-color:#1964AD"/>
   <stop offset="1" style="stop-opacity:1; stop-color:#00B1EB"/>
  </linearGradient>
 </defs>
 <g id="Layer_x0020_1">
  <metadata id="CorelCorpID_0Corel-Layer"/>
  <path class="fil0" d="M2252.38 2252.38l-256.15 0 -110.25 0 -186.84 0 0 -186.84 0 -97.36 0 -269.02 366.4 0c51.07,0 97.72,21.12 131.72,55.11 34,34 55.11,80.66 55.11,131.73l0 366.37 0.01 0.01zm-553.22 -1128.78l0 -686.43c0,-311.04 -126.12,-437.16 -437.16,-437.16l-1262 0 0 936.75c0,209.96 85.7,400.66 223.72,538.68 138.02,138.02 328.71,223.72 538.68,223.72l361.17 0 0 691.63c0,311.04 126.12,437.16 437.16,437.16l1267.21 0 0 -941.94c0,-209.96 -85.7,-400.66 -223.72,-538.68 -138.03,-138.03 -328.72,-223.72 -538.68,-223.72l-366.38 0zm-1123.59 -548.03l287.87 0 73.32 0 186.84 0 0 186.84 0 135.24 0 225.95 -361.19 0c-51.07,0 -97.72,-21.12 -131.72,-55.12 -34,-34 -55.12,-80.65 -55.12,-131.72l0 -361.19z"/>
  <path class="fil1" d="M4232.93 2373.41c504.89,0 749.77,-252.45 749.77,-547.39 0,-648.79 -1027.47,-423.69 -1027.47,-749.77 0,-111.5 93.41,-202.38 335.76,-202.38 156.52,0 325.65,45.43 489.74,138.84l126.22 -310.52c-164.09,-103.5 -391.29,-156.52 -613.44,-156.52 -502.38,0 -744.73,249.93 -744.73,550.76 0,656.37 1027.47,429.16 1027.47,759.88 0,108.13 -98.45,188.91 -340.8,188.91 -212.06,0 -434.21,-75.74 -583.15,-183.88l-138.84 307.57c156.52,121.17 439.25,204.48 719.47,204.48zm1648.49 -10.1c431.69,0 744.72,-290.32 744.72,-699.29 0,-408.96 -313.03,-699.28 -744.72,-699.28 -431.69,0 -747.24,290.32 -747.24,699.28 0,408.97 315.56,699.29 747.24,699.29zm0 -323.13c-196.91,0 -348.38,-141.38 -348.38,-376.16 0,-234.77 151.47,-376.15 348.38,-376.15 196.91,0 345.85,141.38 345.85,376.15 0,234.78 -148.94,376.16 -345.85,376.16zm1438.95 -1083.01c0,-133.79 63.12,-196.91 179.24,-196.91 60.59,0 116.12,17.67 159.04,47.97l103.51 -285.27c-73.21,-50.48 -189.34,-73.2 -300.42,-73.2 -338.28,0 -525.09,199.43 -525.09,504.89l0 60.59 -209.53 0 0 302.93 209.53 0 0 1024.94 393.82 0 0 -1024.94 338.28 0 0 -302.93 -348.38 0 0 -58.07zm1438.91 1042.61c-42.92,32.82 -100.97,50.49 -159.04,50.49 -106.03,0 -169.14,-63.12 -169.14,-179.25l0 -552.86 338.28 0 0 -302.93 -338.28 0 0 -330.7 -393.82 0 0 330.7 -209.53 0 0 302.93 209.53 0 0 557.91c0,323.14 186.81,487.23 507.42,487.23 121.18,0 239.83,-27.77 320.61,-85.84l-106.03 -277.69zm355.95 343.33l1295.05 0 0 -333.23 -886.09 0 0 -1433.91 -408.97 0 0 1767.14zm1693.92 -1547.51c146.42,0 244.88,-95.93 244.88,-227.2 0,-121.17 -98.46,-212.06 -244.88,-212.06 -146.42,0 -244.88,95.93 -244.88,219.63 0,123.7 98.46,219.63 244.88,219.63zm-196.91 1547.51l393.82 0 0 -1358.17 -393.82 0 0 1358.17zm1406.14 20.2c431.69,0 744.72,-290.32 744.72,-699.29 0,-408.96 -313.03,-699.28 -744.72,-699.28 -431.69,0 -747.24,290.32 -747.24,699.28 0,408.97 315.56,699.29 747.24,699.29zm0 -323.13c-196.91,0 -348.38,-141.38 -348.38,-376.16 0,-234.77 151.47,-376.15 348.38,-376.15 196.91,0 345.85,141.38 345.85,376.15 0,234.78 -148.94,376.16 -345.85,376.16zm1832.77 -1075.43c-184.29,0 -343.33,63.12 -449.36,179.24l0 -159.04 -376.15 0 0 1358.17 393.82 0 0 -671.52c0,-249.92 136.32,-366.05 325.65,-366.05 174.19,0 275.17,100.98 275.17,320.61l0 716.95 393.82 0 0 -777.54c0,-414.02 -242.35,-600.83 -562.96,-600.83z"/>
  <path class="fil2" d="M2252.38 2252.38c-184.41,0 -368.83,0 -553.24,0 0,-605.07 0.02,-1210.15 0.02,-1815.22 0,-311.04 -126.12,-437.16 -437.16,-437.16l-1262 0 575.56 575.56c182.68,0 365.35,0 548.03,0 0,605.09 -0.02,1210.13 -0.02,1815.22 0,311.04 126.12,437.16 437.16,437.16l1267.21 0 -575.56 -575.56z"/>
  <path class="fil3" d="M575.56 575.56l0 361.19c0,51.07 21.12,97.72 55.12,131.72 34,34 80.65,55.12 131.72,55.12l1303.13 0c209.95,0 400.65,85.69 538.68,223.72 138.02,138.02 223.72,328.71 223.72,538.68l0 941.94 -575.57 -575.57 0 -366.37c0,-51.07 -21.11,-97.73 -55.11,-131.73 -34,-33.99 -80.65,-55.11 -131.72,-55.11l-1303.13 0c-209.96,0 -400.66,-85.7 -538.68,-223.72 -138.02,-138.02 -223.72,-328.71 -223.72,-538.68l0 -936.75 575.56 575.56z"/>
 </g>
</svg>
