<?xml version="1.0" encoding="UTF-8"?>
<!DOCTYPE svg PUBLIC "-//W3C//DTD SVG 1.1//EN" "http://www.w3.org/Graphics/SVG/1.1/DTD/svg11.dtd">
<!-- Creator: CorelDRAW -->
<svg xmlns="http://www.w3.org/2000/svg" xml:space="preserve" width="150.73mm" height="29.572mm" version="1.1" style="shape-rendering:geometricPrecision; text-rendering:geometricPrecision; image-rendering:optimizeQuality; fill-rule:evenodd; clip-rule:evenodd"
viewBox="0 0 14414.1 2827.94"
 xmlns:xlink="http://www.w3.org/1999/xlink"
 xmlns:xodm="http://www.corel.com/coreldraw/odm/2003">
 <defs>
  <style type="text/css">
   <![CDATA[
    .fil1 {fill:black;fill-rule:nonzero}
    .fil0 {fill:#1964AD;fill-rule:nonzero}
    .fil3 {fill:url(#id0);fill-rule:nonzero}
    .fil2 {fill:url(#id1);fill-rule:nonzero}
   ]]>
  </style>
  <linearGradient id="id0" gradientUnits="userSpaceOnUse" x1="6.38" y1="102.61" x2="2185.58" y2="2179.98">
   <stop offset="0" style="stop-opacity:1; stop-color:#244082"/>
   <stop offset="1" style="stop-opacity:1; stop-color:#1964AD"/>
  </linearGradient>
  <linearGradient id="id1" gradientUnits="userSpaceOnUse" x1="2254.49" y1="2254.38" x2="1234.59" y2="-2.01">
   <stop offset="0" style="stop-opacity:1; stop-color:#1964AD"/>
   <stop offset="1" style="stop-opacity:1; stop-color:#00B1EB"/>
  </linearGradient>
 </defs>
 <g id="Layer_x0020_1">
  <metadata id="CorelCorpID_0Corel-Layer"/>
  <path class="fil0" d="M2252.38 2252.38l-256.15 0 -110.25 0 -186.84 0 0 -186.84 0 -97.36 0 -269.02 366.4 0c51.07,0 97.72,21.12 131.72,55.11 34,34 55.11,80.66 55.11,131.73l0 366.37 0.01 0.01zm-553.22 -1128.78l0 -686.43c0,-311.04 -126.12,-437.16 -437.16,-437.16l-1262 0 0 936.75c0,209.96 85.7,400.66 223.72,538.68 138.02,138.02 328.71,223.72 538.68,223.72l361.17 0 0 691.63c0,311.04 126.12,437.16 437.16,437.16l1267.21 0 0 -941.94c0,-209.96 -85.7,-400.66 -223.72,-538.68 -138.03,-138.03 -328.72,-223.72 -538.68,-223.72l-366.38 0zm-1123.59 -548.03l287.87 0 73.32 0 186.84 0 0 186.84 0 135.24 0 225.95 -361.19 0c-51.07,0 -97.72,-21.12 -131.72,-55.12 -34,-34 -55.12,-80.65 -55.12,-131.72l0 -361.19z"/>
  <path class="fil2" d="M2252.38 2252.38c-184.41,0 -368.83,0 -553.24,0 0,-605.07 0.02,-1210.15 0.02,-1815.22 0,-311.04 -126.12,-437.16 -437.16,-437.16l-1262 0 575.56 575.56c182.68,0 365.35,0 548.03,0 0,605.09 -0.02,1210.13 -0.02,1815.22 0,311.04 126.12,437.16 437.16,437.16l1267.21 0 -575.56 -575.56z"/>
  <path class="fil3" d="M575.56 575.56l0 361.19c0,51.07 21.12,97.72 55.12,131.72 34,34 80.65,55.12 131.72,55.12l1303.13 0c209.95,0 400.65,85.69 538.68,223.72 138.02,138.02 223.72,328.71 223.72,538.68l0 941.94 -575.57 -575.57 0 -366.37c0,-51.07 -21.11,-97.73 -55.11,-131.73 -34,-33.99 -80.65,-55.11 -131.72,-55.11l-1303.13 0c-209.96,0 -400.66,-85.7 -538.68,-223.72 -138.02,-138.02 -223.72,-328.71 -223.72,-538.68l0 -936.75 575.56 575.56z"/>
 </g>
</svg>
