<svg width="30" height="30" viewBox="0 0 30 30" fill="none" xmlns="http://www.w3.org/2000/svg">
<g clip-path="url(#clip0_38_1311)">
<path d="M29.1008 13.4861H24.006V8.39133C24.006 7.49226 23.4066 7.49226 22.5076 7.49226C21.6085 7.49226 21.0091 7.49226 21.0091 8.39133V13.4861H15.9144C15.0153 13.4861 15.0153 14.0855 15.0153 14.9845C15.0153 15.8836 15.0153 16.483 15.9144 16.483H21.0091V21.5777C21.0091 22.4768 21.6085 22.4768 22.5076 22.4768C23.4066 22.4768 24.006 22.4768 24.006 21.5777V16.483H29.1008C29.9998 16.483 29.9998 15.8836 29.9998 14.9845C29.9998 14.0855 29.9998 13.4861 29.1008 13.4861ZM11.1193 13.4861H0.929834C0.0307617 13.4861 0.0307617 14.0855 0.0307617 14.9845C0.0307617 15.8836 0.0307617 16.483 0.929834 16.483H11.1193C12.0184 16.483 12.0184 15.8836 12.0184 14.9845C12.0184 14.0855 12.0184 13.4861 11.1193 13.4861ZM11.1193 20.9783H0.929834C0.0307617 20.9783 0.0307617 21.5777 0.0307617 22.4768C0.0307617 23.3759 0.0307617 23.9752 0.929834 23.9752H11.1193C12.0184 23.9752 12.0184 23.3759 12.0184 22.4768C12.0184 21.5777 12.0184 20.9783 11.1193 20.9783ZM11.1193 5.9938H0.929834C0.0307617 5.9938 0.0307617 6.59319 0.0307617 7.49226C0.0307617 8.39133 0.0307617 8.99071 0.929834 8.99071H11.1193C12.0184 8.99071 12.0184 8.39133 12.0184 7.49226C12.0184 6.59319 12.0184 5.9938 11.1193 5.9938Z" fill="#488AA7"/>
</g>
<defs>
<clipPath id="clip0_38_1311">
<rect width="29.9691" height="29.9691" fill="white" transform="translate(0.0307617)"/>
</clipPath>
</defs>
</svg>
