<svg width="23" height="30" viewBox="0 0 23 30" fill="none" xmlns="http://www.w3.org/2000/svg">
<path d="M18.2813 1.42022V0.288574H19.4375V1.42022H20.5967C21.8761 1.42022 22.9063 2.43534 22.9063 3.68758V27.444C22.9063 28.7045 21.8723 29.7114 20.5967 29.7114H3.24704C1.96765 29.7114 0.9375 28.6963 0.9375 27.444V3.68758C0.9375 2.42711 1.97151 1.42022 3.24704 1.42022H4.40625V0.288574H5.5625V1.42022H9.03125V0.288574H10.1875V1.42022H13.6563V0.288574H14.8125V1.42022H18.2813ZM18.2813 2.55187H14.8125V3.68352H13.6563V2.55187H10.1875V3.68352H9.03129V2.55187H5.56254V3.68352H4.40629V2.55187H3.25C2.61146 2.55187 2.09379 3.04856 2.09379 3.68698V27.4446C2.09379 28.0715 2.61955 28.5797 3.25 28.5797H20.5939C21.2324 28.5797 21.7501 28.083 21.7501 27.4446V3.68698C21.7501 3.06009 21.2243 2.55187 20.5939 2.55187H19.4376V3.68352H18.2813L18.2813 2.55187ZM10.1875 10.4734V11.605H19.4375V10.4734H10.1875ZM4.40629 9.34175H7.87504V12.7367H4.40629V9.34175ZM5.56254 10.4734V11.605H6.71879V10.4734H5.56254ZM4.40629 15H7.87504V18.3949H4.40629V15ZM5.56254 16.1316V17.2633H6.71879V16.1316H5.56254ZM10.1875 16.1316V17.2633H19.4375V16.1316H10.1875ZM4.40629 20.6582H7.87504V24.0532H4.40629V20.6582ZM5.56254 21.7899V22.9215H6.71879V21.7899H5.56254ZM10.1875 21.7899V22.9215H19.4375V21.7899H10.1875Z" fill="#488AA7"/>
</svg>
