<svg width="28" height="28" viewBox="0 0 28 28" fill="none" xmlns="http://www.w3.org/2000/svg">
<g clip-path="url(#clip0_38_1308)">
<path d="M23.9183 4.74094C21.4473 2.0427 17.8957 0.350525 13.9486 0.350525C6.48418 0.350525 0.433105 6.4016 0.433105 13.866H2.96725C2.96725 7.80119 7.88377 2.88467 13.9486 2.88467C17.196 2.88467 20.1135 4.29477 22.1237 6.53559L18.1722 10.4871H27.464V1.19524L23.9183 4.74094Z" fill="#488AA7"/>
<path d="M24.9299 13.866C24.9299 19.9308 20.0134 24.8473 13.9486 24.8473C10.7012 24.8473 7.78367 23.4372 5.77346 21.1964L9.72499 17.2449H0.433105V26.5367L3.9788 22.991C6.44981 25.6893 10.0015 27.3815 13.9486 27.3815C21.413 27.3815 27.464 21.3304 27.464 13.866H24.9299Z" fill="#488AA7"/>
</g>
<defs>
<clipPath id="clip0_38_1308">
<rect width="27.0309" height="27.0309" fill="white" transform="translate(0.433105 0.350525)"/>
</clipPath>
</defs>
</svg>
