<svg xmlns="http://www.w3.org/2000/svg" xmlns:xlink="http://www.w3.org/1999/xlink" xml:space="preserve" id="Layer_1" x="0" y="0" style="enable-background:new 0 0 2000 1334" version="1.1" viewBox="0 0 2000 1334"><style>.st1{fill:#b9e0ed}.st2{fill:#e5e5e5}.st4{fill:#140b4c}.st5{fill:#fff}.st7{fill:#4fa2ca}.st25{fill:#0d156a}.st26{fill:#5670b2}.st27{fill:#db013f}.st28{fill:#f7426e}.st29{fill:#9096bf}.st30{fill:#6b749c}.st34{fill:#080f42}</style><linearGradient id="SVGID_1_" x1="1448.1161" x2="1889.0089" y1="462.1469" y2="462.1469" gradientUnits="userSpaceOnUse"><stop offset="0" style="stop-color:#4a7ab7"/><stop offset="1" style="stop-color:#9ecbe1"/></linearGradient><circle cx="1668.6" cy="462.1" r="220.4" style="fill:url(#SVGID_1_)"/><path d="M532.1 381.7h36c5.1 0 9.4 1.8 13.1 5.5 3.7 3.7 5.5 8.1 5.5 13.1v66.4c0 5.1-1.8 9.5-5.5 13.1-3.7 3.7-8.1 5.5-13.1 5.5h-51.2l-11.1 71.9H550c5.1 0 9.4 1.8 13.1 5.5 3.7 3.7 5.5 8.1 5.5 13.1v66.4c0 5.1-1.8 9.5-5.5 13.1-3.7 3.7-8.1 5.5-13.1 5.5h-59.5l-9 58.8c-.9 4.1-2.9 7.6-5.9 10.4-3 2.8-6.8 4.1-11.4 4.1h-72.6c-4.1 0-7.7-1.5-10.7-4.5-3-3-4.5-6.6-4.5-10.7v-1.4l8.3-56.7h-51.2l-9 58.8c-.9 4.1-2.9 7.6-5.9 10.4-3 2.8-6.8 4.1-11.4 4.1h-72.6c-4.1 0-7.7-1.5-10.7-4.5-3-3-4.5-6.6-4.5-10.7v-1.4l8.3-56.7h-35.3c-5.1 0-9.5-1.8-13.1-5.5-3.7-3.7-5.5-8.1-5.5-13.1V576c0-5.1 1.8-9.4 5.5-13.1 3.7-3.7 8.1-5.5 13.1-5.5h51.2l10.4-71.9h-43.6c-5.1 0-9.5-1.8-13.1-5.5-3.7-3.7-5.5-8.1-5.5-13.1v-66.4c0-5.1 1.8-9.4 5.5-13.1 3.7-3.7 8.1-5.5 13.1-5.5H270l9-58.8c.9-3.7 2.8-7 5.5-10 2.8-3 6.5-4.5 11.1-4.5h73.3c4.2 0 7.7 1.5 10.7 4.5 3 3 4.5 6.6 4.5 10.7v2.1l-9 56H427l9-58.8c.9-3.7 2.8-7 5.5-10 2.8-3 6.4-4.5 11.1-4.5h73.3c4.1 0 7.7 1.5 10.7 4.5 3 3 4.5 6.6 4.5 10.7v2.1l-9 55.8zM348.8 557.3h51.9l10.4-71.9h-51.2l-11.1 71.9zM706.8 832s81.9 50.3 135.6 137.5c53.7 87.2 266.5 184.1 435.5 86.8 16.1-9.3 30.2-17.6 42.7-25 6.3-3.7 12.1-7.2 17.6-10.5 40.3-26.7 84.7-52.6 134.2-50.7 5.5.2 11.1.8 16.7 1.7 6.2 1 12.4 1.9 18.7 2.6 6.3.8 12.6 1.6 19 2.5 18.3 5.7 37.2 8 55.6 6.9 6.1-.4 12.2-1.1 18.2-2.2 13.5-2.4 26.9-5.6 39.7-10.3 4.3-1.6 8.4-3.4 12.6-5.3 4.9-2.2 9.5-4.8 14.1-7.6 4.5-2.8 8.9-5.9 13-9.3 4.6-3.9 9.1-8.1 13.4-12.4 4.3-4.3 8.5-8.8 12.6-13.4 14.1-13 26.3-27.6 36.2-43.5 3.3-5.3 6.3-10.7 9.2-16.4 2.4-4.6 4.9-9.3 7.3-14 2.4-4.7 4.7-9.5 6.9-14.3 3.1-5.8 5.7-11.7 7.9-17.6 2.1-6 3.8-12 5.1-18.1 11.4-63.7-4.1-135.6-50.7-181.6-4.1-4.3-8.4-8.4-12.9-12.3-31.1-27.2-69.4-44.8-110.9-52.1-5.7-1.8-11.3-3.8-16.8-5.9-44.2-17.1-84.9-45.5-124-70.4-3.4-2.6-6.8-5.1-10.1-7.6-13.4-10.1-26.7-19.8-40.9-29.8-4.7-3.4-8.9-7.2-12.4-11.9-3.6-4.3-6.6-9-9-14.2-2.1-4.5-3.9-9.1-5.7-13.7-1.8-4.6-3.5-9.1-5.3-13.7-4.1-12.7-9.9-24.8-17.2-35.8-3.7-5.5-7.8-10.7-12.2-15.5-3-3-6.1-5.8-9.3-8.5-4.7-3.6-9.3-7.3-14-10.8-52-31.6-114.5-49.4-175.2-45.8-6.2.7-12.3 1.5-18.4 2.4-12.2 1.9-24.4 4.5-36.4 7.8-6.4 1.4-12.7 3.2-18.8 5.3-42.9 15.1-78.2 50.5-91.1 96.1-1.1 5.6-1.6 11.5-2 17.3-.2 3.9-.4 7.8-.7 11.6-5.6 31.9-29.6 55.3-54.7 74.8-5 3.9-10.1 7.7-15.1 11.3-2.7 2.9-6.2 4.3-9.6 5.8-48.9 21.2-102.1 25.6-141.8 62.9-23.8 22.1-34.7 52.9-48.1 81.5-1.6 3.7-3.1 7.5-4.5 11.2-23.1 60.3-27.8 125-2.1 161.5" class="st1"/><path d="m1147 208.5-592.5-6.9c-42.1-.5-48 33.7-48.5 75.8l-.2 19.2-4.8 409.8c-.5 42.1 36.3 76.6 78.4 77.1l560.8 6.6c42.1.5 76.7-33.2 77.2-75.3l4.8-409.8.2-19.2c.5-42.1-8.1-77.3-75.4-77.3z" class="st2"/><linearGradient id="SVGID_2_" x1="491.2264" x2="1207.6586" y1="26.1174" y2="26.1174" gradientTransform="matrix(.9999 .0117 -.0117 .9999 -8.9388 195.2465)" gradientUnits="userSpaceOnUse"><stop offset="0" style="stop-color:#4a7ab7"/><stop offset="1" style="stop-color:#9ecbe1"/></linearGradient><path d="M1198 264.1c.5-42.1-8.1-77.2-75.4-77.2L530.1 180c-42.1-.5-48 33.7-48.5 75.8l-.2 19.2 716.4 8.4.2-19.3z" style="fill:url(#SVGID_2_)"/><path d="m481.4 274.9-4.8 409.8c-.5 42.1 36.3 76.6 78.4 77.1l560.8 6.6c42.1.5 76.7-33.2 77.2-75.3l4.8-409.8-716.4-8.4z" class="st4"/><path d="M1088.6 234.4c-.1 10.1-8.4 18.2-18.6 18.1-10.1-.1-18.2-8.4-18.1-18.6.1-10.1 8.4-18.2 18.6-18.1 10.1.1 18.2 8.5 18.1 18.6zM1149.7 235.1c-.1 10.1-8.4 18.2-18.6 18.1-10.1-.1-18.2-8.4-18.1-18.6.1-10.1 8.4-18.2 18.6-18.1 10.1.2 18.2 8.5 18.1 18.6zM792 227c0 4.3-3.5 7.7-7.7 7.7H548.4c-4.3 0-7.7-3.5-7.7-7.7 0-4.3 3.5-7.7 7.7-7.7h235.9c4.3 0 7.7 3.4 7.7 7.7z" class="st5"/><path d="M1361.8 455.6c-.8-2.7-1.6-5.3-2.3-7.7-.7-2.4-1.5-4.6-2.2-6.7-.7-2.1-1.3-4-1.9-5.7-.8-2.2-1.5-4.1-2.1-5.7-5.3-2.3-44.4-21.3-37.5-71.9 0 0 53.9 14.5 38.2 71.6.8 1.5 1.8 3.2 2.9 5.3 1.7 3.2 3.6 7.2 5.7 11.9 1 2.3 2.1 4.8 3.2 7.5 1.2 2.6 1.8 5.6 2.8 8.5.7 2.3 1.5 4.8 2.2 7.3.8-2.7 1.8-6.1 2.9-9.7.5-1.8 1-3.5 1.5-5.2l.6-1.8c-28.4-55.7 10.5-80 10.5-80 22.3 61.7-.5 76.5-8.1 79.5-.3.9-.6 1.9-1 2.9-.5 1.6-1 3.4-1.5 5.1-1 3.5-2.1 7-2.9 9.7-.1.3-.1.7-.3.9-.2.3-.3.5-.5.8-.2.3-.3.4-.4.7.8 3 1.6 6 2.4 9.2.4 1.7.9 3.5 1.4 5.3.4 1.8.8 3.6 1.2 5.5.8 3.7 1.6 7.5 2.4 11.3.7 3.9 1.4 7.7 1.9 11.7.3 1.9.5 3.8.8 5.7.1-.6.1-1.1.3-1.7.2-1 .4-2 .6-3.1.4-2.1.7-4.1 1.1-6.1.5-1.9.9-3.7 1.2-5.2.1-.4.1-.8.3-1.1.2-.3.3-.6.5-.9.1-.3.3-.5.4-.7-2.2-9.5-8.1-48.1 32.7-72.9 0 0 22.6 50.9-31.5 74.7v.3c0 .4-.2.7-.3 1.1-.4 1.5-.8 3.3-1.2 5.1-.3 1.9-.7 3.9-1.1 6l-.6 3c-.2 1-.3 2-.4 2.9-.2 1.9-.4 3.7-.5 5.3-.1.4 0 .8-.1 1.1-.1.2-.1.4-.2.6 1 7.4 1.9 14.8 3.4 22.1.7 4.1 1.7 8 2.6 12 .5 2 1.1 3.9 1.7 5.9.6 1.9 1.1 3.9 1.8 5.8.2.4.3.8.5 1.3 0-.3.1-.6.1-.9.1-1.4.4-2.8.7-4.2.2-1.5.7-2.9 1.1-4.5.5-1.5 1-3 1.6-4.5.6-1.3 1.2-2.7 1.9-4-.3 0-.6 0-.9.1 0 0-2-48.4 47.6-58.1 0 0 7.8 53.3-44.1 57.8-.2.3-.4.6-.5.9-.8 1.3-1.3 2.7-2 4.1-.6 1.4-1 2.9-1.5 4.3-.3 1.5-.8 2.9-1 4.3-.3 1.4-.5 2.8-.7 4.1-.2 1.3-.3 2.5-.3 3.7-.1.6 0 1.1-.1 1.6v.2c.6 1.7 1.3 3.4 2 5 .8 1.8 1.5 3.6 2.3 5.4.8 1.8 1.8 3.5 2.6 5.2.9 1.7 1.7 3.4 2.6 5.1.9 1.6 1.9 3.3 2.8 4.9 1.9 3.2 3.6 6.4 5.6 9.3 2 3 3.8 5.8 5.7 8.6.5.6.9 1.3 1.4 1.9-.1-.7-.2-1.5-.2-2.3-.2-3.4.2-6.7.8-9.2.1-.3.1-.6.2-.9.2-.3.3-.5.4-.7.2-.3.4-.5.5-.8-1.4-4.9-10.3-41.5 26.8-60.1 0 0 19.9 44.8-25.7 60.4v1.8c0 .3-.2.5-.2.8-.5 2.3-1 5.4-.8 8.6.1 1.6.3 3.1.6 4.5.1.7.4 1.4.5 2 0 .1.1.2.1.3.4.5.7 1 1.1 1.5.9 1.2 1.8 2.5 2.7 3.7.9 1.2 1.8 2.3 2.6 3.5 1.6 2.3 3.1 4.5 4.6 6.6 2.8 4.2 5.5 7.7 7.7 10.6 4.4 5.8 6.8 9.2 6.8 9.2s-2.9-2.9-8-8.2c-2.5-2.6-5.7-5.8-9-9.6-1.2-1.3-2.4-2.7-3.7-4.1h-.5c-.3 0-.6-.1-.9-.1-.3 0-.6-.2-.9-.3-.6-.2-1.2-.5-1.9-.7-.7-.2-1.5-.3-2.3-.5l-2.4-.6c-.8-.1-1.7-.2-2.5-.3-.8-.1-1.7-.2-2.5-.2h-2.5c-.8 0-1.6.1-2.3.2-.7.1-1.4.1-2 .2-.3 0-.6.2-.9.2h-.4c-7.1 5.1-41.2 26.4-80.2-2.7 0 0 38.3-39.7 80.5.5.2 0 .5-.1.7-.1.7-.1 1.4-.2 2.2-.3.8-.1 1.6-.2 2.4-.2h2.6c.9-.1 1.8.1 2.7.2l2.7.3c.9.1 1.7.4 2.6.6l2.4.6c.4.1.7.2 1 .3-1.6-1.9-3-4.1-4.6-6.2-1.8-2.5-3.8-5.2-5.7-7.9-1.8-2.8-3.8-5.8-5.7-8.8-2-3-3.8-6.2-5.7-9.5-.9-1.6-1.9-3.3-2.9-5-.5-.9-.9-1.8-1.4-2.7h-.4c-.2 0-.4-.2-.6-.3-1.6-.7-3.8-1.7-6-2.7-2.2-1-4.4-2-6-2.7-.1-.1-.3-.1-.4-.2-10.7 2.4-47.9 7.3-72.3-32.4 0 0 51-23.1 75.1 31.2 1.4.6 2.9 1.3 4.5 2s3.2 1.4 4.6 2.1c-.8-1.7-1.7-3.3-2.5-5-.8-1.8-1.6-3.7-2.4-5.5-1.7-3.7-3-7.6-4.4-11.5-.7-1.9-1.3-3.9-1.9-5.9-.6-2-1.2-4-1.7-6-.7-3-1.4-6.1-2-9.1-.2-.3-.3-.6-.5-.9-.9-1.7-1.8-3.8-3.1-5.9-1.2-2.1-2.5-4.4-3.9-6.6-2.7-4.5-5.6-8.9-7.8-12.2-.3-.4-.6-.8-.8-1.2-.1-.2-.2-.4-.3-.7-6-.6-50.7-6.7-51.7-58.2 0 0 63.3 12.1 52.7 56.6l.1.1.9.9c.3.3.5.8.8 1.2 2.2 3.3 5.1 7.7 7.9 12.2 1.4 2.2 2.7 4.6 3.9 6.7.1.2.2.3.2.5-1.2-6.8-2-13.6-2.9-20.3-.5-4.1-1.1-8-1.6-12-.6-3.9-1.3-7.9-1.9-11.7-.8-3.8-1.6-7.5-2.3-11.1-.4-1.8-.8-3.6-1.1-5.4-.4-1.8-.9-3.5-1.3-5.2-.8-3.1-1.6-6-2.4-9-.4-.7-.8-1.5-1.4-2.2-.6-.9-1.3-1.9-2-2.7-.7-.9-1.4-1.8-2.2-2.6-.7-.8-1.6-1.6-2.3-2.3-1.6-1.4-3.1-2.7-4.5-3.7-.3-.3-.7-.4-1-.7l-.8-.8v-.1c-9 .6-38.9-.3-44.2-34.9 0 0 40.3-5.4 46.7 34.3.2.2.4.3.6.4 1.5 1 3.1 2.3 4.8 3.8.8.8 1.7 1.6 2.4 2.4.7.8 1.4 1.6 2 2.4-.4-1.2-.8-2.4-1.1-3.6-1.1-2.4-2.1-5.2-2.9-7.9z" style="fill:#e1e9f3"/><path d="M1717.3 944.6c0 2.9-2.4 5.3-5.3 5.3s-5.3-2.4-5.3-5.3 2.4-5.3 5.3-5.3c2.9-.1 5.3 2.3 5.3 5.3zM1747.6 944.6c0 2.9-2.4 5.3-5.3 5.3s-5.3-2.4-5.3-5.3 2.4-5.3 5.3-5.3c2.9-.1 5.3 2.3 5.3 5.3zM1777.9 944.6c0 2.9-2.4 5.3-5.3 5.3s-5.3-2.4-5.3-5.3 2.4-5.3 5.3-5.3c2.9-.1 5.3 2.3 5.3 5.3zM1808.1 944.6c0 2.9-2.4 5.3-5.3 5.3s-5.3-2.4-5.3-5.3 2.4-5.3 5.3-5.3c3-.1 5.3 2.3 5.3 5.3zM1838.4 944.6c0 2.9-2.4 5.3-5.3 5.3s-5.3-2.4-5.3-5.3 2.4-5.3 5.3-5.3c2.9-.1 5.3 2.3 5.3 5.3zM1868.7 944.6c0 2.9-2.4 5.3-5.3 5.3s-5.3-2.4-5.3-5.3 2.4-5.3 5.3-5.3 5.3 2.3 5.3 5.3zM1717.3 977.7c0 2.9-2.4 5.3-5.3 5.3s-5.3-2.4-5.3-5.3 2.4-5.3 5.3-5.3c2.9-.1 5.3 2.3 5.3 5.3zM1747.6 977.7c0 2.9-2.4 5.3-5.3 5.3s-5.3-2.4-5.3-5.3 2.4-5.3 5.3-5.3c2.9-.1 5.3 2.3 5.3 5.3zM1777.9 977.7c0 2.9-2.4 5.3-5.3 5.3s-5.3-2.4-5.3-5.3 2.4-5.3 5.3-5.3c2.9-.1 5.3 2.3 5.3 5.3zM1808.1 977.7c0 2.9-2.4 5.3-5.3 5.3s-5.3-2.4-5.3-5.3 2.4-5.3 5.3-5.3c3-.1 5.3 2.3 5.3 5.3zM1838.4 977.7c0 2.9-2.4 5.3-5.3 5.3s-5.3-2.4-5.3-5.3 2.4-5.3 5.3-5.3c2.9-.1 5.3 2.3 5.3 5.3zM1868.7 977.7c0 2.9-2.4 5.3-5.3 5.3s-5.3-2.4-5.3-5.3 2.4-5.3 5.3-5.3 5.3 2.3 5.3 5.3zM1717.3 1010.8c0 2.9-2.4 5.3-5.3 5.3s-5.3-2.4-5.3-5.3 2.4-5.3 5.3-5.3 5.3 2.3 5.3 5.3zM1747.6 1010.8c0 2.9-2.4 5.3-5.3 5.3s-5.3-2.4-5.3-5.3 2.4-5.3 5.3-5.3 5.3 2.3 5.3 5.3zM1777.9 1010.8c0 2.9-2.4 5.3-5.3 5.3s-5.3-2.4-5.3-5.3 2.4-5.3 5.3-5.3 5.3 2.3 5.3 5.3zM1808.1 1010.8c0 2.9-2.4 5.3-5.3 5.3s-5.3-2.4-5.3-5.3 2.4-5.3 5.3-5.3c3 0 5.3 2.3 5.3 5.3zM1838.4 1010.8c0 2.9-2.4 5.3-5.3 5.3s-5.3-2.4-5.3-5.3 2.4-5.3 5.3-5.3 5.3 2.3 5.3 5.3zM1868.7 1010.8c0 2.9-2.4 5.3-5.3 5.3s-5.3-2.4-5.3-5.3 2.4-5.3 5.3-5.3 5.3 2.3 5.3 5.3zM1717.3 1043.9c0 2.9-2.4 5.3-5.3 5.3s-5.3-2.4-5.3-5.3 2.4-5.3 5.3-5.3 5.3 2.4 5.3 5.3zM1747.6 1043.9c0 2.9-2.4 5.3-5.3 5.3s-5.3-2.4-5.3-5.3 2.4-5.3 5.3-5.3 5.3 2.4 5.3 5.3zM1777.9 1043.9c0 2.9-2.4 5.3-5.3 5.3s-5.3-2.4-5.3-5.3 2.4-5.3 5.3-5.3 5.3 2.4 5.3 5.3zM1808.1 1043.9c0 2.9-2.4 5.3-5.3 5.3s-5.3-2.4-5.3-5.3 2.4-5.3 5.3-5.3c3 0 5.3 2.4 5.3 5.3zM1838.4 1043.9c0 2.9-2.4 5.3-5.3 5.3s-5.3-2.4-5.3-5.3 2.4-5.3 5.3-5.3 5.3 2.4 5.3 5.3zM1868.7 1043.9c0 2.9-2.4 5.3-5.3 5.3s-5.3-2.4-5.3-5.3 2.4-5.3 5.3-5.3 5.3 2.4 5.3 5.3z" class="st7"/><path d="M1441.8 884.9c0 7.5-3.8 13.5-8.5 13.5h-77.8c-4.7 0-8.5-6.1-8.5-13.5V656.4c0-7.5 3.8-13.5 8.5-13.5h77.8c4.7 0 8.5 6 8.5 13.5v228.5zM1338.4 624.7l24.9-58.3-28.1-23.5-52.6-9.2s-18.8 44.4 18.7 52.4" class="st4"/><linearGradient id="SVGID_3_" x1="1170.665" x2="1310.7227" y1="720.3651" y2="720.3651" gradientUnits="userSpaceOnUse"><stop offset="0" style="stop-color:#feb01f"/><stop offset="1" style="stop-color:#fa3a40"/></linearGradient><path d="M1281.8 654c-11 12.1-15.5 35.5-25.9 55.9-14.5 28.3-60.8 65.4-85.2 71.1l9 16.4s72.4-7.6 99.5-44.2c20.7-27.8 41.1-97.9 26.8-108.9-3.4-2.6-14.7-.9-24.2 9.7z" style="fill:url(#SVGID_3_)"/><linearGradient id="SVGID_4_" x1="1128.8278" x2="1186.8448" y1="792.7865" y2="792.7865" gradientUnits="userSpaceOnUse"><stop offset=".2957" style="stop-color:#fddc70"/><stop offset=".4036" style="stop-color:#fdc96b"/><stop offset=".6217" style="stop-color:#fc995c"/><stop offset=".9277" style="stop-color:#fb4c45"/><stop offset="1" style="stop-color:#fa3a40"/></linearGradient><path d="m1170.7 781.1-27.2 5.3s-8.4 1.7-9.4 3.8c-1 2.1-5.2 14.3-5.2 14.3l58-1.2" style="fill:url(#SVGID_4_)"/><path d="m1171.9 795.1-3.6 5.9-11.8 1.2" style="fill:#fff;stroke:#070606;stroke-miterlimit:10"/><linearGradient id="SVGID_5_" x1="1273.8857" x2="1357.064" y1="691.998" y2="757.1977" gradientUnits="userSpaceOnUse"><stop offset="0" style="stop-color:#feb01f"/><stop offset="1" style="stop-color:#fa3a40"/></linearGradient><path d="M1403.5 807.1s-32.8-103.9-23.1-144.8c0 0-3.2-18.8-33.4-19.4 0 0-7.2-.2-10-.8-7.4-1.6-37.8 1.4-37.8 1.4s-15.4 17.4-22.8 41.2c-13.1 42.4-6.8 122.6-6.8 122.6l25.5-.1 41.5-.2c.1 1.1.1 1.6.1 1.6l66.8-1.5z" style="fill:url(#SVGID_5_)"/><linearGradient id="SVGID_6_" x1="1833.0719" x2="1796.5968" y1="630.436" y2="628.6907" gradientTransform="matrix(-1 0 0 1 3145.2617 0)" gradientUnits="userSpaceOnUse"><stop offset=".2957" style="stop-color:#fddc70"/><stop offset=".4036" style="stop-color:#fdc96b"/><stop offset=".6217" style="stop-color:#fc995c"/><stop offset=".9277" style="stop-color:#fb4c45"/><stop offset="1" style="stop-color:#fa3a40"/></linearGradient><path d="m1334.7 602.8 6.7 39.9s-18.2 15.7-26.8 13.9c-7.1-1.5 1.9-40 1.9-40l18.2-13.8z" style="fill:url(#SVGID_6_)"/><path d="M1313.5 634.1s20 2 23.1-25.2l3.4-2.8-14.2-.7-10.9 15.6-1.4 13.1z" style="fill:#cdc9c1"/><linearGradient id="SVGID_7_" x1="1860.2058" x2="1779.3633" y1="597.955" y2="601.4114" gradientTransform="matrix(-1 0 0 1 3145.2617 0)" gradientUnits="userSpaceOnUse"><stop offset=".4358" style="stop-color:#fddc70"/><stop offset=".5222" style="stop-color:#fdc96b"/><stop offset=".697" style="stop-color:#fc995c"/><stop offset=".9421" style="stop-color:#fb4c45"/><stop offset="1" style="stop-color:#fa3a40"/></linearGradient><path d="M1299.3 579.6s-8.2 44.9 10.4 49.3c18.6 4.5 24.6-18.6 24.6-18.6s15.3 1.9 13.4-17.9c-1.2-12.1-13.4-8.2-13.4-8.2l-.6-12.8s-11.8-6.1-19.5 2c-7.8 8.1-14.9 6.2-14.9 6.2z" style="fill:url(#SVGID_7_)"/><path d="m1324.3 609.9-20.4.2s2.2 9.2 10.1 9.2" class="st5"/><path d="M1380.3 398.6c27.9-27.9 27.9-73 0-100.9-27.9-27.9-73-27.9-100.9 0-27.8 27.9-27.8 73 0 100.9 27.9 27.9 73 27.9 100.9 0zm-90.9-90.9c22.4-22.4 58.6-22.4 81 0s22.4 58.6 0 81-58.6 22.4-81 0-22.4-58.6 0-81z" style="fill:#d5e8f2"/><path d="M1375.3 342.2c0 31.6-25.6 57.3-57.3 57.3-31.6 0-57.3-25.6-57.3-57.3 0-31.6 25.6-57.3 57.3-57.3 31.6.1 57.3 25.7 57.3 57.3z" class="st5"/><linearGradient id="SVGID_8_" x1="1316.0065" x2="1320.0277" y1="290.8784" y2="290.8784" gradientUnits="userSpaceOnUse"><stop offset="0" style="stop-color:#fff"/><stop offset="1" style="stop-color:#9ecbe1"/></linearGradient><path d="M1316 279.8h4V302h-4z" style="fill:url(#SVGID_8_)"/><linearGradient id="SVGID_9_" x1="1316.0065" x2="1320.0277" y1="393.574" y2="393.574" gradientUnits="userSpaceOnUse"><stop offset="0" style="stop-color:#fff"/><stop offset="1" style="stop-color:#9ecbe1"/></linearGradient><path d="M1316 382.5h4v22.2h-4z" style="fill:url(#SVGID_9_)"/><linearGradient id="SVGID_10_" x1="1358.2499" x2="1380.4835" y1="342.2256" y2="342.2256" gradientUnits="userSpaceOnUse"><stop offset="0" style="stop-color:#fff"/><stop offset="1" style="stop-color:#9ecbe1"/></linearGradient><path d="M1358.2 340.2h22.2v4h-22.2z" style="fill:url(#SVGID_10_)"/><linearGradient id="SVGID_11_" x1="1255.5519" x2="1277.7886" y1="342.2256" y2="342.2256" gradientUnits="userSpaceOnUse"><stop offset="0" style="stop-color:#fff"/><stop offset="1" style="stop-color:#9ecbe1"/></linearGradient><path d="M1255.6 340.2h22.2v4h-22.2z" style="fill:url(#SVGID_11_)"/><linearGradient id="SVGID_12_" x1="1318.0171" x2="1318.0171" y1="413.5411" y2="270.9127" gradientUnits="userSpaceOnUse"><stop offset="0" style="stop-color:#4a7ab7"/><stop offset="1" style="stop-color:#9ecbe1"/></linearGradient><path d="M1318 270.9c-39.4 0-71.3 31.9-71.3 71.3s31.9 71.3 71.3 71.3 71.3-31.9 71.3-71.3-31.9-71.3-71.3-71.3zm0 128.6c-31.6 0-57.3-25.6-57.3-57.3 0-31.6 25.6-57.3 57.3-57.3 31.6 0 57.3 25.6 57.3 57.3 0 31.7-25.7 57.3-57.3 57.3z" style="fill:url(#SVGID_12_)"/><path d="m1329.9 361.3-13.6-18.5v-30.1h3.5v28.9l12.9 17.6z" class="st4"/><linearGradient id="SVGID_13_" x1="1302.1687" x2="1320.028" y1="352.1179" y2="352.1179" gradientUnits="userSpaceOnUse"><stop offset=".1047" style="stop-color:#fc6f3d"/><stop offset=".9543" style="stop-color:#f7426e"/></linearGradient><path d="M1303.5 363.3c-.3 0-.6-.1-.8-.3-.6-.4-.7-1.3-.2-1.8l15.2-19.8c.4-.6 1.3-.7 1.8-.2.6.4.7 1.3.2 1.8l-15.2 19.8c-.2.4-.6.5-1 .5z" style="fill:url(#SVGID_13_)"/><linearGradient id="SVGID_14_" x1="1246.8834" x2="1321.9124" y1="791.061" y2="791.061" gradientUnits="userSpaceOnUse"><stop offset=".2957" style="stop-color:#fddc70"/><stop offset=".4036" style="stop-color:#fdc96b"/><stop offset=".6217" style="stop-color:#fc995c"/><stop offset=".9277" style="stop-color:#fb4c45"/><stop offset="1" style="stop-color:#fa3a40"/></linearGradient><path d="m1308.3 778.9-26.6-1.4s-29.4 12.6-31.2 14c-1.8 1.4-3.2 10.8-3.2 10.8s-2.2.4 3.6.7c5.7.4 26.2 1.8 26.2 1.8s22.6-6.8 26.2-7.2c3.6-.4 18.7 0 18.7 0" style="fill:url(#SVGID_14_)"/><linearGradient id="SVGID_15_" x1="1306.3647" x2="1412.1138" y1="726.3186" y2="726.3186" gradientUnits="userSpaceOnUse"><stop offset="0" style="stop-color:#feb01f"/><stop offset="1" style="stop-color:#fa3a40"/></linearGradient><path d="M1369.3 648.6s30.6 4.8 33.7 38.8c2.7 29.3 14.1 106.9 6.6 113.4s-103.2 1.4-103.2 1.4v-26.9l64.9-1.1-8.8-87.2s-20.2-36.2 6.8-38.4z" style="fill:url(#SVGID_15_)"/><path d="M1590 809.2c0 2-1.7 3.1-3.7 3.1h-511.1c-2 0-3.6-1.1-3.6-3.1v-1.8c0-2 1.6-4 3.6-4h511.1c2 0 3.7 2 3.7 4v1.8z" class="st4"/><path d="M1212.1 756c.6 2.9-1.3 5.3-4.2 5.3h-255c-2.9 0-5.7-2.4-6.3-5.3l-28.4-147.4c-.6-2.9 1.3-5.5 4.2-5.5h255c2.9 0 5.7 2.6 6.3 5.5l28.4 147.4z" class="st5"/><linearGradient id="SVGID_16_" x1="-3314.5498" x2="-3015.3806" y1="682.7116" y2="682.7116" gradientTransform="translate(4211.4062)" gradientUnits="userSpaceOnUse"><stop offset="0" style="stop-color:#4a7ab7"/><stop offset="1" style="stop-color:#9ecbe1"/></linearGradient><path d="M1195.9 756.4c.6 2.9-1.4 5.9-4.3 5.9H932.2c-2.9 0-5.8-2.9-6.4-5.9L897 608.3c-.6-2.9 1.4-5.1 4.3-5.1h259.4c3 0 5.8 2.1 6.4 5.1l28.8 148.1z" style="fill:url(#SVGID_16_)"/><path d="M1092.4 733.7c.2 1-.4 1.8-1.4 1.8h-85.2c-1 0-1.9-.9-2.1-1.8l-9.6-49.3c-.2-1 .4-1.8 1.4-1.8h85.2c1 0 1.9.8 2.1 1.8l9.6 49.3z" class="st25"/><path d="M983 792.7h297.4v12.5H983z" class="st26"/><path d="M982.3 801h297.4v12.5H982.3z" class="st25"/><path d="m1046.1 811.7 22.4-82.5h-14.6l-22.5 82.6" class="st26"/><path d="m1019 733.7-21.4 78.5h39.5l22.5-82.7-39.2-.6z" class="st25"/><path d="M826.3 344c0 5-4 9-9 9h-130c-5 0-9-4-9-9s4-9 9-9h129.9c5 0 9.1 4 9.1 9zM1066.9 344.8c0 5-4 9-9 9H928c-5 0-9-4-9-9s4-9 9-9h129.9c5 0 9 4 9 9zM903.3 344.6c0 5-4 9-9 9h-45.7c-5 0-9-4-9-9s4-9 9-9h45.7c4.9 0 9 4 9 9zM761.3 377.5c0 5-4 9-9 9h-45.7c-5 0-9-4-9-9s4-9 9-9h45.7c5 0 9 4 9 9zM918.5 412c0 5-4 9-9 9h-45.7c-5 0-9-4-9-9s4-9 9-9h45.7c5 0 9 4 9 9z" class="st5"/><path d="M927.3 378.3c0 5-4 9-9 9H788.4c-5 0-9-4-9-9s4-9 9-9h129.9c5 0 9 4 9 9z" class="st27"/><path d="M849.5 477c0 5-4 9-9 9h-69.8c-5 0-9-4-9-9s4-9 9-9h69.8c5-.1 9 4 9 9z" class="st28"/><path d="M1087.8 380.7c0 5-4 9-9 9h-130c-5 0-9-4-9-9s4-9 9-9h129.9c5 0 9.1 4 9.1 9z" class="st27"/><path d="M838.9 410.8c0 5-4 9-9 9h-130c-5 0-9-4-9-9s4-9 9-9h129.9c5.1-.1 9.1 4 9.1 9zM909.5 441.3c0 5-4 9-9 9h-130c-5 0-9-4-9-9s4-9 9-9h129.9c5.1-.1 9.1 4 9.1 9zM862 543.5c0 5-4 9-9 9h-81.8c-5 0-9-4-9-9s4-9 9-9H853c4.9 0 9 4 9 9z" class="st7"/><path d="M910.7 509.2c0 5-4 9-9 9h-130c-5 0-9-4-9-9s4-9 9-9h129.9c5.1 0 9.1 4.1 9.1 9z" class="st28"/><path d="M1080.4 413.2c0 5-4 9-9 9h-130c-5 0-9-4-9-9s4-9 9-9h129.9c5 0 9.1 4 9.1 9z" class="st7"/><path d="M657 336.6c0 5-4 9-9 9h-45.7c-5 0-9-4-9-9s4-9 9-9H648c5-.1 9 4 9 9z" class="st5"/><path d="M586.3 337.3c0 5.3-4.3 9.6-9.6 9.6s-9.6-4.3-9.6-9.6 4.3-9.6 9.6-9.6c5.3-.1 9.6 4.2 9.6 9.6z" class="st7"/><path d="M657 370.7c0 5-4 9-9 9h-45.7c-5 0-9-4-9-9s4-9 9-9H648c5 0 9 4.1 9 9z" class="st5"/><path d="M586.3 371.4c0 5.3-4.3 9.6-9.6 9.6s-9.6-4.3-9.6-9.6 4.3-9.6 9.6-9.6 9.6 4.3 9.6 9.6z" class="st7"/><path d="M657 404.9c0 5-4 9-9 9h-45.7c-5 0-9-4-9-9s4-9 9-9H648c5 0 9 4 9 9z" class="st5"/><path d="M586.3 405.6c0 5.3-4.3 9.6-9.6 9.6s-9.6-4.3-9.6-9.6 4.3-9.6 9.6-9.6 9.6 4.3 9.6 9.6z" class="st7"/><path d="M741.2 439.1c0 5-4 9-9 9h-45.7c-5 0-9-4-9-9s4-9 9-9h45.7c5 0 9 4 9 9z" class="st5"/><path d="M670.6 439.8c0 5.3-4.3 9.6-9.6 9.6s-9.6-4.3-9.6-9.6 4.3-9.6 9.6-9.6c5.2-.1 9.6 4.3 9.6 9.6z" class="st7"/><path d="M741.2 473.3c0 5-4 9-9 9h-45.7c-5 0-9-4-9-9s4-9 9-9h45.7c5-.1 9 4 9 9z" class="st5"/><path d="M670.6 473.9c0 5.3-4.3 9.6-9.6 9.6s-9.6-4.3-9.6-9.6 4.3-9.6 9.6-9.6c5.2 0 9.6 4.3 9.6 9.6z" class="st7"/><path d="M948.2 476.9c0 5-4 9-9 9h-45.7c-5 0-9-4-9-9s4-9 9-9h45.7c5-.1 9 4 9 9zM877.5 477.6c0 5.3-4.3 9.6-9.6 9.6s-9.6-4.3-9.6-9.6 4.3-9.6 9.6-9.6c5.3-.1 9.6 4.2 9.6 9.6zM1010.2 507c0 5-4 9-9 9h-45.7c-5 0-9-4-9-9s4-9 9-9h45.7c4.9-.1 9 4 9 9zM939.5 507.6c0 5.3-4.3 9.6-9.6 9.6s-9.6-4.3-9.6-9.6 4.3-9.6 9.6-9.6 9.6 4.3 9.6 9.6z" class="st5"/><path d="M761.7 612.9c0 5-4 9-9 9h-69.8c-5 0-9-4-9-9s4-9 9-9h69.8c5 0 9 4 9 9z" class="st28"/><path d="M821.7 577.2c0 5-4 9-9 9h-130c-5 0-9-4-9-9s4-9 9-9h129.9c5 0 9.1 4 9.1 9z" class="st27"/><path d="M774.1 679.5c0 5-4 9-9 9h-81.8c-5 0-9-4-9-9s4-9 9-9h81.8c5 0 9 4 9 9z" class="st7"/><path d="M822.9 645.2c0 5-4 9-9 9h-130c-5 0-9-4-9-9s4-9 9-9h129.9c5 0 9.1 4 9.1 9z" class="st28"/><path d="M860.4 612.8c0 5-4 9-9 9h-45.7c-5 0-9-4-9-9s4-9 9-9h45.7c4.9 0 9 4.1 9 9zM789.7 613.5c0 5.3-4.3 9.6-9.6 9.6s-9.6-4.3-9.6-9.6 4.3-9.6 9.6-9.6 9.6 4.3 9.6 9.6z" class="st5"/><path d="M922.3 642.9c0 5-4 9-9 9h-45.7c-5 0-9-4-9-9s4-9 9-9h45.7c5 0 9 4 9 9zM851.7 643.6c0 5.3-4.3 9.6-9.6 9.6s-9.6-4.3-9.6-9.6 4.3-9.6 9.6-9.6c5.2 0 9.6 4.3 9.6 9.6z" class="st7"/><path d="M741.2 507.4c0 5-4 9-9 9h-45.7c-5 0-9-4-9-9s4-9 9-9h45.7c5 0 9 4.1 9 9z" class="st5"/><path d="M670.6 508.1c0 5.3-4.3 9.6-9.6 9.6s-9.6-4.3-9.6-9.6 4.3-9.6 9.6-9.6c5.2 0 9.6 4.3 9.6 9.6z" class="st7"/><path d="M741.2 541.6c0 5-4 9-9 9h-45.7c-5 0-9-4-9-9s4-9 9-9h45.7c5 0 9 4 9 9z" class="st5"/><path d="M670.6 542.3c0 5.3-4.3 9.6-9.6 9.6s-9.6-4.3-9.6-9.6 4.3-9.6 9.6-9.6c5.2 0 9.6 4.3 9.6 9.6z" class="st7"/><path d="M657 575.8c0 5-4 9-9 9h-45.7c-5 0-9-4-9-9s4-9 9-9H648c5 0 9 4 9 9z" class="st5"/><path d="M586.3 576.5c0 5.3-4.3 9.6-9.6 9.6s-9.6-4.3-9.6-9.6 4.3-9.6 9.6-9.6c5.3-.1 9.6 4.3 9.6 9.6z" class="st7"/><path d="M657 610c0 5-4 9-9 9h-45.7c-5 0-9-4-9-9s4-9 9-9H648c5-.1 9 4 9 9z" class="st5"/><circle cx="576.7" cy="610.6" r="9.6" class="st7"/><path d="M657 644.1c0 5-4 9-9 9h-45.7c-5 0-9-4-9-9s4-9 9-9H648c5 0 9 4 9 9z" class="st5"/><circle cx="576.7" cy="644.8" r="9.6" class="st7"/><path d="M657 678.3c0 5-4 9-9 9h-45.7c-5 0-9-4-9-9s4-9 9-9H648c5 0 9 4 9 9z" class="st5"/><path d="M586.3 679c0 5.3-4.3 9.6-9.6 9.6s-9.6-4.3-9.6-9.6 4.3-9.6 9.6-9.6 9.6 4.3 9.6 9.6z" class="st7"/><path d="M830.2 1080.9c2.9 0 5.5-1.6 6.5-4.1l100.8-256.6c1.3-3.2-.6-6.7-4.2-7.8-3.6-1.1-7.6.6-8.8 3.8l-100.8 256.6c-1.3 3.2.6 6.7 4.2 7.8.8.2 1.6.3 2.3.3zM998.2 812c2.9 0 5.5 1.6 6.5 4.1l100.8 256.6c1.3 3.2-.6 6.7-4.2 7.8-3.6 1.1-7.6-.6-8.8-3.8L991.7 820.2c-1.3-3.2.6-6.7 4.2-7.8.8-.3 1.6-.4 2.3-.4z" class="st29"/><path d="M907.5 875.7h118.6v9.2H907.5z" class="st29"/><path d="M1171.3 923c0 7.3 4.5 13.2 10 13.2h231.6c5.5 0 10-5.9 10-13.2v-10.5c0-7.3-4.5-13.2-10-13.2h-231.6c-5.5 0-10 5.9-10 13.2V923z" class="st30"/><linearGradient id="SVGID_17_" x1="1938.005" x2="2017.1628" y1="1036.3995" y2="1036.3995" gradientTransform="matrix(-1 0 0 1 3088.5938 0)" gradientUnits="userSpaceOnUse"><stop offset=".09595919" style="stop-color:#fddc70"/><stop offset=".225" style="stop-color:#fdd76f"/><stop offset=".3674" style="stop-color:#fdca6b"/><stop offset=".5163" style="stop-color:#fdb464"/><stop offset=".6696" style="stop-color:#fc965a"/><stop offset=".8263" style="stop-color:#fb6e4f"/><stop offset=".9838" style="stop-color:#fa3f42"/><stop offset="1" style="stop-color:#fa3a40"/></linearGradient><path d="m1150.6 1014.5-7.6 55.5h-69.8l-1.8-17.5s26.2 3.5 39.2-9.5c13-13 17.5-40.2 17.5-40.2" style="fill:url(#SVGID_17_)"/><path d="M1328.8 820.4s16.8 78.2-7.6 84.1c-24.4 5.9-131 2.6-131 2.6h-16l-16.9 112-39.5-2 14.3-139.5 100.6-32.7" style="fill:#060e35"/><path d="M1042.3 1071.7c.2-13.6 11.3-24.5 24.9-24.5 13.6 0 24.7 10.9 24.9 24.5h51v5.9h-100.9l.1-5.9z" class="st5"/><linearGradient id="SVGID_18_" x1="1874.4056" x2="1953.5635" y1="1043.2745" y2="1043.2745" gradientTransform="matrix(-1 0 0 1 3088.5938 0)" gradientUnits="userSpaceOnUse"><stop offset=".09595919" style="stop-color:#fddc70"/><stop offset=".225" style="stop-color:#fdd76f"/><stop offset=".3674" style="stop-color:#fdca6b"/><stop offset=".5163" style="stop-color:#fdb464"/><stop offset=".6696" style="stop-color:#fc965a"/><stop offset=".8263" style="stop-color:#fb6e4f"/><stop offset=".9838" style="stop-color:#fa3f42"/><stop offset="1" style="stop-color:#fa3a40"/></linearGradient><path d="m1214.2 1021.4-7.6 55.5h-69.8l-1.8-17.5s26.2 3.5 39.2-9.5c13-13 17.5-40.2 17.5-40.2" style="fill:url(#SVGID_18_)"/><path d="M1392.4 827.2s16.8 78.2-7.6 84.1c-24.4 5.9-131 2.6-131 2.6h-16l-16.9 112-39.5-2-.3-136.1 139-39.8-.9-20.6" class="st34"/><path d="M1105.9 1078.6c.2-13.6 11.3-24.5 24.9-24.5 13.6 0 24.7 10.9 24.9 24.5h51v5.9h-100.9l.1-5.9z" class="st5"/><path d="M1285.8 930.7h22.5v85.7h-22.5z" class="st30"/><path d="M1291.3 964.5h11.4v124.1h-11.4z" class="st30"/><path d="M1219.6 1081.4c0 4 3.3 7.3 7.3 7.3h140.3c4 0 7.3-3.3 7.3-7.3s-3.3-7.3-7.3-7.3h-140.3c-4.1 0-7.3 3.3-7.3 7.3z" class="st30"/><path d="M1319.3 1080.9c2.9 0 5.5-1.6 6.5-4.1l100.8-256.6c1.3-3.2-.6-6.7-4.3-7.8-3.6-1.1-7.6.6-8.8 3.8l-100.8 256.6c-1.3 3.2.6 6.7 4.2 7.8.9.2 1.6.3 2.4.3zM1487.3 812c2.9 0 5.5 1.6 6.5 4.1l100.8 256.6c1.3 3.2-.6 6.7-4.2 7.8-3.6 1.1-7.6-.6-8.8-3.8l-100.8-256.6c-1.3-3.2.6-6.7 4.2-7.8.8-.2 1.6-.3 2.3-.3z" class="st29"/><path d="M1396.6 875.7h118.6v9.2h-118.6z" class="st29"/><path d="M841.5 812.4h728.6V834H841.5z" class="st5"/><linearGradient id="SVGID_19_" x1="1091.87" x2="1240.2822" y1="512.2999" y2="512.2999" gradientUnits="userSpaceOnUse"><stop offset="0" style="stop-color:#feb01f"/><stop offset="1" style="stop-color:#fa3a40"/></linearGradient><path d="M1240.3 525.9c0 16.2-13.1 29.3-29.3 29.3h-89.7c-16.2 0-29.3-13.1-29.3-29.3v-27.2c0-16.2 13.1-29.3 29.3-29.3h89.7c16.2 0 29.3 13.1 29.3 29.3v27.2z" style="fill:url(#SVGID_19_)"/><path d="M1132.2 512.3c1.3.8 2.3 1.7 3 2.6.7 1 1.2 2.2 1.5 3.7.3 1.5.4 3.4.4 5.8 0 1.8 0 3.1.1 3.9.1.8.2 1.5.5 1.9.2.4.5.7.9.9.3.1.9.3 1.7.4.7.1 1.2.4 1.7 1 .4.6.7 1.3.7 2.2 0 2.2-1.3 3.2-3.9 3.2-1.6 0-3.1-.3-4.3-1-1.3-.7-2.3-1.6-3-2.9-.7-1.2-1.1-2.7-1.1-4.3-.1-2.7-.1-4.9-.2-6.5-.1-1.6-.1-2.7-.2-3.2-.3-1.2-.7-2.1-1.2-2.7-.5-.6-1.2-1.2-2.1-1.7-.8-.5-1.4-1-1.8-1.4-.4-.4-.5-1.1-.5-2 0-1.3.5-2.3 1.6-3 1.3-.8 2.2-1.5 2.7-2 .5-.6.9-1.3 1.1-2.2.2-.9.4-1.8.4-2.9 0-1 .1-3.6.2-7.5.1-2.5.8-4.4 2.3-5.9 1.5-1.5 3.5-2.2 6-2.2 2.6 0 3.9 1.1 3.9 3.2 0 1-.2 1.7-.7 2.3-.4.6-1 .9-1.7 1-1 .1-1.8.4-2.2.6-.4.3-.7.8-.8 1.7-.1.8-.2 2.4-.2 4.8 0 2.3-.2 4.2-.4 5.7s-.7 2.7-1.4 3.8c-.7.9-1.7 1.9-3 2.7zM1165.7 527.2c-1.2 0-2.2-.4-3-1.1-.9-.7-1.3-1.7-1.3-3 0-1.1.4-2.1 1.3-2.8.8-.8 1.8-1.1 3-1.1.9 0 1.6.2 2.3.7.7.5 1.2 1.1 1.6 2 .4.9.6 2 .6 3.3 0 1.8-.4 3.4-1.1 5-.7 1.5-1.7 2.8-2.7 3.7-1.1.9-2.1 1.3-2.9 1.3-.6 0-1-.2-1.3-.5-.3-.4-.5-.8-.5-1.3 0-.7.4-1.3 1.1-1.8 1.9-1.2 2.9-2.6 2.9-4.4zm-3.6-25.7c0-1.3.4-2.2 1.2-2.9.8-.7 1.8-1 2.9-1 1.1 0 2 .4 2.8 1.1.8.7 1.2 1.7 1.2 2.9 0 1-.4 1.9-1.2 2.8-.8.8-1.7 1.2-2.7 1.2-.7 0-1.4-.2-2-.5-.6-.4-1.1-.8-1.5-1.4-.6-.8-.7-1.5-.7-2.2zM1200 512.3c-1-.6-1.7-1.2-2.4-1.9-.6-.7-1.1-1.5-1.5-2.4-.4-.9-.7-2.1-.8-3.4-.2-1.3-.2-2.8-.2-4.6 0-1.7 0-3-.1-3.9-.1-.9-.2-1.6-.4-2-.2-.4-.5-.7-.9-.8-.4-.2-1-.3-1.8-.4-.7-.1-1.2-.4-1.7-1s-.7-1.3-.7-2.3c0-2.1 1.3-3.2 3.9-3.2 1.7 0 3.1.3 4.4 1 1.3.7 2.2 1.6 3 2.9.7 1.2 1.1 2.7 1.1 4.2.1 5.9.2 9.2.4 9.8.3 1.2.7 2.1 1.3 2.7.6.6 1.2 1.2 2 1.6.8.5 1.4.9 1.8 1.4.4.5.6 1.2.6 2.1 0 1.3-.5 2.3-1.5 2.9-1.2.8-2.2 1.4-2.7 2-.6.6-1 1.3-1.2 2.2-.2.9-.4 2.2-.4 3.9 0 1.7-.1 3.9-.1 6.5-.1 2.5-.8 4.4-2.4 5.9-1.5 1.5-3.6 2.2-6.1 2.2-1.2 0-2.2-.3-2.9-.8-.7-.6-1-1.4-1-2.4 0-.6.1-1.1.3-1.6.2-.5.5-.9.8-1.1.3-.3.7-.4 1.2-.5.8-.1 1.4-.2 1.8-.4.4-.2.7-.5.9-.9.2-.4.3-1.1.4-2 .1-.9.1-2.1.1-3.8 0-2.5.2-4.4.4-5.8.2-1.4.7-2.6 1.4-3.6.6-.7 1.6-1.6 3-2.5z" class="st5"/><path d="M157.3 1057.6c-17.6 0-31.9-14.3-31.9-31.9V693.6c0-17.6 14.3-31.9 31.9-31.9H682c17.6 0 31.9 14.3 31.9 31.9v332.1c0 17.6-14.3 31.9-31.9 31.9H157.3z" class="st25"/><defs><path id="SVGID_20_" d="M695.3 1025.7c0 7.3-5.9 13.3-13.3 13.3H157.3c-7.3 0-13.3-5.9-13.3-13.3V693.6c0-7.3 5.9-13.3 13.3-13.3H682c7.3 0 13.3 5.9 13.3 13.3v332.1z"/></defs><clipPath id="SVGID_21_"><use xlink:href="#SVGID_20_" style="overflow:visible"/></clipPath><linearGradient id="SVGID_22_" x1="69.3005" x2="752.7819" y1="856.8804" y2="856.8804" gradientUnits="userSpaceOnUse"><stop offset=".1047" style="stop-color:#fc6f3d"/><stop offset=".9543" style="stop-color:#f7426e"/></linearGradient><path d="M69.3 621.7h683.5V1092H69.3z" style="clip-path:url(#SVGID_21_);fill:url(#SVGID_22_)"/><path d="M110.8 656.4h619.1v47.8H110.8z" style="clip-path:url(#SVGID_21_);fill:#fff"/><g style="clip-path:url(#SVGID_21_)"><circle cx="427.9" cy="863.2" r="122.7" style="fill:none"/></g><linearGradient id="SVGID_23_" x1="-144.2759" x2="724.1763" y1="998.6476" y2="1117.2657" gradientUnits="userSpaceOnUse"><stop offset="0" style="stop-color:#4a7ab7"/><stop offset="1" style="stop-color:#9ecbe1"/></linearGradient><path d="M755.2 1091.9c0 3.3-2.6 5.9-5.9 5.9H90c-3.3 0-5.9-2.6-5.9-5.9v-32.5c0-3.3 2.6-5.9 5.9-5.9h659.3c3.3 0 5.9 2.6 5.9 5.9v32.5z" style="fill:url(#SVGID_23_)"/><linearGradient id="SVGID_24_" x1="417.7189" x2="422.322" y1="1102.515" y2="998.9536" gradientUnits="userSpaceOnUse"><stop offset="0" style="stop-color:#4a7ab7"/><stop offset="1" style="stop-color:#9ecbe1"/></linearGradient><path d="M351.9 1053.7c-.6 1.5-1 3.2-1 4.9v.9c0 7.1 5.8 12.9 12.9 12.9h111.7c7.1 0 12.9-5.8 12.9-12.9v-.9c0-1.8-.4-3.4-1-4.9H351.9z" style="fill:url(#SVGID_24_)"/><path d="m450.3 848.6-3.9-14-11.2 3.1c-2.2-4.4-5.3-8.3-8.9-11.4l5.7-10.1-12.6-7.2-5.7 10.1c-4.5-1.5-9.4-2.1-14.3-1.8l-3.1-11.2-14 3.9 3.1 11.2c-4.4 2.2-8.3 5.3-11.4 8.9l-10.1-5.7-7.1 12.6 10.1 5.7c-1.5 4.5-2.1 9.4-1.8 14.3l-11.2 3.1 3.9 14L369 871c2.2 4.4 5.3 8.3 8.9 11.4l-5.7 10.1 12.6 7.2 5.7-10.1c4.5 1.5 9.4 2.1 14.3 1.8l3.1 11.2 14-3.9-3.1-11.2c4.4-2.2 8.3-5.3 11.4-8.9l10.1 5.7 7.1-12.6-10.1-5.7c1.5-4.5 2.1-9.4 1.8-14.3l11.2-3.1zm-42.7 25.6c-10.9 3-22.3-3.4-25.3-14.3s3.4-22.3 14.3-25.3 22.3 3.4 25.3 14.3c3.1 10.9-3.4 22.3-14.3 25.3z" class="st5"/><path d="M411 851.9c1.4 4.9-1.5 10-6.4 11.4-4.9 1.4-10-1.5-11.4-6.4-1.4-4.9 1.5-10 6.4-11.4 5-1.4 10.1 1.5 11.4 6.4zM477.6 801l-1.8-6.7-5.3 1.5c-1.1-2.1-2.5-3.9-4.2-5.4l2.7-4.8-6-3.4-2.7 4.8c-2.2-.7-4.5-1-6.8-.8l-1.5-5.3-6.7 1.8 1.5 5.3c-2.1 1.1-3.9 2.5-5.4 4.2l-4.8-2.7-3.4 6 4.8 2.7c-.7 2.2-1 4.5-.8 6.8l-5.3 1.5 1.8 6.7 5.3-1.5c1.1 2.1 2.5 3.9 4.2 5.4l-2.7 4.8 6 3.4 2.7-4.8c2.2.7 4.5 1 6.8.8l1.5 5.3 6.7-1.8-1.5-5.3c2.1-1.1 3.9-2.5 5.4-4.2l4.8 2.7 3.4-6-4.8-2.7c.7-2.2 1-4.5.8-6.8l5.3-1.5zm-20.4 12.3c-5.2 1.4-10.6-1.6-12.1-6.8-1.4-5.2 1.6-10.6 6.8-12.1 5.2-1.4 10.6 1.6 12.1 6.8 1.5 5.2-1.6 10.6-6.8 12.1zM501.8 842l-1.8-6.7-5.3 1.5c-1.1-2.1-2.5-3.9-4.2-5.4l2.7-4.8-6-3.4-2.7 4.8c-2.2-.7-4.5-1-6.8-.8l-1.5-5.3-6.7 1.8 1.5 5.3c-2.1 1.1-3.9 2.5-5.4 4.2l-4.8-2.7-3.4 6 4.8 2.7c-.7 2.2-1 4.5-.8 6.8l-5.3 1.5 1.8 6.7 5.3-1.5c1.1 2.1 2.5 3.9 4.2 5.4l-2.7 4.8 6 3.4 2.7-4.8c2.2.7 4.5 1 6.8.8l1.5 5.3 6.7-1.8-1.5-5.3c2.1-1.1 3.9-2.5 5.4-4.2l4.8 2.7 3.4-6-4.8-2.7c.7-2.2 1-4.5.8-6.8l5.3-1.5zm-20.3 12.2c-5.2 1.4-10.6-1.6-12.1-6.8-1.4-5.2 1.6-10.6 6.8-12.1 5.2-1.4 10.6 1.6 12.1 6.8 1.5 5.2-1.6 10.6-6.8 12.1zM600.4 948.3c0 3.6-2.9 6.4-6.4 6.4H270.8c-3.6 0-6.4-2.9-6.4-6.4 0-3.6 2.9-6.4 6.4-6.4h323.1c3.6-.1 6.5 2.8 6.5 6.4z" class="st5"/><path d="M600 953.4c0 3.6-2.9 6.4-6.4 6.4H270.4c-3.6 0-6.4-2.9-6.4-6.4 0-3.6 2.9-6.4 6.4-6.4h323.1c3.6 0 6.5 2.8 6.5 6.4z" style="fill:#ccc"/><defs><path id="SVGID_25_" d="M600.4 948.3c0 3.6-2.9 6.4-6.4 6.4H270.8c-3.6 0-6.4-2.9-6.4-6.4 0-3.6 2.9-6.4 6.4-6.4h323.1c3.6-.1 6.5 2.8 6.5 6.4z"/></defs><clipPath id="SVGID_26_"><use xlink:href="#SVGID_25_" style="overflow:visible"/></clipPath><linearGradient id="SVGID_27_" x1="258.0934" x2="618.6703" y1="943.3121" y2="943.3121" gradientUnits="userSpaceOnUse"><stop offset=".1047" style="stop-color:#fc6f3d"/><stop offset=".9543" style="stop-color:#f7426e"/></linearGradient><path d="M272.3 970.4h-14.2l24.1-54.1h14.2l-24.1 54.1zm50.9-54.2H309l-24 54.2h14.2l24-54.2zm26.9 0h-14.2l-24.1 54.1H326l24.1-54.1zm26.9 0h-14.2l-24.1 54.1h14.2l24.1-54.1zm26.8 0h-14.2l-24.1 54.1h14.2l24.1-54.1zm26.9 0h-14.2l-24.1 54.1h14.2l24.1-54.1zm26.8 0h-14.2l-24.1 54.1h14.2l24.1-54.1zm26.9 0h-14.2l-24.1 54.1h14.2l24.1-54.1zm26.8 0H497l-24 54.2h14.2l24-54.2zm26.9 0h-14.2l-24.1 54.1H514l24.1-54.1zm26.9 0h-14.2l-24.1 54.1h14.2l24.1-54.1zm26.8 0h-14.2l-24.1 54.1h14.2l24.1-54.1zm26.9 0h-14.2l-24.1 54.1h14.2l24.1-54.1z" style="clip-path:url(#SVGID_26_);fill:url(#SVGID_27_)"/><path d="M1914.3 574.6c0-7.1-5.8-12.9-12.9-12.9h-299.1c-7.1 0-12.9 5.8-12.9 12.9v54.8h324.9v-54.8zM1589.4 629.4v342.9c0 7.1 5.8 12.9 12.9 12.9h299.1c7.1 0 12.9-5.8 12.9-12.9V629.4h-324.9z" class="st2"/><linearGradient id="SVGID_28_" x1="1606.0885" x2="1930.9406" y1="564.4257" y2="564.4257" gradientUnits="userSpaceOnUse"><stop offset="0" style="stop-color:#4a7ab7"/><stop offset="1" style="stop-color:#9ecbe1"/></linearGradient><path d="M1930.9 543.5c0-7.1-5.8-12.9-12.9-12.9h-299c-7.1 0-12.9 5.8-12.9 12.9v54.8H1931v-54.8z" style="fill:url(#SVGID_28_)"/><path d="M1606.1 598.3v342.9c0 7.1 5.8 12.9 12.9 12.9h299c7.1 0 12.9-5.8 12.9-12.9V598.3h-324.8z" class="st4"/><path d="M1820.5 655c0 3.2-2.6 5.8-5.8 5.8h-83.1c-3.2 0-5.8-2.6-5.8-5.8 0-3.2 2.6-5.8 5.8-5.8h83.1c3.2 0 5.8 2.6 5.8 5.8zM1869.7 655.4c0 3.2-2.6 5.8-5.8 5.8h-29.2c-3.2 0-5.8-2.6-5.8-5.8 0-3.2 2.6-5.8 5.8-5.8h29.2c3.3 0 5.8 2.6 5.8 5.8zM1778.9 676.4c0 3.2-2.6 5.8-5.8 5.8h-29.3c-3.2 0-5.8-2.6-5.8-5.8 0-3.2 2.6-5.8 5.8-5.8h29.3c3.2 0 5.8 2.6 5.8 5.8zM1879.5 698.5c0 3.2-2.6 5.8-5.8 5.8h-29.3c-3.2 0-5.8-2.6-5.8-5.8 0-3.2 2.6-5.8 5.8-5.8h29.3c3.2 0 5.8 2.6 5.8 5.8z" class="st5"/><path d="M1885.1 676.9c0 3.2-2.6 5.8-5.8 5.8h-83.1c-3.2 0-5.8-2.6-5.8-5.8 0-3.2 2.6-5.8 5.8-5.8h83.1c3.3 0 5.8 2.6 5.8 5.8z" class="st27"/><path d="M1835.4 740c0 3.2-2.6 5.8-5.8 5.8H1785c-3.2 0-5.8-2.6-5.8-5.8 0-3.2 2.6-5.8 5.8-5.8h44.6c3.2.1 5.8 2.6 5.8 5.8z" class="st28"/><path d="M1828.6 697.7c0 3.2-2.6 5.8-5.8 5.8h-83.1c-3.2 0-5.8-2.6-5.8-5.8 0-3.2 2.6-5.8 5.8-5.8h83.1c3.2 0 5.8 2.6 5.8 5.8z" class="st7"/><path d="M1818.3 892.9c0 3.2-2.6 5.8-5.8 5.8h-83.1c-3.2 0-5.8-2.6-5.8-5.8 0-3.2 2.6-5.8 5.8-5.8h83.1c3.3 0 5.8 2.6 5.8 5.8z" class="st5"/><path d="M1873.7 717.2c0 3.2-2.6 5.8-5.8 5.8h-83.1c-3.2 0-5.8-2.6-5.8-5.8 0-3.2 2.6-5.8 5.8-5.8h83.1c3.2 0 5.8 2.6 5.8 5.8zM1843.3 782.6c0 3.2-2.6 5.8-5.8 5.8h-52.3c-3.2 0-5.8-2.6-5.8-5.8 0-3.2 2.6-5.8 5.8-5.8h52.3c3.2.1 5.8 2.6 5.8 5.8z" class="st7"/><path d="M1874.5 760.7c0 3.2-2.6 5.8-5.8 5.8h-83.1c-3.2 0-5.8-2.6-5.8-5.8 0-3.2 2.6-5.8 5.8-5.8h83.1c3.2 0 5.8 2.6 5.8 5.8z" class="st28"/><path d="M1712.2 650.2c0 3.2-2.6 5.8-5.8 5.8h-29.3c-3.2 0-5.8-2.6-5.8-5.8 0-3.2 2.6-5.8 5.8-5.8h29.3c3.2 0 5.8 2.6 5.8 5.8z" class="st5"/><path d="M1667 650.7c0 3.4-2.8 6.2-6.2 6.2-3.4 0-6.2-2.8-6.2-6.2 0-3.4 2.8-6.2 6.2-6.2 3.4 0 6.2 2.8 6.2 6.2z" class="st7"/><path d="M1712.2 672.1c0 3.2-2.6 5.8-5.8 5.8h-29.3c-3.2 0-5.8-2.6-5.8-5.8 0-3.2 2.6-5.8 5.8-5.8h29.3c3.2 0 5.8 2.6 5.8 5.8z" class="st5"/><path d="M1667 672.5c0 3.4-2.8 6.2-6.2 6.2-3.4 0-6.2-2.8-6.2-6.2 0-3.4 2.8-6.2 6.2-6.2 3.4.1 6.2 2.8 6.2 6.2z" class="st7"/><path d="M1712.2 693.9c0 3.2-2.6 5.8-5.8 5.8h-29.3c-3.2 0-5.8-2.6-5.8-5.8 0-3.2 2.6-5.8 5.8-5.8h29.3c3.2.1 5.8 2.7 5.8 5.8z" class="st5"/><path d="M1667 694.4c0 3.4-2.8 6.2-6.2 6.2-3.4 0-6.2-2.8-6.2-6.2 0-3.4 2.8-6.2 6.2-6.2 3.4 0 6.2 2.8 6.2 6.2z" class="st7"/><path d="M1766.1 715.8c0 3.2-2.6 5.8-5.8 5.8H1731c-3.2 0-5.8-2.6-5.8-5.8 0-3.2 2.6-5.8 5.8-5.8h29.3c3.2 0 5.8 2.6 5.8 5.8z" class="st5"/><path d="M1720.9 716.3c0 3.4-2.8 6.2-6.2 6.2s-6.2-2.8-6.2-6.2c0-3.4 2.8-6.2 6.2-6.2s6.2 2.7 6.2 6.2z" class="st7"/><path d="M1766.1 737.7c0 3.2-2.6 5.8-5.8 5.8H1731c-3.2 0-5.8-2.6-5.8-5.8 0-3.2 2.6-5.8 5.8-5.8h29.3c3.2 0 5.8 2.6 5.8 5.8z" class="st5"/><path d="M1720.9 738.1c0 3.4-2.8 6.2-6.2 6.2s-6.2-2.8-6.2-6.2c0-3.4 2.8-6.2 6.2-6.2s6.2 2.8 6.2 6.2z" class="st7"/><path d="M1898.5 740c0 3.2-2.6 5.8-5.8 5.8h-29.2c-3.2 0-5.8-2.6-5.8-5.8 0-3.2 2.6-5.8 5.8-5.8h29.2c3.2 0 5.8 2.6 5.8 5.8zM1853.3 740.4c0 3.4-2.8 6.2-6.2 6.2-3.4 0-6.2-2.8-6.2-6.2 0-3.4 2.8-6.2 6.2-6.2 3.4.1 6.2 2.8 6.2 6.2z" class="st5"/><path d="M1779.2 827c0 3.2-2.6 5.8-5.8 5.8h-44.6c-3.2 0-5.8-2.6-5.8-5.8 0-3.2 2.6-5.8 5.8-5.8h44.6c3.2.1 5.8 2.6 5.8 5.8z" class="st28"/><path d="M1817.5 804.2c0 3.2-2.6 5.8-5.8 5.8h-83.1c-3.2 0-5.8-2.6-5.8-5.8 0-3.2 2.6-5.8 5.8-5.8h83.1c3.2 0 5.8 2.6 5.8 5.8z" class="st27"/><path d="M1787.1 869.6c0 3.2-2.6 5.8-5.8 5.8H1729c-3.2 0-5.8-2.6-5.8-5.8 0-3.2 2.6-5.8 5.8-5.8h52.3c3.2.1 5.8 2.6 5.8 5.8z" class="st7"/><path d="M1818.3 847.7c0 3.2-2.6 5.8-5.8 5.8h-83.1c-3.2 0-5.8-2.6-5.8-5.8 0-3.2 2.6-5.8 5.8-5.8h83.1c3.2 0 5.8 2.6 5.8 5.8z" class="st27"/><path d="M1842.3 827c0 3.2-2.6 5.8-5.8 5.8h-29.3c-3.2 0-5.8-2.6-5.8-5.8 0-3.2 2.6-5.8 5.8-5.8h29.3c3.2 0 5.8 2.6 5.8 5.8zM1797.1 827.4c0 3.4-2.8 6.2-6.2 6.2-3.4 0-6.2-2.8-6.2-6.2 0-3.4 2.8-6.2 6.2-6.2 3.4.1 6.2 2.8 6.2 6.2z" class="st5"/><path d="M1881.9 846.2c0 3.2-2.6 5.8-5.8 5.8h-29.2c-3.2 0-5.8-2.6-5.8-5.8 0-3.2 2.6-5.8 5.8-5.8h29.2c3.2 0 5.8 2.6 5.8 5.8zM1836.7 846.7c0 3.4-2.8 6.2-6.2 6.2-3.4 0-6.2-2.8-6.2-6.2 0-3.4 2.8-6.2 6.2-6.2 3.5 0 6.2 2.8 6.2 6.2z" class="st7"/><path d="M1766.1 759.5c0 3.2-2.6 5.8-5.8 5.8H1731c-3.2 0-5.8-2.6-5.8-5.8 0-3.2 2.6-5.8 5.8-5.8h29.3c3.2.1 5.8 2.7 5.8 5.8z" class="st5"/><path d="M1720.9 760c0 3.4-2.8 6.2-6.2 6.2s-6.2-2.8-6.2-6.2c0-3.4 2.8-6.2 6.2-6.2s6.2 2.8 6.2 6.2z" class="st7"/><path d="M1766.1 781.4c0 3.2-2.6 5.8-5.8 5.8H1731c-3.2 0-5.8-2.6-5.8-5.8 0-3.2 2.6-5.8 5.8-5.8h29.3c3.2 0 5.8 2.6 5.8 5.8z" class="st5"/><path d="M1720.9 781.8c0 3.4-2.8 6.2-6.2 6.2s-6.2-2.8-6.2-6.2c0-3.4 2.8-6.2 6.2-6.2s6.2 2.8 6.2 6.2z" class="st7"/><path d="M1712.2 803.3c0 3.2-2.6 5.8-5.8 5.8h-29.3c-3.2 0-5.8-2.6-5.8-5.8 0-3.2 2.6-5.8 5.8-5.8h29.3c3.2 0 5.8 2.6 5.8 5.8z" class="st5"/><circle cx="1660.8" cy="803.7" r="6.2" class="st7"/><path d="M1712.2 825.1c0 3.2-2.6 5.8-5.8 5.8h-29.3c-3.2 0-5.8-2.6-5.8-5.8 0-3.2 2.6-5.8 5.8-5.8h29.3c3.2.1 5.8 2.6 5.8 5.8z" class="st5"/><path d="M1667 825.6c0 3.4-2.8 6.2-6.2 6.2-3.4 0-6.2-2.8-6.2-6.2 0-3.4 2.8-6.2 6.2-6.2 3.4 0 6.2 2.8 6.2 6.2z" class="st7"/><path d="M1712.2 847c0 3.2-2.6 5.8-5.8 5.8h-29.3c-3.2 0-5.8-2.6-5.8-5.8 0-3.2 2.6-5.8 5.8-5.8h29.3c3.2 0 5.8 2.6 5.8 5.8z" class="st5"/><path d="M1667 847.4c0 3.4-2.8 6.2-6.2 6.2-3.4 0-6.2-2.8-6.2-6.2s2.8-6.2 6.2-6.2c3.4.1 6.2 2.8 6.2 6.2z" class="st7"/><path d="M1712.2 868.9c0 3.2-2.6 5.8-5.8 5.8h-29.3c-3.2 0-5.8-2.6-5.8-5.8 0-3.2 2.6-5.8 5.8-5.8h29.3c3.2 0 5.8 2.6 5.8 5.8z" class="st5"/><path d="M1667 869.3c0 3.4-2.8 6.2-6.2 6.2-3.4 0-6.2-2.8-6.2-6.2 0-3.4 2.8-6.2 6.2-6.2 3.4 0 6.2 2.8 6.2 6.2z" class="st7"/><path d="M1908.3 560.4c0 6.2-5.1 11.3-11.3 11.3-6.2 0-11.3-5.1-11.3-11.3 0-6.2 5.1-11.3 11.3-11.3 6.3.1 11.3 5.1 11.3 11.3z" class="st5"/><linearGradient id="SVGID_29_" x1="1581.3961" x2="1672.1561" y1="938.4535" y2="938.4535" gradientUnits="userSpaceOnUse"><stop offset="0" style="stop-color:#4a7ab7"/><stop offset="1" style="stop-color:#9ecbe1"/></linearGradient><path d="M1583.4 1015.1s-5.5-92.2 1.5-106.7c6.9-14.6 17.1-23.6 27.1-12.7 10 10.9 14.1 12.6 14.3-.5.2-13.1 17.1-41.7 35.7-31 18.6 10.7 4.9 29-.6 36.8-5.5 7.8-13.7 18.4-5.6 16.5 8.1-1.9 17.3-4.7 16.3 3.5s-20.4 13-30.1 21.1c-9.7 8.2-10.4 14.9-1.5 13.5 9-1.4 23 8.6 13.7 15.9-9.2 7.3-58.2 39.6-58.2 39.6l-12.6 4z" style="fill:url(#SVGID_29_)"/><path d="M1589.7 1008c.4-1.7 1-3.7 1.7-6.1.6-2.4 1.6-4.9 2.5-7.8.9-2.9 2.1-5.9 3.4-9.1 1.2-3.2 2.6-6.5 4.1-10 .1-.3.3-.7.4-1-.4-1.2-.9-3-1.5-5.1-.6-2.1-1.1-4.5-1.7-7.1-.3-1.3-.6-2.6-.8-4-.3-1.4-.5-2.8-.8-4.2-.2-1.4-.5-2.8-.7-4.2-.2-1.4-.4-2.7-.6-4.1-.4-2.6-.7-5.1-.9-7.2-.4-4.2-.5-7.1-.5-7.1s1 2.7 2 6.9c.6 2.1 1.1 4.5 1.7 7.1.3 1.3.6 2.6.8 4 .3 1.4.5 2.8.8 4.2.2 1.4.5 2.8.7 4.2.2 1.4.4 2.7.6 4.1.4 2.6.7 5.1.9 7.2.2 1.7.3 3.2.4 4.4 1.2-2.8 2.5-5.7 3.7-8.5 1.6-3.6 3.3-7.2 5-10.8 3.5-7.2 6.9-14.3 10.4-21 3.4-6.6 6.7-12.8 9.6-18 2.9-5.2 5.4-9.5 7.1-12.6 1.7-3 2.8-4.7 2.8-4.7s-.8 1.8-2.3 5c-1.5 3.1-3.6 7.6-6.2 13-3.8 7.9-8.5 17.8-13.5 28.2l.3-.3c1.1-1.1 2.4-2.4 3.8-3.7 1.4-1.3 3-2.7 4.6-4 1.6-1.3 3.3-2.6 4.8-3.7 1.6-1.2 3.1-2.2 4.4-3 2.6-1.7 4.5-2.7 4.5-2.7s-1.3 1.7-3.5 3.9c-1.1 1.1-2.4 2.4-3.9 3.7-1.4 1.3-3 2.7-4.6 4-1.6 1.3-3.3 2.6-4.8 3.7-1.6 1.2-3.1 2.2-4.4 3-.9.6-1.8 1.1-2.4 1.5-1.4 2.9-2.8 5.8-4.2 8.8-1.7 3.6-3.4 7.2-5 10.7-1.6 3.6-3.2 7-4.8 10.4-1.5 3.4-3.1 6.7-4.4 9.8-1.3 3.1-2.7 6.1-3.8 8.8-.6 1.4-1.1 2.7-1.6 4-.5 1.2-1 2.4-1.4 3.6-.8 2.3-1.6 4.2-2.1 5.9-1 3.3-1.6 5.2-1.6 5.2s.3-1.8 1-5.3z" class="st25"/><path d="M1624.7 976.5s-1.6 1.3-4.1 2.8c-1.3.8-2.7 1.7-4.4 2.5-1.6.9-3.4 1.8-5.1 2.6-1.8.8-3.6 1.6-5.3 2.3-1.7.7-3.3 1.3-4.7 1.8-2.8 1-4.8 1.4-4.8 1.4s1.6-1.3 4.1-2.8c1.3-.8 2.7-1.7 4.4-2.5 1.6-.9 3.4-1.8 5.1-2.6 1.8-.8 3.6-1.6 5.3-2.3 1.7-.7 3.3-1.3 4.7-1.8 2.9-1 4.8-1.4 4.8-1.4z" class="st25"/><linearGradient id="SVGID_30_" x1="1471.6517" x2="1618.1876" y1="878.3453" y2="878.3453" gradientUnits="userSpaceOnUse"><stop offset="0" style="stop-color:#4a7ab7"/><stop offset="1" style="stop-color:#9ecbe1"/></linearGradient><path d="M1580.5 1015.8s42.9-147.3 37.1-173.5c-5.8-26.2-18.9-44.5-39.1-30.5-20.2 14-27.6 15.3-23-6.1 4.6-21.3-12.3-73.8-46.4-63.3-34.1 10.5-18.6 45.2-12.6 59.8 6 14.6 15.4 34.8 3 28.8-12.4-6-26.3-14-27.7-.3-1.4 13.7 28.3 28.6 41 45.4 12.7 16.8 11.4 28-2.6 22.4-14-5.6-40.4 5.4-28.1 20.6 12.3 15.2 79.7 85.7 79.7 85.7l18.7 11z" style="fill:url(#SVGID_30_)"/><path d="M1562.4 945.3c-1.3-6-2.6-12.3-3.9-18.7-1.4-6.3-2.8-12.8-4.2-19.2-1.2-5.3-2.4-10.5-3.5-15.7-1-.9-2.1-2-3.4-3.4-1.8-1.9-3.9-4.1-6-6.5-2.1-2.4-4.3-5.1-6.4-7.8-2.1-2.7-4.2-5.5-6-8.2-1.9-2.6-3.5-5.2-4.9-7.4-2.7-4.4-4.3-7.6-4.3-7.6s2.7 2.2 6.3 6c1.8 1.9 3.9 4.1 6 6.5 2.1 2.4 4.3 5.1 6.5 7.8 2.1 2.7 4.2 5.5 6 8.1 1.9 2.6 3.5 5.2 4.9 7.4l.3.6c-4.2-18.7-8.2-36.4-11.4-50.7-2.1-9.7-3.9-17.8-5.2-23.4-1.2-5.7-1.9-8.9-1.9-8.9s1.1 3.1 2.8 8.7c1.7 5.6 4.2 13.4 6.8 23 2.7 9.5 5.8 20.7 8.8 32.7 3.1 12 6.1 24.9 9.1 37.8 1.4 6.5 2.7 13 4.1 19.3 1 5.2 2 10.2 2.9 15.2.5-1.9 1.3-4.2 2.2-6.9 1.1-3.4 2.5-7.3 4.1-11.4.8-2.1 1.6-4.2 2.5-6.4.9-2.2 1.8-4.3 2.7-6.5.9-2.2 1.9-4.3 2.8-6.5.9-2.1 1.9-4.2 2.8-6.2 1.9-4 3.7-7.7 5.4-10.8 3.3-6.3 5.8-10.4 5.8-10.4s-1.1 4.6-3.4 11.4c-1.1 3.4-2.5 7.3-4.1 11.4-.8 2-1.6 4.2-2.5 6.3-.9 2.1-1.8 4.3-2.7 6.5-.9 2.2-1.9 4.3-2.8 6.4-.9 2.1-1.9 4.2-2.8 6.2-1.9 4-3.7 7.7-5.4 10.9-1.7 3.3-3.2 5.9-4.3 7.8.1.6.2 1.2.3 1.7 1 6.1 2.1 12 2.9 17.7.8 5.6 1.6 11 2.1 15.9.5 5 1.1 9.5 1.2 13.5.2 4 .5 7.5.4 10.5-.1 5.8-.3 9.1-.3 9.1s-.3-3.3-.6-9.1c-.2-2.9-.8-6.3-1.2-10.3-.2-2-.5-4.1-1-6.3-.4-2.2-.8-4.6-1.2-7-.4-2.9-1-5.9-1.6-9-1.3-.7-3.2-1.7-5.4-3.1-2.1-1.3-4.5-2.9-7-4.6-2.5-1.8-5.1-3.7-7.7-5.7-2.6-2-5.1-4.1-7.4-6.2-2.3-2-4.4-4-6.1-5.7-3.5-3.5-5.6-6.1-5.6-6.1s3 1.4 7.2 4c2.1 1.3 4.5 2.9 7 4.6 2.5 1.8 5.1 3.7 7.7 5.7 2.6 2 5.1 4.1 7.4 6.2 2.3 2 4.4 4 6.1 5.7 1.4 1.4 2.6 2.7 3.5 3.7-.3-1.7-.7-3.4-1-5.2-.9-5.5-2.2-11.3-3.4-17.4z" style="fill:#d0d8e2"/><path d="M1556.3 997.5h73.3l-9.1 79.6H1551l-9.1-79.6z" class="st1"/><path d="M1536 995.7h101.2v16.2H1536z" class="st34"/><linearGradient id="SVGID_31_" x1="82.4101" x2="234.5308" y1="662.7019" y2="662.7019" gradientUnits="userSpaceOnUse"><stop offset=".1047" style="stop-color:#0a0245"/><stop offset=".9543" style="stop-color:#300030"/></linearGradient><circle cx="158.5" cy="662.7" r="76.1" style="fill:url(#SVGID_31_)"/><linearGradient id="SVGID_32_" x1="115.2281" x2="201.7128" y1="662.7017" y2="662.7017" gradientUnits="userSpaceOnUse"><stop offset=".1047" style="stop-color:#fc6f3d"/><stop offset=".9543" style="stop-color:#f7426e"/></linearGradient><path d="M201.7 662.7c0-23.8-19.4-43.2-43.2-43.2s-43.2 19.4-43.2 43.2c0 11.9 4.9 23.3 13.6 31.5v.1l1.2 1 5 4.4v-.6c6.9 4.5 15 6.9 23.4 6.9 8.3 0 16.4-2.4 23.4-6.9v.6l5-4.4 1.2-1v-.1c8.7-8.2 13.6-19.6 13.6-31.5zm-79.9 0c0-20.2 16.5-36.7 36.7-36.7 20.2 0 36.7 16.5 36.7 36.7 0 8.5-3 16.7-8.3 23.3v-.1c-.1-.5-.3-1-.5-1.5 0-.1-.1-.3-.1-.4-.1-.4-.3-.7-.4-1.1-.1-.2-.1-.3-.2-.5-.1-.3-.3-.6-.4-1-.1-.2-.1-.3-.2-.5-.2-.4-.4-.7-.6-1.1 0-.1-.1-.2-.1-.3-.3-.4-.5-.9-.8-1.3-.1-.1-.2-.2-.2-.4l-.6-.9c-.1-.1-.2-.3-.3-.4-.2-.3-.4-.6-.7-.8-.1-.1-.2-.3-.3-.4-.3-.4-.6-.7-.9-1l-.1-.1c-.3-.4-.7-.7-1.1-1.1l-.3-.3c-.3-.3-.5-.5-.8-.7-.1-.1-.3-.2-.4-.3-.3-.2-.6-.5-.8-.7-.1-.1-.2-.2-.4-.3l-1.2-.9c-.4-.3-.8-.5-1.2-.8-.1-.1-.3-.2-.4-.2-.3-.2-.6-.4-.9-.5-.2-.1-.3-.2-.5-.2-.3-.2-.7-.3-1-.5-.1-.1-.3-.1-.4-.2-.5-.2-.9-.4-1.4-.6 0 0 .1-.1.1-.2.2-.2.3-.4.5-.6.1-.1.2-.3.4-.4.2-.2.3-.4.5-.6.1-.2.2-.3.3-.5.1-.2.3-.5.4-.7.1-.2.2-.3.3-.5.1-.2.2-.5.3-.7.1-.2.2-.3.2-.5.1-.3.2-.5.3-.8.1-.2.1-.3.2-.5.1-.3.1-.6.2-.8 0-.2.1-.3.1-.5.1-.3.1-.6.1-.9 0-.2.1-.3.1-.5 0-.5.1-.9.1-1.4 0-8.2-6.7-14.9-14.9-14.9s-14.9 6.7-14.9 14.9c0 .5 0 1 .1 1.4 0 .2 0 .3.1.5 0 .3.1.6.1.9 0 .2.1.4.1.5.1.3.1.5.2.8.1.2.1.4.2.6.1.3.2.5.3.7.1.2.2.4.2.5.1.2.2.5.3.7.1.2.2.3.3.5.1.2.2.4.4.7.1.2.2.3.3.5.1.2.3.4.4.6.1.2.3.3.4.5.2.2.3.4.5.6 0 .1.1.1.1.2-.5.2-1 .4-1.4.6-.1.1-.3.1-.4.2-.3.2-.7.3-1 .5-.2.1-.3.2-.5.2-.3.2-.6.3-.9.5-.1.1-.3.2-.4.2-.4.3-.9.5-1.3.8l-1.2.9-.3.3c-.3.2-.6.5-.9.7-.1.1-.2.2-.4.3-.3.2-.6.5-.8.8l-.3.3-1.1 1.1v.1c-.3.4-.6.7-1 1.1-.1.1-.2.2-.3.4-.2.3-.5.6-.7.9-.1.1-.2.3-.3.4l-.6.9c-.1.1-.2.2-.2.3-.3.4-.5.9-.8 1.3 0 .1-.1.2-.1.2-.2.4-.4.7-.6 1.1-.1.2-.2.3-.2.5-.2.3-.3.6-.4 1-.1.2-.1.3-.2.5-.1.3-.3.7-.4 1.1-.1.1-.1.3-.2.4-.2.5-.3 1-.5 1.5v.1c-5.8-6.8-8.8-15-8.8-23.5zm44.9-5.3v.2c0 .2 0 .3-.1.5 0 .1 0 .2-.1.3 0 .2-.1.3-.1.5 0 .1-.1.2-.1.3 0 .1-.1.3-.1.4 0 .1-.1.2-.1.3-.1.1-.1.3-.2.4 0 .1-.1.2-.1.3-.1.1-.1.3-.2.4 0 .1-.1.2-.2.2-.1.1-.2.2-.2.4-.1.1-.1.2-.2.2l-.3.3-.2.2-.3.3c-.1.1-.2.1-.2.2l-.3.3c-.1.1-.2.1-.3.2-.1.1-.2.2-.3.2-.1.1-.2.1-.3.2-.1.1-.2.1-.3.2-.1.1-.2.1-.3.2-.1.1-.2.1-.4.2-.1 0-.2.1-.3.1-.1 0-.2.1-.4.1-.1 0-.2.1-.3.1-.1 0-.3.1-.4.1-.1 0-.2 0-.4.1h-2.7c-.1 0-.2 0-.3-.1-.1 0-.2 0-.4-.1-.1 0-.3-.1-.4-.1-.1 0-.2-.1-.3-.1-.1 0-.3-.1-.4-.1-.1 0-.2-.1-.3-.1-.1-.1-.2-.1-.4-.2-.1 0-.2-.1-.3-.2-.1-.1-.2-.1-.4-.2-.1-.1-.2-.1-.3-.2-.1-.1-.2-.2-.3-.2-.1-.1-.2-.1-.3-.2l-.3-.3c-.1-.1-.2-.1-.2-.2l-.3-.3-.2-.2-.3-.3c-.1-.1-.1-.2-.2-.3-.1-.1-.2-.2-.2-.3-.1-.1-.1-.2-.2-.3-.1-.1-.1-.2-.2-.4-.1-.1-.1-.2-.1-.3-.1-.1-.1-.3-.2-.4 0-.1-.1-.2-.1-.3-.1-.1-.1-.3-.1-.4 0-.1-.1-.2-.1-.3 0-.1-.1-.3-.1-.4 0-.1 0-.2-.1-.3 0-.2-.1-.3-.1-.5v-1c0-4.6 3.7-8.3 8.3-8.3 4.6 0 8.3 3.7 8.3 8.3 0 .4 0 .6-.1.9zm-31.1 34v-.3c0-.3.1-.6.2-1s.1-.7.2-1.1l.3-.9c.1-.4.2-.7.3-1l.3-.9c.1-.3.3-.7.4-1 .1-.3.3-.6.4-.9.2-.3.3-.6.5-1 .2-.3.3-.6.5-.8l.6-.9c.2-.3.4-.5.5-.8.2-.3.4-.6.7-.9.2-.2.4-.5.6-.7.2-.3.5-.5.7-.8.2-.2.4-.4.6-.7.3-.3.5-.5.8-.7.2-.2.5-.4.7-.6.3-.2.6-.5.9-.7.2-.2.5-.4.7-.5.3-.2.6-.4 1-.6.3-.2.5-.3.8-.5.3-.2.7-.4 1.1-.5.3-.1.5-.3.8-.4.4-.2.8-.3 1.2-.5.2-.1.5-.2.7-.3.6-.2 1.3-.4 2-.6.1 0 .2 0 .4-.1.6-.1 1.1-.2 1.7-.3.3 0 .5-.1.8-.1.4 0 .8-.1 1.3-.1h.1c.4 0 .8.1 1.3.1s.9 0 1.3-.1h.1c.4 0 .8.1 1.3.1.3 0 .5 0 .8.1.6.1 1.1.2 1.7.3.1 0 .3.1.4.1.7.2 1.3.3 1.9.6.2.1.5.2.7.3.4.2.8.3 1.2.5.3.1.5.3.8.4.3.2.7.3 1 .5.3.1.5.3.8.5l.9.6c.3.2.5.4.8.5.3.2.6.4.9.7.2.2.5.4.7.6.3.2.5.5.8.7l.7.7c.2.3.5.5.7.8.2.2.4.5.6.7.2.3.4.5.6.8.2.3.4.5.6.8l.6.9c.2.3.3.6.5.8.2.3.3.6.5.9.1.3.3.6.4.9.1.3.3.7.4 1l.3.9c.1.3.2.7.3 1 .1.3.2.6.3 1 .1.4.2.7.2 1.1.1.3.1.6.2 1v.3c-6.5 5.2-14.5 8-22.8 8-8.7.1-16.8-2.7-23.3-7.9z" style="fill:url(#SVGID_32_)"/><linearGradient id="SVGID_33_" x1="655.7753" x2="758.9106" y1="843.1221" y2="843.1221" gradientUnits="userSpaceOnUse"><stop offset="0" style="stop-color:#4a7ab7"/><stop offset="1" style="stop-color:#9ecbe1"/></linearGradient><path d="M758.9 843.1c0 28.5-23.1 51.6-51.6 51.6s-51.6-23.1-51.6-51.6 23.1-51.6 51.6-51.6c28.5.1 51.6 23.1 51.6 51.6z" style="fill:url(#SVGID_33_)"/><text class="st5" style="font-size:43.8402px;font-family:&quot;ArialRoundedMTBold&quot;" transform="matrix(1.0919 0 0 1 674.2915 857.9561)">JS</text><path d="M1730.8 554.8c0 8.2-6.6 14.8-14.8 14.8h-259.8c-8.2 0-14.8-6.6-14.8-14.8V292c0-8.2 6.6-14.8 14.8-14.8H1716c8.2 0 14.8 6.6 14.8 14.8v262.8z" class="st2"/><path d="M1714.7 538.1c0 8.2-6.6 14.8-14.8 14.8h-259.8c-8.2 0-14.8-6.6-14.8-14.8V275.4c0-8.2 6.6-14.8 14.8-14.8h259.8c8.2 0 14.8 6.6 14.8 14.8v262.7z" class="st5"/><linearGradient id="SVGID_34_" x1="1469.6848" x2="1670.4199" y1="406.7154" y2="406.7154" gradientUnits="userSpaceOnUse"><stop offset=".1047" style="stop-color:#fc6f3d"/><stop offset=".9543" style="stop-color:#f7426e"/></linearGradient><path d="M1570.1 507.1c-55.3 0-100.4-45-100.4-100.4 0-55.3 45-100.4 100.4-100.4 55.3 0 100.4 45 100.4 100.4-.1 55.4-45.1 100.4-100.4 100.4zm0-177c-42.2 0-76.6 34.4-76.6 76.6 0 42.2 34.4 76.6 76.6 76.6 42.2 0 76.6-34.4 76.6-76.6-.1-42.2-34.4-76.6-76.6-76.6z" style="fill:url(#SVGID_34_)"/><linearGradient id="SVGID_35_" x1="1504.9036" x2="1639.9374" y1="406.5071" y2="406.5071" gradientUnits="userSpaceOnUse"><stop offset=".1047" style="stop-color:#fc6f3d"/><stop offset=".9543" style="stop-color:#f7426e"/></linearGradient><path d="m1639.9 340.3-135 132.4" style="fill:url(#SVGID_35_)"/><linearGradient id="SVGID_36_" x1="1496.4329" x2="1648.4081" y1="406.5081" y2="406.5081" gradientUnits="userSpaceOnUse"><stop offset=".1047" style="stop-color:#fc6f3d"/><stop offset=".9543" style="stop-color:#f7426e"/></linearGradient><path d="m1513.4 481.1-17-16.7 135.1-132.5 16.9 16.7z" style="fill:url(#SVGID_36_)"/></svg>