<svg xmlns="http://www.w3.org/2000/svg" width="1440" height="1024" fill="none"><path fill="#fff" d="M0 0h1440v1024H0z"/><g clip-path="url(#a)"><path fill="url(#b)" d="M1046.99 208.661H393.842c-23.907 0-43.289 19.381-43.289 43.289v413.528c0 23.908 19.382 43.289 43.289 43.289h653.148c23.91 0 43.29-19.381 43.29-43.289V251.95c0-23.908-19.38-43.289-43.29-43.289Z"/><path fill="#5CA4E6" d="M400.056 208.661h641.774c12.99 0 25.45 5.16 34.63 14.344 9.19 9.184 14.35 21.641 14.35 34.629H351.083c0-12.988 5.159-25.445 14.344-34.629 9.184-9.184 21.64-14.344 34.629-14.344Z"/><path stroke="#5661AE" stroke-dasharray="11.93 11.93" stroke-miterlimit="10" d="M740.489 288.718h302.131c5.18 0 10.16 2.059 13.82 5.724 3.67 3.666 5.73 8.637 5.73 13.821v149.348c0 5.183-2.06 10.155-5.73 13.82-3.66 3.665-8.64 5.724-13.82 5.724H740.489c-5.183 0-10.154-2.059-13.82-5.724-3.665-3.665-5.724-8.637-5.724-13.82V308.263c0-2.567.505-5.108 1.487-7.48.983-2.371 2.422-4.526 4.237-6.34 1.815-1.815 3.97-3.255 6.341-4.237 2.371-.982 4.913-1.488 7.479-1.488Z"/><path fill="#fff" d="M961.523 504.779H659.391c-10.794 0-19.544 8.75-19.544 19.545v149.348c0 10.794 8.75 19.544 19.544 19.544h302.132c10.794 0 19.545-8.75 19.545-19.544V524.324c0-10.795-8.751-19.545-19.545-19.545ZM603.238 504.779h-211.12c-9.131 0-16.533 7.402-16.533 16.534v155.37c0 9.131 7.402 16.533 16.533 16.533h211.12c9.131 0 16.533-7.402 16.533-16.533v-155.37c0-9.132-7.402-16.534-16.533-16.534Z"/><path stroke="#5661AE" stroke-linecap="round" stroke-miterlimit="10" stroke-width="10" d="M667.651 641.815s22.645-2.385 36.26 7.808c18.261 13.669 32.968 24.221 52.381-9.376 21.267-36.809 24.61-49.665 40.125-49.817 19.914-.194 27.688 52.886 64.407 56.637 36.718 3.751 61.685-2.251 61.685-2.251"/><path stroke="#5661AE" stroke-linecap="round" stroke-miterlimit="10" stroke-width="16" d="M667.651 535.878h52.764"/><path stroke="#D4DCF4" stroke-linecap="round" stroke-miterlimit="10" stroke-width="16" d="M667.651 560.503h109.042"/><path fill="#fff" d="M395.835 244.223c4.622 0 8.369-3.747 8.369-8.368 0-4.622-3.747-8.369-8.369-8.369-4.621 0-8.368 3.747-8.368 8.369 0 4.621 3.747 8.368 8.368 8.368ZM424.195 244.223c4.622 0 8.368-3.747 8.368-8.368 0-4.622-3.746-8.369-8.368-8.369s-8.368 3.747-8.368 8.369c0 4.621 3.746 8.368 8.368 8.368ZM451.746 244.223c4.622 0 8.368-3.747 8.368-8.368 0-4.622-3.746-8.369-8.368-8.369s-8.369 3.747-8.369 8.369c0 4.621 3.747 8.368 8.369 8.368Z"/><path fill="#1C85E8" d="M892.038 416.798c18.701 0 33.862-15.16 33.862-33.861 0-18.702-15.161-33.862-33.862-33.862s-33.862 15.16-33.862 33.862c0 18.701 15.161 33.861 33.862 33.861Z"/><path fill="#fff" d="M894.711 366.938c0-1.476-1.197-2.673-2.673-2.673s-2.673 1.197-2.673 2.673v34.145c0 1.476 1.197 2.673 2.673 2.673s2.673-1.197 2.673-2.673v-34.145Z"/><path fill="#fff" d="M909.111 386.683c1.476 0 2.672-1.197 2.672-2.673s-1.196-2.673-2.672-2.673h-34.145c-1.477 0-2.673 1.197-2.673 2.673s1.196 2.673 2.673 2.673h34.145Z"/><path fill="#F5F8FF" d="M716.103 903.7c293.877 0 532.107-6.086 532.107-13.594 0-7.508-238.23-13.594-532.107-13.594-293.872 0-532.103 6.086-532.103 13.594 0 7.508 238.231 13.594 532.103 13.594Z"/><path fill="#5CA4E6" d="M1182.77 623.123H810.457v263.013h372.313V623.123Z"/><path fill="url(#c)" d="M959.191 623.123H810.457v263.013h148.734V623.123Z"/><path fill="#5661AE" d="M275.171 787.281 259.892 885.4l-5.817-.906c-1.963-.306-3.724-1.379-4.896-2.983-1.172-1.604-1.659-3.608-1.353-5.571l12.974-83.316c.306-1.963 1.379-3.724 2.983-4.896 1.604-1.172 3.608-1.659 5.571-1.353l5.817.906Z"/><path fill="#BC775C" d="m322.924 803.794-23.89-7.148-7.595 33.284 26.137 8.206 5.348-34.342Z"/><path fill="#93523E" d="m306.485 834.654-4.417-1.386 10.851-32.467 4.034 1.207-10.468 32.646Z"/><path fill="#1C85E8" d="M302.063 797.118s-9.36 16.263-4.202 34.829l-32.156 52.569c-2.795 2.042-7.042.831-9.402-.425-.516-.278-.933-.71-1.192-1.236-.26-.525-.35-1.119-.257-1.698l13.87-89.065c.23-1.487 1.035-2.824 2.24-3.723 1.206-.9 2.716-1.29 4.207-1.088 5.964.809 15.041 2.116 18.611 3.033 5.518 1.416 8.428 3.423 8.281 6.804Z"/><path fill="#fff" d="m291.449 843.112-4.721-7.529c-.173-.275-.41-.504-.692-.665-.281-.162-.598-.252-.922-.263-.325-.01-.647.059-.938.203-.291.143-.543.356-.733.619-.232.323-.362.708-.373 1.106-.01.398.1.789.315 1.124l5.894 9.149 2.17-3.744ZM286.097 851.178l-4.675-7.512c-.173-.275-.41-.504-.691-.665-.282-.162-.599-.252-.923-.262-.325-.011-.647.059-.938.202-.291.143-.543.356-.732.619-.233.323-.363.708-.373 1.106-.011.398.099.79.314 1.124l5.77 9.064 2.248-3.676ZM280.55 860.246l-4.589-7.458c-.172-.275-.41-.503-.691-.665-.282-.162-.599-.252-.923-.262-.324-.011-.646.059-.938.202-.291.143-.542.356-.732.619-.233.323-.363.709-.373 1.106-.011.398.099.79.315 1.124l5.742 8.914 2.189-3.58Z"/><path fill="#5661AE" d="M537.81 872.758h99.301v5.887c0 .984-.194 1.958-.57 2.866-.376.909-.928 1.735-1.624 2.43-.695.696-1.521 1.248-2.43 1.624-.908.377-1.882.57-2.866.57H545.3c-1.986 0-3.891-.789-5.296-2.194-1.405-1.404-2.194-3.309-2.194-5.296v-5.887Z"/><path fill="#BC775C" d="m546.779 823.033-3.387 24.704 34.057 2.384 4.086-27.088h-34.756Z"/><path fill="#93523E" d="m581.182 825.373-.872 5.781-34.973 2.396 1.121-8.177h34.724Z"/><path fill="#1C85E8" d="M543.392 844.672s17.51 6.747 35.061-1.206l56.891 23.684c2.448 2.447 1.905 6.83 1.026 9.355-.195.553-.558 1.031-1.037 1.369-.48.337-1.052.517-1.639.514h-90.139c-1.504.001-2.948-.588-4.023-1.641-1.074-1.053-1.692-2.485-1.722-3.989-.118-6.018-.223-15.187.133-18.856.551-5.671 2.086-8.855 5.449-9.23Z"/><path fill="#fff" d="m590.472 848.083-6.714 5.824c-.245.212-.434.482-.55.785-.117.303-.157.63-.117.952.039.322.157.63.344.895.186.266.435.482.724.629.355.18.756.249 1.151.198.394-.05.764-.219 1.062-.484l8.133-7.23-4.033-1.569ZM599.265 852.13l-6.703 5.776c-.246.212-.435.482-.551.785-.117.303-.157.63-.117.952.039.322.158.63.344.895.186.266.435.482.725.629.354.18.755.249 1.15.198.394-.051.765-.219 1.062-.484l8.068-7.095-3.978-1.656ZM609.079 856.215l-6.664 5.683c-.245.212-.434.482-.55.785-.117.303-.157.63-.117.952.039.322.157.63.344.896.186.265.435.481.724.628.355.18.756.249 1.151.198.394-.05.764-.219 1.062-.484l7.924-7.045-3.874-1.613Z"/><path fill="#BC775C" d="m488.289 499.257 20.58-40.52s-12.529 1.637-14.712-6.139c-2.184-7.777 59.21-14.735 59.21-14.735s-4.912 17.191-12.279 19.237l-20.26 59.347-32.539-17.19Z"/><path fill="#93523E" d="m491.355 493.221 32.146 15.399-2.673 7.827-31.239-19.748 1.766-3.478Z"/><path fill="#FEBB94" d="m687.356 282.407-295.917 48.442c-5.077.831-8.52 5.621-7.688 10.699l19.323 118.038c.831 5.077 5.621 8.52 10.699 7.689l295.916-48.443c5.078-.831 8.52-5.621 7.689-10.699l-19.323-118.038c-.831-5.077-5.621-8.52-10.699-7.688Z"/><path stroke="#fff" stroke-linecap="round" stroke-miterlimit="10" stroke-width="16.5208" d="m536.14 356.417 120.263-19.688"/><path stroke="#fff" stroke-linecap="round" stroke-miterlimit="10" stroke-width="16.5208" d="m544.684 392.933 78.451-12.843" opacity=".7"/><path stroke="#EF6A77" stroke-miterlimit="10" stroke-width="16.5208" d="M464.252 436.958c23.491 0 42.534-19.043 42.534-42.533 0-23.491-19.043-42.534-42.534-42.534-23.49 0-42.533 19.043-42.533 42.534 0 23.49 19.043 42.533 42.533 42.533Z"/><path stroke="#fff" stroke-linecap="round" stroke-miterlimit="10" stroke-width="16.5208" d="M506.227 387.553c1.359 8.302.226 16.82-3.256 24.478-3.482 7.658-9.157 14.111-16.307 18.544-7.15 4.432-15.454 6.645-23.861 6.359-8.408-.287-16.541-3.06-23.372-7.97-6.832-4.909-12.054-11.734-15.006-19.611-2.953-7.877-3.503-16.453-1.582-24.643 1.921-8.19 6.228-15.626 12.376-21.369 6.148-5.742 13.86-9.532 22.162-10.891"/><path fill="#5661AE" d="m478.112 712.926 12.275 138.934c0 29.782-30.387 33.17-40.115 29.66-13.721-4.951-146.617-38.783-146.617-38.783l14.084-43.136 101.998 14.177s-2.789-28.945-30.141-117.33l88.516 16.478Z"/><path fill="#465393" d="m398.709 727.062 82.703 23.221-4.65-55.789-87.166 1.954 9.113 30.614Z"/><path fill="#BC775C" d="M476.911 408.531s16.378 18.592 21.247 26.117c4.87 7.525 5.044 22.284-5.137 26.046-10.18 3.763-18.508 4.395-33.373 1.619-11.565-2.16-26.559-21.247-22.132-30.985 4.426-9.738 25.009-27.444 39.395-22.797Z"/><path fill="#BC775C" d="m480.01 460.542-2.435 31.428-35.633-7.746 15.936-29.657 22.132 5.975Z"/><path fill="#93523E" d="M480.01 463.813h-9.688l8.288 14.798"/><path fill="url(#d)" d="m437.959 482.232 5.314-5.148c.69-.669 1.537-1.153 2.463-1.407.926-.255 1.901-.273 2.836-.051l29.137 6.9c.702.166 1.348.512 1.877 1.002.528.491.92 1.11 1.138 1.797l2.106 6.645-44.871-9.738Z"/><path fill="#5661AE" d="m391.81 641.13-5.216 25.269c-5.872 38.548 21.765 64.046 64.004 57.097 37.722-6.206 149.461-49.529 149.461-49.529l-4.453-68.565-93.937 15.498s-84.434-15.643-109.859 20.23Z"/><path fill="#5661AE" d="M602.603 665.363c16.783 0 30.388-13.605 30.388-30.387 0-16.783-13.605-30.388-30.388-30.388-16.782 0-30.387 13.605-30.387 30.388 0 16.782 13.605 30.387 30.387 30.387Z"/><path fill="#5661AE" d="M602.603 665.363c16.783 0 30.388-13.605 30.388-30.387 0-16.783-13.605-30.388-30.388-30.388-16.782 0-30.387 13.605-30.387 30.388 0 16.782 13.605 30.387 30.387 30.387ZM460 883.12c16.783 0 30.387-13.605 30.387-30.387 0-16.783-13.604-30.388-30.387-30.388-16.782 0-30.387 13.605-30.387 30.388 0 16.782 13.605 30.387 30.387 30.387Z"/><path fill="#5661AE" d="M631.508 643.757 588.79 825.373h-51.091l34.517-190.397 59.292 8.781Z"/><path fill="#465393" d="m501.669 620.901-112.512 35.015 2.653-14.786 109.859-20.229Z"/><path fill="#BC775C" d="m526.917 518.306 11.179 8.133 37.329-61.272s-4.97-20.069-5.312-23.486l12.146-1.732s9.837-18.541 12.642-22.209c2.804-3.667 6.04-3.02 7.766 0 0 0 5.393.863 6.256 8.198 0 0 4.746 1.079 6.687 10.57 0 0 4.099 4.315 3.236 9.061-.863 4.746-11.649 23.346-13.375 25.264-1.329 1.564-2.554 3.213-3.667 4.937l-35.953 86.153s-8.785 18.844-29.373 11.697l-25.524-11.829c-11.716-7.591 15.963-43.485 15.963-43.485Z"/><path fill="#BC775C" d="M545.732 575.848c11.867 0 21.488-9.621 21.488-21.488 0-11.868-9.621-21.489-21.488-21.489-11.868 0-21.489 9.621-21.489 21.489 0 11.867 9.621 21.488 21.489 21.488Z"/><path fill="#465393" d="M455.664 424.024s21.026-7.082 25.231-21.911c4.205-14.829-4.647-22.575-16.156-15.05 0 0-8.189-13.058-22.133-3.984-13.943 9.075-11.287 30.543-10.844 34.748 0 0-15.714 11.066-8.189 28.551 7.525 17.484 28.173 21.689 28.173 21.689 2.279-3.275 3.91-6.956 4.804-10.844 0 0-11.379-8.632-4.804-17.042 6.574-8.411 14.099 5.09 14.099 5.09s5.755-19.034-10.181-21.247Z"/><path fill="url(#e)" d="M437.959 482.232s-14.597 7.258-17.903 15.074c-3.056 7.222-24.308 102.08-30.816 140.265-.156.906-.086 1.836.202 2.708.288.873.787 1.661 1.451 2.296.664.635 1.474 1.097 2.359 1.345.884.249 1.816.276 2.714.08l105.703-23.1s-5.17-55.554-3.358-71.858c1.811-16.304-15.481-57.072-15.481-57.072l-44.871-9.738Z"/><path fill="#96BAFD" d="m497.936 556.729-26.649-15.837 27.729 45.615-1.08-29.778Z"/><path fill="#93523E" d="m538.096 526.438 7.76 5.409 7.511-30.474-15.271 25.065Z"/><path fill="url(#f)" d="M482.83 491.97s42.415 23.187 47.565 26.989c.668.493 1.137 1.208 1.324 2.016.187.809.079 1.657-.305 2.393l-19.481 37.403c-.218.42-.52.791-.888 1.09-.367.299-.791.521-1.246.65-.456.13-.933.165-1.403.104-.469-.061-.921-.218-1.329-.46l-49.438-29.38s-2.63-39.108 25.201-40.805Z"/><path fill="#080B09" d="M477.419 436.42c1.016-.759.901-2.632-.257-4.183-1.159-1.552-2.922-2.194-3.938-1.435-1.017.759-.901 2.632.257 4.183 1.158 1.551 2.921 2.194 3.938 1.435ZM491.357 425.873c1.016-.759.901-2.632-.257-4.183-1.159-1.552-2.922-2.194-3.938-1.435-1.017.759-.901 2.632.257 4.183 1.158 1.551 2.921 2.194 3.938 1.435Z"/><path stroke="#93523E" stroke-linecap="round" stroke-linejoin="round" stroke-width="1.20877" d="M485.714 428.762s-.241 4.588 2.57 3.38c2.645-1.246 4.905-.388 3.248 3.094"/><path fill="#fff" d="M492.461 438.51c-1.596.869-4.789 2.605-6.896 3.796-.127.071-.233.174-.305.3-.072.127-.109.27-.105.415.003.146.047.287.125.41.078.122.189.221.319.285 2.955 1.276 9.283 3.134 7.955-4.61-.001-.127-.036-.251-.101-.36-.066-.109-.159-.198-.27-.259-.112-.06-.237-.09-.364-.086-.127.004-.25.042-.358.109Z"/><path fill="#080B09" d="m465.432 431.834.296.242c.401.39.94.606 1.499.6.559-.006 1.094-.233 1.486-.631l6.57-7.023c.332-.327.529-.766.552-1.231.023-.466-.129-.923-.427-1.281-.172-.228-.39-.417-.64-.554-.251-.138-.528-.22-.812-.243-.285-.022-.571.016-.84.112-.269.097-.515.249-.72.447l-6.866 6.781c-.193.174-.349.385-.459.62-.11.235-.171.49-.18.75-.01.259.034.518.127.761.093.242.233.463.414.65ZM489.309 411.905l-9.035 3.39c-.266.104-.507.263-.707.466-.2.204-.355.448-.454.716-.099.268-.14.554-.12.839.02.285.1.562.235.814.2.42.551.75.983.924.432.174.914.179 1.35.015l9.13-3.02c.526-.189.956-.579 1.196-1.085.239-.505.27-1.085.084-1.612l-.096-.37c-.094-.243-.236-.463-.417-.649s-.398-.334-.637-.434c-.24-.101-.497-.152-.757-.151-.259.001-.516.055-.755.157Z"/><path fill="#FEBB94" d="m1182.77 257.634-78.1 60.738h151.14l-73.04-60.738Z"/><path fill="#FCBA9F" d="M935.491 569.565s-28.64-25.001-51.925-3.755c-23.286 21.245-119.492 167.139-119.492 167.139l29.098 20.123 109.13-122.728 18.996 30.576 14.193-91.355Z"/><path fill="#5661AE" fill-rule="evenodd" d="M916.006 848.723c11.996-8.766 24.361-17.802 37.382-20.72.293-.067.597-.069.892-.007.294.062.571.188.812.368.241.18.44.41.583.675.143.265.227.557.245.857l1.427 24.158c.029.498-.122.989-.427 1.383-.305.395-.742.665-1.231.761l-89.197 17.63c-6.577 1.3-10.795-1.56-12.818-6.639-.066-.175-.08-.366-.041-.549.039-.183.131-.351.263-.484.133-.132.301-.224.484-.263.183-.04.374-.026.549.04 11.717 4.304 24.653 3.853 36.041-1.259 8.228-3.668 16.539-9.742 25.036-15.951Z" clip-rule="evenodd"/><path fill="#FFCCB3" fill-rule="evenodd" d="M943.379 769.577s1.689 38.128 2.579 42.007c.612 2.12 1.38 4.192 2.296 6.199 1.529 3.644 3.232 7.705 3.388 10.656-12.381 3.298-24.177 11.916-35.635 20.288-8.497 6.208-16.807 12.279-25.036 15.947-10.838 4.864-23.1 5.519-34.395 1.836-1.551-6.591 2.951-13.887 14.308-17.174 20.356-5.891 31.48-9.625 38.578-26.651 5.044-12.099-3.404-54.22-3.404-54.22l37.321 1.112Z" clip-rule="evenodd"/><path fill="#fff" fill-rule="evenodd" d="M910.353 816.248c4.003-.246 19.907-1.293 35.133-3.284 2.959-.386 5.6 5.171 4.336 8.706-.827 2.581-1.445 5.225-1.847 7.906-4.968 1.816-9.734 4.141-14.224 6.938.921-6.299-2.921-9.088-8.629-8.801-4.509.227-14.694 3.091-19.945 4.646-.289.085-.596.085-.884.002-.289-.084-.548-.249-.747-.475-.198-.226-.328-.504-.373-.802-.045-.297-.005-.601.117-.876l5.718-13.019c.116-.266.303-.494.54-.66.238-.166.516-.263.805-.281ZM868.236 868.758c10.362.811 16.63-1.883 16.63-1.883l-4.17-21.095-16.213 3.989 3.753 18.989Z" clip-rule="evenodd"/><path fill="#5661AE" fill-rule="evenodd" d="M738.3 772.563c14.816 1.104 30.088 2.243 41.893 8.464.267.139.5.335.684.573.184.238.313.513.38.807.067.293.069.597.006.891-.063.295-.189.572-.369.812l-14.578 19.317c-.3.398-.734.673-1.222.776-.487.102-.996.025-1.43-.219l-79.337-44.413c-5.85-3.275-7.207-8.188-5.454-13.366.063-.176.176-.33.325-.444.149-.114.327-.183.514-.198.187-.015.374.024.539.113.165.088.301.223.392.387 6.129 10.874 16.27 18.918 28.254 22.41 8.643 2.543 18.908 3.308 29.403 4.09Z" clip-rule="evenodd"/><path fill="#FCBA9F" fill-rule="evenodd" d="m810.457 730.057-25.274 33.652c-.908 2.011-1.667 4.086-2.271 6.209-1.199 3.766-2.536 7.961-4.33 10.309-11.565-5.517-26.133-6.604-40.284-7.661-10.494-.783-20.757-1.549-29.4-4.092-11.405-3.325-21.164-10.777-27.375-20.904 3.092-6.023 11.251-8.659 22.028-3.797 19.317 8.714 30.207 13.084 46.649 4.724 2.65-1.56 5.025-3.546 7.029-5.877l25.536-37.608 27.692 25.045Z" clip-rule="evenodd"/><path fill="#fff" fill-rule="evenodd" d="M755.053 744.175c3.207 2.408 15.993 11.922 28.876 20.279 2.503 1.625.91 7.568-2.344 9.44-2.303 1.428-4.488 3.04-6.532 4.821-4.959-1.839-10.096-3.159-15.327-3.941 4.785-4.198 3.669-8.813-.864-12.295-3.579-2.751-13.19-7.175-18.196-9.396-.275-.122-.509-.321-.674-.572-.166-.251-.256-.544-.261-.845-.004-.301.078-.597.236-.853.158-.255.386-.461.658-.591l12.794-6.204c.26-.127.551-.179.839-.152.288.028.563.135.795.309ZM688.942 756.842c7.363 7.336 13.881 9.349 13.881 9.349l10.504-18.764-14.93-7.475-9.455 16.89Z" clip-rule="evenodd"/><path fill="#FFCCB3" d="m974.766 551.425-75.516 13.416 14.864 59.777h48.372s22.994-49.423 12.28-73.193Z"/><path fill="#FFCCB3" d="M908.929 624.033c16.782 0 30.387-13.604 30.387-30.387 0-16.782-13.605-30.387-30.387-30.387-16.783 0-30.388 13.605-30.388 30.387 0 16.783 13.605 30.387 30.388 30.387Z"/><path fill="#FFCCB3" d="m878.918 598.434 30.407 190.392 35.072 1.464-4.095-188.203-61.384-3.653Z"/><path fill="#FF967C" d="M926.553 556.662s11.638 3.584 16.442 22.566c4.804 18.981-.438 45.39-.438 45.39h7.484s26.684-31.336 7.052-71.273l-30.54 3.317Z"/><path fill="#5661AE" d="m999.978 393.847-9.505 4.56c-3.645 1.749-6.858 4.281-9.411 7.415-2.553 3.135-4.383 6.794-5.358 10.717l-21.487 86.456-48.442 23.162 11.044 17.541 91.591-3.248-8.432-146.603Z"/><path fill="#465393" d="M986.29 424.97s-16.679 23.433-8.608 45.751c8.071 22.319 4.776 26.457 2.757 46.23-2.018 19.772 4.573 15.174 4.573 15.174l23.398-11.036s9.76-93.529-22.12-96.119Z"/><path fill="#1F2D49" d="M1084.42 532.589s9.25 45.256-2.87 64.168c-15.34 23.938-34.1 27.604-47.97 27.861h-91.023s-.168-56.787-45.01-66.489c0 0 147.583-41.103 186.873-25.54Z"/><path fill="#0D1B33" d="m1086.46 545.767-96.466 3.176 1.026-6.738 18.8-2.173h76.5l.14 5.735Z"/><path fill="#FFCCB3" d="M961.697 524.562s-11.801 3.43-17.102 4.989c-5.301 1.559-15.783 5.302-15.783 5.302l7.675 10.914 34.782-2.069-9.572-19.136Z"/><path fill="#5661AE" d="M1018.88 385.776s-19.805 7.838-22.83 10.257c-3.024 2.42-5.896 22.166-11.038 31.542-5.141 9.376-12.663 26.681-1.677 42.576 10.986 15.896 9.818 28.518 9.818 28.518l-2.338 39.874 91.645 2.788c.83.026 1.66-.125 2.43-.444.77-.318 1.47-.796 2.04-1.403.57-.607 1.01-1.329 1.28-2.117s.37-1.625.3-2.456c-1.05-11.626-2.82-28.994-3.2-47.506-.51-25.088-.89-108.917-.89-108.917l-41.25-1.294c-8.3 1.432-24.29 8.582-24.29 8.582Z"/><path fill="#5661AE" d="M1084.42 422.995c12.29 0 22.25-9.963 22.25-22.253 0-12.29-9.96-22.254-22.25-22.254s-22.25 9.964-22.25 22.254c0 12.29 9.96 22.253 22.25 22.253Z"/><path fill="#465393" d="M1087.42 525.717s-1.9 6.957-22.25 15.088c0 0-47.71-1.037-71.413-.539-23.703.499 2.541-5.754 15.773-12.351 13.23-6.597 76.39-24.92 76.39-24.92l1.5 22.722ZM1068.19 412.756s-13.8 12.58-14.61 21.914c-.82 9.334-2.69 35.36-20.42 37.956-21.74 3.182-27.43 6.28-17.35 8.715 10.07 2.435 32.94-1.511 32.94 8.928 0 7.428 8.88 12.986 13.35 8.928 4.46-4.058 40.02-65.744 6.09-86.441Z"/><path fill="#5661AE" d="M1106.43 403.998c-1.87 8.93-19.67 103.01-19.67 103.01s-2.34 14.074-16.09 17.554l-95.904 24.381-16.875-25.313 86.979-29.746 17.3-93.142s46.76-8.657 44.26 3.256Z"/><path fill="#FFCCB3" d="m1016.65 368.45.91 30.873s-.24 5.326 6.22 4.608c6.47-.718 19.48-5.552 23.07-11.777 3.59-6.226 1.32-8.361 1.32-8.361l-19.73-38.461-11.79 23.118Z"/><path fill="#FF967C" d="m1016.65 372.038 8.08-9.579-7.39 29.47-.69-19.891Z"/><path fill="#080B09" d="M1023.85 292.35c-.35-5.89.93-11.763 3.71-16.97 4.6-8.308 14.14-19.798 28.64-14.848 14.49 4.949 25.1 16.086 19.62 31.818-5.48 15.733-20.7 20.767-28.46 19.091-7.76-1.676-23.51-19.091-23.51-19.091Z"/><path fill="#FEBB94" d="M1019.18 294.538c.84-1.408 2.08-2.523 3.58-3.193 1.49-.67 3.15-.862 4.76-.549 5.74 1.056 11.77 5.585 16.91 11.018 5.13 5.434 4.96 9.378 2.63 11.783-2.33 2.406-27.88-19.059-27.88-19.059Z"/><path fill="#fff" d="m892.038 452.055 36.774 101.88h73.938c0-3.111-1.24-6.095-3.436-8.294-2.199-2.2-5.183-3.436-8.294-3.436h-53.491l-31.754-90.15h-13.737Z"/><path fill="#D4DCF4" d="M892.038 452.055h-99.202l38.365 101.88h97.611l-36.774-101.88Z"/><path fill="#fff" d="M860.824 515.022c4.941 0 8.946-4.006 8.946-8.947 0-4.94-4.005-8.946-8.946-8.946s-8.946 4.006-8.946 8.946c0 4.941 4.005 8.947 8.946 8.947Z"/><path fill="#FFCCB3" d="M976.496 330.488s3.059 29.55 17.436 43.005c9.378 8.774 17.978 6.527 30.798-11.034 11.75-16.102 12.78-23.932 12.78-23.932l-12.42-27.952s-50.055-7.124-48.594 19.913Z"/><path fill="#080B09" d="M981.584 324.703s7.074 11.26 20.026 11.442c2.72 2.221 5.95 3.707 9.4 4.314 3.46.607 7.01.316 10.31-.847 0 0-5.16-7.837 0-10.584 8.78-4.664 11.8 10.888 7.12 16.304-3.18 3.681.18 7.967 2.55 11.799 2.38 3.833 10.04 13.322 10.04 13.322s-.73-5.475 2.74-9.489c3.47-4.015 14.71-45.117-6.18-60.237-20.89-15.119-42.882-3.024-47.005 0 0 0-21.953 3.834-21.992 26.665-.033 19.518 13.858 24.161 13.858 24.161l-4.146-15.754s2.564.274 3.279-11.096Z"/><path fill="#E56441" d="M1004.93 361.101s1.62 5.065-3.88 7.418c-3.717 1.222-6.313-2.417-6.313-2.417l10.193-5.001Z"/><path fill="#080B09" d="M985.67 353.673c1.144-.282 1.734-1.878 1.317-3.564-.416-1.686-1.68-2.823-2.824-2.541-1.144.283-1.734 1.878-1.318 3.564.416 1.686 1.681 2.823 2.825 2.541ZM1002.63 349.742c1.14-.282 1.73-1.877 1.32-3.563-.42-1.686-1.68-2.824-2.83-2.541-1.142.282-1.732 1.878-1.315 3.563.415 1.686 1.685 2.824 2.825 2.541ZM979.09 344.583l8.631-1.981c.144-.046.266-.143.344-.272.078-.129.107-.282.081-.431-.096-.254-.243-.486-.431-.681-.188-.196-.413-.352-.663-.458-.25-.106-.518-.16-.79-.159-.271 0-.539.056-.789.163l-6.768 2.867c-.563.139-.32 1.126.385.952ZM1008.07 336.858l-11.241 3.522c-.075-.351-.076-.713-.002-1.065.073-.351.22-.683.43-.974.209-.291.478-.535.788-.717.31-.181.654-.295 1.011-.335l8.984-1.171c.28-.069.45.635.03.74Z"/><path stroke="#E56441" stroke-linecap="round" stroke-width=".94666" d="m991.723 348.036-1.219 9.101 3.214 1.552"/><path stroke="#5661AE" stroke-miterlimit="10" d="M1182.77 257.634V121"/></g><defs><linearGradient id="b" x1="702" x2="780.214" y1="207.473" y2="1274.53" gradientUnits="userSpaceOnUse"><stop stop-color="#fff"/><stop offset="1" stop-color="#94B9FF"/></linearGradient><linearGradient id="c" x1="881.121" x2="985.455" y1="622.498" y2="1166.69" gradientUnits="userSpaceOnUse"><stop stop-color="#fff"/><stop offset="1" stop-color="#94B9FF"/></linearGradient><linearGradient id="d" x1="459.277" x2="460.686" y1="475.433" y2="510.768" gradientUnits="userSpaceOnUse"><stop stop-color="#fff"/><stop offset="1" stop-color="#94B9FF"/></linearGradient><linearGradient id="e" x1="442.613" x2="495.506" y1="481.847" y2="820.887" gradientUnits="userSpaceOnUse"><stop stop-color="#fff"/><stop offset="1" stop-color="#94B9FF"/></linearGradient><linearGradient id="f" x1="492.837" x2="508.319" y1="491.802" y2="641.809" gradientUnits="userSpaceOnUse"><stop stop-color="#fff"/><stop offset="1" stop-color="#94B9FF"/></linearGradient><clipPath id="a"><path fill="#fff" d="M184 121h1071.81v782.7H184z"/></clipPath></defs></svg>